G04 #@! TF.GenerationSoftware,KiCad,Pcbnew,(5.0.2)-1*
G04 #@! TF.CreationDate,2019-01-15T12:25:10+01:00*
G04 #@! TF.ProjectId,ATtiny44_DevBoard,41547469-6e79-4343-945f-446576426f61,rev?*
G04 #@! TF.SameCoordinates,Original*
G04 #@! TF.FileFunction,Copper,L2,Bot*
G04 #@! TF.FilePolarity,Positive*
%FSLAX46Y46*%
G04 Gerber Fmt 4.6, Leading zero omitted, Abs format (unit mm)*
G04 Created by KiCad (PCBNEW (5.0.2)-1) date 15/01/2019 12:25:10*
%MOMM*%
%LPD*%
G01*
G04 APERTURE LIST*
G04 #@! TA.AperFunction,ComponentPad*
%ADD10C,5.400000*%
G04 #@! TD*
G04 #@! TA.AperFunction,ComponentPad*
%ADD11C,0.800000*%
G04 #@! TD*
G04 #@! TA.AperFunction,ComponentPad*
%ADD12O,1.700000X1.700000*%
G04 #@! TD*
G04 #@! TA.AperFunction,ComponentPad*
%ADD13R,1.700000X1.700000*%
G04 #@! TD*
G04 #@! TA.AperFunction,ComponentPad*
%ADD14C,1.500000*%
G04 #@! TD*
G04 #@! TA.AperFunction,ViaPad*
%ADD15C,0.762000*%
G04 #@! TD*
G04 #@! TA.AperFunction,ViaPad*
%ADD16C,0.889000*%
G04 #@! TD*
G04 #@! TA.AperFunction,Conductor*
%ADD17C,0.254000*%
G04 #@! TD*
G04 APERTURE END LIST*
D10*
G04 #@! TO.P,REF\002A\002A,1*
G04 #@! TO.N,GND*
X128016000Y-108712000D03*
D11*
X130041000Y-108712000D03*
X129447891Y-110143891D03*
X128016000Y-110737000D03*
X126584109Y-110143891D03*
X125991000Y-108712000D03*
X126584109Y-107280109D03*
X128016000Y-106687000D03*
X129447891Y-107280109D03*
G04 #@! TD*
G04 #@! TO.P,REF\002A\002A,1*
G04 #@! TO.N,GND*
X129447891Y-72228109D03*
X128016000Y-71635000D03*
X126584109Y-72228109D03*
X125991000Y-73660000D03*
X126584109Y-75091891D03*
X128016000Y-75685000D03*
X129447891Y-75091891D03*
X130041000Y-73660000D03*
D10*
X128016000Y-73660000D03*
G04 #@! TD*
G04 #@! TO.P,REF\002A\002A,1*
G04 #@! TO.N,GND*
X168656000Y-73660000D03*
D11*
X170681000Y-73660000D03*
X170087891Y-75091891D03*
X168656000Y-75685000D03*
X167224109Y-75091891D03*
X166631000Y-73660000D03*
X167224109Y-72228109D03*
X168656000Y-71635000D03*
X170087891Y-72228109D03*
G04 #@! TD*
D12*
G04 #@! TO.P,J1,8*
G04 #@! TO.N,/MOSI*
X129286000Y-101092000D03*
G04 #@! TO.P,J1,7*
G04 #@! TO.N,/PA7*
X129286000Y-98552000D03*
G04 #@! TO.P,J1,6*
G04 #@! TO.N,/PB2*
X129286000Y-96012000D03*
G04 #@! TO.P,J1,5*
G04 #@! TO.N,/~RESET*
X129286000Y-93472000D03*
G04 #@! TO.P,J1,4*
G04 #@! TO.N,/XTAL2*
X129286000Y-90932000D03*
G04 #@! TO.P,J1,3*
G04 #@! TO.N,/XTAL1*
X129286000Y-88392000D03*
G04 #@! TO.P,J1,2*
G04 #@! TO.N,VCC*
X129286000Y-85852000D03*
D13*
G04 #@! TO.P,J1,1*
X129286000Y-83312000D03*
G04 #@! TD*
G04 #@! TO.P,J2,1*
G04 #@! TO.N,/MISO*
X151511000Y-103632000D03*
D12*
G04 #@! TO.P,J2,2*
G04 #@! TO.N,VCC*
X151511000Y-106172000D03*
G04 #@! TO.P,J2,3*
G04 #@! TO.N,/USCK*
X148971000Y-103632000D03*
G04 #@! TO.P,J2,4*
G04 #@! TO.N,/MOSI*
X148971000Y-106172000D03*
G04 #@! TO.P,J2,5*
G04 #@! TO.N,/~RESET*
X146431000Y-103632000D03*
G04 #@! TO.P,J2,6*
G04 #@! TO.N,GND*
X146431000Y-106172000D03*
G04 #@! TD*
D13*
G04 #@! TO.P,J3,1*
G04 #@! TO.N,GND*
X167386000Y-83312000D03*
D12*
G04 #@! TO.P,J3,2*
X167386000Y-85852000D03*
G04 #@! TO.P,J3,3*
G04 #@! TO.N,/PA0*
X167386000Y-88392000D03*
G04 #@! TO.P,J3,4*
G04 #@! TO.N,/PA1*
X167386000Y-90932000D03*
G04 #@! TO.P,J3,5*
G04 #@! TO.N,/PA2*
X167386000Y-93472000D03*
G04 #@! TO.P,J3,6*
G04 #@! TO.N,/PA3*
X167386000Y-96012000D03*
G04 #@! TO.P,J3,7*
G04 #@! TO.N,/USCK*
X167386000Y-98552000D03*
G04 #@! TO.P,J3,8*
G04 #@! TO.N,/MISO*
X167386000Y-101092000D03*
G04 #@! TD*
D14*
G04 #@! TO.P,Y1,1*
G04 #@! TO.N,/XTAL1*
X150876000Y-75692000D03*
G04 #@! TO.P,Y1,2*
G04 #@! TO.N,/XTAL2*
X155756000Y-75692000D03*
G04 #@! TD*
D11*
G04 #@! TO.P,REF\002A\002A,1*
G04 #@! TO.N,GND*
X170087891Y-107280109D03*
X168656000Y-106687000D03*
X167224109Y-107280109D03*
X166631000Y-108712000D03*
X167224109Y-110143891D03*
X168656000Y-110737000D03*
X170087891Y-110143891D03*
X170681000Y-108712000D03*
D10*
X168656000Y-108712000D03*
G04 #@! TD*
D15*
G04 #@! TO.N,GND*
X149352000Y-84582000D03*
X146304000Y-82042000D03*
X143510000Y-82042000D03*
X143510000Y-80264000D03*
X146304000Y-80264000D03*
X154686000Y-87884000D03*
X156210000Y-84582000D03*
X156972000Y-87884000D03*
X158496000Y-84582000D03*
X154686000Y-86106000D03*
X156972000Y-86106000D03*
X164592000Y-83312000D03*
X164592000Y-85090000D03*
X164592000Y-86868000D03*
X169926000Y-86868000D03*
X169926000Y-85090000D03*
X169926000Y-83312000D03*
X167386000Y-80264000D03*
X165354000Y-80264000D03*
X169418000Y-80264000D03*
X137160000Y-83312000D03*
X137160000Y-80772000D03*
X137160000Y-78232000D03*
X140208000Y-78232000D03*
X148844000Y-78740000D03*
X157988000Y-78740000D03*
X161036000Y-81788000D03*
X158496000Y-101600000D03*
X156972000Y-101600000D03*
X160020000Y-101600000D03*
D16*
X137414000Y-99822000D03*
X137414000Y-98171000D03*
X137414000Y-101600000D03*
G04 #@! TD*
D17*
G04 #@! TO.N,GND*
G36*
X166772284Y-70829117D02*
X166761472Y-70836341D01*
X166455414Y-71279809D01*
X168656000Y-73480395D01*
X168670143Y-73466253D01*
X168849748Y-73645858D01*
X168835605Y-73660000D01*
X171036191Y-75860586D01*
X171479659Y-75554528D01*
X171756000Y-74890973D01*
X171756001Y-107481522D01*
X171486883Y-106828284D01*
X171479659Y-106817472D01*
X171036191Y-106511414D01*
X168835605Y-108712000D01*
X168849748Y-108726143D01*
X168670143Y-108905748D01*
X168656000Y-108891605D01*
X166455414Y-111092191D01*
X166761472Y-111535659D01*
X167425027Y-111812000D01*
X129246481Y-111812000D01*
X129899716Y-111542883D01*
X129910528Y-111535659D01*
X130216586Y-111092191D01*
X128016000Y-108891605D01*
X128001858Y-108905748D01*
X127822253Y-108726143D01*
X127836395Y-108712000D01*
X128195605Y-108712000D01*
X130396191Y-110912586D01*
X130839659Y-110606528D01*
X131349725Y-109381748D01*
X131349749Y-109368995D01*
X165319738Y-109368995D01*
X165825117Y-110595716D01*
X165832341Y-110606528D01*
X166275809Y-110912586D01*
X168476395Y-108712000D01*
X166275809Y-106511414D01*
X165832341Y-106817472D01*
X165322275Y-108042252D01*
X165319738Y-109368995D01*
X131349749Y-109368995D01*
X131352262Y-108055005D01*
X130846883Y-106828284D01*
X130839659Y-106817472D01*
X130421517Y-106528892D01*
X144989514Y-106528892D01*
X145235817Y-107053358D01*
X145664076Y-107443645D01*
X146074110Y-107613476D01*
X146304000Y-107492155D01*
X146304000Y-106299000D01*
X145110181Y-106299000D01*
X144989514Y-106528892D01*
X130421517Y-106528892D01*
X130396191Y-106511414D01*
X128195605Y-108712000D01*
X127836395Y-108712000D01*
X125635809Y-106511414D01*
X125192341Y-106817472D01*
X124916000Y-107481027D01*
X124916000Y-106331809D01*
X125815414Y-106331809D01*
X128016000Y-108532395D01*
X130216586Y-106331809D01*
X129910528Y-105888341D01*
X128685748Y-105378275D01*
X127359005Y-105375738D01*
X126132284Y-105881117D01*
X126121472Y-105888341D01*
X125815414Y-106331809D01*
X124916000Y-106331809D01*
X124916000Y-103632000D01*
X144916908Y-103632000D01*
X145032161Y-104211418D01*
X145360375Y-104702625D01*
X145660786Y-104903353D01*
X145235817Y-105290642D01*
X144989514Y-105815108D01*
X145110181Y-106045000D01*
X146304000Y-106045000D01*
X146304000Y-106025000D01*
X146558000Y-106025000D01*
X146558000Y-106045000D01*
X146578000Y-106045000D01*
X146578000Y-106299000D01*
X146558000Y-106299000D01*
X146558000Y-107492155D01*
X146787890Y-107613476D01*
X147197924Y-107443645D01*
X147626183Y-107053358D01*
X147687157Y-106923522D01*
X147900375Y-107242625D01*
X148391582Y-107570839D01*
X148824744Y-107657000D01*
X149117256Y-107657000D01*
X149550418Y-107570839D01*
X150041625Y-107242625D01*
X150241000Y-106944239D01*
X150440375Y-107242625D01*
X150931582Y-107570839D01*
X151364744Y-107657000D01*
X151657256Y-107657000D01*
X152090418Y-107570839D01*
X152581625Y-107242625D01*
X152909839Y-106751418D01*
X152993304Y-106331809D01*
X166455414Y-106331809D01*
X168656000Y-108532395D01*
X170856586Y-106331809D01*
X170550528Y-105888341D01*
X169325748Y-105378275D01*
X167999005Y-105375738D01*
X166772284Y-105881117D01*
X166761472Y-105888341D01*
X166455414Y-106331809D01*
X152993304Y-106331809D01*
X153025092Y-106172000D01*
X152909839Y-105592582D01*
X152581625Y-105101375D01*
X152563381Y-105089184D01*
X152608765Y-105080157D01*
X152818809Y-104939809D01*
X152959157Y-104729765D01*
X153008440Y-104482000D01*
X153008440Y-102782000D01*
X152959157Y-102534235D01*
X152818809Y-102324191D01*
X152608765Y-102183843D01*
X152361000Y-102134560D01*
X150661000Y-102134560D01*
X150413235Y-102183843D01*
X150203191Y-102324191D01*
X150062843Y-102534235D01*
X150053816Y-102579619D01*
X150041625Y-102561375D01*
X149550418Y-102233161D01*
X149117256Y-102147000D01*
X148824744Y-102147000D01*
X148391582Y-102233161D01*
X147900375Y-102561375D01*
X147701000Y-102859761D01*
X147501625Y-102561375D01*
X147010418Y-102233161D01*
X146577256Y-102147000D01*
X146284744Y-102147000D01*
X145851582Y-102233161D01*
X145360375Y-102561375D01*
X145032161Y-103052582D01*
X144916908Y-103632000D01*
X124916000Y-103632000D01*
X124916000Y-85852000D01*
X127771908Y-85852000D01*
X127887161Y-86431418D01*
X128215375Y-86922625D01*
X128513761Y-87122000D01*
X128215375Y-87321375D01*
X127887161Y-87812582D01*
X127771908Y-88392000D01*
X127887161Y-88971418D01*
X128215375Y-89462625D01*
X128513761Y-89662000D01*
X128215375Y-89861375D01*
X127887161Y-90352582D01*
X127771908Y-90932000D01*
X127887161Y-91511418D01*
X128215375Y-92002625D01*
X128513761Y-92202000D01*
X128215375Y-92401375D01*
X127887161Y-92892582D01*
X127771908Y-93472000D01*
X127887161Y-94051418D01*
X128215375Y-94542625D01*
X128513761Y-94742000D01*
X128215375Y-94941375D01*
X127887161Y-95432582D01*
X127771908Y-96012000D01*
X127887161Y-96591418D01*
X128215375Y-97082625D01*
X128513761Y-97282000D01*
X128215375Y-97481375D01*
X127887161Y-97972582D01*
X127771908Y-98552000D01*
X127887161Y-99131418D01*
X128215375Y-99622625D01*
X128513761Y-99822000D01*
X128215375Y-100021375D01*
X127887161Y-100512582D01*
X127771908Y-101092000D01*
X127887161Y-101671418D01*
X128215375Y-102162625D01*
X128706582Y-102490839D01*
X129139744Y-102577000D01*
X129432256Y-102577000D01*
X129865418Y-102490839D01*
X130356625Y-102162625D01*
X130684839Y-101671418D01*
X130800092Y-101092000D01*
X130684839Y-100512582D01*
X130356625Y-100021375D01*
X130058239Y-99822000D01*
X130356625Y-99622625D01*
X130684839Y-99131418D01*
X130800092Y-98552000D01*
X130684839Y-97972582D01*
X130356625Y-97481375D01*
X130058239Y-97282000D01*
X130356625Y-97082625D01*
X130684839Y-96591418D01*
X130800092Y-96012000D01*
X130684839Y-95432582D01*
X130356625Y-94941375D01*
X130058239Y-94742000D01*
X130356625Y-94542625D01*
X130684839Y-94051418D01*
X130800092Y-93472000D01*
X130684839Y-92892582D01*
X130356625Y-92401375D01*
X130058239Y-92202000D01*
X130356625Y-92002625D01*
X130684839Y-91511418D01*
X130800092Y-90932000D01*
X130684839Y-90352582D01*
X130356625Y-89861375D01*
X130058239Y-89662000D01*
X130356625Y-89462625D01*
X130684839Y-88971418D01*
X130800092Y-88392000D01*
X165871908Y-88392000D01*
X165987161Y-88971418D01*
X166315375Y-89462625D01*
X166613761Y-89662000D01*
X166315375Y-89861375D01*
X165987161Y-90352582D01*
X165871908Y-90932000D01*
X165987161Y-91511418D01*
X166315375Y-92002625D01*
X166613761Y-92202000D01*
X166315375Y-92401375D01*
X165987161Y-92892582D01*
X165871908Y-93472000D01*
X165987161Y-94051418D01*
X166315375Y-94542625D01*
X166613761Y-94742000D01*
X166315375Y-94941375D01*
X165987161Y-95432582D01*
X165871908Y-96012000D01*
X165987161Y-96591418D01*
X166315375Y-97082625D01*
X166613761Y-97282000D01*
X166315375Y-97481375D01*
X165987161Y-97972582D01*
X165871908Y-98552000D01*
X165987161Y-99131418D01*
X166315375Y-99622625D01*
X166613761Y-99822000D01*
X166315375Y-100021375D01*
X165987161Y-100512582D01*
X165871908Y-101092000D01*
X165987161Y-101671418D01*
X166315375Y-102162625D01*
X166806582Y-102490839D01*
X167239744Y-102577000D01*
X167532256Y-102577000D01*
X167965418Y-102490839D01*
X168456625Y-102162625D01*
X168784839Y-101671418D01*
X168900092Y-101092000D01*
X168784839Y-100512582D01*
X168456625Y-100021375D01*
X168158239Y-99822000D01*
X168456625Y-99622625D01*
X168784839Y-99131418D01*
X168900092Y-98552000D01*
X168784839Y-97972582D01*
X168456625Y-97481375D01*
X168158239Y-97282000D01*
X168456625Y-97082625D01*
X168784839Y-96591418D01*
X168900092Y-96012000D01*
X168784839Y-95432582D01*
X168456625Y-94941375D01*
X168158239Y-94742000D01*
X168456625Y-94542625D01*
X168784839Y-94051418D01*
X168900092Y-93472000D01*
X168784839Y-92892582D01*
X168456625Y-92401375D01*
X168158239Y-92202000D01*
X168456625Y-92002625D01*
X168784839Y-91511418D01*
X168900092Y-90932000D01*
X168784839Y-90352582D01*
X168456625Y-89861375D01*
X168158239Y-89662000D01*
X168456625Y-89462625D01*
X168784839Y-88971418D01*
X168900092Y-88392000D01*
X168784839Y-87812582D01*
X168456625Y-87321375D01*
X168137522Y-87108157D01*
X168267358Y-87047183D01*
X168657645Y-86618924D01*
X168827476Y-86208890D01*
X168706155Y-85979000D01*
X167513000Y-85979000D01*
X167513000Y-85999000D01*
X167259000Y-85999000D01*
X167259000Y-85979000D01*
X166065845Y-85979000D01*
X165944524Y-86208890D01*
X166114355Y-86618924D01*
X166504642Y-87047183D01*
X166634478Y-87108157D01*
X166315375Y-87321375D01*
X165987161Y-87812582D01*
X165871908Y-88392000D01*
X130800092Y-88392000D01*
X130684839Y-87812582D01*
X130356625Y-87321375D01*
X130058239Y-87122000D01*
X130356625Y-86922625D01*
X130684839Y-86431418D01*
X130800092Y-85852000D01*
X130684839Y-85272582D01*
X130356625Y-84781375D01*
X130338381Y-84769184D01*
X130383765Y-84760157D01*
X130593809Y-84619809D01*
X130734157Y-84409765D01*
X130783440Y-84162000D01*
X130783440Y-83597750D01*
X165901000Y-83597750D01*
X165901000Y-84288310D01*
X165997673Y-84521699D01*
X166176302Y-84700327D01*
X166385878Y-84787136D01*
X166114355Y-85085076D01*
X165944524Y-85495110D01*
X166065845Y-85725000D01*
X167259000Y-85725000D01*
X167259000Y-83439000D01*
X167513000Y-83439000D01*
X167513000Y-85725000D01*
X168706155Y-85725000D01*
X168827476Y-85495110D01*
X168657645Y-85085076D01*
X168386122Y-84787136D01*
X168595698Y-84700327D01*
X168774327Y-84521699D01*
X168871000Y-84288310D01*
X168871000Y-83597750D01*
X168712250Y-83439000D01*
X167513000Y-83439000D01*
X167259000Y-83439000D01*
X166059750Y-83439000D01*
X165901000Y-83597750D01*
X130783440Y-83597750D01*
X130783440Y-82462000D01*
X130758316Y-82335690D01*
X165901000Y-82335690D01*
X165901000Y-83026250D01*
X166059750Y-83185000D01*
X167259000Y-83185000D01*
X167259000Y-81985750D01*
X167513000Y-81985750D01*
X167513000Y-83185000D01*
X168712250Y-83185000D01*
X168871000Y-83026250D01*
X168871000Y-82335690D01*
X168774327Y-82102301D01*
X168595698Y-81923673D01*
X168362309Y-81827000D01*
X167671750Y-81827000D01*
X167513000Y-81985750D01*
X167259000Y-81985750D01*
X167100250Y-81827000D01*
X166409691Y-81827000D01*
X166176302Y-81923673D01*
X165997673Y-82102301D01*
X165901000Y-82335690D01*
X130758316Y-82335690D01*
X130734157Y-82214235D01*
X130593809Y-82004191D01*
X130383765Y-81863843D01*
X130136000Y-81814560D01*
X128436000Y-81814560D01*
X128188235Y-81863843D01*
X127978191Y-82004191D01*
X127837843Y-82214235D01*
X127788560Y-82462000D01*
X127788560Y-84162000D01*
X127837843Y-84409765D01*
X127978191Y-84619809D01*
X128188235Y-84760157D01*
X128233619Y-84769184D01*
X128215375Y-84781375D01*
X127887161Y-85272582D01*
X127771908Y-85852000D01*
X124916000Y-85852000D01*
X124916000Y-76040191D01*
X125815414Y-76040191D01*
X126121472Y-76483659D01*
X127346252Y-76993725D01*
X128672995Y-76996262D01*
X129899716Y-76490883D01*
X129910528Y-76483659D01*
X130216586Y-76040191D01*
X128016000Y-73839605D01*
X125815414Y-76040191D01*
X124916000Y-76040191D01*
X124916000Y-74890481D01*
X125185117Y-75543716D01*
X125192341Y-75554528D01*
X125635809Y-75860586D01*
X127836395Y-73660000D01*
X128195605Y-73660000D01*
X130396191Y-75860586D01*
X130839659Y-75554528D01*
X130897138Y-75416506D01*
X149491000Y-75416506D01*
X149491000Y-75967494D01*
X149701853Y-76476540D01*
X150091460Y-76866147D01*
X150600506Y-77077000D01*
X151151494Y-77077000D01*
X151660540Y-76866147D01*
X152050147Y-76476540D01*
X152261000Y-75967494D01*
X152261000Y-75416506D01*
X154371000Y-75416506D01*
X154371000Y-75967494D01*
X154581853Y-76476540D01*
X154971460Y-76866147D01*
X155480506Y-77077000D01*
X156031494Y-77077000D01*
X156540540Y-76866147D01*
X156930147Y-76476540D01*
X157110888Y-76040191D01*
X166455414Y-76040191D01*
X166761472Y-76483659D01*
X167986252Y-76993725D01*
X169312995Y-76996262D01*
X170539716Y-76490883D01*
X170550528Y-76483659D01*
X170856586Y-76040191D01*
X168656000Y-73839605D01*
X166455414Y-76040191D01*
X157110888Y-76040191D01*
X157141000Y-75967494D01*
X157141000Y-75416506D01*
X156930147Y-74907460D01*
X156540540Y-74517853D01*
X156055625Y-74316995D01*
X165319738Y-74316995D01*
X165825117Y-75543716D01*
X165832341Y-75554528D01*
X166275809Y-75860586D01*
X168476395Y-73660000D01*
X166275809Y-71459414D01*
X165832341Y-71765472D01*
X165322275Y-72990252D01*
X165319738Y-74316995D01*
X156055625Y-74316995D01*
X156031494Y-74307000D01*
X155480506Y-74307000D01*
X154971460Y-74517853D01*
X154581853Y-74907460D01*
X154371000Y-75416506D01*
X152261000Y-75416506D01*
X152050147Y-74907460D01*
X151660540Y-74517853D01*
X151151494Y-74307000D01*
X150600506Y-74307000D01*
X150091460Y-74517853D01*
X149701853Y-74907460D01*
X149491000Y-75416506D01*
X130897138Y-75416506D01*
X131349725Y-74329748D01*
X131352262Y-73003005D01*
X130846883Y-71776284D01*
X130839659Y-71765472D01*
X130396191Y-71459414D01*
X128195605Y-73660000D01*
X127836395Y-73660000D01*
X127822253Y-73645858D01*
X128001858Y-73466253D01*
X128016000Y-73480395D01*
X130216586Y-71279809D01*
X129910528Y-70836341D01*
X129551928Y-70687000D01*
X167117249Y-70687000D01*
X166772284Y-70829117D01*
X166772284Y-70829117D01*
G37*
X166772284Y-70829117D02*
X166761472Y-70836341D01*
X166455414Y-71279809D01*
X168656000Y-73480395D01*
X168670143Y-73466253D01*
X168849748Y-73645858D01*
X168835605Y-73660000D01*
X171036191Y-75860586D01*
X171479659Y-75554528D01*
X171756000Y-74890973D01*
X171756001Y-107481522D01*
X171486883Y-106828284D01*
X171479659Y-106817472D01*
X171036191Y-106511414D01*
X168835605Y-108712000D01*
X168849748Y-108726143D01*
X168670143Y-108905748D01*
X168656000Y-108891605D01*
X166455414Y-111092191D01*
X166761472Y-111535659D01*
X167425027Y-111812000D01*
X129246481Y-111812000D01*
X129899716Y-111542883D01*
X129910528Y-111535659D01*
X130216586Y-111092191D01*
X128016000Y-108891605D01*
X128001858Y-108905748D01*
X127822253Y-108726143D01*
X127836395Y-108712000D01*
X128195605Y-108712000D01*
X130396191Y-110912586D01*
X130839659Y-110606528D01*
X131349725Y-109381748D01*
X131349749Y-109368995D01*
X165319738Y-109368995D01*
X165825117Y-110595716D01*
X165832341Y-110606528D01*
X166275809Y-110912586D01*
X168476395Y-108712000D01*
X166275809Y-106511414D01*
X165832341Y-106817472D01*
X165322275Y-108042252D01*
X165319738Y-109368995D01*
X131349749Y-109368995D01*
X131352262Y-108055005D01*
X130846883Y-106828284D01*
X130839659Y-106817472D01*
X130421517Y-106528892D01*
X144989514Y-106528892D01*
X145235817Y-107053358D01*
X145664076Y-107443645D01*
X146074110Y-107613476D01*
X146304000Y-107492155D01*
X146304000Y-106299000D01*
X145110181Y-106299000D01*
X144989514Y-106528892D01*
X130421517Y-106528892D01*
X130396191Y-106511414D01*
X128195605Y-108712000D01*
X127836395Y-108712000D01*
X125635809Y-106511414D01*
X125192341Y-106817472D01*
X124916000Y-107481027D01*
X124916000Y-106331809D01*
X125815414Y-106331809D01*
X128016000Y-108532395D01*
X130216586Y-106331809D01*
X129910528Y-105888341D01*
X128685748Y-105378275D01*
X127359005Y-105375738D01*
X126132284Y-105881117D01*
X126121472Y-105888341D01*
X125815414Y-106331809D01*
X124916000Y-106331809D01*
X124916000Y-103632000D01*
X144916908Y-103632000D01*
X145032161Y-104211418D01*
X145360375Y-104702625D01*
X145660786Y-104903353D01*
X145235817Y-105290642D01*
X144989514Y-105815108D01*
X145110181Y-106045000D01*
X146304000Y-106045000D01*
X146304000Y-106025000D01*
X146558000Y-106025000D01*
X146558000Y-106045000D01*
X146578000Y-106045000D01*
X146578000Y-106299000D01*
X146558000Y-106299000D01*
X146558000Y-107492155D01*
X146787890Y-107613476D01*
X147197924Y-107443645D01*
X147626183Y-107053358D01*
X147687157Y-106923522D01*
X147900375Y-107242625D01*
X148391582Y-107570839D01*
X148824744Y-107657000D01*
X149117256Y-107657000D01*
X149550418Y-107570839D01*
X150041625Y-107242625D01*
X150241000Y-106944239D01*
X150440375Y-107242625D01*
X150931582Y-107570839D01*
X151364744Y-107657000D01*
X151657256Y-107657000D01*
X152090418Y-107570839D01*
X152581625Y-107242625D01*
X152909839Y-106751418D01*
X152993304Y-106331809D01*
X166455414Y-106331809D01*
X168656000Y-108532395D01*
X170856586Y-106331809D01*
X170550528Y-105888341D01*
X169325748Y-105378275D01*
X167999005Y-105375738D01*
X166772284Y-105881117D01*
X166761472Y-105888341D01*
X166455414Y-106331809D01*
X152993304Y-106331809D01*
X153025092Y-106172000D01*
X152909839Y-105592582D01*
X152581625Y-105101375D01*
X152563381Y-105089184D01*
X152608765Y-105080157D01*
X152818809Y-104939809D01*
X152959157Y-104729765D01*
X153008440Y-104482000D01*
X153008440Y-102782000D01*
X152959157Y-102534235D01*
X152818809Y-102324191D01*
X152608765Y-102183843D01*
X152361000Y-102134560D01*
X150661000Y-102134560D01*
X150413235Y-102183843D01*
X150203191Y-102324191D01*
X150062843Y-102534235D01*
X150053816Y-102579619D01*
X150041625Y-102561375D01*
X149550418Y-102233161D01*
X149117256Y-102147000D01*
X148824744Y-102147000D01*
X148391582Y-102233161D01*
X147900375Y-102561375D01*
X147701000Y-102859761D01*
X147501625Y-102561375D01*
X147010418Y-102233161D01*
X146577256Y-102147000D01*
X146284744Y-102147000D01*
X145851582Y-102233161D01*
X145360375Y-102561375D01*
X145032161Y-103052582D01*
X144916908Y-103632000D01*
X124916000Y-103632000D01*
X124916000Y-85852000D01*
X127771908Y-85852000D01*
X127887161Y-86431418D01*
X128215375Y-86922625D01*
X128513761Y-87122000D01*
X128215375Y-87321375D01*
X127887161Y-87812582D01*
X127771908Y-88392000D01*
X127887161Y-88971418D01*
X128215375Y-89462625D01*
X128513761Y-89662000D01*
X128215375Y-89861375D01*
X127887161Y-90352582D01*
X127771908Y-90932000D01*
X127887161Y-91511418D01*
X128215375Y-92002625D01*
X128513761Y-92202000D01*
X128215375Y-92401375D01*
X127887161Y-92892582D01*
X127771908Y-93472000D01*
X127887161Y-94051418D01*
X128215375Y-94542625D01*
X128513761Y-94742000D01*
X128215375Y-94941375D01*
X127887161Y-95432582D01*
X127771908Y-96012000D01*
X127887161Y-96591418D01*
X128215375Y-97082625D01*
X128513761Y-97282000D01*
X128215375Y-97481375D01*
X127887161Y-97972582D01*
X127771908Y-98552000D01*
X127887161Y-99131418D01*
X128215375Y-99622625D01*
X128513761Y-99822000D01*
X128215375Y-100021375D01*
X127887161Y-100512582D01*
X127771908Y-101092000D01*
X127887161Y-101671418D01*
X128215375Y-102162625D01*
X128706582Y-102490839D01*
X129139744Y-102577000D01*
X129432256Y-102577000D01*
X129865418Y-102490839D01*
X130356625Y-102162625D01*
X130684839Y-101671418D01*
X130800092Y-101092000D01*
X130684839Y-100512582D01*
X130356625Y-100021375D01*
X130058239Y-99822000D01*
X130356625Y-99622625D01*
X130684839Y-99131418D01*
X130800092Y-98552000D01*
X130684839Y-97972582D01*
X130356625Y-97481375D01*
X130058239Y-97282000D01*
X130356625Y-97082625D01*
X130684839Y-96591418D01*
X130800092Y-96012000D01*
X130684839Y-95432582D01*
X130356625Y-94941375D01*
X130058239Y-94742000D01*
X130356625Y-94542625D01*
X130684839Y-94051418D01*
X130800092Y-93472000D01*
X130684839Y-92892582D01*
X130356625Y-92401375D01*
X130058239Y-92202000D01*
X130356625Y-92002625D01*
X130684839Y-91511418D01*
X130800092Y-90932000D01*
X130684839Y-90352582D01*
X130356625Y-89861375D01*
X130058239Y-89662000D01*
X130356625Y-89462625D01*
X130684839Y-88971418D01*
X130800092Y-88392000D01*
X165871908Y-88392000D01*
X165987161Y-88971418D01*
X166315375Y-89462625D01*
X166613761Y-89662000D01*
X166315375Y-89861375D01*
X165987161Y-90352582D01*
X165871908Y-90932000D01*
X165987161Y-91511418D01*
X166315375Y-92002625D01*
X166613761Y-92202000D01*
X166315375Y-92401375D01*
X165987161Y-92892582D01*
X165871908Y-93472000D01*
X165987161Y-94051418D01*
X166315375Y-94542625D01*
X166613761Y-94742000D01*
X166315375Y-94941375D01*
X165987161Y-95432582D01*
X165871908Y-96012000D01*
X165987161Y-96591418D01*
X166315375Y-97082625D01*
X166613761Y-97282000D01*
X166315375Y-97481375D01*
X165987161Y-97972582D01*
X165871908Y-98552000D01*
X165987161Y-99131418D01*
X166315375Y-99622625D01*
X166613761Y-99822000D01*
X166315375Y-100021375D01*
X165987161Y-100512582D01*
X165871908Y-101092000D01*
X165987161Y-101671418D01*
X166315375Y-102162625D01*
X166806582Y-102490839D01*
X167239744Y-102577000D01*
X167532256Y-102577000D01*
X167965418Y-102490839D01*
X168456625Y-102162625D01*
X168784839Y-101671418D01*
X168900092Y-101092000D01*
X168784839Y-100512582D01*
X168456625Y-100021375D01*
X168158239Y-99822000D01*
X168456625Y-99622625D01*
X168784839Y-99131418D01*
X168900092Y-98552000D01*
X168784839Y-97972582D01*
X168456625Y-97481375D01*
X168158239Y-97282000D01*
X168456625Y-97082625D01*
X168784839Y-96591418D01*
X168900092Y-96012000D01*
X168784839Y-95432582D01*
X168456625Y-94941375D01*
X168158239Y-94742000D01*
X168456625Y-94542625D01*
X168784839Y-94051418D01*
X168900092Y-93472000D01*
X168784839Y-92892582D01*
X168456625Y-92401375D01*
X168158239Y-92202000D01*
X168456625Y-92002625D01*
X168784839Y-91511418D01*
X168900092Y-90932000D01*
X168784839Y-90352582D01*
X168456625Y-89861375D01*
X168158239Y-89662000D01*
X168456625Y-89462625D01*
X168784839Y-88971418D01*
X168900092Y-88392000D01*
X168784839Y-87812582D01*
X168456625Y-87321375D01*
X168137522Y-87108157D01*
X168267358Y-87047183D01*
X168657645Y-86618924D01*
X168827476Y-86208890D01*
X168706155Y-85979000D01*
X167513000Y-85979000D01*
X167513000Y-85999000D01*
X167259000Y-85999000D01*
X167259000Y-85979000D01*
X166065845Y-85979000D01*
X165944524Y-86208890D01*
X166114355Y-86618924D01*
X166504642Y-87047183D01*
X166634478Y-87108157D01*
X166315375Y-87321375D01*
X165987161Y-87812582D01*
X165871908Y-88392000D01*
X130800092Y-88392000D01*
X130684839Y-87812582D01*
X130356625Y-87321375D01*
X130058239Y-87122000D01*
X130356625Y-86922625D01*
X130684839Y-86431418D01*
X130800092Y-85852000D01*
X130684839Y-85272582D01*
X130356625Y-84781375D01*
X130338381Y-84769184D01*
X130383765Y-84760157D01*
X130593809Y-84619809D01*
X130734157Y-84409765D01*
X130783440Y-84162000D01*
X130783440Y-83597750D01*
X165901000Y-83597750D01*
X165901000Y-84288310D01*
X165997673Y-84521699D01*
X166176302Y-84700327D01*
X166385878Y-84787136D01*
X166114355Y-85085076D01*
X165944524Y-85495110D01*
X166065845Y-85725000D01*
X167259000Y-85725000D01*
X167259000Y-83439000D01*
X167513000Y-83439000D01*
X167513000Y-85725000D01*
X168706155Y-85725000D01*
X168827476Y-85495110D01*
X168657645Y-85085076D01*
X168386122Y-84787136D01*
X168595698Y-84700327D01*
X168774327Y-84521699D01*
X168871000Y-84288310D01*
X168871000Y-83597750D01*
X168712250Y-83439000D01*
X167513000Y-83439000D01*
X167259000Y-83439000D01*
X166059750Y-83439000D01*
X165901000Y-83597750D01*
X130783440Y-83597750D01*
X130783440Y-82462000D01*
X130758316Y-82335690D01*
X165901000Y-82335690D01*
X165901000Y-83026250D01*
X166059750Y-83185000D01*
X167259000Y-83185000D01*
X167259000Y-81985750D01*
X167513000Y-81985750D01*
X167513000Y-83185000D01*
X168712250Y-83185000D01*
X168871000Y-83026250D01*
X168871000Y-82335690D01*
X168774327Y-82102301D01*
X168595698Y-81923673D01*
X168362309Y-81827000D01*
X167671750Y-81827000D01*
X167513000Y-81985750D01*
X167259000Y-81985750D01*
X167100250Y-81827000D01*
X166409691Y-81827000D01*
X166176302Y-81923673D01*
X165997673Y-82102301D01*
X165901000Y-82335690D01*
X130758316Y-82335690D01*
X130734157Y-82214235D01*
X130593809Y-82004191D01*
X130383765Y-81863843D01*
X130136000Y-81814560D01*
X128436000Y-81814560D01*
X128188235Y-81863843D01*
X127978191Y-82004191D01*
X127837843Y-82214235D01*
X127788560Y-82462000D01*
X127788560Y-84162000D01*
X127837843Y-84409765D01*
X127978191Y-84619809D01*
X128188235Y-84760157D01*
X128233619Y-84769184D01*
X128215375Y-84781375D01*
X127887161Y-85272582D01*
X127771908Y-85852000D01*
X124916000Y-85852000D01*
X124916000Y-76040191D01*
X125815414Y-76040191D01*
X126121472Y-76483659D01*
X127346252Y-76993725D01*
X128672995Y-76996262D01*
X129899716Y-76490883D01*
X129910528Y-76483659D01*
X130216586Y-76040191D01*
X128016000Y-73839605D01*
X125815414Y-76040191D01*
X124916000Y-76040191D01*
X124916000Y-74890481D01*
X125185117Y-75543716D01*
X125192341Y-75554528D01*
X125635809Y-75860586D01*
X127836395Y-73660000D01*
X128195605Y-73660000D01*
X130396191Y-75860586D01*
X130839659Y-75554528D01*
X130897138Y-75416506D01*
X149491000Y-75416506D01*
X149491000Y-75967494D01*
X149701853Y-76476540D01*
X150091460Y-76866147D01*
X150600506Y-77077000D01*
X151151494Y-77077000D01*
X151660540Y-76866147D01*
X152050147Y-76476540D01*
X152261000Y-75967494D01*
X152261000Y-75416506D01*
X154371000Y-75416506D01*
X154371000Y-75967494D01*
X154581853Y-76476540D01*
X154971460Y-76866147D01*
X155480506Y-77077000D01*
X156031494Y-77077000D01*
X156540540Y-76866147D01*
X156930147Y-76476540D01*
X157110888Y-76040191D01*
X166455414Y-76040191D01*
X166761472Y-76483659D01*
X167986252Y-76993725D01*
X169312995Y-76996262D01*
X170539716Y-76490883D01*
X170550528Y-76483659D01*
X170856586Y-76040191D01*
X168656000Y-73839605D01*
X166455414Y-76040191D01*
X157110888Y-76040191D01*
X157141000Y-75967494D01*
X157141000Y-75416506D01*
X156930147Y-74907460D01*
X156540540Y-74517853D01*
X156055625Y-74316995D01*
X165319738Y-74316995D01*
X165825117Y-75543716D01*
X165832341Y-75554528D01*
X166275809Y-75860586D01*
X168476395Y-73660000D01*
X166275809Y-71459414D01*
X165832341Y-71765472D01*
X165322275Y-72990252D01*
X165319738Y-74316995D01*
X156055625Y-74316995D01*
X156031494Y-74307000D01*
X155480506Y-74307000D01*
X154971460Y-74517853D01*
X154581853Y-74907460D01*
X154371000Y-75416506D01*
X152261000Y-75416506D01*
X152050147Y-74907460D01*
X151660540Y-74517853D01*
X151151494Y-74307000D01*
X150600506Y-74307000D01*
X150091460Y-74517853D01*
X149701853Y-74907460D01*
X149491000Y-75416506D01*
X130897138Y-75416506D01*
X131349725Y-74329748D01*
X131352262Y-73003005D01*
X130846883Y-71776284D01*
X130839659Y-71765472D01*
X130396191Y-71459414D01*
X128195605Y-73660000D01*
X127836395Y-73660000D01*
X127822253Y-73645858D01*
X128001858Y-73466253D01*
X128016000Y-73480395D01*
X130216586Y-71279809D01*
X129910528Y-70836341D01*
X129551928Y-70687000D01*
X167117249Y-70687000D01*
X166772284Y-70829117D01*
G04 #@! TD*
M02*
