M48
;DRILL file {KiCad 5.0.2} date Fri 18 Jan 2019 07:38:13 PM CET
;FORMAT={-:-/ absolute / inch / decimal}
FMAT,2
INCH,TZ
T1C0.0140
T2C0.0160
T3C0.0197
T4C0.0200
T5C0.0315
T6C0.0394
T7C0.1063
%
G90
G05
T1
X5.305Y-3.22
X5.385Y-3.2
X5.475Y-3.2
X5.475Y-3.33
X5.53Y-3.26
X5.575Y-3.12
X5.575Y-3.2
X5.575Y-3.33
X5.65Y-2.975
X5.65Y-3.075
X5.675Y-3.175
X5.7375Y-3.3575
X5.775Y-2.925
X5.86Y-2.985
X5.86Y-3.15
X5.865Y-3.365
X5.945Y-2.925
X6.025Y-3.375
X6.05Y-3.175
X6.075Y-2.975
X6.075Y-3.075
X6.075Y-3.45
X6.1Y-3.375
T2
X6.18Y-4.02
X6.24Y-4.02
X6.3Y-4.02
T3
X4.9603Y-2.9
X4.9836Y-2.8436
X4.9836Y-2.9564
X5.04Y-2.8203
X5.04Y-2.9797
X5.0964Y-2.8436
X5.0964Y-2.9564
X5.1197Y-2.9
X6.5603Y-2.9
X6.5836Y-2.8436
X6.5836Y-2.9564
X6.64Y-2.8203
X6.64Y-2.9797
X6.6964Y-2.8436
X6.6964Y-2.9564
X6.7197Y-2.9
X6.5603Y-4.28
X6.5836Y-4.2236
X6.5836Y-4.3364
X6.64Y-4.2003
X6.64Y-4.3597
X6.6964Y-4.2236
X6.6964Y-4.3364
X6.7197Y-4.28
X4.9603Y-4.28
X4.9836Y-4.2236
X4.9836Y-4.3364
X5.04Y-4.2003
X5.04Y-4.3597
X5.0964Y-4.2236
X5.0964Y-4.3364
X5.1197Y-4.28
T4
X5.375Y-3.96
X5.38Y-4.05
X5.46Y-4.06
T5
X5.767Y-3.05
X5.9591Y-3.05
T6
X5.765Y-4.08
X5.765Y-4.18
X5.865Y-4.08
X5.865Y-4.18
X5.965Y-4.08
X5.965Y-4.18
X5.09Y-3.28
X5.09Y-3.38
X5.09Y-3.48
X5.09Y-3.58
X5.09Y-3.68
X5.09Y-3.78
X5.09Y-3.88
X5.09Y-3.98
X6.59Y-3.28
X6.59Y-3.38
X6.59Y-3.48
X6.59Y-3.58
X6.59Y-3.68
X6.59Y-3.78
X6.59Y-3.88
X6.59Y-3.98
T7
X5.04Y-2.9
X6.64Y-2.9
X6.64Y-4.28
X5.04Y-4.28
T0
M30
