G04 #@! TF.GenerationSoftware,KiCad,Pcbnew,5.0.2*
G04 #@! TF.CreationDate,2019-01-18T19:38:06+01:00*
G04 #@! TF.ProjectId,ATtiny44_DevBoard,41547469-6e79-4343-945f-446576426f61,rev?*
G04 #@! TF.SameCoordinates,Original*
G04 #@! TF.FileFunction,Copper,L1,Top*
G04 #@! TF.FilePolarity,Positive*
%FSLAX46Y46*%
G04 Gerber Fmt 4.6, Leading zero omitted, Abs format (unit mm)*
G04 Created by KiCad (PCBNEW 5.0.2) date Fri 18 Jan 2019 07:38:06 PM CET*
%MOMM*%
%LPD*%
G01*
G04 APERTURE LIST*
G04 #@! TA.AperFunction,ComponentPad*
%ADD10C,5.400000*%
G04 #@! TD*
G04 #@! TA.AperFunction,ComponentPad*
%ADD11C,0.800000*%
G04 #@! TD*
G04 #@! TA.AperFunction,Conductor*
%ADD12C,0.100000*%
G04 #@! TD*
G04 #@! TA.AperFunction,SMDPad,CuDef*
%ADD13C,1.425000*%
G04 #@! TD*
G04 #@! TA.AperFunction,ComponentPad*
%ADD14O,1.700000X1.700000*%
G04 #@! TD*
G04 #@! TA.AperFunction,ComponentPad*
%ADD15R,1.700000X1.700000*%
G04 #@! TD*
G04 #@! TA.AperFunction,SMDPad,CuDef*
%ADD16R,1.500000X0.600000*%
G04 #@! TD*
G04 #@! TA.AperFunction,ComponentPad*
%ADD17C,1.500000*%
G04 #@! TD*
G04 #@! TA.AperFunction,ViaPad*
%ADD18C,0.762000*%
G04 #@! TD*
G04 #@! TA.AperFunction,ViaPad*
%ADD19C,0.889000*%
G04 #@! TD*
G04 #@! TA.AperFunction,Conductor*
%ADD20C,0.762000*%
G04 #@! TD*
G04 #@! TA.AperFunction,Conductor*
%ADD21C,0.711200*%
G04 #@! TD*
G04 #@! TA.AperFunction,Conductor*
%ADD22C,0.355600*%
G04 #@! TD*
G04 #@! TA.AperFunction,Conductor*
%ADD23C,0.406400*%
G04 #@! TD*
G04 #@! TA.AperFunction,Conductor*
%ADD24C,0.254000*%
G04 #@! TD*
G04 APERTURE END LIST*
D10*
G04 #@! TO.P,REF\002A\002A,1*
G04 #@! TO.N,GND*
X128016000Y-108712000D03*
D11*
X130041000Y-108712000D03*
X129447891Y-110143891D03*
X128016000Y-110737000D03*
X126584109Y-110143891D03*
X125991000Y-108712000D03*
X126584109Y-107280109D03*
X128016000Y-106687000D03*
X129447891Y-107280109D03*
G04 #@! TD*
G04 #@! TO.P,REF\002A\002A,1*
G04 #@! TO.N,GND*
X129447891Y-72228109D03*
X128016000Y-71635000D03*
X126584109Y-72228109D03*
X125991000Y-73660000D03*
X126584109Y-75091891D03*
X128016000Y-75685000D03*
X129447891Y-75091891D03*
X130041000Y-73660000D03*
D10*
X128016000Y-73660000D03*
G04 #@! TD*
G04 #@! TO.P,REF\002A\002A,1*
G04 #@! TO.N,GND*
X168656000Y-73660000D03*
D11*
X170681000Y-73660000D03*
X170087891Y-75091891D03*
X168656000Y-75685000D03*
X167224109Y-75091891D03*
X166631000Y-73660000D03*
X167224109Y-72228109D03*
X168656000Y-71635000D03*
X170087891Y-72228109D03*
G04 #@! TD*
D12*
G04 #@! TO.N,VCC*
G04 #@! TO.C,C1*
G36*
X143579504Y-86121204D02*
X143603773Y-86124804D01*
X143627571Y-86130765D01*
X143650671Y-86139030D01*
X143672849Y-86149520D01*
X143693893Y-86162133D01*
X143713598Y-86176747D01*
X143731777Y-86193223D01*
X143748253Y-86211402D01*
X143762867Y-86231107D01*
X143775480Y-86252151D01*
X143785970Y-86274329D01*
X143794235Y-86297429D01*
X143800196Y-86321227D01*
X143803796Y-86345496D01*
X143805000Y-86370000D01*
X143805000Y-87620000D01*
X143803796Y-87644504D01*
X143800196Y-87668773D01*
X143794235Y-87692571D01*
X143785970Y-87715671D01*
X143775480Y-87737849D01*
X143762867Y-87758893D01*
X143748253Y-87778598D01*
X143731777Y-87796777D01*
X143713598Y-87813253D01*
X143693893Y-87827867D01*
X143672849Y-87840480D01*
X143650671Y-87850970D01*
X143627571Y-87859235D01*
X143603773Y-87865196D01*
X143579504Y-87868796D01*
X143555000Y-87870000D01*
X142630000Y-87870000D01*
X142605496Y-87868796D01*
X142581227Y-87865196D01*
X142557429Y-87859235D01*
X142534329Y-87850970D01*
X142512151Y-87840480D01*
X142491107Y-87827867D01*
X142471402Y-87813253D01*
X142453223Y-87796777D01*
X142436747Y-87778598D01*
X142422133Y-87758893D01*
X142409520Y-87737849D01*
X142399030Y-87715671D01*
X142390765Y-87692571D01*
X142384804Y-87668773D01*
X142381204Y-87644504D01*
X142380000Y-87620000D01*
X142380000Y-86370000D01*
X142381204Y-86345496D01*
X142384804Y-86321227D01*
X142390765Y-86297429D01*
X142399030Y-86274329D01*
X142409520Y-86252151D01*
X142422133Y-86231107D01*
X142436747Y-86211402D01*
X142453223Y-86193223D01*
X142471402Y-86176747D01*
X142491107Y-86162133D01*
X142512151Y-86149520D01*
X142534329Y-86139030D01*
X142557429Y-86130765D01*
X142581227Y-86124804D01*
X142605496Y-86121204D01*
X142630000Y-86120000D01*
X143555000Y-86120000D01*
X143579504Y-86121204D01*
X143579504Y-86121204D01*
G37*
D13*
G04 #@! TD*
G04 #@! TO.P,C1,1*
G04 #@! TO.N,VCC*
X143092500Y-86995000D03*
D12*
G04 #@! TO.N,GND*
G04 #@! TO.C,C1*
G36*
X140604504Y-86121204D02*
X140628773Y-86124804D01*
X140652571Y-86130765D01*
X140675671Y-86139030D01*
X140697849Y-86149520D01*
X140718893Y-86162133D01*
X140738598Y-86176747D01*
X140756777Y-86193223D01*
X140773253Y-86211402D01*
X140787867Y-86231107D01*
X140800480Y-86252151D01*
X140810970Y-86274329D01*
X140819235Y-86297429D01*
X140825196Y-86321227D01*
X140828796Y-86345496D01*
X140830000Y-86370000D01*
X140830000Y-87620000D01*
X140828796Y-87644504D01*
X140825196Y-87668773D01*
X140819235Y-87692571D01*
X140810970Y-87715671D01*
X140800480Y-87737849D01*
X140787867Y-87758893D01*
X140773253Y-87778598D01*
X140756777Y-87796777D01*
X140738598Y-87813253D01*
X140718893Y-87827867D01*
X140697849Y-87840480D01*
X140675671Y-87850970D01*
X140652571Y-87859235D01*
X140628773Y-87865196D01*
X140604504Y-87868796D01*
X140580000Y-87870000D01*
X139655000Y-87870000D01*
X139630496Y-87868796D01*
X139606227Y-87865196D01*
X139582429Y-87859235D01*
X139559329Y-87850970D01*
X139537151Y-87840480D01*
X139516107Y-87827867D01*
X139496402Y-87813253D01*
X139478223Y-87796777D01*
X139461747Y-87778598D01*
X139447133Y-87758893D01*
X139434520Y-87737849D01*
X139424030Y-87715671D01*
X139415765Y-87692571D01*
X139409804Y-87668773D01*
X139406204Y-87644504D01*
X139405000Y-87620000D01*
X139405000Y-86370000D01*
X139406204Y-86345496D01*
X139409804Y-86321227D01*
X139415765Y-86297429D01*
X139424030Y-86274329D01*
X139434520Y-86252151D01*
X139447133Y-86231107D01*
X139461747Y-86211402D01*
X139478223Y-86193223D01*
X139496402Y-86176747D01*
X139516107Y-86162133D01*
X139537151Y-86149520D01*
X139559329Y-86139030D01*
X139582429Y-86130765D01*
X139606227Y-86124804D01*
X139630496Y-86121204D01*
X139655000Y-86120000D01*
X140580000Y-86120000D01*
X140604504Y-86121204D01*
X140604504Y-86121204D01*
G37*
D13*
G04 #@! TD*
G04 #@! TO.P,C1,2*
G04 #@! TO.N,GND*
X140117500Y-86995000D03*
D12*
G04 #@! TO.N,GND*
G04 #@! TO.C,C2*
G36*
X144719304Y-82438204D02*
X144743573Y-82441804D01*
X144767371Y-82447765D01*
X144790471Y-82456030D01*
X144812649Y-82466520D01*
X144833693Y-82479133D01*
X144853398Y-82493747D01*
X144871577Y-82510223D01*
X144888053Y-82528402D01*
X144902667Y-82548107D01*
X144915280Y-82569151D01*
X144925770Y-82591329D01*
X144934035Y-82614429D01*
X144939996Y-82638227D01*
X144943596Y-82662496D01*
X144944800Y-82687000D01*
X144944800Y-83937000D01*
X144943596Y-83961504D01*
X144939996Y-83985773D01*
X144934035Y-84009571D01*
X144925770Y-84032671D01*
X144915280Y-84054849D01*
X144902667Y-84075893D01*
X144888053Y-84095598D01*
X144871577Y-84113777D01*
X144853398Y-84130253D01*
X144833693Y-84144867D01*
X144812649Y-84157480D01*
X144790471Y-84167970D01*
X144767371Y-84176235D01*
X144743573Y-84182196D01*
X144719304Y-84185796D01*
X144694800Y-84187000D01*
X143769800Y-84187000D01*
X143745296Y-84185796D01*
X143721027Y-84182196D01*
X143697229Y-84176235D01*
X143674129Y-84167970D01*
X143651951Y-84157480D01*
X143630907Y-84144867D01*
X143611202Y-84130253D01*
X143593023Y-84113777D01*
X143576547Y-84095598D01*
X143561933Y-84075893D01*
X143549320Y-84054849D01*
X143538830Y-84032671D01*
X143530565Y-84009571D01*
X143524604Y-83985773D01*
X143521004Y-83961504D01*
X143519800Y-83937000D01*
X143519800Y-82687000D01*
X143521004Y-82662496D01*
X143524604Y-82638227D01*
X143530565Y-82614429D01*
X143538830Y-82591329D01*
X143549320Y-82569151D01*
X143561933Y-82548107D01*
X143576547Y-82528402D01*
X143593023Y-82510223D01*
X143611202Y-82493747D01*
X143630907Y-82479133D01*
X143651951Y-82466520D01*
X143674129Y-82456030D01*
X143697229Y-82447765D01*
X143721027Y-82441804D01*
X143745296Y-82438204D01*
X143769800Y-82437000D01*
X144694800Y-82437000D01*
X144719304Y-82438204D01*
X144719304Y-82438204D01*
G37*
D13*
G04 #@! TD*
G04 #@! TO.P,C2,2*
G04 #@! TO.N,GND*
X144232300Y-83312000D03*
D12*
G04 #@! TO.N,/XTAL1*
G04 #@! TO.C,C2*
G36*
X147694304Y-82438204D02*
X147718573Y-82441804D01*
X147742371Y-82447765D01*
X147765471Y-82456030D01*
X147787649Y-82466520D01*
X147808693Y-82479133D01*
X147828398Y-82493747D01*
X147846577Y-82510223D01*
X147863053Y-82528402D01*
X147877667Y-82548107D01*
X147890280Y-82569151D01*
X147900770Y-82591329D01*
X147909035Y-82614429D01*
X147914996Y-82638227D01*
X147918596Y-82662496D01*
X147919800Y-82687000D01*
X147919800Y-83937000D01*
X147918596Y-83961504D01*
X147914996Y-83985773D01*
X147909035Y-84009571D01*
X147900770Y-84032671D01*
X147890280Y-84054849D01*
X147877667Y-84075893D01*
X147863053Y-84095598D01*
X147846577Y-84113777D01*
X147828398Y-84130253D01*
X147808693Y-84144867D01*
X147787649Y-84157480D01*
X147765471Y-84167970D01*
X147742371Y-84176235D01*
X147718573Y-84182196D01*
X147694304Y-84185796D01*
X147669800Y-84187000D01*
X146744800Y-84187000D01*
X146720296Y-84185796D01*
X146696027Y-84182196D01*
X146672229Y-84176235D01*
X146649129Y-84167970D01*
X146626951Y-84157480D01*
X146605907Y-84144867D01*
X146586202Y-84130253D01*
X146568023Y-84113777D01*
X146551547Y-84095598D01*
X146536933Y-84075893D01*
X146524320Y-84054849D01*
X146513830Y-84032671D01*
X146505565Y-84009571D01*
X146499604Y-83985773D01*
X146496004Y-83961504D01*
X146494800Y-83937000D01*
X146494800Y-82687000D01*
X146496004Y-82662496D01*
X146499604Y-82638227D01*
X146505565Y-82614429D01*
X146513830Y-82591329D01*
X146524320Y-82569151D01*
X146536933Y-82548107D01*
X146551547Y-82528402D01*
X146568023Y-82510223D01*
X146586202Y-82493747D01*
X146605907Y-82479133D01*
X146626951Y-82466520D01*
X146649129Y-82456030D01*
X146672229Y-82447765D01*
X146696027Y-82441804D01*
X146720296Y-82438204D01*
X146744800Y-82437000D01*
X147669800Y-82437000D01*
X147694304Y-82438204D01*
X147694304Y-82438204D01*
G37*
D13*
G04 #@! TD*
G04 #@! TO.P,C2,1*
G04 #@! TO.N,/XTAL1*
X147207300Y-83312000D03*
D12*
G04 #@! TO.N,/XTAL2*
G04 #@! TO.C,C3*
G36*
X151069304Y-82438204D02*
X151093573Y-82441804D01*
X151117371Y-82447765D01*
X151140471Y-82456030D01*
X151162649Y-82466520D01*
X151183693Y-82479133D01*
X151203398Y-82493747D01*
X151221577Y-82510223D01*
X151238053Y-82528402D01*
X151252667Y-82548107D01*
X151265280Y-82569151D01*
X151275770Y-82591329D01*
X151284035Y-82614429D01*
X151289996Y-82638227D01*
X151293596Y-82662496D01*
X151294800Y-82687000D01*
X151294800Y-83937000D01*
X151293596Y-83961504D01*
X151289996Y-83985773D01*
X151284035Y-84009571D01*
X151275770Y-84032671D01*
X151265280Y-84054849D01*
X151252667Y-84075893D01*
X151238053Y-84095598D01*
X151221577Y-84113777D01*
X151203398Y-84130253D01*
X151183693Y-84144867D01*
X151162649Y-84157480D01*
X151140471Y-84167970D01*
X151117371Y-84176235D01*
X151093573Y-84182196D01*
X151069304Y-84185796D01*
X151044800Y-84187000D01*
X150119800Y-84187000D01*
X150095296Y-84185796D01*
X150071027Y-84182196D01*
X150047229Y-84176235D01*
X150024129Y-84167970D01*
X150001951Y-84157480D01*
X149980907Y-84144867D01*
X149961202Y-84130253D01*
X149943023Y-84113777D01*
X149926547Y-84095598D01*
X149911933Y-84075893D01*
X149899320Y-84054849D01*
X149888830Y-84032671D01*
X149880565Y-84009571D01*
X149874604Y-83985773D01*
X149871004Y-83961504D01*
X149869800Y-83937000D01*
X149869800Y-82687000D01*
X149871004Y-82662496D01*
X149874604Y-82638227D01*
X149880565Y-82614429D01*
X149888830Y-82591329D01*
X149899320Y-82569151D01*
X149911933Y-82548107D01*
X149926547Y-82528402D01*
X149943023Y-82510223D01*
X149961202Y-82493747D01*
X149980907Y-82479133D01*
X150001951Y-82466520D01*
X150024129Y-82456030D01*
X150047229Y-82447765D01*
X150071027Y-82441804D01*
X150095296Y-82438204D01*
X150119800Y-82437000D01*
X151044800Y-82437000D01*
X151069304Y-82438204D01*
X151069304Y-82438204D01*
G37*
D13*
G04 #@! TD*
G04 #@! TO.P,C3,1*
G04 #@! TO.N,/XTAL2*
X150582300Y-83312000D03*
D12*
G04 #@! TO.N,GND*
G04 #@! TO.C,C3*
G36*
X154044304Y-82438204D02*
X154068573Y-82441804D01*
X154092371Y-82447765D01*
X154115471Y-82456030D01*
X154137649Y-82466520D01*
X154158693Y-82479133D01*
X154178398Y-82493747D01*
X154196577Y-82510223D01*
X154213053Y-82528402D01*
X154227667Y-82548107D01*
X154240280Y-82569151D01*
X154250770Y-82591329D01*
X154259035Y-82614429D01*
X154264996Y-82638227D01*
X154268596Y-82662496D01*
X154269800Y-82687000D01*
X154269800Y-83937000D01*
X154268596Y-83961504D01*
X154264996Y-83985773D01*
X154259035Y-84009571D01*
X154250770Y-84032671D01*
X154240280Y-84054849D01*
X154227667Y-84075893D01*
X154213053Y-84095598D01*
X154196577Y-84113777D01*
X154178398Y-84130253D01*
X154158693Y-84144867D01*
X154137649Y-84157480D01*
X154115471Y-84167970D01*
X154092371Y-84176235D01*
X154068573Y-84182196D01*
X154044304Y-84185796D01*
X154019800Y-84187000D01*
X153094800Y-84187000D01*
X153070296Y-84185796D01*
X153046027Y-84182196D01*
X153022229Y-84176235D01*
X152999129Y-84167970D01*
X152976951Y-84157480D01*
X152955907Y-84144867D01*
X152936202Y-84130253D01*
X152918023Y-84113777D01*
X152901547Y-84095598D01*
X152886933Y-84075893D01*
X152874320Y-84054849D01*
X152863830Y-84032671D01*
X152855565Y-84009571D01*
X152849604Y-83985773D01*
X152846004Y-83961504D01*
X152844800Y-83937000D01*
X152844800Y-82687000D01*
X152846004Y-82662496D01*
X152849604Y-82638227D01*
X152855565Y-82614429D01*
X152863830Y-82591329D01*
X152874320Y-82569151D01*
X152886933Y-82548107D01*
X152901547Y-82528402D01*
X152918023Y-82510223D01*
X152936202Y-82493747D01*
X152955907Y-82479133D01*
X152976951Y-82466520D01*
X152999129Y-82456030D01*
X153022229Y-82447765D01*
X153046027Y-82441804D01*
X153070296Y-82438204D01*
X153094800Y-82437000D01*
X154019800Y-82437000D01*
X154044304Y-82438204D01*
X154044304Y-82438204D01*
G37*
D13*
G04 #@! TD*
G04 #@! TO.P,C3,2*
G04 #@! TO.N,GND*
X153557300Y-83312000D03*
D12*
G04 #@! TO.N,GND*
G04 #@! TO.C,C4*
G36*
X137174504Y-82891204D02*
X137198773Y-82894804D01*
X137222571Y-82900765D01*
X137245671Y-82909030D01*
X137267849Y-82919520D01*
X137288893Y-82932133D01*
X137308598Y-82946747D01*
X137326777Y-82963223D01*
X137343253Y-82981402D01*
X137357867Y-83001107D01*
X137370480Y-83022151D01*
X137380970Y-83044329D01*
X137389235Y-83067429D01*
X137395196Y-83091227D01*
X137398796Y-83115496D01*
X137400000Y-83140000D01*
X137400000Y-84065000D01*
X137398796Y-84089504D01*
X137395196Y-84113773D01*
X137389235Y-84137571D01*
X137380970Y-84160671D01*
X137370480Y-84182849D01*
X137357867Y-84203893D01*
X137343253Y-84223598D01*
X137326777Y-84241777D01*
X137308598Y-84258253D01*
X137288893Y-84272867D01*
X137267849Y-84285480D01*
X137245671Y-84295970D01*
X137222571Y-84304235D01*
X137198773Y-84310196D01*
X137174504Y-84313796D01*
X137150000Y-84315000D01*
X135900000Y-84315000D01*
X135875496Y-84313796D01*
X135851227Y-84310196D01*
X135827429Y-84304235D01*
X135804329Y-84295970D01*
X135782151Y-84285480D01*
X135761107Y-84272867D01*
X135741402Y-84258253D01*
X135723223Y-84241777D01*
X135706747Y-84223598D01*
X135692133Y-84203893D01*
X135679520Y-84182849D01*
X135669030Y-84160671D01*
X135660765Y-84137571D01*
X135654804Y-84113773D01*
X135651204Y-84089504D01*
X135650000Y-84065000D01*
X135650000Y-83140000D01*
X135651204Y-83115496D01*
X135654804Y-83091227D01*
X135660765Y-83067429D01*
X135669030Y-83044329D01*
X135679520Y-83022151D01*
X135692133Y-83001107D01*
X135706747Y-82981402D01*
X135723223Y-82963223D01*
X135741402Y-82946747D01*
X135761107Y-82932133D01*
X135782151Y-82919520D01*
X135804329Y-82909030D01*
X135827429Y-82900765D01*
X135851227Y-82894804D01*
X135875496Y-82891204D01*
X135900000Y-82890000D01*
X137150000Y-82890000D01*
X137174504Y-82891204D01*
X137174504Y-82891204D01*
G37*
D13*
G04 #@! TD*
G04 #@! TO.P,C4,2*
G04 #@! TO.N,GND*
X136525000Y-83602500D03*
D12*
G04 #@! TO.N,VCC*
G04 #@! TO.C,C4*
G36*
X137174504Y-85866204D02*
X137198773Y-85869804D01*
X137222571Y-85875765D01*
X137245671Y-85884030D01*
X137267849Y-85894520D01*
X137288893Y-85907133D01*
X137308598Y-85921747D01*
X137326777Y-85938223D01*
X137343253Y-85956402D01*
X137357867Y-85976107D01*
X137370480Y-85997151D01*
X137380970Y-86019329D01*
X137389235Y-86042429D01*
X137395196Y-86066227D01*
X137398796Y-86090496D01*
X137400000Y-86115000D01*
X137400000Y-87040000D01*
X137398796Y-87064504D01*
X137395196Y-87088773D01*
X137389235Y-87112571D01*
X137380970Y-87135671D01*
X137370480Y-87157849D01*
X137357867Y-87178893D01*
X137343253Y-87198598D01*
X137326777Y-87216777D01*
X137308598Y-87233253D01*
X137288893Y-87247867D01*
X137267849Y-87260480D01*
X137245671Y-87270970D01*
X137222571Y-87279235D01*
X137198773Y-87285196D01*
X137174504Y-87288796D01*
X137150000Y-87290000D01*
X135900000Y-87290000D01*
X135875496Y-87288796D01*
X135851227Y-87285196D01*
X135827429Y-87279235D01*
X135804329Y-87270970D01*
X135782151Y-87260480D01*
X135761107Y-87247867D01*
X135741402Y-87233253D01*
X135723223Y-87216777D01*
X135706747Y-87198598D01*
X135692133Y-87178893D01*
X135679520Y-87157849D01*
X135669030Y-87135671D01*
X135660765Y-87112571D01*
X135654804Y-87088773D01*
X135651204Y-87064504D01*
X135650000Y-87040000D01*
X135650000Y-86115000D01*
X135651204Y-86090496D01*
X135654804Y-86066227D01*
X135660765Y-86042429D01*
X135669030Y-86019329D01*
X135679520Y-85997151D01*
X135692133Y-85976107D01*
X135706747Y-85956402D01*
X135723223Y-85938223D01*
X135741402Y-85921747D01*
X135761107Y-85907133D01*
X135782151Y-85894520D01*
X135804329Y-85884030D01*
X135827429Y-85875765D01*
X135851227Y-85869804D01*
X135875496Y-85866204D01*
X135900000Y-85865000D01*
X137150000Y-85865000D01*
X137174504Y-85866204D01*
X137174504Y-85866204D01*
G37*
D13*
G04 #@! TD*
G04 #@! TO.P,C4,1*
G04 #@! TO.N,VCC*
X136525000Y-86577500D03*
D12*
G04 #@! TO.N,GND*
G04 #@! TO.C,D1*
G36*
X159145504Y-103465204D02*
X159169773Y-103468804D01*
X159193571Y-103474765D01*
X159216671Y-103483030D01*
X159238849Y-103493520D01*
X159259893Y-103506133D01*
X159279598Y-103520747D01*
X159297777Y-103537223D01*
X159314253Y-103555402D01*
X159328867Y-103575107D01*
X159341480Y-103596151D01*
X159351970Y-103618329D01*
X159360235Y-103641429D01*
X159366196Y-103665227D01*
X159369796Y-103689496D01*
X159371000Y-103714000D01*
X159371000Y-104639000D01*
X159369796Y-104663504D01*
X159366196Y-104687773D01*
X159360235Y-104711571D01*
X159351970Y-104734671D01*
X159341480Y-104756849D01*
X159328867Y-104777893D01*
X159314253Y-104797598D01*
X159297777Y-104815777D01*
X159279598Y-104832253D01*
X159259893Y-104846867D01*
X159238849Y-104859480D01*
X159216671Y-104869970D01*
X159193571Y-104878235D01*
X159169773Y-104884196D01*
X159145504Y-104887796D01*
X159121000Y-104889000D01*
X157871000Y-104889000D01*
X157846496Y-104887796D01*
X157822227Y-104884196D01*
X157798429Y-104878235D01*
X157775329Y-104869970D01*
X157753151Y-104859480D01*
X157732107Y-104846867D01*
X157712402Y-104832253D01*
X157694223Y-104815777D01*
X157677747Y-104797598D01*
X157663133Y-104777893D01*
X157650520Y-104756849D01*
X157640030Y-104734671D01*
X157631765Y-104711571D01*
X157625804Y-104687773D01*
X157622204Y-104663504D01*
X157621000Y-104639000D01*
X157621000Y-103714000D01*
X157622204Y-103689496D01*
X157625804Y-103665227D01*
X157631765Y-103641429D01*
X157640030Y-103618329D01*
X157650520Y-103596151D01*
X157663133Y-103575107D01*
X157677747Y-103555402D01*
X157694223Y-103537223D01*
X157712402Y-103520747D01*
X157732107Y-103506133D01*
X157753151Y-103493520D01*
X157775329Y-103483030D01*
X157798429Y-103474765D01*
X157822227Y-103468804D01*
X157846496Y-103465204D01*
X157871000Y-103464000D01*
X159121000Y-103464000D01*
X159145504Y-103465204D01*
X159145504Y-103465204D01*
G37*
D13*
G04 #@! TD*
G04 #@! TO.P,D1,1*
G04 #@! TO.N,GND*
X158496000Y-104176500D03*
D12*
G04 #@! TO.N,Net-(D1-Pad2)*
G04 #@! TO.C,D1*
G36*
X159145504Y-106440204D02*
X159169773Y-106443804D01*
X159193571Y-106449765D01*
X159216671Y-106458030D01*
X159238849Y-106468520D01*
X159259893Y-106481133D01*
X159279598Y-106495747D01*
X159297777Y-106512223D01*
X159314253Y-106530402D01*
X159328867Y-106550107D01*
X159341480Y-106571151D01*
X159351970Y-106593329D01*
X159360235Y-106616429D01*
X159366196Y-106640227D01*
X159369796Y-106664496D01*
X159371000Y-106689000D01*
X159371000Y-107614000D01*
X159369796Y-107638504D01*
X159366196Y-107662773D01*
X159360235Y-107686571D01*
X159351970Y-107709671D01*
X159341480Y-107731849D01*
X159328867Y-107752893D01*
X159314253Y-107772598D01*
X159297777Y-107790777D01*
X159279598Y-107807253D01*
X159259893Y-107821867D01*
X159238849Y-107834480D01*
X159216671Y-107844970D01*
X159193571Y-107853235D01*
X159169773Y-107859196D01*
X159145504Y-107862796D01*
X159121000Y-107864000D01*
X157871000Y-107864000D01*
X157846496Y-107862796D01*
X157822227Y-107859196D01*
X157798429Y-107853235D01*
X157775329Y-107844970D01*
X157753151Y-107834480D01*
X157732107Y-107821867D01*
X157712402Y-107807253D01*
X157694223Y-107790777D01*
X157677747Y-107772598D01*
X157663133Y-107752893D01*
X157650520Y-107731849D01*
X157640030Y-107709671D01*
X157631765Y-107686571D01*
X157625804Y-107662773D01*
X157622204Y-107638504D01*
X157621000Y-107614000D01*
X157621000Y-106689000D01*
X157622204Y-106664496D01*
X157625804Y-106640227D01*
X157631765Y-106616429D01*
X157640030Y-106593329D01*
X157650520Y-106571151D01*
X157663133Y-106550107D01*
X157677747Y-106530402D01*
X157694223Y-106512223D01*
X157712402Y-106495747D01*
X157732107Y-106481133D01*
X157753151Y-106468520D01*
X157775329Y-106458030D01*
X157798429Y-106449765D01*
X157822227Y-106443804D01*
X157846496Y-106440204D01*
X157871000Y-106439000D01*
X159121000Y-106439000D01*
X159145504Y-106440204D01*
X159145504Y-106440204D01*
G37*
D13*
G04 #@! TD*
G04 #@! TO.P,D1,2*
G04 #@! TO.N,Net-(D1-Pad2)*
X158496000Y-107151500D03*
D14*
G04 #@! TO.P,J1,8*
G04 #@! TO.N,/MOSI*
X129286000Y-101092000D03*
G04 #@! TO.P,J1,7*
G04 #@! TO.N,/PA7*
X129286000Y-98552000D03*
G04 #@! TO.P,J1,6*
G04 #@! TO.N,/PB2*
X129286000Y-96012000D03*
G04 #@! TO.P,J1,5*
G04 #@! TO.N,/~RESET*
X129286000Y-93472000D03*
G04 #@! TO.P,J1,4*
G04 #@! TO.N,/XTAL2*
X129286000Y-90932000D03*
G04 #@! TO.P,J1,3*
G04 #@! TO.N,/XTAL1*
X129286000Y-88392000D03*
G04 #@! TO.P,J1,2*
G04 #@! TO.N,VCC*
X129286000Y-85852000D03*
D15*
G04 #@! TO.P,J1,1*
X129286000Y-83312000D03*
G04 #@! TD*
G04 #@! TO.P,J2,1*
G04 #@! TO.N,/MISO*
X151511000Y-103632000D03*
D14*
G04 #@! TO.P,J2,2*
G04 #@! TO.N,VCC*
X151511000Y-106172000D03*
G04 #@! TO.P,J2,3*
G04 #@! TO.N,/USCK*
X148971000Y-103632000D03*
G04 #@! TO.P,J2,4*
G04 #@! TO.N,/MOSI*
X148971000Y-106172000D03*
G04 #@! TO.P,J2,5*
G04 #@! TO.N,/~RESET*
X146431000Y-103632000D03*
G04 #@! TO.P,J2,6*
G04 #@! TO.N,GND*
X146431000Y-106172000D03*
G04 #@! TD*
D15*
G04 #@! TO.P,J3,1*
G04 #@! TO.N,GND*
X167386000Y-83312000D03*
D14*
G04 #@! TO.P,J3,2*
X167386000Y-85852000D03*
G04 #@! TO.P,J3,3*
G04 #@! TO.N,/PA0*
X167386000Y-88392000D03*
G04 #@! TO.P,J3,4*
G04 #@! TO.N,/PA1*
X167386000Y-90932000D03*
G04 #@! TO.P,J3,5*
G04 #@! TO.N,/PA2*
X167386000Y-93472000D03*
G04 #@! TO.P,J3,6*
G04 #@! TO.N,/PA3*
X167386000Y-96012000D03*
G04 #@! TO.P,J3,7*
G04 #@! TO.N,/USCK*
X167386000Y-98552000D03*
G04 #@! TO.P,J3,8*
G04 #@! TO.N,/MISO*
X167386000Y-101092000D03*
G04 #@! TD*
D12*
G04 #@! TO.N,Net-(D1-Pad2)*
G04 #@! TO.C,R1*
G36*
X163971504Y-106948204D02*
X163995773Y-106951804D01*
X164019571Y-106957765D01*
X164042671Y-106966030D01*
X164064849Y-106976520D01*
X164085893Y-106989133D01*
X164105598Y-107003747D01*
X164123777Y-107020223D01*
X164140253Y-107038402D01*
X164154867Y-107058107D01*
X164167480Y-107079151D01*
X164177970Y-107101329D01*
X164186235Y-107124429D01*
X164192196Y-107148227D01*
X164195796Y-107172496D01*
X164197000Y-107197000D01*
X164197000Y-108122000D01*
X164195796Y-108146504D01*
X164192196Y-108170773D01*
X164186235Y-108194571D01*
X164177970Y-108217671D01*
X164167480Y-108239849D01*
X164154867Y-108260893D01*
X164140253Y-108280598D01*
X164123777Y-108298777D01*
X164105598Y-108315253D01*
X164085893Y-108329867D01*
X164064849Y-108342480D01*
X164042671Y-108352970D01*
X164019571Y-108361235D01*
X163995773Y-108367196D01*
X163971504Y-108370796D01*
X163947000Y-108372000D01*
X162697000Y-108372000D01*
X162672496Y-108370796D01*
X162648227Y-108367196D01*
X162624429Y-108361235D01*
X162601329Y-108352970D01*
X162579151Y-108342480D01*
X162558107Y-108329867D01*
X162538402Y-108315253D01*
X162520223Y-108298777D01*
X162503747Y-108280598D01*
X162489133Y-108260893D01*
X162476520Y-108239849D01*
X162466030Y-108217671D01*
X162457765Y-108194571D01*
X162451804Y-108170773D01*
X162448204Y-108146504D01*
X162447000Y-108122000D01*
X162447000Y-107197000D01*
X162448204Y-107172496D01*
X162451804Y-107148227D01*
X162457765Y-107124429D01*
X162466030Y-107101329D01*
X162476520Y-107079151D01*
X162489133Y-107058107D01*
X162503747Y-107038402D01*
X162520223Y-107020223D01*
X162538402Y-107003747D01*
X162558107Y-106989133D01*
X162579151Y-106976520D01*
X162601329Y-106966030D01*
X162624429Y-106957765D01*
X162648227Y-106951804D01*
X162672496Y-106948204D01*
X162697000Y-106947000D01*
X163947000Y-106947000D01*
X163971504Y-106948204D01*
X163971504Y-106948204D01*
G37*
D13*
G04 #@! TD*
G04 #@! TO.P,R1,2*
G04 #@! TO.N,Net-(D1-Pad2)*
X163322000Y-107659500D03*
D12*
G04 #@! TO.N,/USCK*
G04 #@! TO.C,R1*
G36*
X163971504Y-103973204D02*
X163995773Y-103976804D01*
X164019571Y-103982765D01*
X164042671Y-103991030D01*
X164064849Y-104001520D01*
X164085893Y-104014133D01*
X164105598Y-104028747D01*
X164123777Y-104045223D01*
X164140253Y-104063402D01*
X164154867Y-104083107D01*
X164167480Y-104104151D01*
X164177970Y-104126329D01*
X164186235Y-104149429D01*
X164192196Y-104173227D01*
X164195796Y-104197496D01*
X164197000Y-104222000D01*
X164197000Y-105147000D01*
X164195796Y-105171504D01*
X164192196Y-105195773D01*
X164186235Y-105219571D01*
X164177970Y-105242671D01*
X164167480Y-105264849D01*
X164154867Y-105285893D01*
X164140253Y-105305598D01*
X164123777Y-105323777D01*
X164105598Y-105340253D01*
X164085893Y-105354867D01*
X164064849Y-105367480D01*
X164042671Y-105377970D01*
X164019571Y-105386235D01*
X163995773Y-105392196D01*
X163971504Y-105395796D01*
X163947000Y-105397000D01*
X162697000Y-105397000D01*
X162672496Y-105395796D01*
X162648227Y-105392196D01*
X162624429Y-105386235D01*
X162601329Y-105377970D01*
X162579151Y-105367480D01*
X162558107Y-105354867D01*
X162538402Y-105340253D01*
X162520223Y-105323777D01*
X162503747Y-105305598D01*
X162489133Y-105285893D01*
X162476520Y-105264849D01*
X162466030Y-105242671D01*
X162457765Y-105219571D01*
X162451804Y-105195773D01*
X162448204Y-105171504D01*
X162447000Y-105147000D01*
X162447000Y-104222000D01*
X162448204Y-104197496D01*
X162451804Y-104173227D01*
X162457765Y-104149429D01*
X162466030Y-104126329D01*
X162476520Y-104104151D01*
X162489133Y-104083107D01*
X162503747Y-104063402D01*
X162520223Y-104045223D01*
X162538402Y-104028747D01*
X162558107Y-104014133D01*
X162579151Y-104001520D01*
X162601329Y-103991030D01*
X162624429Y-103982765D01*
X162648227Y-103976804D01*
X162672496Y-103973204D01*
X162697000Y-103972000D01*
X163947000Y-103972000D01*
X163971504Y-103973204D01*
X163971504Y-103973204D01*
G37*
D13*
G04 #@! TD*
G04 #@! TO.P,R1,1*
G04 #@! TO.N,/USCK*
X163322000Y-104684500D03*
D12*
G04 #@! TO.N,VCC*
G04 #@! TO.C,R2*
G36*
X142381504Y-107873704D02*
X142405773Y-107877304D01*
X142429571Y-107883265D01*
X142452671Y-107891530D01*
X142474849Y-107902020D01*
X142495893Y-107914633D01*
X142515598Y-107929247D01*
X142533777Y-107945723D01*
X142550253Y-107963902D01*
X142564867Y-107983607D01*
X142577480Y-108004651D01*
X142587970Y-108026829D01*
X142596235Y-108049929D01*
X142602196Y-108073727D01*
X142605796Y-108097996D01*
X142607000Y-108122500D01*
X142607000Y-109047500D01*
X142605796Y-109072004D01*
X142602196Y-109096273D01*
X142596235Y-109120071D01*
X142587970Y-109143171D01*
X142577480Y-109165349D01*
X142564867Y-109186393D01*
X142550253Y-109206098D01*
X142533777Y-109224277D01*
X142515598Y-109240753D01*
X142495893Y-109255367D01*
X142474849Y-109267980D01*
X142452671Y-109278470D01*
X142429571Y-109286735D01*
X142405773Y-109292696D01*
X142381504Y-109296296D01*
X142357000Y-109297500D01*
X141107000Y-109297500D01*
X141082496Y-109296296D01*
X141058227Y-109292696D01*
X141034429Y-109286735D01*
X141011329Y-109278470D01*
X140989151Y-109267980D01*
X140968107Y-109255367D01*
X140948402Y-109240753D01*
X140930223Y-109224277D01*
X140913747Y-109206098D01*
X140899133Y-109186393D01*
X140886520Y-109165349D01*
X140876030Y-109143171D01*
X140867765Y-109120071D01*
X140861804Y-109096273D01*
X140858204Y-109072004D01*
X140857000Y-109047500D01*
X140857000Y-108122500D01*
X140858204Y-108097996D01*
X140861804Y-108073727D01*
X140867765Y-108049929D01*
X140876030Y-108026829D01*
X140886520Y-108004651D01*
X140899133Y-107983607D01*
X140913747Y-107963902D01*
X140930223Y-107945723D01*
X140948402Y-107929247D01*
X140968107Y-107914633D01*
X140989151Y-107902020D01*
X141011329Y-107891530D01*
X141034429Y-107883265D01*
X141058227Y-107877304D01*
X141082496Y-107873704D01*
X141107000Y-107872500D01*
X142357000Y-107872500D01*
X142381504Y-107873704D01*
X142381504Y-107873704D01*
G37*
D13*
G04 #@! TD*
G04 #@! TO.P,R2,1*
G04 #@! TO.N,VCC*
X141732000Y-108585000D03*
D12*
G04 #@! TO.N,/~RESET*
G04 #@! TO.C,R2*
G36*
X142381504Y-104898704D02*
X142405773Y-104902304D01*
X142429571Y-104908265D01*
X142452671Y-104916530D01*
X142474849Y-104927020D01*
X142495893Y-104939633D01*
X142515598Y-104954247D01*
X142533777Y-104970723D01*
X142550253Y-104988902D01*
X142564867Y-105008607D01*
X142577480Y-105029651D01*
X142587970Y-105051829D01*
X142596235Y-105074929D01*
X142602196Y-105098727D01*
X142605796Y-105122996D01*
X142607000Y-105147500D01*
X142607000Y-106072500D01*
X142605796Y-106097004D01*
X142602196Y-106121273D01*
X142596235Y-106145071D01*
X142587970Y-106168171D01*
X142577480Y-106190349D01*
X142564867Y-106211393D01*
X142550253Y-106231098D01*
X142533777Y-106249277D01*
X142515598Y-106265753D01*
X142495893Y-106280367D01*
X142474849Y-106292980D01*
X142452671Y-106303470D01*
X142429571Y-106311735D01*
X142405773Y-106317696D01*
X142381504Y-106321296D01*
X142357000Y-106322500D01*
X141107000Y-106322500D01*
X141082496Y-106321296D01*
X141058227Y-106317696D01*
X141034429Y-106311735D01*
X141011329Y-106303470D01*
X140989151Y-106292980D01*
X140968107Y-106280367D01*
X140948402Y-106265753D01*
X140930223Y-106249277D01*
X140913747Y-106231098D01*
X140899133Y-106211393D01*
X140886520Y-106190349D01*
X140876030Y-106168171D01*
X140867765Y-106145071D01*
X140861804Y-106121273D01*
X140858204Y-106097004D01*
X140857000Y-106072500D01*
X140857000Y-105147500D01*
X140858204Y-105122996D01*
X140861804Y-105098727D01*
X140867765Y-105074929D01*
X140876030Y-105051829D01*
X140886520Y-105029651D01*
X140899133Y-105008607D01*
X140913747Y-104988902D01*
X140930223Y-104970723D01*
X140948402Y-104954247D01*
X140968107Y-104939633D01*
X140989151Y-104927020D01*
X141011329Y-104916530D01*
X141034429Y-104908265D01*
X141058227Y-104902304D01*
X141082496Y-104898704D01*
X141107000Y-104897500D01*
X142357000Y-104897500D01*
X142381504Y-104898704D01*
X142381504Y-104898704D01*
G37*
D13*
G04 #@! TD*
G04 #@! TO.P,R2,2*
G04 #@! TO.N,/~RESET*
X141732000Y-105610000D03*
D16*
G04 #@! TO.P,U1,1*
G04 #@! TO.N,VCC*
X146271000Y-88392000D03*
G04 #@! TO.P,U1,2*
G04 #@! TO.N,/XTAL1*
X146271000Y-89662000D03*
G04 #@! TO.P,U1,3*
G04 #@! TO.N,/XTAL2*
X146271000Y-90932000D03*
G04 #@! TO.P,U1,4*
G04 #@! TO.N,/~RESET*
X146271000Y-92202000D03*
G04 #@! TO.P,U1,5*
G04 #@! TO.N,/PB2*
X146271000Y-93472000D03*
G04 #@! TO.P,U1,6*
G04 #@! TO.N,/PA7*
X146271000Y-94742000D03*
G04 #@! TO.P,U1,7*
G04 #@! TO.N,/MOSI*
X146271000Y-96012000D03*
G04 #@! TO.P,U1,8*
G04 #@! TO.N,/MISO*
X151671000Y-96012000D03*
G04 #@! TO.P,U1,9*
G04 #@! TO.N,/USCK*
X151671000Y-94742000D03*
G04 #@! TO.P,U1,10*
G04 #@! TO.N,/PA3*
X151671000Y-93472000D03*
G04 #@! TO.P,U1,11*
G04 #@! TO.N,/PA2*
X151671000Y-92202000D03*
G04 #@! TO.P,U1,12*
G04 #@! TO.N,/PA1*
X151671000Y-90932000D03*
G04 #@! TO.P,U1,13*
G04 #@! TO.N,/PA0*
X151671000Y-89662000D03*
G04 #@! TO.P,U1,14*
G04 #@! TO.N,GND*
X151671000Y-88392000D03*
G04 #@! TD*
D12*
G04 #@! TO.N,/~RESET*
G04 #@! TO.C,C5*
G36*
X142092004Y-100091204D02*
X142116273Y-100094804D01*
X142140071Y-100100765D01*
X142163171Y-100109030D01*
X142185349Y-100119520D01*
X142206393Y-100132133D01*
X142226098Y-100146747D01*
X142244277Y-100163223D01*
X142260753Y-100181402D01*
X142275367Y-100201107D01*
X142287980Y-100222151D01*
X142298470Y-100244329D01*
X142306735Y-100267429D01*
X142312696Y-100291227D01*
X142316296Y-100315496D01*
X142317500Y-100340000D01*
X142317500Y-101590000D01*
X142316296Y-101614504D01*
X142312696Y-101638773D01*
X142306735Y-101662571D01*
X142298470Y-101685671D01*
X142287980Y-101707849D01*
X142275367Y-101728893D01*
X142260753Y-101748598D01*
X142244277Y-101766777D01*
X142226098Y-101783253D01*
X142206393Y-101797867D01*
X142185349Y-101810480D01*
X142163171Y-101820970D01*
X142140071Y-101829235D01*
X142116273Y-101835196D01*
X142092004Y-101838796D01*
X142067500Y-101840000D01*
X141142500Y-101840000D01*
X141117996Y-101838796D01*
X141093727Y-101835196D01*
X141069929Y-101829235D01*
X141046829Y-101820970D01*
X141024651Y-101810480D01*
X141003607Y-101797867D01*
X140983902Y-101783253D01*
X140965723Y-101766777D01*
X140949247Y-101748598D01*
X140934633Y-101728893D01*
X140922020Y-101707849D01*
X140911530Y-101685671D01*
X140903265Y-101662571D01*
X140897304Y-101638773D01*
X140893704Y-101614504D01*
X140892500Y-101590000D01*
X140892500Y-100340000D01*
X140893704Y-100315496D01*
X140897304Y-100291227D01*
X140903265Y-100267429D01*
X140911530Y-100244329D01*
X140922020Y-100222151D01*
X140934633Y-100201107D01*
X140949247Y-100181402D01*
X140965723Y-100163223D01*
X140983902Y-100146747D01*
X141003607Y-100132133D01*
X141024651Y-100119520D01*
X141046829Y-100109030D01*
X141069929Y-100100765D01*
X141093727Y-100094804D01*
X141117996Y-100091204D01*
X141142500Y-100090000D01*
X142067500Y-100090000D01*
X142092004Y-100091204D01*
X142092004Y-100091204D01*
G37*
D13*
G04 #@! TD*
G04 #@! TO.P,C5,1*
G04 #@! TO.N,/~RESET*
X141605000Y-100965000D03*
D12*
G04 #@! TO.N,GND*
G04 #@! TO.C,C5*
G36*
X139117004Y-100091204D02*
X139141273Y-100094804D01*
X139165071Y-100100765D01*
X139188171Y-100109030D01*
X139210349Y-100119520D01*
X139231393Y-100132133D01*
X139251098Y-100146747D01*
X139269277Y-100163223D01*
X139285753Y-100181402D01*
X139300367Y-100201107D01*
X139312980Y-100222151D01*
X139323470Y-100244329D01*
X139331735Y-100267429D01*
X139337696Y-100291227D01*
X139341296Y-100315496D01*
X139342500Y-100340000D01*
X139342500Y-101590000D01*
X139341296Y-101614504D01*
X139337696Y-101638773D01*
X139331735Y-101662571D01*
X139323470Y-101685671D01*
X139312980Y-101707849D01*
X139300367Y-101728893D01*
X139285753Y-101748598D01*
X139269277Y-101766777D01*
X139251098Y-101783253D01*
X139231393Y-101797867D01*
X139210349Y-101810480D01*
X139188171Y-101820970D01*
X139165071Y-101829235D01*
X139141273Y-101835196D01*
X139117004Y-101838796D01*
X139092500Y-101840000D01*
X138167500Y-101840000D01*
X138142996Y-101838796D01*
X138118727Y-101835196D01*
X138094929Y-101829235D01*
X138071829Y-101820970D01*
X138049651Y-101810480D01*
X138028607Y-101797867D01*
X138008902Y-101783253D01*
X137990723Y-101766777D01*
X137974247Y-101748598D01*
X137959633Y-101728893D01*
X137947020Y-101707849D01*
X137936530Y-101685671D01*
X137928265Y-101662571D01*
X137922304Y-101638773D01*
X137918704Y-101614504D01*
X137917500Y-101590000D01*
X137917500Y-100340000D01*
X137918704Y-100315496D01*
X137922304Y-100291227D01*
X137928265Y-100267429D01*
X137936530Y-100244329D01*
X137947020Y-100222151D01*
X137959633Y-100201107D01*
X137974247Y-100181402D01*
X137990723Y-100163223D01*
X138008902Y-100146747D01*
X138028607Y-100132133D01*
X138049651Y-100119520D01*
X138071829Y-100109030D01*
X138094929Y-100100765D01*
X138118727Y-100094804D01*
X138142996Y-100091204D01*
X138167500Y-100090000D01*
X139092500Y-100090000D01*
X139117004Y-100091204D01*
X139117004Y-100091204D01*
G37*
D13*
G04 #@! TD*
G04 #@! TO.P,C5,2*
G04 #@! TO.N,GND*
X138630000Y-100965000D03*
D17*
G04 #@! TO.P,Y1,1*
G04 #@! TO.N,/XTAL1*
X146481800Y-77470000D03*
G04 #@! TO.P,Y1,2*
G04 #@! TO.N,/XTAL2*
X151361800Y-77470000D03*
G04 #@! TD*
D11*
G04 #@! TO.P,REF\002A\002A,1*
G04 #@! TO.N,GND*
X170087891Y-107280109D03*
X168656000Y-106687000D03*
X167224109Y-107280109D03*
X166631000Y-108712000D03*
X167224109Y-110143891D03*
X168656000Y-110737000D03*
X170087891Y-110143891D03*
X170681000Y-108712000D03*
D10*
X168656000Y-108712000D03*
G04 #@! TD*
D18*
G04 #@! TO.N,GND*
X158496000Y-102108000D03*
X156972000Y-102108000D03*
X160020000Y-102108000D03*
X136779000Y-81280000D03*
X139065000Y-84582000D03*
X141605000Y-84582000D03*
X139065000Y-81280000D03*
X141605000Y-81280000D03*
X144145000Y-80645000D03*
X143510000Y-78105000D03*
X143510000Y-75565000D03*
X146685000Y-74295000D03*
X151003000Y-74295000D03*
X154305000Y-75565000D03*
X154305000Y-78105000D03*
X153670000Y-80645000D03*
X153035000Y-85725000D03*
X154940000Y-85725000D03*
X154305000Y-87630000D03*
X148844000Y-80010000D03*
X148971000Y-85471000D03*
X148844000Y-75819000D03*
D19*
X136525000Y-100584000D03*
X136652000Y-102870000D03*
X138684000Y-103124000D03*
D18*
X134747000Y-81788000D03*
X141605000Y-79248000D03*
X145732500Y-85280500D03*
X140462000Y-82804000D03*
G04 #@! TD*
D20*
G04 #@! TO.N,VCC*
X129286000Y-85852000D02*
X129286000Y-83312000D01*
D21*
X150661001Y-107021999D02*
X151511000Y-106172000D01*
X148336000Y-109347000D02*
X150661001Y-107021999D01*
X143469000Y-109347000D02*
X148336000Y-109347000D01*
X141732000Y-108585000D02*
X142707000Y-108585000D01*
X142707000Y-108585000D02*
X143469000Y-109347000D01*
X128651000Y-85852000D02*
X129286000Y-85852000D01*
X126873000Y-87630000D02*
X128651000Y-85852000D01*
X126873000Y-101981000D02*
X126873000Y-87630000D01*
X141732000Y-108585000D02*
X133477000Y-108585000D01*
X133477000Y-108585000D02*
X126873000Y-101981000D01*
X129286000Y-85852000D02*
X132842000Y-85852000D01*
X133567500Y-86577500D02*
X136525000Y-86577500D01*
X132842000Y-85852000D02*
X133567500Y-86577500D01*
X144874000Y-86995000D02*
X146271000Y-88392000D01*
X143092500Y-86995000D02*
X144874000Y-86995000D01*
X142321153Y-87766347D02*
X143092500Y-86995000D01*
X136525000Y-86577500D02*
X136525000Y-87390000D01*
X141187500Y-88900000D02*
X142321153Y-87766347D01*
X136525000Y-87390000D02*
X138035000Y-88900000D01*
X138035000Y-88900000D02*
X141187500Y-88900000D01*
D22*
G04 #@! TO.N,/XTAL1*
X147207300Y-78195500D02*
X146481800Y-77470000D01*
X147207300Y-83312000D02*
X147207300Y-78195500D01*
X147207300Y-83531665D02*
X147207300Y-83312000D01*
X147207300Y-84287000D02*
X147207300Y-83531665D01*
X147452801Y-84532501D02*
X147207300Y-84287000D01*
X147452801Y-86004400D02*
X147452801Y-84532501D01*
X147443886Y-86083528D02*
X147452801Y-86004400D01*
X147417586Y-86158689D02*
X147443886Y-86083528D01*
X147375221Y-86226112D02*
X147417586Y-86158689D01*
X147318914Y-86282419D02*
X147375221Y-86226112D01*
X147251491Y-86324784D02*
X147318914Y-86282419D01*
X147176330Y-86351084D02*
X147251491Y-86324784D01*
X147097201Y-86360000D02*
X147176330Y-86351084D01*
X146977165Y-86360000D02*
X147097201Y-86360000D01*
X146898037Y-86368915D02*
X146977165Y-86360000D01*
X146822876Y-86395215D02*
X146898037Y-86368915D01*
X146755453Y-86437580D02*
X146822876Y-86395215D01*
X146699146Y-86493887D02*
X146755453Y-86437580D01*
X148206456Y-87648512D02*
X148248821Y-87581089D01*
X148150149Y-87704819D02*
X148206456Y-87648512D01*
X146898037Y-87062284D02*
X146822876Y-87035984D01*
X148082726Y-87747184D02*
X148150149Y-87704819D01*
X146822876Y-87035984D02*
X146755453Y-86993619D01*
X147928437Y-87782400D02*
X148007565Y-87773484D01*
X147808401Y-87782400D02*
X147928437Y-87782400D01*
X148248821Y-87581089D02*
X148275121Y-87505928D01*
X147654111Y-87817615D02*
X147729272Y-87791315D01*
X147586688Y-87859980D02*
X147654111Y-87817615D01*
X146271000Y-89662000D02*
X146828242Y-89662000D01*
X147530381Y-87916287D02*
X147586688Y-87859980D01*
X146977165Y-87071200D02*
X146898037Y-87062284D01*
X147729272Y-87791315D02*
X147808401Y-87782400D01*
X146828242Y-89662000D02*
X147452801Y-89037441D01*
X146630481Y-86794728D02*
X146621565Y-86715600D01*
X148007565Y-87773484D02*
X148082726Y-87747184D01*
X147452801Y-88138000D02*
X147461716Y-88058871D01*
X147488016Y-87983710D02*
X147530381Y-87916287D01*
X147452801Y-89037441D02*
X147452801Y-88138000D01*
X146656781Y-86869889D02*
X146630481Y-86794728D01*
X147461716Y-88058871D02*
X147488016Y-87983710D01*
X148275121Y-87505928D02*
X148284037Y-87426800D01*
X148284037Y-87426800D02*
X148275121Y-87347671D01*
X148275121Y-87347671D02*
X148248821Y-87272510D01*
X148248821Y-87272510D02*
X148206456Y-87205087D01*
X148206456Y-87205087D02*
X148150149Y-87148780D01*
X148150149Y-87148780D02*
X148082726Y-87106415D01*
X148082726Y-87106415D02*
X148007565Y-87080115D01*
X148007565Y-87080115D02*
X147928437Y-87071200D01*
X147928437Y-87071200D02*
X146977165Y-87071200D01*
X146755453Y-86993619D02*
X146699146Y-86937312D01*
X146621565Y-86715600D02*
X146630481Y-86636471D01*
X146699146Y-86937312D02*
X146656781Y-86869889D01*
X146630481Y-86636471D02*
X146656781Y-86561310D01*
X146656781Y-86561310D02*
X146699146Y-86493887D01*
X146271000Y-89662000D02*
X144018000Y-89662000D01*
X144018000Y-89662000D02*
X142875000Y-90805000D01*
X142875000Y-90805000D02*
X135890000Y-90805000D01*
X133477000Y-88392000D02*
X129286000Y-88392000D01*
X135890000Y-90805000D02*
X133477000Y-88392000D01*
G04 #@! TO.N,/XTAL2*
X150582300Y-78249500D02*
X151361800Y-77470000D01*
X150582300Y-83312000D02*
X150582300Y-78249500D01*
X150582300Y-84287000D02*
X150582300Y-83312000D01*
X146271000Y-90932000D02*
X146721000Y-90932000D01*
X146721000Y-90932000D02*
X150582300Y-87070700D01*
X150582300Y-87070700D02*
X150582300Y-84287000D01*
X130135999Y-91781999D02*
X129286000Y-90932000D01*
X144425880Y-90932000D02*
X143575881Y-91781999D01*
X143575881Y-91781999D02*
X130135999Y-91781999D01*
X146271000Y-90932000D02*
X144425880Y-90932000D01*
G04 #@! TO.N,Net-(D1-Pad2)*
X158496000Y-107151500D02*
X160618500Y-107151500D01*
X161126500Y-107659500D02*
X163322000Y-107659500D01*
X160618500Y-107151500D02*
X161126500Y-107659500D01*
G04 #@! TO.N,/MOSI*
X148121001Y-107021999D02*
X148971000Y-106172000D01*
X147320000Y-107823000D02*
X148121001Y-107021999D01*
X145161000Y-107823000D02*
X147320000Y-107823000D01*
X144399000Y-107061000D02*
X145161000Y-107823000D01*
X129286000Y-101092000D02*
X135255000Y-107061000D01*
X135255000Y-107061000D02*
X144399000Y-107061000D01*
X130135999Y-100242001D02*
X129286000Y-101092000D01*
X146271000Y-96012000D02*
X145165400Y-96012000D01*
X142752400Y-98425000D02*
X131953000Y-98425000D01*
X145165400Y-96012000D02*
X142752400Y-98425000D01*
X131953000Y-98425000D02*
X130135999Y-100242001D01*
G04 #@! TO.N,/PA7*
X142240000Y-97155000D02*
X130683000Y-97155000D01*
X130683000Y-97155000D02*
X129286000Y-98552000D01*
X144653000Y-94742000D02*
X142240000Y-97155000D01*
X146271000Y-94742000D02*
X144653000Y-94742000D01*
G04 #@! TO.N,/PB2*
X130488081Y-96012000D02*
X129286000Y-96012000D01*
X144757518Y-93472000D02*
X142979518Y-95250000D01*
X146271000Y-93472000D02*
X144757518Y-93472000D01*
X142979518Y-95250000D02*
X131250081Y-95250000D01*
X131250081Y-95250000D02*
X130488081Y-96012000D01*
G04 #@! TO.N,/~RESET*
X130488081Y-93472000D02*
X129286000Y-93472000D01*
X143383000Y-93472000D02*
X130488081Y-93472000D01*
X144653000Y-92202000D02*
X143383000Y-93472000D01*
X146271000Y-92202000D02*
X144653000Y-92202000D01*
X142417500Y-100965000D02*
X141605000Y-100965000D01*
X143145242Y-100965000D02*
X142417500Y-100965000D01*
X146271000Y-92202000D02*
X146828242Y-92202000D01*
X147955000Y-93328758D02*
X147955000Y-96155242D01*
X146828242Y-92202000D02*
X147955000Y-93328758D01*
X147955000Y-96155242D02*
X143145242Y-100965000D01*
X141605000Y-105483000D02*
X141732000Y-105610000D01*
X141605000Y-100965000D02*
X141605000Y-105483000D01*
X145288000Y-103632000D02*
X143310000Y-105610000D01*
X143310000Y-105610000D02*
X141732000Y-105610000D01*
X146431000Y-103632000D02*
X145288000Y-103632000D01*
D23*
G04 #@! TO.N,/MISO*
X162306000Y-96012000D02*
X151671000Y-96012000D01*
X167386000Y-101092000D02*
X162306000Y-96012000D01*
D22*
X151671000Y-103472000D02*
X151511000Y-103632000D01*
X151671000Y-96012000D02*
X151671000Y-103472000D01*
G04 #@! TO.N,/USCK*
X150622000Y-94742000D02*
X151671000Y-94742000D01*
X148971000Y-103632000D02*
X148971000Y-96393000D01*
X148971000Y-96393000D02*
X150622000Y-94742000D01*
X168235999Y-99401999D02*
X167386000Y-98552000D01*
X169164000Y-100330000D02*
X168235999Y-99401999D01*
X169164000Y-101981000D02*
X169164000Y-100330000D01*
X163322000Y-104684500D02*
X166460500Y-104684500D01*
X166460500Y-104684500D02*
X169164000Y-101981000D01*
X163576000Y-94742000D02*
X167386000Y-98552000D01*
X151671000Y-94742000D02*
X163576000Y-94742000D01*
G04 #@! TO.N,/PA0*
X166116000Y-89662000D02*
X167386000Y-88392000D01*
X151671000Y-89662000D02*
X166116000Y-89662000D01*
G04 #@! TO.N,/PA1*
X152776600Y-90932000D02*
X167386000Y-90932000D01*
X151671000Y-90932000D02*
X152776600Y-90932000D01*
G04 #@! TO.N,/PA2*
X166116000Y-92202000D02*
X167386000Y-93472000D01*
X151671000Y-92202000D02*
X166116000Y-92202000D01*
G04 #@! TO.N,/PA3*
X164846000Y-93472000D02*
X167386000Y-96012000D01*
X151671000Y-93472000D02*
X164846000Y-93472000D01*
G04 #@! TD*
D24*
G04 #@! TO.N,GND*
G36*
X160909000Y-105537000D02*
X156083000Y-105537000D01*
X156083000Y-104462250D01*
X156986000Y-104462250D01*
X156986000Y-105015309D01*
X157082673Y-105248698D01*
X157261301Y-105427327D01*
X157494690Y-105524000D01*
X158210250Y-105524000D01*
X158369000Y-105365250D01*
X158369000Y-104303500D01*
X158623000Y-104303500D01*
X158623000Y-105365250D01*
X158781750Y-105524000D01*
X159497310Y-105524000D01*
X159730699Y-105427327D01*
X159909327Y-105248698D01*
X160006000Y-105015309D01*
X160006000Y-104462250D01*
X159847250Y-104303500D01*
X158623000Y-104303500D01*
X158369000Y-104303500D01*
X157144750Y-104303500D01*
X156986000Y-104462250D01*
X156083000Y-104462250D01*
X156083000Y-103337691D01*
X156986000Y-103337691D01*
X156986000Y-103890750D01*
X157144750Y-104049500D01*
X158369000Y-104049500D01*
X158369000Y-102987750D01*
X158623000Y-102987750D01*
X158623000Y-104049500D01*
X159847250Y-104049500D01*
X160006000Y-103890750D01*
X160006000Y-103337691D01*
X159909327Y-103104302D01*
X159730699Y-102925673D01*
X159497310Y-102829000D01*
X158781750Y-102829000D01*
X158623000Y-102987750D01*
X158369000Y-102987750D01*
X158210250Y-102829000D01*
X157494690Y-102829000D01*
X157261301Y-102925673D01*
X157082673Y-103104302D01*
X156986000Y-103337691D01*
X156083000Y-103337691D01*
X156083000Y-101219000D01*
X160909000Y-101219000D01*
X160909000Y-105537000D01*
X160909000Y-105537000D01*
G37*
X160909000Y-105537000D02*
X156083000Y-105537000D01*
X156083000Y-104462250D01*
X156986000Y-104462250D01*
X156986000Y-105015309D01*
X157082673Y-105248698D01*
X157261301Y-105427327D01*
X157494690Y-105524000D01*
X158210250Y-105524000D01*
X158369000Y-105365250D01*
X158369000Y-104303500D01*
X158623000Y-104303500D01*
X158623000Y-105365250D01*
X158781750Y-105524000D01*
X159497310Y-105524000D01*
X159730699Y-105427327D01*
X159909327Y-105248698D01*
X160006000Y-105015309D01*
X160006000Y-104462250D01*
X159847250Y-104303500D01*
X158623000Y-104303500D01*
X158369000Y-104303500D01*
X157144750Y-104303500D01*
X156986000Y-104462250D01*
X156083000Y-104462250D01*
X156083000Y-103337691D01*
X156986000Y-103337691D01*
X156986000Y-103890750D01*
X157144750Y-104049500D01*
X158369000Y-104049500D01*
X158369000Y-102987750D01*
X158623000Y-102987750D01*
X158623000Y-104049500D01*
X159847250Y-104049500D01*
X160006000Y-103890750D01*
X160006000Y-103337691D01*
X159909327Y-103104302D01*
X159730699Y-102925673D01*
X159497310Y-102829000D01*
X158781750Y-102829000D01*
X158623000Y-102987750D01*
X158369000Y-102987750D01*
X158210250Y-102829000D01*
X157494690Y-102829000D01*
X157261301Y-102925673D01*
X157082673Y-103104302D01*
X156986000Y-103337691D01*
X156083000Y-103337691D01*
X156083000Y-101219000D01*
X160909000Y-101219000D01*
X160909000Y-105537000D01*
G36*
X156083000Y-88773000D02*
X153056000Y-88773000D01*
X153056000Y-88677750D01*
X152897250Y-88519000D01*
X151798000Y-88519000D01*
X151798000Y-88539000D01*
X151544000Y-88539000D01*
X151544000Y-88519000D01*
X151524000Y-88519000D01*
X151524000Y-88265000D01*
X151544000Y-88265000D01*
X151544000Y-87615750D01*
X151798000Y-87615750D01*
X151798000Y-88265000D01*
X152897250Y-88265000D01*
X153056000Y-88106250D01*
X153056000Y-87965690D01*
X152959327Y-87732301D01*
X152780698Y-87553673D01*
X152547309Y-87457000D01*
X151956750Y-87457000D01*
X151798000Y-87615750D01*
X151544000Y-87615750D01*
X151385250Y-87457000D01*
X151301728Y-87457000D01*
X151347940Y-87387839D01*
X151395100Y-87150750D01*
X151395100Y-87150749D01*
X151411023Y-87070700D01*
X151395100Y-86990650D01*
X151395100Y-84761539D01*
X151679386Y-84571586D01*
X151873926Y-84280435D01*
X151942240Y-83937000D01*
X151942240Y-83597750D01*
X152209800Y-83597750D01*
X152209800Y-84313310D01*
X152306473Y-84546699D01*
X152485102Y-84725327D01*
X152718491Y-84822000D01*
X153271550Y-84822000D01*
X153430300Y-84663250D01*
X153430300Y-83439000D01*
X153684300Y-83439000D01*
X153684300Y-84663250D01*
X153843050Y-84822000D01*
X154396109Y-84822000D01*
X154629498Y-84725327D01*
X154808127Y-84546699D01*
X154904800Y-84313310D01*
X154904800Y-83597750D01*
X154746050Y-83439000D01*
X153684300Y-83439000D01*
X153430300Y-83439000D01*
X152368550Y-83439000D01*
X152209800Y-83597750D01*
X151942240Y-83597750D01*
X151942240Y-82687000D01*
X151873926Y-82343565D01*
X151851960Y-82310690D01*
X152209800Y-82310690D01*
X152209800Y-83026250D01*
X152368550Y-83185000D01*
X153430300Y-83185000D01*
X153430300Y-81960750D01*
X153684300Y-81960750D01*
X153684300Y-83185000D01*
X154746050Y-83185000D01*
X154904800Y-83026250D01*
X154904800Y-82310690D01*
X154808127Y-82077301D01*
X154629498Y-81898673D01*
X154396109Y-81802000D01*
X153843050Y-81802000D01*
X153684300Y-81960750D01*
X153430300Y-81960750D01*
X153271550Y-81802000D01*
X152718491Y-81802000D01*
X152485102Y-81898673D01*
X152306473Y-82077301D01*
X152209800Y-82310690D01*
X151851960Y-82310690D01*
X151679386Y-82052414D01*
X151395100Y-81862461D01*
X151395100Y-78855000D01*
X151637294Y-78855000D01*
X152146340Y-78644147D01*
X152535947Y-78254540D01*
X152746800Y-77745494D01*
X152746800Y-77194506D01*
X152535947Y-76685460D01*
X152146340Y-76295853D01*
X151637294Y-76085000D01*
X151086306Y-76085000D01*
X150577260Y-76295853D01*
X150187653Y-76685460D01*
X149976800Y-77194506D01*
X149976800Y-77692695D01*
X149950960Y-77731368D01*
X149816660Y-77932362D01*
X149753577Y-78249500D01*
X149769501Y-78329555D01*
X149769500Y-81862461D01*
X149485214Y-82052414D01*
X149290674Y-82343565D01*
X149222360Y-82687000D01*
X149222360Y-83937000D01*
X149290674Y-84280435D01*
X149485214Y-84571586D01*
X149769501Y-84761540D01*
X149769500Y-86734027D01*
X149100159Y-87403368D01*
X149102540Y-87394138D01*
X149088697Y-87296081D01*
X149080372Y-87197384D01*
X149074946Y-87186881D01*
X149073846Y-87177117D01*
X149070356Y-87166166D01*
X149068748Y-87154779D01*
X149065503Y-87145504D01*
X149065834Y-87133692D01*
X149030509Y-87041151D01*
X149000436Y-86946799D01*
X148992814Y-86937773D01*
X148989570Y-86928502D01*
X148983728Y-86918599D01*
X148979626Y-86907852D01*
X148974401Y-86899536D01*
X148972096Y-86887949D01*
X148917073Y-86805601D01*
X148866751Y-86720293D01*
X148857308Y-86713187D01*
X148852082Y-86704869D01*
X148844184Y-86696515D01*
X148837796Y-86686955D01*
X148830849Y-86680008D01*
X148826024Y-86669225D01*
X148754057Y-86601186D01*
X148686011Y-86529212D01*
X148675228Y-86524387D01*
X148668281Y-86517440D01*
X148658718Y-86511050D01*
X148650366Y-86503154D01*
X148642050Y-86497929D01*
X148634943Y-86488485D01*
X148549632Y-86438161D01*
X148467287Y-86383140D01*
X148455698Y-86380835D01*
X148447383Y-86375610D01*
X148436642Y-86371510D01*
X148426735Y-86365666D01*
X148417459Y-86362420D01*
X148408429Y-86354795D01*
X148314065Y-86324719D01*
X148234510Y-86294352D01*
X148234268Y-86285695D01*
X148237513Y-86276420D01*
X148239121Y-86265029D01*
X148242613Y-86254073D01*
X148250300Y-86185844D01*
X148262203Y-86101532D01*
X148265601Y-86084450D01*
X148265601Y-86077464D01*
X148271305Y-86037061D01*
X148268353Y-86025616D01*
X148269453Y-86015852D01*
X148265601Y-85970189D01*
X148265601Y-84612551D01*
X148269053Y-84595194D01*
X148304386Y-84571586D01*
X148498926Y-84280435D01*
X148567240Y-83937000D01*
X148567240Y-82687000D01*
X148498926Y-82343565D01*
X148304386Y-82052414D01*
X148020100Y-81862461D01*
X148020100Y-78275550D01*
X148036023Y-78195500D01*
X147972940Y-77878361D01*
X147866800Y-77719511D01*
X147866800Y-77194506D01*
X147655947Y-76685460D01*
X147266340Y-76295853D01*
X146757294Y-76085000D01*
X146206306Y-76085000D01*
X145697260Y-76295853D01*
X145307653Y-76685460D01*
X145096800Y-77194506D01*
X145096800Y-77745494D01*
X145307653Y-78254540D01*
X145697260Y-78644147D01*
X146206306Y-78855000D01*
X146394501Y-78855000D01*
X146394500Y-81862461D01*
X146110214Y-82052414D01*
X145915674Y-82343565D01*
X145847360Y-82687000D01*
X145847360Y-83937000D01*
X145915674Y-84280435D01*
X146110214Y-84571586D01*
X146401365Y-84766126D01*
X146572663Y-84800200D01*
X146621304Y-84872996D01*
X146640002Y-84885489D01*
X146640001Y-85595019D01*
X146591535Y-85613520D01*
X146497173Y-85643595D01*
X146488142Y-85651221D01*
X146478868Y-85654466D01*
X146468965Y-85660308D01*
X146458218Y-85664410D01*
X146449902Y-85669635D01*
X146438315Y-85671940D01*
X146355967Y-85726963D01*
X146270659Y-85777285D01*
X146263553Y-85786728D01*
X146255235Y-85791954D01*
X146246881Y-85799852D01*
X146237321Y-85806240D01*
X146230374Y-85813187D01*
X146219591Y-85818012D01*
X146151552Y-85889979D01*
X146079578Y-85958025D01*
X146074753Y-85968808D01*
X146067806Y-85975755D01*
X146061416Y-85985318D01*
X146053520Y-85993670D01*
X146048295Y-86001986D01*
X146038851Y-86009093D01*
X145988527Y-86094404D01*
X145933506Y-86176749D01*
X145931201Y-86188338D01*
X145925976Y-86196653D01*
X145921876Y-86207394D01*
X145916032Y-86217301D01*
X145912787Y-86226573D01*
X145905166Y-86235599D01*
X145875092Y-86329954D01*
X145839768Y-86422492D01*
X145840099Y-86434303D01*
X145836854Y-86443578D01*
X145835246Y-86454967D01*
X145831756Y-86465917D01*
X145830656Y-86475681D01*
X145825230Y-86486184D01*
X145820631Y-86540712D01*
X145643452Y-86363533D01*
X145588183Y-86280817D01*
X145260513Y-86061875D01*
X144971566Y-86004400D01*
X144971565Y-86004400D01*
X144874000Y-85984993D01*
X144776435Y-86004400D01*
X144369316Y-86004400D01*
X144189586Y-85735414D01*
X143898435Y-85540874D01*
X143555000Y-85472560D01*
X142630000Y-85472560D01*
X142286565Y-85540874D01*
X141995414Y-85735414D01*
X141800874Y-86026565D01*
X141732560Y-86370000D01*
X141732560Y-86954021D01*
X141689685Y-86996896D01*
X141689682Y-86996898D01*
X141435415Y-87251165D01*
X141306250Y-87122000D01*
X140244500Y-87122000D01*
X140244500Y-87142000D01*
X139990500Y-87142000D01*
X139990500Y-87122000D01*
X138928750Y-87122000D01*
X138770000Y-87280750D01*
X138770000Y-87909400D01*
X138445320Y-87909400D01*
X137955185Y-87419265D01*
X137979126Y-87383435D01*
X138047440Y-87040000D01*
X138047440Y-86115000D01*
X138023310Y-85993690D01*
X138770000Y-85993690D01*
X138770000Y-86709250D01*
X138928750Y-86868000D01*
X139990500Y-86868000D01*
X139990500Y-85643750D01*
X140244500Y-85643750D01*
X140244500Y-86868000D01*
X141306250Y-86868000D01*
X141465000Y-86709250D01*
X141465000Y-85993690D01*
X141368327Y-85760301D01*
X141189698Y-85581673D01*
X140956309Y-85485000D01*
X140403250Y-85485000D01*
X140244500Y-85643750D01*
X139990500Y-85643750D01*
X139831750Y-85485000D01*
X139278691Y-85485000D01*
X139045302Y-85581673D01*
X138866673Y-85760301D01*
X138770000Y-85993690D01*
X138023310Y-85993690D01*
X137979126Y-85771565D01*
X137784586Y-85480414D01*
X137493435Y-85285874D01*
X137150000Y-85217560D01*
X135900000Y-85217560D01*
X135556565Y-85285874D01*
X135265414Y-85480414D01*
X135194263Y-85586900D01*
X134112000Y-85586900D01*
X134112000Y-83888250D01*
X135015000Y-83888250D01*
X135015000Y-84441309D01*
X135111673Y-84674698D01*
X135290301Y-84853327D01*
X135523690Y-84950000D01*
X136239250Y-84950000D01*
X136398000Y-84791250D01*
X136398000Y-83729500D01*
X136652000Y-83729500D01*
X136652000Y-84791250D01*
X136810750Y-84950000D01*
X137526310Y-84950000D01*
X137759699Y-84853327D01*
X137938327Y-84674698D01*
X138035000Y-84441309D01*
X138035000Y-83888250D01*
X137876250Y-83729500D01*
X136652000Y-83729500D01*
X136398000Y-83729500D01*
X135173750Y-83729500D01*
X135015000Y-83888250D01*
X134112000Y-83888250D01*
X134112000Y-83597750D01*
X142884800Y-83597750D01*
X142884800Y-84313310D01*
X142981473Y-84546699D01*
X143160102Y-84725327D01*
X143393491Y-84822000D01*
X143946550Y-84822000D01*
X144105300Y-84663250D01*
X144105300Y-83439000D01*
X144359300Y-83439000D01*
X144359300Y-84663250D01*
X144518050Y-84822000D01*
X145071109Y-84822000D01*
X145304498Y-84725327D01*
X145483127Y-84546699D01*
X145579800Y-84313310D01*
X145579800Y-83597750D01*
X145421050Y-83439000D01*
X144359300Y-83439000D01*
X144105300Y-83439000D01*
X143043550Y-83439000D01*
X142884800Y-83597750D01*
X134112000Y-83597750D01*
X134112000Y-82763691D01*
X135015000Y-82763691D01*
X135015000Y-83316750D01*
X135173750Y-83475500D01*
X136398000Y-83475500D01*
X136398000Y-82413750D01*
X136652000Y-82413750D01*
X136652000Y-83475500D01*
X137876250Y-83475500D01*
X138035000Y-83316750D01*
X138035000Y-82763691D01*
X137938327Y-82530302D01*
X137759699Y-82351673D01*
X137660758Y-82310690D01*
X142884800Y-82310690D01*
X142884800Y-83026250D01*
X143043550Y-83185000D01*
X144105300Y-83185000D01*
X144105300Y-81960750D01*
X144359300Y-81960750D01*
X144359300Y-83185000D01*
X145421050Y-83185000D01*
X145579800Y-83026250D01*
X145579800Y-82310690D01*
X145483127Y-82077301D01*
X145304498Y-81898673D01*
X145071109Y-81802000D01*
X144518050Y-81802000D01*
X144359300Y-81960750D01*
X144105300Y-81960750D01*
X143946550Y-81802000D01*
X143393491Y-81802000D01*
X143160102Y-81898673D01*
X142981473Y-82077301D01*
X142884800Y-82310690D01*
X137660758Y-82310690D01*
X137526310Y-82255000D01*
X136810750Y-82255000D01*
X136652000Y-82413750D01*
X136398000Y-82413750D01*
X136239250Y-82255000D01*
X135523690Y-82255000D01*
X135290301Y-82351673D01*
X135111673Y-82530302D01*
X135015000Y-82763691D01*
X134112000Y-82763691D01*
X134112000Y-80137000D01*
X139065000Y-80137000D01*
X139113601Y-80127333D01*
X139154803Y-80099803D01*
X141694803Y-77559803D01*
X141722333Y-77518601D01*
X141732000Y-77470000D01*
X141732000Y-73152000D01*
X156083000Y-73152000D01*
X156083000Y-88773000D01*
X156083000Y-88773000D01*
G37*
X156083000Y-88773000D02*
X153056000Y-88773000D01*
X153056000Y-88677750D01*
X152897250Y-88519000D01*
X151798000Y-88519000D01*
X151798000Y-88539000D01*
X151544000Y-88539000D01*
X151544000Y-88519000D01*
X151524000Y-88519000D01*
X151524000Y-88265000D01*
X151544000Y-88265000D01*
X151544000Y-87615750D01*
X151798000Y-87615750D01*
X151798000Y-88265000D01*
X152897250Y-88265000D01*
X153056000Y-88106250D01*
X153056000Y-87965690D01*
X152959327Y-87732301D01*
X152780698Y-87553673D01*
X152547309Y-87457000D01*
X151956750Y-87457000D01*
X151798000Y-87615750D01*
X151544000Y-87615750D01*
X151385250Y-87457000D01*
X151301728Y-87457000D01*
X151347940Y-87387839D01*
X151395100Y-87150750D01*
X151395100Y-87150749D01*
X151411023Y-87070700D01*
X151395100Y-86990650D01*
X151395100Y-84761539D01*
X151679386Y-84571586D01*
X151873926Y-84280435D01*
X151942240Y-83937000D01*
X151942240Y-83597750D01*
X152209800Y-83597750D01*
X152209800Y-84313310D01*
X152306473Y-84546699D01*
X152485102Y-84725327D01*
X152718491Y-84822000D01*
X153271550Y-84822000D01*
X153430300Y-84663250D01*
X153430300Y-83439000D01*
X153684300Y-83439000D01*
X153684300Y-84663250D01*
X153843050Y-84822000D01*
X154396109Y-84822000D01*
X154629498Y-84725327D01*
X154808127Y-84546699D01*
X154904800Y-84313310D01*
X154904800Y-83597750D01*
X154746050Y-83439000D01*
X153684300Y-83439000D01*
X153430300Y-83439000D01*
X152368550Y-83439000D01*
X152209800Y-83597750D01*
X151942240Y-83597750D01*
X151942240Y-82687000D01*
X151873926Y-82343565D01*
X151851960Y-82310690D01*
X152209800Y-82310690D01*
X152209800Y-83026250D01*
X152368550Y-83185000D01*
X153430300Y-83185000D01*
X153430300Y-81960750D01*
X153684300Y-81960750D01*
X153684300Y-83185000D01*
X154746050Y-83185000D01*
X154904800Y-83026250D01*
X154904800Y-82310690D01*
X154808127Y-82077301D01*
X154629498Y-81898673D01*
X154396109Y-81802000D01*
X153843050Y-81802000D01*
X153684300Y-81960750D01*
X153430300Y-81960750D01*
X153271550Y-81802000D01*
X152718491Y-81802000D01*
X152485102Y-81898673D01*
X152306473Y-82077301D01*
X152209800Y-82310690D01*
X151851960Y-82310690D01*
X151679386Y-82052414D01*
X151395100Y-81862461D01*
X151395100Y-78855000D01*
X151637294Y-78855000D01*
X152146340Y-78644147D01*
X152535947Y-78254540D01*
X152746800Y-77745494D01*
X152746800Y-77194506D01*
X152535947Y-76685460D01*
X152146340Y-76295853D01*
X151637294Y-76085000D01*
X151086306Y-76085000D01*
X150577260Y-76295853D01*
X150187653Y-76685460D01*
X149976800Y-77194506D01*
X149976800Y-77692695D01*
X149950960Y-77731368D01*
X149816660Y-77932362D01*
X149753577Y-78249500D01*
X149769501Y-78329555D01*
X149769500Y-81862461D01*
X149485214Y-82052414D01*
X149290674Y-82343565D01*
X149222360Y-82687000D01*
X149222360Y-83937000D01*
X149290674Y-84280435D01*
X149485214Y-84571586D01*
X149769501Y-84761540D01*
X149769500Y-86734027D01*
X149100159Y-87403368D01*
X149102540Y-87394138D01*
X149088697Y-87296081D01*
X149080372Y-87197384D01*
X149074946Y-87186881D01*
X149073846Y-87177117D01*
X149070356Y-87166166D01*
X149068748Y-87154779D01*
X149065503Y-87145504D01*
X149065834Y-87133692D01*
X149030509Y-87041151D01*
X149000436Y-86946799D01*
X148992814Y-86937773D01*
X148989570Y-86928502D01*
X148983728Y-86918599D01*
X148979626Y-86907852D01*
X148974401Y-86899536D01*
X148972096Y-86887949D01*
X148917073Y-86805601D01*
X148866751Y-86720293D01*
X148857308Y-86713187D01*
X148852082Y-86704869D01*
X148844184Y-86696515D01*
X148837796Y-86686955D01*
X148830849Y-86680008D01*
X148826024Y-86669225D01*
X148754057Y-86601186D01*
X148686011Y-86529212D01*
X148675228Y-86524387D01*
X148668281Y-86517440D01*
X148658718Y-86511050D01*
X148650366Y-86503154D01*
X148642050Y-86497929D01*
X148634943Y-86488485D01*
X148549632Y-86438161D01*
X148467287Y-86383140D01*
X148455698Y-86380835D01*
X148447383Y-86375610D01*
X148436642Y-86371510D01*
X148426735Y-86365666D01*
X148417459Y-86362420D01*
X148408429Y-86354795D01*
X148314065Y-86324719D01*
X148234510Y-86294352D01*
X148234268Y-86285695D01*
X148237513Y-86276420D01*
X148239121Y-86265029D01*
X148242613Y-86254073D01*
X148250300Y-86185844D01*
X148262203Y-86101532D01*
X148265601Y-86084450D01*
X148265601Y-86077464D01*
X148271305Y-86037061D01*
X148268353Y-86025616D01*
X148269453Y-86015852D01*
X148265601Y-85970189D01*
X148265601Y-84612551D01*
X148269053Y-84595194D01*
X148304386Y-84571586D01*
X148498926Y-84280435D01*
X148567240Y-83937000D01*
X148567240Y-82687000D01*
X148498926Y-82343565D01*
X148304386Y-82052414D01*
X148020100Y-81862461D01*
X148020100Y-78275550D01*
X148036023Y-78195500D01*
X147972940Y-77878361D01*
X147866800Y-77719511D01*
X147866800Y-77194506D01*
X147655947Y-76685460D01*
X147266340Y-76295853D01*
X146757294Y-76085000D01*
X146206306Y-76085000D01*
X145697260Y-76295853D01*
X145307653Y-76685460D01*
X145096800Y-77194506D01*
X145096800Y-77745494D01*
X145307653Y-78254540D01*
X145697260Y-78644147D01*
X146206306Y-78855000D01*
X146394501Y-78855000D01*
X146394500Y-81862461D01*
X146110214Y-82052414D01*
X145915674Y-82343565D01*
X145847360Y-82687000D01*
X145847360Y-83937000D01*
X145915674Y-84280435D01*
X146110214Y-84571586D01*
X146401365Y-84766126D01*
X146572663Y-84800200D01*
X146621304Y-84872996D01*
X146640002Y-84885489D01*
X146640001Y-85595019D01*
X146591535Y-85613520D01*
X146497173Y-85643595D01*
X146488142Y-85651221D01*
X146478868Y-85654466D01*
X146468965Y-85660308D01*
X146458218Y-85664410D01*
X146449902Y-85669635D01*
X146438315Y-85671940D01*
X146355967Y-85726963D01*
X146270659Y-85777285D01*
X146263553Y-85786728D01*
X146255235Y-85791954D01*
X146246881Y-85799852D01*
X146237321Y-85806240D01*
X146230374Y-85813187D01*
X146219591Y-85818012D01*
X146151552Y-85889979D01*
X146079578Y-85958025D01*
X146074753Y-85968808D01*
X146067806Y-85975755D01*
X146061416Y-85985318D01*
X146053520Y-85993670D01*
X146048295Y-86001986D01*
X146038851Y-86009093D01*
X145988527Y-86094404D01*
X145933506Y-86176749D01*
X145931201Y-86188338D01*
X145925976Y-86196653D01*
X145921876Y-86207394D01*
X145916032Y-86217301D01*
X145912787Y-86226573D01*
X145905166Y-86235599D01*
X145875092Y-86329954D01*
X145839768Y-86422492D01*
X145840099Y-86434303D01*
X145836854Y-86443578D01*
X145835246Y-86454967D01*
X145831756Y-86465917D01*
X145830656Y-86475681D01*
X145825230Y-86486184D01*
X145820631Y-86540712D01*
X145643452Y-86363533D01*
X145588183Y-86280817D01*
X145260513Y-86061875D01*
X144971566Y-86004400D01*
X144971565Y-86004400D01*
X144874000Y-85984993D01*
X144776435Y-86004400D01*
X144369316Y-86004400D01*
X144189586Y-85735414D01*
X143898435Y-85540874D01*
X143555000Y-85472560D01*
X142630000Y-85472560D01*
X142286565Y-85540874D01*
X141995414Y-85735414D01*
X141800874Y-86026565D01*
X141732560Y-86370000D01*
X141732560Y-86954021D01*
X141689685Y-86996896D01*
X141689682Y-86996898D01*
X141435415Y-87251165D01*
X141306250Y-87122000D01*
X140244500Y-87122000D01*
X140244500Y-87142000D01*
X139990500Y-87142000D01*
X139990500Y-87122000D01*
X138928750Y-87122000D01*
X138770000Y-87280750D01*
X138770000Y-87909400D01*
X138445320Y-87909400D01*
X137955185Y-87419265D01*
X137979126Y-87383435D01*
X138047440Y-87040000D01*
X138047440Y-86115000D01*
X138023310Y-85993690D01*
X138770000Y-85993690D01*
X138770000Y-86709250D01*
X138928750Y-86868000D01*
X139990500Y-86868000D01*
X139990500Y-85643750D01*
X140244500Y-85643750D01*
X140244500Y-86868000D01*
X141306250Y-86868000D01*
X141465000Y-86709250D01*
X141465000Y-85993690D01*
X141368327Y-85760301D01*
X141189698Y-85581673D01*
X140956309Y-85485000D01*
X140403250Y-85485000D01*
X140244500Y-85643750D01*
X139990500Y-85643750D01*
X139831750Y-85485000D01*
X139278691Y-85485000D01*
X139045302Y-85581673D01*
X138866673Y-85760301D01*
X138770000Y-85993690D01*
X138023310Y-85993690D01*
X137979126Y-85771565D01*
X137784586Y-85480414D01*
X137493435Y-85285874D01*
X137150000Y-85217560D01*
X135900000Y-85217560D01*
X135556565Y-85285874D01*
X135265414Y-85480414D01*
X135194263Y-85586900D01*
X134112000Y-85586900D01*
X134112000Y-83888250D01*
X135015000Y-83888250D01*
X135015000Y-84441309D01*
X135111673Y-84674698D01*
X135290301Y-84853327D01*
X135523690Y-84950000D01*
X136239250Y-84950000D01*
X136398000Y-84791250D01*
X136398000Y-83729500D01*
X136652000Y-83729500D01*
X136652000Y-84791250D01*
X136810750Y-84950000D01*
X137526310Y-84950000D01*
X137759699Y-84853327D01*
X137938327Y-84674698D01*
X138035000Y-84441309D01*
X138035000Y-83888250D01*
X137876250Y-83729500D01*
X136652000Y-83729500D01*
X136398000Y-83729500D01*
X135173750Y-83729500D01*
X135015000Y-83888250D01*
X134112000Y-83888250D01*
X134112000Y-83597750D01*
X142884800Y-83597750D01*
X142884800Y-84313310D01*
X142981473Y-84546699D01*
X143160102Y-84725327D01*
X143393491Y-84822000D01*
X143946550Y-84822000D01*
X144105300Y-84663250D01*
X144105300Y-83439000D01*
X144359300Y-83439000D01*
X144359300Y-84663250D01*
X144518050Y-84822000D01*
X145071109Y-84822000D01*
X145304498Y-84725327D01*
X145483127Y-84546699D01*
X145579800Y-84313310D01*
X145579800Y-83597750D01*
X145421050Y-83439000D01*
X144359300Y-83439000D01*
X144105300Y-83439000D01*
X143043550Y-83439000D01*
X142884800Y-83597750D01*
X134112000Y-83597750D01*
X134112000Y-82763691D01*
X135015000Y-82763691D01*
X135015000Y-83316750D01*
X135173750Y-83475500D01*
X136398000Y-83475500D01*
X136398000Y-82413750D01*
X136652000Y-82413750D01*
X136652000Y-83475500D01*
X137876250Y-83475500D01*
X138035000Y-83316750D01*
X138035000Y-82763691D01*
X137938327Y-82530302D01*
X137759699Y-82351673D01*
X137660758Y-82310690D01*
X142884800Y-82310690D01*
X142884800Y-83026250D01*
X143043550Y-83185000D01*
X144105300Y-83185000D01*
X144105300Y-81960750D01*
X144359300Y-81960750D01*
X144359300Y-83185000D01*
X145421050Y-83185000D01*
X145579800Y-83026250D01*
X145579800Y-82310690D01*
X145483127Y-82077301D01*
X145304498Y-81898673D01*
X145071109Y-81802000D01*
X144518050Y-81802000D01*
X144359300Y-81960750D01*
X144105300Y-81960750D01*
X143946550Y-81802000D01*
X143393491Y-81802000D01*
X143160102Y-81898673D01*
X142981473Y-82077301D01*
X142884800Y-82310690D01*
X137660758Y-82310690D01*
X137526310Y-82255000D01*
X136810750Y-82255000D01*
X136652000Y-82413750D01*
X136398000Y-82413750D01*
X136239250Y-82255000D01*
X135523690Y-82255000D01*
X135290301Y-82351673D01*
X135111673Y-82530302D01*
X135015000Y-82763691D01*
X134112000Y-82763691D01*
X134112000Y-80137000D01*
X139065000Y-80137000D01*
X139113601Y-80127333D01*
X139154803Y-80099803D01*
X141694803Y-77559803D01*
X141722333Y-77518601D01*
X141732000Y-77470000D01*
X141732000Y-73152000D01*
X156083000Y-73152000D01*
X156083000Y-88773000D01*
G36*
X140081000Y-103759000D02*
X135763000Y-103759000D01*
X135763000Y-101250750D01*
X137282500Y-101250750D01*
X137282500Y-101966310D01*
X137379173Y-102199699D01*
X137557802Y-102378327D01*
X137791191Y-102475000D01*
X138344250Y-102475000D01*
X138503000Y-102316250D01*
X138503000Y-101092000D01*
X138757000Y-101092000D01*
X138757000Y-102316250D01*
X138915750Y-102475000D01*
X139468809Y-102475000D01*
X139702198Y-102378327D01*
X139880827Y-102199699D01*
X139977500Y-101966310D01*
X139977500Y-101250750D01*
X139818750Y-101092000D01*
X138757000Y-101092000D01*
X138503000Y-101092000D01*
X137441250Y-101092000D01*
X137282500Y-101250750D01*
X135763000Y-101250750D01*
X135763000Y-99963690D01*
X137282500Y-99963690D01*
X137282500Y-100679250D01*
X137441250Y-100838000D01*
X138503000Y-100838000D01*
X138503000Y-99613750D01*
X138757000Y-99613750D01*
X138757000Y-100838000D01*
X139818750Y-100838000D01*
X139977500Y-100679250D01*
X139977500Y-99963690D01*
X139880827Y-99730301D01*
X139702198Y-99551673D01*
X139468809Y-99455000D01*
X138915750Y-99455000D01*
X138757000Y-99613750D01*
X138503000Y-99613750D01*
X138344250Y-99455000D01*
X137791191Y-99455000D01*
X137557802Y-99551673D01*
X137379173Y-99730301D01*
X137282500Y-99963690D01*
X135763000Y-99963690D01*
X135763000Y-99441000D01*
X140081000Y-99441000D01*
X140081000Y-103759000D01*
X140081000Y-103759000D01*
G37*
X140081000Y-103759000D02*
X135763000Y-103759000D01*
X135763000Y-101250750D01*
X137282500Y-101250750D01*
X137282500Y-101966310D01*
X137379173Y-102199699D01*
X137557802Y-102378327D01*
X137791191Y-102475000D01*
X138344250Y-102475000D01*
X138503000Y-102316250D01*
X138503000Y-101092000D01*
X138757000Y-101092000D01*
X138757000Y-102316250D01*
X138915750Y-102475000D01*
X139468809Y-102475000D01*
X139702198Y-102378327D01*
X139880827Y-102199699D01*
X139977500Y-101966310D01*
X139977500Y-101250750D01*
X139818750Y-101092000D01*
X138757000Y-101092000D01*
X138503000Y-101092000D01*
X137441250Y-101092000D01*
X137282500Y-101250750D01*
X135763000Y-101250750D01*
X135763000Y-99963690D01*
X137282500Y-99963690D01*
X137282500Y-100679250D01*
X137441250Y-100838000D01*
X138503000Y-100838000D01*
X138503000Y-99613750D01*
X138757000Y-99613750D01*
X138757000Y-100838000D01*
X139818750Y-100838000D01*
X139977500Y-100679250D01*
X139977500Y-99963690D01*
X139880827Y-99730301D01*
X139702198Y-99551673D01*
X139468809Y-99455000D01*
X138915750Y-99455000D01*
X138757000Y-99613750D01*
X138503000Y-99613750D01*
X138344250Y-99455000D01*
X137791191Y-99455000D01*
X137557802Y-99551673D01*
X137379173Y-99730301D01*
X137282500Y-99963690D01*
X135763000Y-99963690D01*
X135763000Y-99441000D01*
X140081000Y-99441000D01*
X140081000Y-103759000D01*
G04 #@! TD*
M02*
