G04 #@! TF.GenerationSoftware,KiCad,Pcbnew,(5.0.2)-1*
G04 #@! TF.CreationDate,2019-01-11T10:07:00+01:00*
G04 #@! TF.ProjectId,ATtiny44_DevBoard,41547469-6e79-4343-945f-446576426f61,rev?*
G04 #@! TF.SameCoordinates,Original*
G04 #@! TF.FileFunction,Soldermask,Bot*
G04 #@! TF.FilePolarity,Negative*
%FSLAX46Y46*%
G04 Gerber Fmt 4.6, Leading zero omitted, Abs format (unit mm)*
G04 Created by KiCad (PCBNEW (5.0.2)-1) date 11/01/2019 10:07:00*
%MOMM*%
%LPD*%
G01*
G04 APERTURE LIST*
%ADD10C,0.100000*%
G04 APERTURE END LIST*
D10*
G36*
X169192693Y-106013859D02*
X169458437Y-106066719D01*
X169959087Y-106274095D01*
X170380160Y-106555448D01*
X170409663Y-106575161D01*
X170792839Y-106958337D01*
X170792841Y-106958340D01*
X171093905Y-107408913D01*
X171227363Y-107731109D01*
X171301281Y-107909564D01*
X171407000Y-108441049D01*
X171407000Y-108982951D01*
X171371186Y-109163000D01*
X171301281Y-109514437D01*
X171093905Y-110015087D01*
X170803636Y-110449504D01*
X170792839Y-110465663D01*
X170409663Y-110848839D01*
X170409660Y-110848841D01*
X169959087Y-111149905D01*
X169458437Y-111357281D01*
X169192693Y-111410141D01*
X168926951Y-111463000D01*
X168385049Y-111463000D01*
X168119307Y-111410141D01*
X167853563Y-111357281D01*
X167352913Y-111149905D01*
X166902340Y-110848841D01*
X166902337Y-110848839D01*
X166519161Y-110465663D01*
X166508364Y-110449504D01*
X166218095Y-110015087D01*
X166010719Y-109514437D01*
X165940814Y-109163000D01*
X165905000Y-108982951D01*
X165905000Y-108441049D01*
X166010719Y-107909564D01*
X166084637Y-107731109D01*
X166218095Y-107408913D01*
X166519159Y-106958340D01*
X166519161Y-106958337D01*
X166902337Y-106575161D01*
X166931840Y-106555448D01*
X167352913Y-106274095D01*
X167853563Y-106066719D01*
X168119307Y-106013859D01*
X168385049Y-105961000D01*
X168926951Y-105961000D01*
X169192693Y-106013859D01*
X169192693Y-106013859D01*
G37*
G36*
X128552693Y-106013859D02*
X128818437Y-106066719D01*
X129319087Y-106274095D01*
X129740160Y-106555448D01*
X129769663Y-106575161D01*
X130152839Y-106958337D01*
X130152841Y-106958340D01*
X130453905Y-107408913D01*
X130587363Y-107731109D01*
X130661281Y-107909564D01*
X130767000Y-108441049D01*
X130767000Y-108982951D01*
X130731186Y-109163000D01*
X130661281Y-109514437D01*
X130453905Y-110015087D01*
X130163636Y-110449504D01*
X130152839Y-110465663D01*
X129769663Y-110848839D01*
X129769660Y-110848841D01*
X129319087Y-111149905D01*
X128818437Y-111357281D01*
X128552693Y-111410141D01*
X128286951Y-111463000D01*
X127745049Y-111463000D01*
X127479307Y-111410141D01*
X127213563Y-111357281D01*
X126712913Y-111149905D01*
X126262340Y-110848841D01*
X126262337Y-110848839D01*
X125879161Y-110465663D01*
X125868364Y-110449504D01*
X125578095Y-110015087D01*
X125370719Y-109514437D01*
X125300814Y-109163000D01*
X125265000Y-108982951D01*
X125265000Y-108441049D01*
X125370719Y-107909564D01*
X125444637Y-107731109D01*
X125578095Y-107408913D01*
X125879159Y-106958340D01*
X125879161Y-106958337D01*
X126262337Y-106575161D01*
X126291840Y-106555448D01*
X126712913Y-106274095D01*
X127213563Y-106066719D01*
X127479307Y-106013859D01*
X127745049Y-105961000D01*
X128286951Y-105961000D01*
X128552693Y-106013859D01*
X128552693Y-106013859D01*
G37*
G36*
X146541443Y-105277519D02*
X146607627Y-105284037D01*
X146720853Y-105318384D01*
X146777467Y-105335557D01*
X146916087Y-105409652D01*
X146933991Y-105419222D01*
X146969729Y-105448552D01*
X147071186Y-105531814D01*
X147154448Y-105633271D01*
X147183778Y-105669009D01*
X147183779Y-105669011D01*
X147267443Y-105825533D01*
X147267443Y-105825534D01*
X147318963Y-105995373D01*
X147336359Y-106172000D01*
X147318963Y-106348627D01*
X147284616Y-106461853D01*
X147267443Y-106518467D01*
X147247676Y-106555448D01*
X147183778Y-106674991D01*
X147154448Y-106710729D01*
X147071186Y-106812186D01*
X146988019Y-106880438D01*
X146933991Y-106924778D01*
X146933989Y-106924779D01*
X146777467Y-107008443D01*
X146720853Y-107025616D01*
X146607627Y-107059963D01*
X146541458Y-107066480D01*
X146475260Y-107073000D01*
X146386740Y-107073000D01*
X146320542Y-107066480D01*
X146254373Y-107059963D01*
X146141147Y-107025616D01*
X146084533Y-107008443D01*
X145928011Y-106924779D01*
X145928009Y-106924778D01*
X145873981Y-106880438D01*
X145790814Y-106812186D01*
X145707552Y-106710729D01*
X145678222Y-106674991D01*
X145614324Y-106555448D01*
X145594557Y-106518467D01*
X145577384Y-106461853D01*
X145543037Y-106348627D01*
X145525641Y-106172000D01*
X145543037Y-105995373D01*
X145594557Y-105825534D01*
X145594557Y-105825533D01*
X145678221Y-105669011D01*
X145678222Y-105669009D01*
X145707552Y-105633271D01*
X145790814Y-105531814D01*
X145892271Y-105448552D01*
X145928009Y-105419222D01*
X145945913Y-105409652D01*
X146084533Y-105335557D01*
X146141147Y-105318384D01*
X146254373Y-105284037D01*
X146320557Y-105277519D01*
X146386740Y-105271000D01*
X146475260Y-105271000D01*
X146541443Y-105277519D01*
X146541443Y-105277519D01*
G37*
G36*
X151621443Y-105277519D02*
X151687627Y-105284037D01*
X151800853Y-105318384D01*
X151857467Y-105335557D01*
X151996087Y-105409652D01*
X152013991Y-105419222D01*
X152049729Y-105448552D01*
X152151186Y-105531814D01*
X152234448Y-105633271D01*
X152263778Y-105669009D01*
X152263779Y-105669011D01*
X152347443Y-105825533D01*
X152347443Y-105825534D01*
X152398963Y-105995373D01*
X152416359Y-106172000D01*
X152398963Y-106348627D01*
X152364616Y-106461853D01*
X152347443Y-106518467D01*
X152327676Y-106555448D01*
X152263778Y-106674991D01*
X152234448Y-106710729D01*
X152151186Y-106812186D01*
X152068019Y-106880438D01*
X152013991Y-106924778D01*
X152013989Y-106924779D01*
X151857467Y-107008443D01*
X151800853Y-107025616D01*
X151687627Y-107059963D01*
X151621458Y-107066480D01*
X151555260Y-107073000D01*
X151466740Y-107073000D01*
X151400542Y-107066480D01*
X151334373Y-107059963D01*
X151221147Y-107025616D01*
X151164533Y-107008443D01*
X151008011Y-106924779D01*
X151008009Y-106924778D01*
X150953981Y-106880438D01*
X150870814Y-106812186D01*
X150787552Y-106710729D01*
X150758222Y-106674991D01*
X150694324Y-106555448D01*
X150674557Y-106518467D01*
X150657384Y-106461853D01*
X150623037Y-106348627D01*
X150605641Y-106172000D01*
X150623037Y-105995373D01*
X150674557Y-105825534D01*
X150674557Y-105825533D01*
X150758221Y-105669011D01*
X150758222Y-105669009D01*
X150787552Y-105633271D01*
X150870814Y-105531814D01*
X150972271Y-105448552D01*
X151008009Y-105419222D01*
X151025913Y-105409652D01*
X151164533Y-105335557D01*
X151221147Y-105318384D01*
X151334373Y-105284037D01*
X151400557Y-105277519D01*
X151466740Y-105271000D01*
X151555260Y-105271000D01*
X151621443Y-105277519D01*
X151621443Y-105277519D01*
G37*
G36*
X149081443Y-105277519D02*
X149147627Y-105284037D01*
X149260853Y-105318384D01*
X149317467Y-105335557D01*
X149456087Y-105409652D01*
X149473991Y-105419222D01*
X149509729Y-105448552D01*
X149611186Y-105531814D01*
X149694448Y-105633271D01*
X149723778Y-105669009D01*
X149723779Y-105669011D01*
X149807443Y-105825533D01*
X149807443Y-105825534D01*
X149858963Y-105995373D01*
X149876359Y-106172000D01*
X149858963Y-106348627D01*
X149824616Y-106461853D01*
X149807443Y-106518467D01*
X149787676Y-106555448D01*
X149723778Y-106674991D01*
X149694448Y-106710729D01*
X149611186Y-106812186D01*
X149528019Y-106880438D01*
X149473991Y-106924778D01*
X149473989Y-106924779D01*
X149317467Y-107008443D01*
X149260853Y-107025616D01*
X149147627Y-107059963D01*
X149081458Y-107066480D01*
X149015260Y-107073000D01*
X148926740Y-107073000D01*
X148860542Y-107066480D01*
X148794373Y-107059963D01*
X148681147Y-107025616D01*
X148624533Y-107008443D01*
X148468011Y-106924779D01*
X148468009Y-106924778D01*
X148413981Y-106880438D01*
X148330814Y-106812186D01*
X148247552Y-106710729D01*
X148218222Y-106674991D01*
X148154324Y-106555448D01*
X148134557Y-106518467D01*
X148117384Y-106461853D01*
X148083037Y-106348627D01*
X148065641Y-106172000D01*
X148083037Y-105995373D01*
X148134557Y-105825534D01*
X148134557Y-105825533D01*
X148218221Y-105669011D01*
X148218222Y-105669009D01*
X148247552Y-105633271D01*
X148330814Y-105531814D01*
X148432271Y-105448552D01*
X148468009Y-105419222D01*
X148485913Y-105409652D01*
X148624533Y-105335557D01*
X148681147Y-105318384D01*
X148794373Y-105284037D01*
X148860557Y-105277519D01*
X148926740Y-105271000D01*
X149015260Y-105271000D01*
X149081443Y-105277519D01*
X149081443Y-105277519D01*
G37*
G36*
X152412000Y-104533000D02*
X150610000Y-104533000D01*
X150610000Y-102731000D01*
X152412000Y-102731000D01*
X152412000Y-104533000D01*
X152412000Y-104533000D01*
G37*
G36*
X149081443Y-102737519D02*
X149147627Y-102744037D01*
X149260853Y-102778384D01*
X149317467Y-102795557D01*
X149456087Y-102869652D01*
X149473991Y-102879222D01*
X149509729Y-102908552D01*
X149611186Y-102991814D01*
X149694448Y-103093271D01*
X149723778Y-103129009D01*
X149723779Y-103129011D01*
X149807443Y-103285533D01*
X149807443Y-103285534D01*
X149858963Y-103455373D01*
X149876359Y-103632000D01*
X149858963Y-103808627D01*
X149824616Y-103921853D01*
X149807443Y-103978467D01*
X149733348Y-104117087D01*
X149723778Y-104134991D01*
X149694448Y-104170729D01*
X149611186Y-104272186D01*
X149509729Y-104355448D01*
X149473991Y-104384778D01*
X149473989Y-104384779D01*
X149317467Y-104468443D01*
X149260853Y-104485616D01*
X149147627Y-104519963D01*
X149081443Y-104526481D01*
X149015260Y-104533000D01*
X148926740Y-104533000D01*
X148860557Y-104526481D01*
X148794373Y-104519963D01*
X148681147Y-104485616D01*
X148624533Y-104468443D01*
X148468011Y-104384779D01*
X148468009Y-104384778D01*
X148432271Y-104355448D01*
X148330814Y-104272186D01*
X148247552Y-104170729D01*
X148218222Y-104134991D01*
X148208652Y-104117087D01*
X148134557Y-103978467D01*
X148117384Y-103921853D01*
X148083037Y-103808627D01*
X148065641Y-103632000D01*
X148083037Y-103455373D01*
X148134557Y-103285534D01*
X148134557Y-103285533D01*
X148218221Y-103129011D01*
X148218222Y-103129009D01*
X148247552Y-103093271D01*
X148330814Y-102991814D01*
X148432271Y-102908552D01*
X148468009Y-102879222D01*
X148485913Y-102869652D01*
X148624533Y-102795557D01*
X148681147Y-102778384D01*
X148794373Y-102744037D01*
X148860557Y-102737519D01*
X148926740Y-102731000D01*
X149015260Y-102731000D01*
X149081443Y-102737519D01*
X149081443Y-102737519D01*
G37*
G36*
X146541443Y-102737519D02*
X146607627Y-102744037D01*
X146720853Y-102778384D01*
X146777467Y-102795557D01*
X146916087Y-102869652D01*
X146933991Y-102879222D01*
X146969729Y-102908552D01*
X147071186Y-102991814D01*
X147154448Y-103093271D01*
X147183778Y-103129009D01*
X147183779Y-103129011D01*
X147267443Y-103285533D01*
X147267443Y-103285534D01*
X147318963Y-103455373D01*
X147336359Y-103632000D01*
X147318963Y-103808627D01*
X147284616Y-103921853D01*
X147267443Y-103978467D01*
X147193348Y-104117087D01*
X147183778Y-104134991D01*
X147154448Y-104170729D01*
X147071186Y-104272186D01*
X146969729Y-104355448D01*
X146933991Y-104384778D01*
X146933989Y-104384779D01*
X146777467Y-104468443D01*
X146720853Y-104485616D01*
X146607627Y-104519963D01*
X146541443Y-104526481D01*
X146475260Y-104533000D01*
X146386740Y-104533000D01*
X146320557Y-104526481D01*
X146254373Y-104519963D01*
X146141147Y-104485616D01*
X146084533Y-104468443D01*
X145928011Y-104384779D01*
X145928009Y-104384778D01*
X145892271Y-104355448D01*
X145790814Y-104272186D01*
X145707552Y-104170729D01*
X145678222Y-104134991D01*
X145668652Y-104117087D01*
X145594557Y-103978467D01*
X145577384Y-103921853D01*
X145543037Y-103808627D01*
X145525641Y-103632000D01*
X145543037Y-103455373D01*
X145594557Y-103285534D01*
X145594557Y-103285533D01*
X145678221Y-103129011D01*
X145678222Y-103129009D01*
X145707552Y-103093271D01*
X145790814Y-102991814D01*
X145892271Y-102908552D01*
X145928009Y-102879222D01*
X145945913Y-102869652D01*
X146084533Y-102795557D01*
X146141147Y-102778384D01*
X146254373Y-102744037D01*
X146320557Y-102737519D01*
X146386740Y-102731000D01*
X146475260Y-102731000D01*
X146541443Y-102737519D01*
X146541443Y-102737519D01*
G37*
G36*
X167496442Y-100197518D02*
X167562627Y-100204037D01*
X167675853Y-100238384D01*
X167732467Y-100255557D01*
X167871087Y-100329652D01*
X167888991Y-100339222D01*
X167924729Y-100368552D01*
X168026186Y-100451814D01*
X168109448Y-100553271D01*
X168138778Y-100589009D01*
X168138779Y-100589011D01*
X168222443Y-100745533D01*
X168222443Y-100745534D01*
X168273963Y-100915373D01*
X168291359Y-101092000D01*
X168273963Y-101268627D01*
X168239616Y-101381853D01*
X168222443Y-101438467D01*
X168148348Y-101577087D01*
X168138778Y-101594991D01*
X168109448Y-101630729D01*
X168026186Y-101732186D01*
X167924729Y-101815448D01*
X167888991Y-101844778D01*
X167888989Y-101844779D01*
X167732467Y-101928443D01*
X167675853Y-101945616D01*
X167562627Y-101979963D01*
X167496442Y-101986482D01*
X167430260Y-101993000D01*
X167341740Y-101993000D01*
X167275558Y-101986482D01*
X167209373Y-101979963D01*
X167096147Y-101945616D01*
X167039533Y-101928443D01*
X166883011Y-101844779D01*
X166883009Y-101844778D01*
X166847271Y-101815448D01*
X166745814Y-101732186D01*
X166662552Y-101630729D01*
X166633222Y-101594991D01*
X166623652Y-101577087D01*
X166549557Y-101438467D01*
X166532384Y-101381853D01*
X166498037Y-101268627D01*
X166480641Y-101092000D01*
X166498037Y-100915373D01*
X166549557Y-100745534D01*
X166549557Y-100745533D01*
X166633221Y-100589011D01*
X166633222Y-100589009D01*
X166662552Y-100553271D01*
X166745814Y-100451814D01*
X166847271Y-100368552D01*
X166883009Y-100339222D01*
X166900913Y-100329652D01*
X167039533Y-100255557D01*
X167096147Y-100238384D01*
X167209373Y-100204037D01*
X167275558Y-100197518D01*
X167341740Y-100191000D01*
X167430260Y-100191000D01*
X167496442Y-100197518D01*
X167496442Y-100197518D01*
G37*
G36*
X129396442Y-100197518D02*
X129462627Y-100204037D01*
X129575853Y-100238384D01*
X129632467Y-100255557D01*
X129771087Y-100329652D01*
X129788991Y-100339222D01*
X129824729Y-100368552D01*
X129926186Y-100451814D01*
X130009448Y-100553271D01*
X130038778Y-100589009D01*
X130038779Y-100589011D01*
X130122443Y-100745533D01*
X130122443Y-100745534D01*
X130173963Y-100915373D01*
X130191359Y-101092000D01*
X130173963Y-101268627D01*
X130139616Y-101381853D01*
X130122443Y-101438467D01*
X130048348Y-101577087D01*
X130038778Y-101594991D01*
X130009448Y-101630729D01*
X129926186Y-101732186D01*
X129824729Y-101815448D01*
X129788991Y-101844778D01*
X129788989Y-101844779D01*
X129632467Y-101928443D01*
X129575853Y-101945616D01*
X129462627Y-101979963D01*
X129396442Y-101986482D01*
X129330260Y-101993000D01*
X129241740Y-101993000D01*
X129175558Y-101986482D01*
X129109373Y-101979963D01*
X128996147Y-101945616D01*
X128939533Y-101928443D01*
X128783011Y-101844779D01*
X128783009Y-101844778D01*
X128747271Y-101815448D01*
X128645814Y-101732186D01*
X128562552Y-101630729D01*
X128533222Y-101594991D01*
X128523652Y-101577087D01*
X128449557Y-101438467D01*
X128432384Y-101381853D01*
X128398037Y-101268627D01*
X128380641Y-101092000D01*
X128398037Y-100915373D01*
X128449557Y-100745534D01*
X128449557Y-100745533D01*
X128533221Y-100589011D01*
X128533222Y-100589009D01*
X128562552Y-100553271D01*
X128645814Y-100451814D01*
X128747271Y-100368552D01*
X128783009Y-100339222D01*
X128800913Y-100329652D01*
X128939533Y-100255557D01*
X128996147Y-100238384D01*
X129109373Y-100204037D01*
X129175558Y-100197518D01*
X129241740Y-100191000D01*
X129330260Y-100191000D01*
X129396442Y-100197518D01*
X129396442Y-100197518D01*
G37*
G36*
X129396443Y-97657519D02*
X129462627Y-97664037D01*
X129575853Y-97698384D01*
X129632467Y-97715557D01*
X129771087Y-97789652D01*
X129788991Y-97799222D01*
X129824729Y-97828552D01*
X129926186Y-97911814D01*
X130009448Y-98013271D01*
X130038778Y-98049009D01*
X130038779Y-98049011D01*
X130122443Y-98205533D01*
X130122443Y-98205534D01*
X130173963Y-98375373D01*
X130191359Y-98552000D01*
X130173963Y-98728627D01*
X130139616Y-98841853D01*
X130122443Y-98898467D01*
X130048348Y-99037087D01*
X130038778Y-99054991D01*
X130009448Y-99090729D01*
X129926186Y-99192186D01*
X129824729Y-99275448D01*
X129788991Y-99304778D01*
X129788989Y-99304779D01*
X129632467Y-99388443D01*
X129575853Y-99405616D01*
X129462627Y-99439963D01*
X129396443Y-99446481D01*
X129330260Y-99453000D01*
X129241740Y-99453000D01*
X129175557Y-99446481D01*
X129109373Y-99439963D01*
X128996147Y-99405616D01*
X128939533Y-99388443D01*
X128783011Y-99304779D01*
X128783009Y-99304778D01*
X128747271Y-99275448D01*
X128645814Y-99192186D01*
X128562552Y-99090729D01*
X128533222Y-99054991D01*
X128523652Y-99037087D01*
X128449557Y-98898467D01*
X128432384Y-98841853D01*
X128398037Y-98728627D01*
X128380641Y-98552000D01*
X128398037Y-98375373D01*
X128449557Y-98205534D01*
X128449557Y-98205533D01*
X128533221Y-98049011D01*
X128533222Y-98049009D01*
X128562552Y-98013271D01*
X128645814Y-97911814D01*
X128747271Y-97828552D01*
X128783009Y-97799222D01*
X128800913Y-97789652D01*
X128939533Y-97715557D01*
X128996147Y-97698384D01*
X129109373Y-97664037D01*
X129175557Y-97657519D01*
X129241740Y-97651000D01*
X129330260Y-97651000D01*
X129396443Y-97657519D01*
X129396443Y-97657519D01*
G37*
G36*
X167496443Y-97657519D02*
X167562627Y-97664037D01*
X167675853Y-97698384D01*
X167732467Y-97715557D01*
X167871087Y-97789652D01*
X167888991Y-97799222D01*
X167924729Y-97828552D01*
X168026186Y-97911814D01*
X168109448Y-98013271D01*
X168138778Y-98049009D01*
X168138779Y-98049011D01*
X168222443Y-98205533D01*
X168222443Y-98205534D01*
X168273963Y-98375373D01*
X168291359Y-98552000D01*
X168273963Y-98728627D01*
X168239616Y-98841853D01*
X168222443Y-98898467D01*
X168148348Y-99037087D01*
X168138778Y-99054991D01*
X168109448Y-99090729D01*
X168026186Y-99192186D01*
X167924729Y-99275448D01*
X167888991Y-99304778D01*
X167888989Y-99304779D01*
X167732467Y-99388443D01*
X167675853Y-99405616D01*
X167562627Y-99439963D01*
X167496443Y-99446481D01*
X167430260Y-99453000D01*
X167341740Y-99453000D01*
X167275557Y-99446481D01*
X167209373Y-99439963D01*
X167096147Y-99405616D01*
X167039533Y-99388443D01*
X166883011Y-99304779D01*
X166883009Y-99304778D01*
X166847271Y-99275448D01*
X166745814Y-99192186D01*
X166662552Y-99090729D01*
X166633222Y-99054991D01*
X166623652Y-99037087D01*
X166549557Y-98898467D01*
X166532384Y-98841853D01*
X166498037Y-98728627D01*
X166480641Y-98552000D01*
X166498037Y-98375373D01*
X166549557Y-98205534D01*
X166549557Y-98205533D01*
X166633221Y-98049011D01*
X166633222Y-98049009D01*
X166662552Y-98013271D01*
X166745814Y-97911814D01*
X166847271Y-97828552D01*
X166883009Y-97799222D01*
X166900913Y-97789652D01*
X167039533Y-97715557D01*
X167096147Y-97698384D01*
X167209373Y-97664037D01*
X167275557Y-97657519D01*
X167341740Y-97651000D01*
X167430260Y-97651000D01*
X167496443Y-97657519D01*
X167496443Y-97657519D01*
G37*
G36*
X129396442Y-95117518D02*
X129462627Y-95124037D01*
X129575853Y-95158384D01*
X129632467Y-95175557D01*
X129771087Y-95249652D01*
X129788991Y-95259222D01*
X129824729Y-95288552D01*
X129926186Y-95371814D01*
X130009448Y-95473271D01*
X130038778Y-95509009D01*
X130038779Y-95509011D01*
X130122443Y-95665533D01*
X130122443Y-95665534D01*
X130173963Y-95835373D01*
X130191359Y-96012000D01*
X130173963Y-96188627D01*
X130139616Y-96301853D01*
X130122443Y-96358467D01*
X130048348Y-96497087D01*
X130038778Y-96514991D01*
X130009448Y-96550729D01*
X129926186Y-96652186D01*
X129824729Y-96735448D01*
X129788991Y-96764778D01*
X129788989Y-96764779D01*
X129632467Y-96848443D01*
X129575853Y-96865616D01*
X129462627Y-96899963D01*
X129396443Y-96906481D01*
X129330260Y-96913000D01*
X129241740Y-96913000D01*
X129175557Y-96906481D01*
X129109373Y-96899963D01*
X128996147Y-96865616D01*
X128939533Y-96848443D01*
X128783011Y-96764779D01*
X128783009Y-96764778D01*
X128747271Y-96735448D01*
X128645814Y-96652186D01*
X128562552Y-96550729D01*
X128533222Y-96514991D01*
X128523652Y-96497087D01*
X128449557Y-96358467D01*
X128432384Y-96301853D01*
X128398037Y-96188627D01*
X128380641Y-96012000D01*
X128398037Y-95835373D01*
X128449557Y-95665534D01*
X128449557Y-95665533D01*
X128533221Y-95509011D01*
X128533222Y-95509009D01*
X128562552Y-95473271D01*
X128645814Y-95371814D01*
X128747271Y-95288552D01*
X128783009Y-95259222D01*
X128800913Y-95249652D01*
X128939533Y-95175557D01*
X128996147Y-95158384D01*
X129109373Y-95124037D01*
X129175558Y-95117518D01*
X129241740Y-95111000D01*
X129330260Y-95111000D01*
X129396442Y-95117518D01*
X129396442Y-95117518D01*
G37*
G36*
X167496442Y-95117518D02*
X167562627Y-95124037D01*
X167675853Y-95158384D01*
X167732467Y-95175557D01*
X167871087Y-95249652D01*
X167888991Y-95259222D01*
X167924729Y-95288552D01*
X168026186Y-95371814D01*
X168109448Y-95473271D01*
X168138778Y-95509009D01*
X168138779Y-95509011D01*
X168222443Y-95665533D01*
X168222443Y-95665534D01*
X168273963Y-95835373D01*
X168291359Y-96012000D01*
X168273963Y-96188627D01*
X168239616Y-96301853D01*
X168222443Y-96358467D01*
X168148348Y-96497087D01*
X168138778Y-96514991D01*
X168109448Y-96550729D01*
X168026186Y-96652186D01*
X167924729Y-96735448D01*
X167888991Y-96764778D01*
X167888989Y-96764779D01*
X167732467Y-96848443D01*
X167675853Y-96865616D01*
X167562627Y-96899963D01*
X167496443Y-96906481D01*
X167430260Y-96913000D01*
X167341740Y-96913000D01*
X167275557Y-96906481D01*
X167209373Y-96899963D01*
X167096147Y-96865616D01*
X167039533Y-96848443D01*
X166883011Y-96764779D01*
X166883009Y-96764778D01*
X166847271Y-96735448D01*
X166745814Y-96652186D01*
X166662552Y-96550729D01*
X166633222Y-96514991D01*
X166623652Y-96497087D01*
X166549557Y-96358467D01*
X166532384Y-96301853D01*
X166498037Y-96188627D01*
X166480641Y-96012000D01*
X166498037Y-95835373D01*
X166549557Y-95665534D01*
X166549557Y-95665533D01*
X166633221Y-95509011D01*
X166633222Y-95509009D01*
X166662552Y-95473271D01*
X166745814Y-95371814D01*
X166847271Y-95288552D01*
X166883009Y-95259222D01*
X166900913Y-95249652D01*
X167039533Y-95175557D01*
X167096147Y-95158384D01*
X167209373Y-95124037D01*
X167275558Y-95117518D01*
X167341740Y-95111000D01*
X167430260Y-95111000D01*
X167496442Y-95117518D01*
X167496442Y-95117518D01*
G37*
G36*
X167496443Y-92577519D02*
X167562627Y-92584037D01*
X167675853Y-92618384D01*
X167732467Y-92635557D01*
X167871087Y-92709652D01*
X167888991Y-92719222D01*
X167924729Y-92748552D01*
X168026186Y-92831814D01*
X168109448Y-92933271D01*
X168138778Y-92969009D01*
X168138779Y-92969011D01*
X168222443Y-93125533D01*
X168222443Y-93125534D01*
X168273963Y-93295373D01*
X168291359Y-93472000D01*
X168273963Y-93648627D01*
X168239616Y-93761853D01*
X168222443Y-93818467D01*
X168148348Y-93957087D01*
X168138778Y-93974991D01*
X168109448Y-94010729D01*
X168026186Y-94112186D01*
X167924729Y-94195448D01*
X167888991Y-94224778D01*
X167888989Y-94224779D01*
X167732467Y-94308443D01*
X167675853Y-94325616D01*
X167562627Y-94359963D01*
X167496443Y-94366481D01*
X167430260Y-94373000D01*
X167341740Y-94373000D01*
X167275557Y-94366481D01*
X167209373Y-94359963D01*
X167096147Y-94325616D01*
X167039533Y-94308443D01*
X166883011Y-94224779D01*
X166883009Y-94224778D01*
X166847271Y-94195448D01*
X166745814Y-94112186D01*
X166662552Y-94010729D01*
X166633222Y-93974991D01*
X166623652Y-93957087D01*
X166549557Y-93818467D01*
X166532384Y-93761853D01*
X166498037Y-93648627D01*
X166480641Y-93472000D01*
X166498037Y-93295373D01*
X166549557Y-93125534D01*
X166549557Y-93125533D01*
X166633221Y-92969011D01*
X166633222Y-92969009D01*
X166662552Y-92933271D01*
X166745814Y-92831814D01*
X166847271Y-92748552D01*
X166883009Y-92719222D01*
X166900913Y-92709652D01*
X167039533Y-92635557D01*
X167096147Y-92618384D01*
X167209373Y-92584037D01*
X167275558Y-92577518D01*
X167341740Y-92571000D01*
X167430260Y-92571000D01*
X167496443Y-92577519D01*
X167496443Y-92577519D01*
G37*
G36*
X129396443Y-92577519D02*
X129462627Y-92584037D01*
X129575853Y-92618384D01*
X129632467Y-92635557D01*
X129771087Y-92709652D01*
X129788991Y-92719222D01*
X129824729Y-92748552D01*
X129926186Y-92831814D01*
X130009448Y-92933271D01*
X130038778Y-92969009D01*
X130038779Y-92969011D01*
X130122443Y-93125533D01*
X130122443Y-93125534D01*
X130173963Y-93295373D01*
X130191359Y-93472000D01*
X130173963Y-93648627D01*
X130139616Y-93761853D01*
X130122443Y-93818467D01*
X130048348Y-93957087D01*
X130038778Y-93974991D01*
X130009448Y-94010729D01*
X129926186Y-94112186D01*
X129824729Y-94195448D01*
X129788991Y-94224778D01*
X129788989Y-94224779D01*
X129632467Y-94308443D01*
X129575853Y-94325616D01*
X129462627Y-94359963D01*
X129396443Y-94366481D01*
X129330260Y-94373000D01*
X129241740Y-94373000D01*
X129175557Y-94366481D01*
X129109373Y-94359963D01*
X128996147Y-94325616D01*
X128939533Y-94308443D01*
X128783011Y-94224779D01*
X128783009Y-94224778D01*
X128747271Y-94195448D01*
X128645814Y-94112186D01*
X128562552Y-94010729D01*
X128533222Y-93974991D01*
X128523652Y-93957087D01*
X128449557Y-93818467D01*
X128432384Y-93761853D01*
X128398037Y-93648627D01*
X128380641Y-93472000D01*
X128398037Y-93295373D01*
X128449557Y-93125534D01*
X128449557Y-93125533D01*
X128533221Y-92969011D01*
X128533222Y-92969009D01*
X128562552Y-92933271D01*
X128645814Y-92831814D01*
X128747271Y-92748552D01*
X128783009Y-92719222D01*
X128800913Y-92709652D01*
X128939533Y-92635557D01*
X128996147Y-92618384D01*
X129109373Y-92584037D01*
X129175557Y-92577519D01*
X129241740Y-92571000D01*
X129330260Y-92571000D01*
X129396443Y-92577519D01*
X129396443Y-92577519D01*
G37*
G36*
X167496442Y-90037518D02*
X167562627Y-90044037D01*
X167675853Y-90078384D01*
X167732467Y-90095557D01*
X167871087Y-90169652D01*
X167888991Y-90179222D01*
X167924729Y-90208552D01*
X168026186Y-90291814D01*
X168109448Y-90393271D01*
X168138778Y-90429009D01*
X168138779Y-90429011D01*
X168222443Y-90585533D01*
X168222443Y-90585534D01*
X168273963Y-90755373D01*
X168291359Y-90932000D01*
X168273963Y-91108627D01*
X168239616Y-91221853D01*
X168222443Y-91278467D01*
X168148348Y-91417087D01*
X168138778Y-91434991D01*
X168109448Y-91470729D01*
X168026186Y-91572186D01*
X167924729Y-91655448D01*
X167888991Y-91684778D01*
X167888989Y-91684779D01*
X167732467Y-91768443D01*
X167675853Y-91785616D01*
X167562627Y-91819963D01*
X167496442Y-91826482D01*
X167430260Y-91833000D01*
X167341740Y-91833000D01*
X167275558Y-91826482D01*
X167209373Y-91819963D01*
X167096147Y-91785616D01*
X167039533Y-91768443D01*
X166883011Y-91684779D01*
X166883009Y-91684778D01*
X166847271Y-91655448D01*
X166745814Y-91572186D01*
X166662552Y-91470729D01*
X166633222Y-91434991D01*
X166623652Y-91417087D01*
X166549557Y-91278467D01*
X166532384Y-91221853D01*
X166498037Y-91108627D01*
X166480641Y-90932000D01*
X166498037Y-90755373D01*
X166549557Y-90585534D01*
X166549557Y-90585533D01*
X166633221Y-90429011D01*
X166633222Y-90429009D01*
X166662552Y-90393271D01*
X166745814Y-90291814D01*
X166847271Y-90208552D01*
X166883009Y-90179222D01*
X166900913Y-90169652D01*
X167039533Y-90095557D01*
X167096147Y-90078384D01*
X167209373Y-90044037D01*
X167275558Y-90037518D01*
X167341740Y-90031000D01*
X167430260Y-90031000D01*
X167496442Y-90037518D01*
X167496442Y-90037518D01*
G37*
G36*
X129396442Y-90037518D02*
X129462627Y-90044037D01*
X129575853Y-90078384D01*
X129632467Y-90095557D01*
X129771087Y-90169652D01*
X129788991Y-90179222D01*
X129824729Y-90208552D01*
X129926186Y-90291814D01*
X130009448Y-90393271D01*
X130038778Y-90429009D01*
X130038779Y-90429011D01*
X130122443Y-90585533D01*
X130122443Y-90585534D01*
X130173963Y-90755373D01*
X130191359Y-90932000D01*
X130173963Y-91108627D01*
X130139616Y-91221853D01*
X130122443Y-91278467D01*
X130048348Y-91417087D01*
X130038778Y-91434991D01*
X130009448Y-91470729D01*
X129926186Y-91572186D01*
X129824729Y-91655448D01*
X129788991Y-91684778D01*
X129788989Y-91684779D01*
X129632467Y-91768443D01*
X129575853Y-91785616D01*
X129462627Y-91819963D01*
X129396442Y-91826482D01*
X129330260Y-91833000D01*
X129241740Y-91833000D01*
X129175558Y-91826482D01*
X129109373Y-91819963D01*
X128996147Y-91785616D01*
X128939533Y-91768443D01*
X128783011Y-91684779D01*
X128783009Y-91684778D01*
X128747271Y-91655448D01*
X128645814Y-91572186D01*
X128562552Y-91470729D01*
X128533222Y-91434991D01*
X128523652Y-91417087D01*
X128449557Y-91278467D01*
X128432384Y-91221853D01*
X128398037Y-91108627D01*
X128380641Y-90932000D01*
X128398037Y-90755373D01*
X128449557Y-90585534D01*
X128449557Y-90585533D01*
X128533221Y-90429011D01*
X128533222Y-90429009D01*
X128562552Y-90393271D01*
X128645814Y-90291814D01*
X128747271Y-90208552D01*
X128783009Y-90179222D01*
X128800913Y-90169652D01*
X128939533Y-90095557D01*
X128996147Y-90078384D01*
X129109373Y-90044037D01*
X129175558Y-90037518D01*
X129241740Y-90031000D01*
X129330260Y-90031000D01*
X129396442Y-90037518D01*
X129396442Y-90037518D01*
G37*
G36*
X167496443Y-87497519D02*
X167562627Y-87504037D01*
X167675853Y-87538384D01*
X167732467Y-87555557D01*
X167871087Y-87629652D01*
X167888991Y-87639222D01*
X167924729Y-87668552D01*
X168026186Y-87751814D01*
X168109448Y-87853271D01*
X168138778Y-87889009D01*
X168138779Y-87889011D01*
X168222443Y-88045533D01*
X168222443Y-88045534D01*
X168273963Y-88215373D01*
X168291359Y-88392000D01*
X168273963Y-88568627D01*
X168239616Y-88681853D01*
X168222443Y-88738467D01*
X168148348Y-88877087D01*
X168138778Y-88894991D01*
X168109448Y-88930729D01*
X168026186Y-89032186D01*
X167924729Y-89115448D01*
X167888991Y-89144778D01*
X167888989Y-89144779D01*
X167732467Y-89228443D01*
X167675853Y-89245616D01*
X167562627Y-89279963D01*
X167496443Y-89286481D01*
X167430260Y-89293000D01*
X167341740Y-89293000D01*
X167275557Y-89286481D01*
X167209373Y-89279963D01*
X167096147Y-89245616D01*
X167039533Y-89228443D01*
X166883011Y-89144779D01*
X166883009Y-89144778D01*
X166847271Y-89115448D01*
X166745814Y-89032186D01*
X166662552Y-88930729D01*
X166633222Y-88894991D01*
X166623652Y-88877087D01*
X166549557Y-88738467D01*
X166532384Y-88681853D01*
X166498037Y-88568627D01*
X166480641Y-88392000D01*
X166498037Y-88215373D01*
X166549557Y-88045534D01*
X166549557Y-88045533D01*
X166633221Y-87889011D01*
X166633222Y-87889009D01*
X166662552Y-87853271D01*
X166745814Y-87751814D01*
X166847271Y-87668552D01*
X166883009Y-87639222D01*
X166900913Y-87629652D01*
X167039533Y-87555557D01*
X167096147Y-87538384D01*
X167209373Y-87504037D01*
X167275557Y-87497519D01*
X167341740Y-87491000D01*
X167430260Y-87491000D01*
X167496443Y-87497519D01*
X167496443Y-87497519D01*
G37*
G36*
X129396443Y-87497519D02*
X129462627Y-87504037D01*
X129575853Y-87538384D01*
X129632467Y-87555557D01*
X129771087Y-87629652D01*
X129788991Y-87639222D01*
X129824729Y-87668552D01*
X129926186Y-87751814D01*
X130009448Y-87853271D01*
X130038778Y-87889009D01*
X130038779Y-87889011D01*
X130122443Y-88045533D01*
X130122443Y-88045534D01*
X130173963Y-88215373D01*
X130191359Y-88392000D01*
X130173963Y-88568627D01*
X130139616Y-88681853D01*
X130122443Y-88738467D01*
X130048348Y-88877087D01*
X130038778Y-88894991D01*
X130009448Y-88930729D01*
X129926186Y-89032186D01*
X129824729Y-89115448D01*
X129788991Y-89144778D01*
X129788989Y-89144779D01*
X129632467Y-89228443D01*
X129575853Y-89245616D01*
X129462627Y-89279963D01*
X129396443Y-89286481D01*
X129330260Y-89293000D01*
X129241740Y-89293000D01*
X129175557Y-89286481D01*
X129109373Y-89279963D01*
X128996147Y-89245616D01*
X128939533Y-89228443D01*
X128783011Y-89144779D01*
X128783009Y-89144778D01*
X128747271Y-89115448D01*
X128645814Y-89032186D01*
X128562552Y-88930729D01*
X128533222Y-88894991D01*
X128523652Y-88877087D01*
X128449557Y-88738467D01*
X128432384Y-88681853D01*
X128398037Y-88568627D01*
X128380641Y-88392000D01*
X128398037Y-88215373D01*
X128449557Y-88045534D01*
X128449557Y-88045533D01*
X128533221Y-87889011D01*
X128533222Y-87889009D01*
X128562552Y-87853271D01*
X128645814Y-87751814D01*
X128747271Y-87668552D01*
X128783009Y-87639222D01*
X128800913Y-87629652D01*
X128939533Y-87555557D01*
X128996147Y-87538384D01*
X129109373Y-87504037D01*
X129175557Y-87497519D01*
X129241740Y-87491000D01*
X129330260Y-87491000D01*
X129396443Y-87497519D01*
X129396443Y-87497519D01*
G37*
G36*
X167496442Y-84957518D02*
X167562627Y-84964037D01*
X167675853Y-84998384D01*
X167732467Y-85015557D01*
X167871087Y-85089652D01*
X167888991Y-85099222D01*
X167924729Y-85128552D01*
X168026186Y-85211814D01*
X168109448Y-85313271D01*
X168138778Y-85349009D01*
X168138779Y-85349011D01*
X168222443Y-85505533D01*
X168222443Y-85505534D01*
X168273963Y-85675373D01*
X168291359Y-85852000D01*
X168273963Y-86028627D01*
X168239616Y-86141853D01*
X168222443Y-86198467D01*
X168148348Y-86337087D01*
X168138778Y-86354991D01*
X168109448Y-86390729D01*
X168026186Y-86492186D01*
X167924729Y-86575448D01*
X167888991Y-86604778D01*
X167888989Y-86604779D01*
X167732467Y-86688443D01*
X167675853Y-86705616D01*
X167562627Y-86739963D01*
X167496443Y-86746481D01*
X167430260Y-86753000D01*
X167341740Y-86753000D01*
X167275557Y-86746481D01*
X167209373Y-86739963D01*
X167096147Y-86705616D01*
X167039533Y-86688443D01*
X166883011Y-86604779D01*
X166883009Y-86604778D01*
X166847271Y-86575448D01*
X166745814Y-86492186D01*
X166662552Y-86390729D01*
X166633222Y-86354991D01*
X166623652Y-86337087D01*
X166549557Y-86198467D01*
X166532384Y-86141853D01*
X166498037Y-86028627D01*
X166480641Y-85852000D01*
X166498037Y-85675373D01*
X166549557Y-85505534D01*
X166549557Y-85505533D01*
X166633221Y-85349011D01*
X166633222Y-85349009D01*
X166662552Y-85313271D01*
X166745814Y-85211814D01*
X166847271Y-85128552D01*
X166883009Y-85099222D01*
X166900913Y-85089652D01*
X167039533Y-85015557D01*
X167096147Y-84998384D01*
X167209373Y-84964037D01*
X167275558Y-84957518D01*
X167341740Y-84951000D01*
X167430260Y-84951000D01*
X167496442Y-84957518D01*
X167496442Y-84957518D01*
G37*
G36*
X129396442Y-84957518D02*
X129462627Y-84964037D01*
X129575853Y-84998384D01*
X129632467Y-85015557D01*
X129771087Y-85089652D01*
X129788991Y-85099222D01*
X129824729Y-85128552D01*
X129926186Y-85211814D01*
X130009448Y-85313271D01*
X130038778Y-85349009D01*
X130038779Y-85349011D01*
X130122443Y-85505533D01*
X130122443Y-85505534D01*
X130173963Y-85675373D01*
X130191359Y-85852000D01*
X130173963Y-86028627D01*
X130139616Y-86141853D01*
X130122443Y-86198467D01*
X130048348Y-86337087D01*
X130038778Y-86354991D01*
X130009448Y-86390729D01*
X129926186Y-86492186D01*
X129824729Y-86575448D01*
X129788991Y-86604778D01*
X129788989Y-86604779D01*
X129632467Y-86688443D01*
X129575853Y-86705616D01*
X129462627Y-86739963D01*
X129396443Y-86746481D01*
X129330260Y-86753000D01*
X129241740Y-86753000D01*
X129175557Y-86746481D01*
X129109373Y-86739963D01*
X128996147Y-86705616D01*
X128939533Y-86688443D01*
X128783011Y-86604779D01*
X128783009Y-86604778D01*
X128747271Y-86575448D01*
X128645814Y-86492186D01*
X128562552Y-86390729D01*
X128533222Y-86354991D01*
X128523652Y-86337087D01*
X128449557Y-86198467D01*
X128432384Y-86141853D01*
X128398037Y-86028627D01*
X128380641Y-85852000D01*
X128398037Y-85675373D01*
X128449557Y-85505534D01*
X128449557Y-85505533D01*
X128533221Y-85349011D01*
X128533222Y-85349009D01*
X128562552Y-85313271D01*
X128645814Y-85211814D01*
X128747271Y-85128552D01*
X128783009Y-85099222D01*
X128800913Y-85089652D01*
X128939533Y-85015557D01*
X128996147Y-84998384D01*
X129109373Y-84964037D01*
X129175558Y-84957518D01*
X129241740Y-84951000D01*
X129330260Y-84951000D01*
X129396442Y-84957518D01*
X129396442Y-84957518D01*
G37*
G36*
X168287000Y-84213000D02*
X166485000Y-84213000D01*
X166485000Y-82411000D01*
X168287000Y-82411000D01*
X168287000Y-84213000D01*
X168287000Y-84213000D01*
G37*
G36*
X130187000Y-84213000D02*
X128385000Y-84213000D01*
X128385000Y-82411000D01*
X130187000Y-82411000D01*
X130187000Y-84213000D01*
X130187000Y-84213000D01*
G37*
G36*
X151109643Y-74921781D02*
X151255415Y-74982162D01*
X151386611Y-75069824D01*
X151498176Y-75181389D01*
X151585838Y-75312585D01*
X151646219Y-75458357D01*
X151677000Y-75613107D01*
X151677000Y-75770893D01*
X151646219Y-75925643D01*
X151585838Y-76071415D01*
X151498176Y-76202611D01*
X151386611Y-76314176D01*
X151255415Y-76401838D01*
X151109643Y-76462219D01*
X150954893Y-76493000D01*
X150797107Y-76493000D01*
X150642357Y-76462219D01*
X150496585Y-76401838D01*
X150365389Y-76314176D01*
X150253824Y-76202611D01*
X150166162Y-76071415D01*
X150105781Y-75925643D01*
X150075000Y-75770893D01*
X150075000Y-75613107D01*
X150105781Y-75458357D01*
X150166162Y-75312585D01*
X150253824Y-75181389D01*
X150365389Y-75069824D01*
X150496585Y-74982162D01*
X150642357Y-74921781D01*
X150797107Y-74891000D01*
X150954893Y-74891000D01*
X151109643Y-74921781D01*
X151109643Y-74921781D01*
G37*
G36*
X155989643Y-74921781D02*
X156135415Y-74982162D01*
X156266611Y-75069824D01*
X156378176Y-75181389D01*
X156465838Y-75312585D01*
X156526219Y-75458357D01*
X156557000Y-75613107D01*
X156557000Y-75770893D01*
X156526219Y-75925643D01*
X156465838Y-76071415D01*
X156378176Y-76202611D01*
X156266611Y-76314176D01*
X156135415Y-76401838D01*
X155989643Y-76462219D01*
X155834893Y-76493000D01*
X155677107Y-76493000D01*
X155522357Y-76462219D01*
X155376585Y-76401838D01*
X155245389Y-76314176D01*
X155133824Y-76202611D01*
X155046162Y-76071415D01*
X154985781Y-75925643D01*
X154955000Y-75770893D01*
X154955000Y-75613107D01*
X154985781Y-75458357D01*
X155046162Y-75312585D01*
X155133824Y-75181389D01*
X155245389Y-75069824D01*
X155376585Y-74982162D01*
X155522357Y-74921781D01*
X155677107Y-74891000D01*
X155834893Y-74891000D01*
X155989643Y-74921781D01*
X155989643Y-74921781D01*
G37*
G36*
X128552693Y-70961859D02*
X128818437Y-71014719D01*
X129319087Y-71222095D01*
X129506774Y-71347504D01*
X129769663Y-71523161D01*
X130152839Y-71906337D01*
X130152841Y-71906340D01*
X130453905Y-72356913D01*
X130587363Y-72679109D01*
X130661281Y-72857564D01*
X130767000Y-73389049D01*
X130767000Y-73930951D01*
X130731186Y-74111000D01*
X130661281Y-74462437D01*
X130453905Y-74963087D01*
X130163636Y-75397504D01*
X130152839Y-75413663D01*
X129769663Y-75796839D01*
X129769660Y-75796841D01*
X129319087Y-76097905D01*
X128818437Y-76305281D01*
X128552693Y-76358141D01*
X128286951Y-76411000D01*
X127745049Y-76411000D01*
X127479307Y-76358141D01*
X127213563Y-76305281D01*
X126712913Y-76097905D01*
X126262340Y-75796841D01*
X126262337Y-75796839D01*
X125879161Y-75413663D01*
X125868364Y-75397504D01*
X125578095Y-74963087D01*
X125370719Y-74462437D01*
X125300814Y-74111000D01*
X125265000Y-73930951D01*
X125265000Y-73389049D01*
X125370719Y-72857564D01*
X125444637Y-72679109D01*
X125578095Y-72356913D01*
X125879159Y-71906340D01*
X125879161Y-71906337D01*
X126262337Y-71523161D01*
X126525226Y-71347504D01*
X126712913Y-71222095D01*
X127213563Y-71014719D01*
X127479307Y-70961859D01*
X127745049Y-70909000D01*
X128286951Y-70909000D01*
X128552693Y-70961859D01*
X128552693Y-70961859D01*
G37*
G36*
X169192693Y-70961859D02*
X169458437Y-71014719D01*
X169959087Y-71222095D01*
X170146774Y-71347504D01*
X170409663Y-71523161D01*
X170792839Y-71906337D01*
X170792841Y-71906340D01*
X171093905Y-72356913D01*
X171227363Y-72679109D01*
X171301281Y-72857564D01*
X171407000Y-73389049D01*
X171407000Y-73930951D01*
X171371186Y-74111000D01*
X171301281Y-74462437D01*
X171093905Y-74963087D01*
X170803636Y-75397504D01*
X170792839Y-75413663D01*
X170409663Y-75796839D01*
X170409660Y-75796841D01*
X169959087Y-76097905D01*
X169458437Y-76305281D01*
X169192693Y-76358141D01*
X168926951Y-76411000D01*
X168385049Y-76411000D01*
X168119307Y-76358141D01*
X167853563Y-76305281D01*
X167352913Y-76097905D01*
X166902340Y-75796841D01*
X166902337Y-75796839D01*
X166519161Y-75413663D01*
X166508364Y-75397504D01*
X166218095Y-74963087D01*
X166010719Y-74462437D01*
X165940814Y-74111000D01*
X165905000Y-73930951D01*
X165905000Y-73389049D01*
X166010719Y-72857564D01*
X166084637Y-72679109D01*
X166218095Y-72356913D01*
X166519159Y-71906340D01*
X166519161Y-71906337D01*
X166902337Y-71523161D01*
X167165226Y-71347504D01*
X167352913Y-71222095D01*
X167853563Y-71014719D01*
X168119307Y-70961859D01*
X168385049Y-70909000D01*
X168926951Y-70909000D01*
X169192693Y-70961859D01*
X169192693Y-70961859D01*
G37*
M02*
