G04 #@! TF.GenerationSoftware,KiCad,Pcbnew,5.0.2*
G04 #@! TF.CreationDate,2019-01-18T19:38:06+01:00*
G04 #@! TF.ProjectId,ATtiny44_DevBoard,41547469-6e79-4343-945f-446576426f61,rev?*
G04 #@! TF.SameCoordinates,Original*
G04 #@! TF.FileFunction,Legend,Bot*
G04 #@! TF.FilePolarity,Positive*
%FSLAX46Y46*%
G04 Gerber Fmt 4.6, Leading zero omitted, Abs format (unit mm)*
G04 Created by KiCad (PCBNEW 5.0.2) date Fri 18 Jan 2019 07:38:06 PM CET*
%MOMM*%
%LPD*%
G01*
G04 APERTURE LIST*
%ADD10C,0.127000*%
%ADD11C,0.010000*%
G04 APERTURE END LIST*
D10*
X162983333Y-109537500D02*
X162983333Y-110257166D01*
X163025666Y-110341833D01*
X163068000Y-110384166D01*
X163152666Y-110426500D01*
X163279666Y-110426500D01*
X163364333Y-110384166D01*
X162983333Y-110087833D02*
X163068000Y-110130166D01*
X163237333Y-110130166D01*
X163322000Y-110087833D01*
X163364333Y-110045500D01*
X163406666Y-109960833D01*
X163406666Y-109706833D01*
X163364333Y-109622166D01*
X163322000Y-109579833D01*
X163237333Y-109537500D01*
X163068000Y-109537500D01*
X162983333Y-109579833D01*
X162560000Y-110130166D02*
X162560000Y-109537500D01*
X162560000Y-109241166D02*
X162602333Y-109283500D01*
X162560000Y-109325833D01*
X162517666Y-109283500D01*
X162560000Y-109241166D01*
X162560000Y-109325833D01*
X162263666Y-109537500D02*
X161925000Y-109537500D01*
X162136666Y-109241166D02*
X162136666Y-110003166D01*
X162094333Y-110087833D01*
X162009666Y-110130166D01*
X161925000Y-110130166D01*
X161628666Y-110130166D02*
X161628666Y-109241166D01*
X161247666Y-110130166D02*
X161247666Y-109664500D01*
X161290000Y-109579833D01*
X161374666Y-109537500D01*
X161501666Y-109537500D01*
X161586333Y-109579833D01*
X161628666Y-109622166D01*
X160443333Y-109537500D02*
X160443333Y-110130166D01*
X160824333Y-109537500D02*
X160824333Y-110003166D01*
X160782000Y-110087833D01*
X160697333Y-110130166D01*
X160570333Y-110130166D01*
X160485666Y-110087833D01*
X160443333Y-110045500D01*
X160020000Y-110130166D02*
X160020000Y-109241166D01*
X160020000Y-109579833D02*
X159935333Y-109537500D01*
X159766000Y-109537500D01*
X159681333Y-109579833D01*
X159639000Y-109622166D01*
X159596666Y-109706833D01*
X159596666Y-109960833D01*
X159639000Y-110045500D01*
X159681333Y-110087833D01*
X159766000Y-110130166D01*
X159935333Y-110130166D01*
X160020000Y-110087833D01*
X159215666Y-110045500D02*
X159173333Y-110087833D01*
X159215666Y-110130166D01*
X159258000Y-110087833D01*
X159215666Y-110045500D01*
X159215666Y-110130166D01*
X158411333Y-110087833D02*
X158496000Y-110130166D01*
X158665333Y-110130166D01*
X158750000Y-110087833D01*
X158792333Y-110045500D01*
X158834666Y-109960833D01*
X158834666Y-109706833D01*
X158792333Y-109622166D01*
X158750000Y-109579833D01*
X158665333Y-109537500D01*
X158496000Y-109537500D01*
X158411333Y-109579833D01*
X157903333Y-110130166D02*
X157988000Y-110087833D01*
X158030333Y-110045500D01*
X158072666Y-109960833D01*
X158072666Y-109706833D01*
X158030333Y-109622166D01*
X157988000Y-109579833D01*
X157903333Y-109537500D01*
X157776333Y-109537500D01*
X157691666Y-109579833D01*
X157649333Y-109622166D01*
X157607000Y-109706833D01*
X157607000Y-109960833D01*
X157649333Y-110045500D01*
X157691666Y-110087833D01*
X157776333Y-110130166D01*
X157903333Y-110130166D01*
X157226000Y-110130166D02*
X157226000Y-109537500D01*
X157226000Y-109622166D02*
X157183666Y-109579833D01*
X157099000Y-109537500D01*
X156972000Y-109537500D01*
X156887333Y-109579833D01*
X156845000Y-109664500D01*
X156845000Y-110130166D01*
X156845000Y-109664500D02*
X156802666Y-109579833D01*
X156718000Y-109537500D01*
X156591000Y-109537500D01*
X156506333Y-109579833D01*
X156464000Y-109664500D01*
X156464000Y-110130166D01*
X155405666Y-109198833D02*
X156167666Y-110341833D01*
X154728333Y-110130166D02*
X154728333Y-109664500D01*
X154770666Y-109579833D01*
X154855333Y-109537500D01*
X155024666Y-109537500D01*
X155109333Y-109579833D01*
X154728333Y-110087833D02*
X154813000Y-110130166D01*
X155024666Y-110130166D01*
X155109333Y-110087833D01*
X155151666Y-110003166D01*
X155151666Y-109918500D01*
X155109333Y-109833833D01*
X155024666Y-109791500D01*
X154813000Y-109791500D01*
X154728333Y-109749166D01*
X153924000Y-110087833D02*
X154008666Y-110130166D01*
X154178000Y-110130166D01*
X154262666Y-110087833D01*
X154305000Y-110045500D01*
X154347333Y-109960833D01*
X154347333Y-109706833D01*
X154305000Y-109622166D01*
X154262666Y-109579833D01*
X154178000Y-109537500D01*
X154008666Y-109537500D01*
X153924000Y-109579833D01*
X153543000Y-110130166D02*
X153543000Y-109537500D01*
X153543000Y-109241166D02*
X153585333Y-109283500D01*
X153543000Y-109325833D01*
X153500666Y-109283500D01*
X153543000Y-109241166D01*
X153543000Y-109325833D01*
X153162000Y-110087833D02*
X153077333Y-110130166D01*
X152908000Y-110130166D01*
X152823333Y-110087833D01*
X152781000Y-110003166D01*
X152781000Y-109960833D01*
X152823333Y-109876166D01*
X152908000Y-109833833D01*
X153035000Y-109833833D01*
X153119666Y-109791500D01*
X153162000Y-109706833D01*
X153162000Y-109664500D01*
X153119666Y-109579833D01*
X153035000Y-109537500D01*
X152908000Y-109537500D01*
X152823333Y-109579833D01*
X152527000Y-109537500D02*
X152188333Y-109537500D01*
X152400000Y-109241166D02*
X152400000Y-110003166D01*
X152357666Y-110087833D01*
X152273000Y-110130166D01*
X152188333Y-110130166D01*
X151553333Y-110087833D02*
X151638000Y-110130166D01*
X151807333Y-110130166D01*
X151892000Y-110087833D01*
X151934333Y-110003166D01*
X151934333Y-109664500D01*
X151892000Y-109579833D01*
X151807333Y-109537500D01*
X151638000Y-109537500D01*
X151553333Y-109579833D01*
X151511000Y-109664500D01*
X151511000Y-109749166D01*
X151934333Y-109833833D01*
X151130000Y-110130166D02*
X151130000Y-109537500D01*
X151130000Y-109706833D02*
X151087666Y-109622166D01*
X151045333Y-109579833D01*
X150960666Y-109537500D01*
X150876000Y-109537500D01*
X150579666Y-109537500D02*
X150579666Y-110130166D01*
X150579666Y-109622166D02*
X150537333Y-109579833D01*
X150452666Y-109537500D01*
X150325666Y-109537500D01*
X150241000Y-109579833D01*
X150198666Y-109664500D01*
X150198666Y-110130166D01*
X149775333Y-110130166D02*
X149775333Y-109537500D01*
X149775333Y-109241166D02*
X149817666Y-109283500D01*
X149775333Y-109325833D01*
X149733000Y-109283500D01*
X149775333Y-109241166D01*
X149775333Y-109325833D01*
X149352000Y-109537500D02*
X149352000Y-110130166D01*
X149352000Y-109622166D02*
X149309666Y-109579833D01*
X149225000Y-109537500D01*
X149098000Y-109537500D01*
X149013333Y-109579833D01*
X148971000Y-109664500D01*
X148971000Y-110130166D01*
X148420666Y-110130166D02*
X148505333Y-110087833D01*
X148547666Y-110045500D01*
X148590000Y-109960833D01*
X148590000Y-109706833D01*
X148547666Y-109622166D01*
X148505333Y-109579833D01*
X148420666Y-109537500D01*
X148293666Y-109537500D01*
X148209000Y-109579833D01*
X148166666Y-109622166D01*
X148124333Y-109706833D01*
X148124333Y-109960833D01*
X148166666Y-110045500D01*
X148209000Y-110087833D01*
X148293666Y-110130166D01*
X148420666Y-110130166D01*
X147108333Y-109198833D02*
X147870333Y-110341833D01*
X146431000Y-110130166D02*
X146431000Y-109241166D01*
X146431000Y-110087833D02*
X146515666Y-110130166D01*
X146685000Y-110130166D01*
X146769666Y-110087833D01*
X146812000Y-110045500D01*
X146854333Y-109960833D01*
X146854333Y-109706833D01*
X146812000Y-109622166D01*
X146769666Y-109579833D01*
X146685000Y-109537500D01*
X146515666Y-109537500D01*
X146431000Y-109579833D01*
X145669000Y-110087833D02*
X145753666Y-110130166D01*
X145923000Y-110130166D01*
X146007666Y-110087833D01*
X146050000Y-110003166D01*
X146050000Y-109664500D01*
X146007666Y-109579833D01*
X145923000Y-109537500D01*
X145753666Y-109537500D01*
X145669000Y-109579833D01*
X145626666Y-109664500D01*
X145626666Y-109749166D01*
X146050000Y-109833833D01*
X145330333Y-109537500D02*
X145118666Y-110130166D01*
X144907000Y-109537500D01*
X144568333Y-109791500D02*
X143891000Y-109791500D01*
X143467666Y-110130166D02*
X143467666Y-109241166D01*
X143467666Y-109579833D02*
X143383000Y-109537500D01*
X143213666Y-109537500D01*
X143129000Y-109579833D01*
X143086666Y-109622166D01*
X143044333Y-109706833D01*
X143044333Y-109960833D01*
X143086666Y-110045500D01*
X143129000Y-110087833D01*
X143213666Y-110130166D01*
X143383000Y-110130166D01*
X143467666Y-110087833D01*
X142536333Y-110130166D02*
X142621000Y-110087833D01*
X142663333Y-110045500D01*
X142705666Y-109960833D01*
X142705666Y-109706833D01*
X142663333Y-109622166D01*
X142621000Y-109579833D01*
X142536333Y-109537500D01*
X142409333Y-109537500D01*
X142324666Y-109579833D01*
X142282333Y-109622166D01*
X142240000Y-109706833D01*
X142240000Y-109960833D01*
X142282333Y-110045500D01*
X142324666Y-110087833D01*
X142409333Y-110130166D01*
X142536333Y-110130166D01*
X141478000Y-110130166D02*
X141478000Y-109664500D01*
X141520333Y-109579833D01*
X141605000Y-109537500D01*
X141774333Y-109537500D01*
X141859000Y-109579833D01*
X141478000Y-110087833D02*
X141562666Y-110130166D01*
X141774333Y-110130166D01*
X141859000Y-110087833D01*
X141901333Y-110003166D01*
X141901333Y-109918500D01*
X141859000Y-109833833D01*
X141774333Y-109791500D01*
X141562666Y-109791500D01*
X141478000Y-109749166D01*
X141054666Y-110130166D02*
X141054666Y-109537500D01*
X141054666Y-109706833D02*
X141012333Y-109622166D01*
X140970000Y-109579833D01*
X140885333Y-109537500D01*
X140800666Y-109537500D01*
X140123333Y-110130166D02*
X140123333Y-109241166D01*
X140123333Y-110087833D02*
X140208000Y-110130166D01*
X140377333Y-110130166D01*
X140462000Y-110087833D01*
X140504333Y-110045500D01*
X140546666Y-109960833D01*
X140546666Y-109706833D01*
X140504333Y-109622166D01*
X140462000Y-109579833D01*
X140377333Y-109537500D01*
X140208000Y-109537500D01*
X140123333Y-109579833D01*
X139700000Y-109791500D02*
X139022666Y-109791500D01*
X138218333Y-110130166D02*
X138218333Y-109664500D01*
X138260666Y-109579833D01*
X138345333Y-109537500D01*
X138514666Y-109537500D01*
X138599333Y-109579833D01*
X138218333Y-110087833D02*
X138303000Y-110130166D01*
X138514666Y-110130166D01*
X138599333Y-110087833D01*
X138641666Y-110003166D01*
X138641666Y-109918500D01*
X138599333Y-109833833D01*
X138514666Y-109791500D01*
X138303000Y-109791500D01*
X138218333Y-109749166D01*
X137922000Y-109537500D02*
X137583333Y-109537500D01*
X137795000Y-109241166D02*
X137795000Y-110003166D01*
X137752666Y-110087833D01*
X137668000Y-110130166D01*
X137583333Y-110130166D01*
X137414000Y-109537500D02*
X137075333Y-109537500D01*
X137287000Y-109241166D02*
X137287000Y-110003166D01*
X137244666Y-110087833D01*
X137160000Y-110130166D01*
X137075333Y-110130166D01*
X136779000Y-110130166D02*
X136779000Y-109537500D01*
X136779000Y-109241166D02*
X136821333Y-109283500D01*
X136779000Y-109325833D01*
X136736666Y-109283500D01*
X136779000Y-109241166D01*
X136779000Y-109325833D01*
X136355666Y-109537500D02*
X136355666Y-110130166D01*
X136355666Y-109622166D02*
X136313333Y-109579833D01*
X136228666Y-109537500D01*
X136101666Y-109537500D01*
X136017000Y-109579833D01*
X135974666Y-109664500D01*
X135974666Y-110130166D01*
X135636000Y-109537500D02*
X135424333Y-110130166D01*
X135212666Y-109537500D02*
X135424333Y-110130166D01*
X135509000Y-110341833D01*
X135551333Y-110384166D01*
X135636000Y-110426500D01*
X134493000Y-109537500D02*
X134493000Y-110130166D01*
X134704666Y-109198833D02*
X134916333Y-109833833D01*
X134366000Y-109833833D01*
X133646333Y-109537500D02*
X133646333Y-110130166D01*
X133858000Y-109198833D02*
X134069666Y-109833833D01*
X133519333Y-109833833D01*
X132799666Y-110130166D02*
X132799666Y-109664500D01*
X132842000Y-109579833D01*
X132926666Y-109537500D01*
X133096000Y-109537500D01*
X133180666Y-109579833D01*
X132799666Y-110087833D02*
X132884333Y-110130166D01*
X133096000Y-110130166D01*
X133180666Y-110087833D01*
X133223000Y-110003166D01*
X133223000Y-109918500D01*
X133180666Y-109833833D01*
X133096000Y-109791500D01*
X132884333Y-109791500D01*
X132799666Y-109749166D01*
D11*
G04 #@! TO.C,REF\002A\002A*
G36*
X159499043Y-79068571D02*
X159402768Y-79092809D01*
X159316184Y-79135641D01*
X159241373Y-79195419D01*
X159180418Y-79270494D01*
X159135399Y-79359220D01*
X159109136Y-79455530D01*
X159103286Y-79552795D01*
X159118140Y-79646654D01*
X159151840Y-79734511D01*
X159202528Y-79813770D01*
X159268345Y-79881836D01*
X159347434Y-79936112D01*
X159437934Y-79974002D01*
X159489200Y-79986426D01*
X159533698Y-79993947D01*
X159567999Y-79996919D01*
X159600960Y-79995094D01*
X159641434Y-79988225D01*
X159674531Y-79981250D01*
X159767947Y-79949741D01*
X159851619Y-79898617D01*
X159923665Y-79829429D01*
X159982200Y-79743728D01*
X159996148Y-79716489D01*
X160012586Y-79680122D01*
X160022894Y-79649582D01*
X160028460Y-79617450D01*
X160030669Y-79576307D01*
X160030948Y-79530222D01*
X160026861Y-79445865D01*
X160013446Y-79376586D01*
X159988256Y-79315961D01*
X159948846Y-79257567D01*
X159910298Y-79213302D01*
X159838406Y-79147484D01*
X159763313Y-79102053D01*
X159680562Y-79074850D01*
X159602928Y-79064576D01*
X159499043Y-79068571D01*
X159499043Y-79068571D01*
G37*
X159499043Y-79068571D02*
X159402768Y-79092809D01*
X159316184Y-79135641D01*
X159241373Y-79195419D01*
X159180418Y-79270494D01*
X159135399Y-79359220D01*
X159109136Y-79455530D01*
X159103286Y-79552795D01*
X159118140Y-79646654D01*
X159151840Y-79734511D01*
X159202528Y-79813770D01*
X159268345Y-79881836D01*
X159347434Y-79936112D01*
X159437934Y-79974002D01*
X159489200Y-79986426D01*
X159533698Y-79993947D01*
X159567999Y-79996919D01*
X159600960Y-79995094D01*
X159641434Y-79988225D01*
X159674531Y-79981250D01*
X159767947Y-79949741D01*
X159851619Y-79898617D01*
X159923665Y-79829429D01*
X159982200Y-79743728D01*
X159996148Y-79716489D01*
X160012586Y-79680122D01*
X160022894Y-79649582D01*
X160028460Y-79617450D01*
X160030669Y-79576307D01*
X160030948Y-79530222D01*
X160026861Y-79445865D01*
X160013446Y-79376586D01*
X159988256Y-79315961D01*
X159948846Y-79257567D01*
X159910298Y-79213302D01*
X159838406Y-79147484D01*
X159763313Y-79102053D01*
X159680562Y-79074850D01*
X159602928Y-79064576D01*
X159499043Y-79068571D01*
G36*
X151039493Y-81514245D02*
X151039474Y-81748662D01*
X151039448Y-81961603D01*
X151039375Y-82154168D01*
X151039218Y-82327459D01*
X151038936Y-82482576D01*
X151038491Y-82620620D01*
X151037844Y-82742692D01*
X151036955Y-82849894D01*
X151035787Y-82943326D01*
X151034299Y-83024090D01*
X151032454Y-83093286D01*
X151030211Y-83152015D01*
X151027531Y-83201379D01*
X151024377Y-83242478D01*
X151020708Y-83276413D01*
X151016487Y-83304286D01*
X151011673Y-83327198D01*
X151006227Y-83346249D01*
X151000112Y-83362540D01*
X150993288Y-83377173D01*
X150985715Y-83391249D01*
X150977355Y-83405868D01*
X150972161Y-83414974D01*
X150937896Y-83475689D01*
X151796045Y-83475689D01*
X151796045Y-83379733D01*
X151796776Y-83336370D01*
X151798728Y-83303205D01*
X151801537Y-83285424D01*
X151802779Y-83283778D01*
X151814201Y-83290662D01*
X151836916Y-83308505D01*
X151859615Y-83327879D01*
X151914200Y-83368614D01*
X151983679Y-83409617D01*
X152060730Y-83447123D01*
X152138035Y-83477364D01*
X152168887Y-83487012D01*
X152237384Y-83501578D01*
X152320236Y-83511539D01*
X152409629Y-83516583D01*
X152497752Y-83516396D01*
X152576793Y-83510666D01*
X152614489Y-83504858D01*
X152752586Y-83466797D01*
X152879887Y-83409073D01*
X152995708Y-83332211D01*
X153099363Y-83236739D01*
X153190167Y-83123179D01*
X153256969Y-83012381D01*
X153311836Y-82895625D01*
X153353837Y-82776276D01*
X153383833Y-82650283D01*
X153402689Y-82513594D01*
X153411268Y-82362158D01*
X153411994Y-82284711D01*
X153409900Y-82227934D01*
X152580783Y-82227934D01*
X152580576Y-82321002D01*
X152577663Y-82408692D01*
X152572000Y-82485772D01*
X152563545Y-82547009D01*
X152560962Y-82559350D01*
X152529160Y-82666633D01*
X152487502Y-82753658D01*
X152435637Y-82820642D01*
X152373219Y-82867805D01*
X152299900Y-82895365D01*
X152215331Y-82903541D01*
X152119165Y-82892551D01*
X152055689Y-82876829D01*
X152006546Y-82858639D01*
X151952417Y-82832791D01*
X151911756Y-82809089D01*
X151841200Y-82762721D01*
X151841200Y-81612530D01*
X151908608Y-81568962D01*
X151987133Y-81528040D01*
X152071319Y-81501389D01*
X152156443Y-81489465D01*
X152237784Y-81492722D01*
X152310620Y-81511615D01*
X152342574Y-81527184D01*
X152400499Y-81570181D01*
X152449456Y-81626953D01*
X152490610Y-81699575D01*
X152525126Y-81790121D01*
X152554167Y-81900666D01*
X152555448Y-81906533D01*
X152565619Y-81968788D01*
X152573261Y-82046594D01*
X152578330Y-82134720D01*
X152580783Y-82227934D01*
X153409900Y-82227934D01*
X153404143Y-82071895D01*
X153382198Y-81876059D01*
X153346214Y-81697332D01*
X153296241Y-81535845D01*
X153232332Y-81391726D01*
X153154538Y-81265106D01*
X153062911Y-81156115D01*
X152957503Y-81064883D01*
X152912338Y-81033932D01*
X152811389Y-80977785D01*
X152708099Y-80938174D01*
X152598011Y-80914014D01*
X152476670Y-80904219D01*
X152384164Y-80905265D01*
X152254510Y-80916231D01*
X152141916Y-80938046D01*
X152043125Y-80971714D01*
X151954879Y-81018236D01*
X151906014Y-81052448D01*
X151876647Y-81074362D01*
X151854957Y-81089333D01*
X151846747Y-81093733D01*
X151845132Y-81082904D01*
X151843841Y-81052251D01*
X151842862Y-81004526D01*
X151842183Y-80942479D01*
X151841790Y-80868862D01*
X151841670Y-80786427D01*
X151841812Y-80697925D01*
X151842203Y-80606107D01*
X151842829Y-80513724D01*
X151843680Y-80423528D01*
X151844740Y-80338271D01*
X151845999Y-80260703D01*
X151847444Y-80193576D01*
X151849062Y-80139641D01*
X151850839Y-80101650D01*
X151851331Y-80094667D01*
X151858908Y-80024251D01*
X151870469Y-79969102D01*
X151888208Y-79921981D01*
X151914318Y-79875647D01*
X151920585Y-79866067D01*
X151945017Y-79829378D01*
X151039689Y-79829378D01*
X151039493Y-81514245D01*
X151039493Y-81514245D01*
G37*
X151039493Y-81514245D02*
X151039474Y-81748662D01*
X151039448Y-81961603D01*
X151039375Y-82154168D01*
X151039218Y-82327459D01*
X151038936Y-82482576D01*
X151038491Y-82620620D01*
X151037844Y-82742692D01*
X151036955Y-82849894D01*
X151035787Y-82943326D01*
X151034299Y-83024090D01*
X151032454Y-83093286D01*
X151030211Y-83152015D01*
X151027531Y-83201379D01*
X151024377Y-83242478D01*
X151020708Y-83276413D01*
X151016487Y-83304286D01*
X151011673Y-83327198D01*
X151006227Y-83346249D01*
X151000112Y-83362540D01*
X150993288Y-83377173D01*
X150985715Y-83391249D01*
X150977355Y-83405868D01*
X150972161Y-83414974D01*
X150937896Y-83475689D01*
X151796045Y-83475689D01*
X151796045Y-83379733D01*
X151796776Y-83336370D01*
X151798728Y-83303205D01*
X151801537Y-83285424D01*
X151802779Y-83283778D01*
X151814201Y-83290662D01*
X151836916Y-83308505D01*
X151859615Y-83327879D01*
X151914200Y-83368614D01*
X151983679Y-83409617D01*
X152060730Y-83447123D01*
X152138035Y-83477364D01*
X152168887Y-83487012D01*
X152237384Y-83501578D01*
X152320236Y-83511539D01*
X152409629Y-83516583D01*
X152497752Y-83516396D01*
X152576793Y-83510666D01*
X152614489Y-83504858D01*
X152752586Y-83466797D01*
X152879887Y-83409073D01*
X152995708Y-83332211D01*
X153099363Y-83236739D01*
X153190167Y-83123179D01*
X153256969Y-83012381D01*
X153311836Y-82895625D01*
X153353837Y-82776276D01*
X153383833Y-82650283D01*
X153402689Y-82513594D01*
X153411268Y-82362158D01*
X153411994Y-82284711D01*
X153409900Y-82227934D01*
X152580783Y-82227934D01*
X152580576Y-82321002D01*
X152577663Y-82408692D01*
X152572000Y-82485772D01*
X152563545Y-82547009D01*
X152560962Y-82559350D01*
X152529160Y-82666633D01*
X152487502Y-82753658D01*
X152435637Y-82820642D01*
X152373219Y-82867805D01*
X152299900Y-82895365D01*
X152215331Y-82903541D01*
X152119165Y-82892551D01*
X152055689Y-82876829D01*
X152006546Y-82858639D01*
X151952417Y-82832791D01*
X151911756Y-82809089D01*
X151841200Y-82762721D01*
X151841200Y-81612530D01*
X151908608Y-81568962D01*
X151987133Y-81528040D01*
X152071319Y-81501389D01*
X152156443Y-81489465D01*
X152237784Y-81492722D01*
X152310620Y-81511615D01*
X152342574Y-81527184D01*
X152400499Y-81570181D01*
X152449456Y-81626953D01*
X152490610Y-81699575D01*
X152525126Y-81790121D01*
X152554167Y-81900666D01*
X152555448Y-81906533D01*
X152565619Y-81968788D01*
X152573261Y-82046594D01*
X152578330Y-82134720D01*
X152580783Y-82227934D01*
X153409900Y-82227934D01*
X153404143Y-82071895D01*
X153382198Y-81876059D01*
X153346214Y-81697332D01*
X153296241Y-81535845D01*
X153232332Y-81391726D01*
X153154538Y-81265106D01*
X153062911Y-81156115D01*
X152957503Y-81064883D01*
X152912338Y-81033932D01*
X152811389Y-80977785D01*
X152708099Y-80938174D01*
X152598011Y-80914014D01*
X152476670Y-80904219D01*
X152384164Y-80905265D01*
X152254510Y-80916231D01*
X152141916Y-80938046D01*
X152043125Y-80971714D01*
X151954879Y-81018236D01*
X151906014Y-81052448D01*
X151876647Y-81074362D01*
X151854957Y-81089333D01*
X151846747Y-81093733D01*
X151845132Y-81082904D01*
X151843841Y-81052251D01*
X151842862Y-81004526D01*
X151842183Y-80942479D01*
X151841790Y-80868862D01*
X151841670Y-80786427D01*
X151841812Y-80697925D01*
X151842203Y-80606107D01*
X151842829Y-80513724D01*
X151843680Y-80423528D01*
X151844740Y-80338271D01*
X151845999Y-80260703D01*
X151847444Y-80193576D01*
X151849062Y-80139641D01*
X151850839Y-80101650D01*
X151851331Y-80094667D01*
X151858908Y-80024251D01*
X151870469Y-79969102D01*
X151888208Y-79921981D01*
X151914318Y-79875647D01*
X151920585Y-79866067D01*
X151945017Y-79829378D01*
X151039689Y-79829378D01*
X151039493Y-81514245D01*
G36*
X154552426Y-80908552D02*
X154400508Y-80928567D01*
X154265244Y-80962202D01*
X154145761Y-81009725D01*
X154041185Y-81071405D01*
X153963576Y-81134965D01*
X153894735Y-81209099D01*
X153840994Y-81288871D01*
X153798090Y-81381091D01*
X153782616Y-81424161D01*
X153769756Y-81463142D01*
X153758554Y-81499289D01*
X153748880Y-81534434D01*
X153740604Y-81570410D01*
X153733597Y-81609050D01*
X153727728Y-81652185D01*
X153722869Y-81701649D01*
X153718890Y-81759273D01*
X153715660Y-81826891D01*
X153713051Y-81906334D01*
X153710933Y-81999436D01*
X153709176Y-82108027D01*
X153707651Y-82233942D01*
X153706228Y-82379012D01*
X153704975Y-82521778D01*
X153703649Y-82677968D01*
X153702444Y-82813239D01*
X153701234Y-82929246D01*
X153699894Y-83027645D01*
X153698300Y-83110093D01*
X153696325Y-83178246D01*
X153693844Y-83233760D01*
X153690731Y-83278292D01*
X153686862Y-83313498D01*
X153682111Y-83341034D01*
X153676352Y-83362556D01*
X153669461Y-83379722D01*
X153661311Y-83394186D01*
X153651777Y-83407606D01*
X153640734Y-83421638D01*
X153636434Y-83427071D01*
X153620614Y-83449910D01*
X153613578Y-83465463D01*
X153613556Y-83465922D01*
X153624433Y-83468121D01*
X153655418Y-83470147D01*
X153704043Y-83471942D01*
X153767837Y-83473451D01*
X153844331Y-83474616D01*
X153931056Y-83475380D01*
X154025543Y-83475686D01*
X154036450Y-83475689D01*
X154459343Y-83475689D01*
X154462605Y-83379622D01*
X154465867Y-83283556D01*
X154527956Y-83334543D01*
X154625286Y-83402057D01*
X154735187Y-83456749D01*
X154821651Y-83486978D01*
X154890722Y-83501666D01*
X154974075Y-83511659D01*
X155063841Y-83516646D01*
X155152155Y-83516313D01*
X155231149Y-83510351D01*
X155267378Y-83504638D01*
X155407397Y-83466776D01*
X155533822Y-83411932D01*
X155645740Y-83340924D01*
X155742238Y-83254568D01*
X155822400Y-83153679D01*
X155885313Y-83039076D01*
X155929688Y-82912984D01*
X155942022Y-82856401D01*
X155949632Y-82794202D01*
X155953261Y-82719363D01*
X155953755Y-82685467D01*
X155953690Y-82682282D01*
X155193752Y-82682282D01*
X155184459Y-82757333D01*
X155156272Y-82821160D01*
X155107803Y-82876798D01*
X155102746Y-82881211D01*
X155054452Y-82916037D01*
X155002743Y-82938620D01*
X154942011Y-82950540D01*
X154866648Y-82953383D01*
X154848541Y-82952978D01*
X154794722Y-82950325D01*
X154754692Y-82944909D01*
X154719676Y-82934745D01*
X154680897Y-82917850D01*
X154670255Y-82912672D01*
X154609604Y-82876844D01*
X154562785Y-82834212D01*
X154550048Y-82818973D01*
X154505378Y-82762462D01*
X154505378Y-82566586D01*
X154505914Y-82487939D01*
X154507604Y-82429988D01*
X154510572Y-82390875D01*
X154514943Y-82368741D01*
X154519028Y-82362274D01*
X154534953Y-82359111D01*
X154568736Y-82356488D01*
X154615660Y-82354655D01*
X154671007Y-82353857D01*
X154679894Y-82353842D01*
X154800670Y-82359096D01*
X154903340Y-82375263D01*
X154989894Y-82402961D01*
X155062319Y-82442808D01*
X155117249Y-82489758D01*
X155161796Y-82547645D01*
X155186520Y-82610693D01*
X155193752Y-82682282D01*
X155953690Y-82682282D01*
X155951822Y-82591712D01*
X155943478Y-82512812D01*
X155927232Y-82441590D01*
X155901595Y-82370864D01*
X155877599Y-82318493D01*
X155818980Y-82223196D01*
X155740883Y-82135170D01*
X155645685Y-82056017D01*
X155535762Y-81987340D01*
X155413490Y-81930741D01*
X155281245Y-81887821D01*
X155216578Y-81872882D01*
X155080396Y-81850777D01*
X154931951Y-81836194D01*
X154780495Y-81829813D01*
X154653936Y-81831445D01*
X154492050Y-81838224D01*
X154499470Y-81779245D01*
X154518762Y-81680092D01*
X154549896Y-81599372D01*
X154593731Y-81536466D01*
X154651129Y-81490756D01*
X154722952Y-81461622D01*
X154810059Y-81448447D01*
X154913314Y-81450611D01*
X154951289Y-81454612D01*
X155092480Y-81479780D01*
X155229293Y-81520814D01*
X155323822Y-81558815D01*
X155368982Y-81578190D01*
X155407415Y-81593760D01*
X155433766Y-81603405D01*
X155441454Y-81605452D01*
X155451198Y-81596374D01*
X155467917Y-81567405D01*
X155491768Y-81518217D01*
X155522907Y-81448484D01*
X155561493Y-81357879D01*
X155568090Y-81342089D01*
X155598147Y-81269772D01*
X155625126Y-81204425D01*
X155647864Y-81148906D01*
X155665194Y-81106072D01*
X155675952Y-81078781D01*
X155679059Y-81069942D01*
X155669060Y-81065187D01*
X155642783Y-81059910D01*
X155614511Y-81056231D01*
X155584354Y-81051474D01*
X155536567Y-81042028D01*
X155475388Y-81028820D01*
X155405054Y-81012776D01*
X155329806Y-80994820D01*
X155301245Y-80987797D01*
X155196184Y-80962209D01*
X155108520Y-80942147D01*
X155033932Y-80926969D01*
X154968097Y-80916035D01*
X154906693Y-80908704D01*
X154845398Y-80904335D01*
X154779890Y-80902287D01*
X154721872Y-80901889D01*
X154552426Y-80908552D01*
X154552426Y-80908552D01*
G37*
X154552426Y-80908552D02*
X154400508Y-80928567D01*
X154265244Y-80962202D01*
X154145761Y-81009725D01*
X154041185Y-81071405D01*
X153963576Y-81134965D01*
X153894735Y-81209099D01*
X153840994Y-81288871D01*
X153798090Y-81381091D01*
X153782616Y-81424161D01*
X153769756Y-81463142D01*
X153758554Y-81499289D01*
X153748880Y-81534434D01*
X153740604Y-81570410D01*
X153733597Y-81609050D01*
X153727728Y-81652185D01*
X153722869Y-81701649D01*
X153718890Y-81759273D01*
X153715660Y-81826891D01*
X153713051Y-81906334D01*
X153710933Y-81999436D01*
X153709176Y-82108027D01*
X153707651Y-82233942D01*
X153706228Y-82379012D01*
X153704975Y-82521778D01*
X153703649Y-82677968D01*
X153702444Y-82813239D01*
X153701234Y-82929246D01*
X153699894Y-83027645D01*
X153698300Y-83110093D01*
X153696325Y-83178246D01*
X153693844Y-83233760D01*
X153690731Y-83278292D01*
X153686862Y-83313498D01*
X153682111Y-83341034D01*
X153676352Y-83362556D01*
X153669461Y-83379722D01*
X153661311Y-83394186D01*
X153651777Y-83407606D01*
X153640734Y-83421638D01*
X153636434Y-83427071D01*
X153620614Y-83449910D01*
X153613578Y-83465463D01*
X153613556Y-83465922D01*
X153624433Y-83468121D01*
X153655418Y-83470147D01*
X153704043Y-83471942D01*
X153767837Y-83473451D01*
X153844331Y-83474616D01*
X153931056Y-83475380D01*
X154025543Y-83475686D01*
X154036450Y-83475689D01*
X154459343Y-83475689D01*
X154462605Y-83379622D01*
X154465867Y-83283556D01*
X154527956Y-83334543D01*
X154625286Y-83402057D01*
X154735187Y-83456749D01*
X154821651Y-83486978D01*
X154890722Y-83501666D01*
X154974075Y-83511659D01*
X155063841Y-83516646D01*
X155152155Y-83516313D01*
X155231149Y-83510351D01*
X155267378Y-83504638D01*
X155407397Y-83466776D01*
X155533822Y-83411932D01*
X155645740Y-83340924D01*
X155742238Y-83254568D01*
X155822400Y-83153679D01*
X155885313Y-83039076D01*
X155929688Y-82912984D01*
X155942022Y-82856401D01*
X155949632Y-82794202D01*
X155953261Y-82719363D01*
X155953755Y-82685467D01*
X155953690Y-82682282D01*
X155193752Y-82682282D01*
X155184459Y-82757333D01*
X155156272Y-82821160D01*
X155107803Y-82876798D01*
X155102746Y-82881211D01*
X155054452Y-82916037D01*
X155002743Y-82938620D01*
X154942011Y-82950540D01*
X154866648Y-82953383D01*
X154848541Y-82952978D01*
X154794722Y-82950325D01*
X154754692Y-82944909D01*
X154719676Y-82934745D01*
X154680897Y-82917850D01*
X154670255Y-82912672D01*
X154609604Y-82876844D01*
X154562785Y-82834212D01*
X154550048Y-82818973D01*
X154505378Y-82762462D01*
X154505378Y-82566586D01*
X154505914Y-82487939D01*
X154507604Y-82429988D01*
X154510572Y-82390875D01*
X154514943Y-82368741D01*
X154519028Y-82362274D01*
X154534953Y-82359111D01*
X154568736Y-82356488D01*
X154615660Y-82354655D01*
X154671007Y-82353857D01*
X154679894Y-82353842D01*
X154800670Y-82359096D01*
X154903340Y-82375263D01*
X154989894Y-82402961D01*
X155062319Y-82442808D01*
X155117249Y-82489758D01*
X155161796Y-82547645D01*
X155186520Y-82610693D01*
X155193752Y-82682282D01*
X155953690Y-82682282D01*
X155951822Y-82591712D01*
X155943478Y-82512812D01*
X155927232Y-82441590D01*
X155901595Y-82370864D01*
X155877599Y-82318493D01*
X155818980Y-82223196D01*
X155740883Y-82135170D01*
X155645685Y-82056017D01*
X155535762Y-81987340D01*
X155413490Y-81930741D01*
X155281245Y-81887821D01*
X155216578Y-81872882D01*
X155080396Y-81850777D01*
X154931951Y-81836194D01*
X154780495Y-81829813D01*
X154653936Y-81831445D01*
X154492050Y-81838224D01*
X154499470Y-81779245D01*
X154518762Y-81680092D01*
X154549896Y-81599372D01*
X154593731Y-81536466D01*
X154651129Y-81490756D01*
X154722952Y-81461622D01*
X154810059Y-81448447D01*
X154913314Y-81450611D01*
X154951289Y-81454612D01*
X155092480Y-81479780D01*
X155229293Y-81520814D01*
X155323822Y-81558815D01*
X155368982Y-81578190D01*
X155407415Y-81593760D01*
X155433766Y-81603405D01*
X155441454Y-81605452D01*
X155451198Y-81596374D01*
X155467917Y-81567405D01*
X155491768Y-81518217D01*
X155522907Y-81448484D01*
X155561493Y-81357879D01*
X155568090Y-81342089D01*
X155598147Y-81269772D01*
X155625126Y-81204425D01*
X155647864Y-81148906D01*
X155665194Y-81106072D01*
X155675952Y-81078781D01*
X155679059Y-81069942D01*
X155669060Y-81065187D01*
X155642783Y-81059910D01*
X155614511Y-81056231D01*
X155584354Y-81051474D01*
X155536567Y-81042028D01*
X155475388Y-81028820D01*
X155405054Y-81012776D01*
X155329806Y-80994820D01*
X155301245Y-80987797D01*
X155196184Y-80962209D01*
X155108520Y-80942147D01*
X155033932Y-80926969D01*
X154968097Y-80916035D01*
X154906693Y-80908704D01*
X154845398Y-80904335D01*
X154779890Y-80902287D01*
X154721872Y-80901889D01*
X154552426Y-80908552D01*
G36*
X156897571Y-79991071D02*
X156737430Y-80012245D01*
X156573490Y-80052385D01*
X156403687Y-80111889D01*
X156225957Y-80191154D01*
X156214690Y-80196699D01*
X156156995Y-80224725D01*
X156105448Y-80248802D01*
X156063809Y-80267249D01*
X156035838Y-80278386D01*
X156026267Y-80280933D01*
X156007050Y-80285941D01*
X156002439Y-80290147D01*
X156007542Y-80300580D01*
X156023582Y-80326868D01*
X156048712Y-80366257D01*
X156081086Y-80415991D01*
X156118857Y-80473315D01*
X156160178Y-80535476D01*
X156203202Y-80599718D01*
X156246083Y-80663285D01*
X156286974Y-80723425D01*
X156324029Y-80777380D01*
X156355400Y-80822397D01*
X156379241Y-80855721D01*
X156393706Y-80874597D01*
X156395691Y-80876787D01*
X156405809Y-80872138D01*
X156428150Y-80854962D01*
X156458720Y-80828440D01*
X156474464Y-80813964D01*
X156570953Y-80738682D01*
X156677664Y-80683241D01*
X156793168Y-80648141D01*
X156916038Y-80633880D01*
X156985439Y-80635051D01*
X157106577Y-80652212D01*
X157215795Y-80688094D01*
X157313418Y-80742959D01*
X157399772Y-80817070D01*
X157475185Y-80910688D01*
X157539982Y-81024076D01*
X157577399Y-81110667D01*
X157621252Y-81246366D01*
X157653572Y-81393850D01*
X157674443Y-81549314D01*
X157683949Y-81708956D01*
X157682173Y-81868973D01*
X157669197Y-82025561D01*
X157645106Y-82174918D01*
X157609982Y-82313240D01*
X157563908Y-82436724D01*
X157547627Y-82470978D01*
X157479380Y-82585064D01*
X157398921Y-82681557D01*
X157307430Y-82759670D01*
X157206089Y-82818617D01*
X157096080Y-82857612D01*
X156978585Y-82875868D01*
X156937117Y-82877211D01*
X156815559Y-82866290D01*
X156695122Y-82833474D01*
X156577334Y-82779439D01*
X156463723Y-82704865D01*
X156372315Y-82626539D01*
X156325785Y-82582008D01*
X156144517Y-82879271D01*
X156099420Y-82953433D01*
X156058181Y-83021646D01*
X156022265Y-83081459D01*
X155993134Y-83130420D01*
X155972250Y-83166079D01*
X155961076Y-83185984D01*
X155959625Y-83189079D01*
X155967854Y-83198718D01*
X155993433Y-83215999D01*
X156033127Y-83239283D01*
X156083703Y-83266934D01*
X156141926Y-83297315D01*
X156204563Y-83328790D01*
X156268379Y-83359722D01*
X156330140Y-83388473D01*
X156386612Y-83413408D01*
X156434562Y-83432889D01*
X156458014Y-83441318D01*
X156591779Y-83479133D01*
X156729673Y-83504136D01*
X156877378Y-83517140D01*
X157004167Y-83519468D01*
X157072122Y-83518373D01*
X157137723Y-83516275D01*
X157195153Y-83513434D01*
X157238597Y-83510106D01*
X157252702Y-83508422D01*
X157391716Y-83479587D01*
X157533243Y-83434468D01*
X157670725Y-83375750D01*
X157797606Y-83306120D01*
X157875111Y-83253441D01*
X158002519Y-83145239D01*
X158120822Y-83018671D01*
X158227828Y-82876866D01*
X158321348Y-82722951D01*
X158399190Y-82560053D01*
X158443044Y-82442756D01*
X158493292Y-82259128D01*
X158526791Y-82064581D01*
X158543551Y-81863325D01*
X158543584Y-81659568D01*
X158526899Y-81457521D01*
X158493507Y-81261392D01*
X158443420Y-81075391D01*
X158439603Y-81063803D01*
X158376719Y-80901750D01*
X158299972Y-80753832D01*
X158206758Y-80615865D01*
X158094473Y-80483661D01*
X158050608Y-80438399D01*
X157914466Y-80314457D01*
X157774509Y-80211915D01*
X157628589Y-80129656D01*
X157474558Y-80066564D01*
X157310268Y-80021523D01*
X157214711Y-80004033D01*
X157055977Y-79988466D01*
X156897571Y-79991071D01*
X156897571Y-79991071D01*
G37*
X156897571Y-79991071D02*
X156737430Y-80012245D01*
X156573490Y-80052385D01*
X156403687Y-80111889D01*
X156225957Y-80191154D01*
X156214690Y-80196699D01*
X156156995Y-80224725D01*
X156105448Y-80248802D01*
X156063809Y-80267249D01*
X156035838Y-80278386D01*
X156026267Y-80280933D01*
X156007050Y-80285941D01*
X156002439Y-80290147D01*
X156007542Y-80300580D01*
X156023582Y-80326868D01*
X156048712Y-80366257D01*
X156081086Y-80415991D01*
X156118857Y-80473315D01*
X156160178Y-80535476D01*
X156203202Y-80599718D01*
X156246083Y-80663285D01*
X156286974Y-80723425D01*
X156324029Y-80777380D01*
X156355400Y-80822397D01*
X156379241Y-80855721D01*
X156393706Y-80874597D01*
X156395691Y-80876787D01*
X156405809Y-80872138D01*
X156428150Y-80854962D01*
X156458720Y-80828440D01*
X156474464Y-80813964D01*
X156570953Y-80738682D01*
X156677664Y-80683241D01*
X156793168Y-80648141D01*
X156916038Y-80633880D01*
X156985439Y-80635051D01*
X157106577Y-80652212D01*
X157215795Y-80688094D01*
X157313418Y-80742959D01*
X157399772Y-80817070D01*
X157475185Y-80910688D01*
X157539982Y-81024076D01*
X157577399Y-81110667D01*
X157621252Y-81246366D01*
X157653572Y-81393850D01*
X157674443Y-81549314D01*
X157683949Y-81708956D01*
X157682173Y-81868973D01*
X157669197Y-82025561D01*
X157645106Y-82174918D01*
X157609982Y-82313240D01*
X157563908Y-82436724D01*
X157547627Y-82470978D01*
X157479380Y-82585064D01*
X157398921Y-82681557D01*
X157307430Y-82759670D01*
X157206089Y-82818617D01*
X157096080Y-82857612D01*
X156978585Y-82875868D01*
X156937117Y-82877211D01*
X156815559Y-82866290D01*
X156695122Y-82833474D01*
X156577334Y-82779439D01*
X156463723Y-82704865D01*
X156372315Y-82626539D01*
X156325785Y-82582008D01*
X156144517Y-82879271D01*
X156099420Y-82953433D01*
X156058181Y-83021646D01*
X156022265Y-83081459D01*
X155993134Y-83130420D01*
X155972250Y-83166079D01*
X155961076Y-83185984D01*
X155959625Y-83189079D01*
X155967854Y-83198718D01*
X155993433Y-83215999D01*
X156033127Y-83239283D01*
X156083703Y-83266934D01*
X156141926Y-83297315D01*
X156204563Y-83328790D01*
X156268379Y-83359722D01*
X156330140Y-83388473D01*
X156386612Y-83413408D01*
X156434562Y-83432889D01*
X156458014Y-83441318D01*
X156591779Y-83479133D01*
X156729673Y-83504136D01*
X156877378Y-83517140D01*
X157004167Y-83519468D01*
X157072122Y-83518373D01*
X157137723Y-83516275D01*
X157195153Y-83513434D01*
X157238597Y-83510106D01*
X157252702Y-83508422D01*
X157391716Y-83479587D01*
X157533243Y-83434468D01*
X157670725Y-83375750D01*
X157797606Y-83306120D01*
X157875111Y-83253441D01*
X158002519Y-83145239D01*
X158120822Y-83018671D01*
X158227828Y-82876866D01*
X158321348Y-82722951D01*
X158399190Y-82560053D01*
X158443044Y-82442756D01*
X158493292Y-82259128D01*
X158526791Y-82064581D01*
X158543551Y-81863325D01*
X158543584Y-81659568D01*
X158526899Y-81457521D01*
X158493507Y-81261392D01*
X158443420Y-81075391D01*
X158439603Y-81063803D01*
X158376719Y-80901750D01*
X158299972Y-80753832D01*
X158206758Y-80615865D01*
X158094473Y-80483661D01*
X158050608Y-80438399D01*
X157914466Y-80314457D01*
X157774509Y-80211915D01*
X157628589Y-80129656D01*
X157474558Y-80066564D01*
X157310268Y-80021523D01*
X157214711Y-80004033D01*
X157055977Y-79988466D01*
X156897571Y-79991071D01*
G36*
X160172400Y-79531054D02*
X160161535Y-79644993D01*
X160129918Y-79752616D01*
X160079015Y-79851615D01*
X160010293Y-79939684D01*
X159925219Y-80014516D01*
X159828232Y-80072384D01*
X159721964Y-80112005D01*
X159614950Y-80130573D01*
X159509300Y-80129434D01*
X159407125Y-80109930D01*
X159310534Y-80073406D01*
X159221638Y-80021205D01*
X159142546Y-79954673D01*
X159075369Y-79875152D01*
X159022217Y-79783987D01*
X158985199Y-79682523D01*
X158966427Y-79572102D01*
X158964489Y-79522206D01*
X158964489Y-79434267D01*
X158912560Y-79434267D01*
X158876253Y-79437111D01*
X158849355Y-79448911D01*
X158822249Y-79472649D01*
X158783867Y-79511031D01*
X158783867Y-81702602D01*
X158783876Y-81964739D01*
X158783908Y-82205241D01*
X158783972Y-82425048D01*
X158784076Y-82625101D01*
X158784227Y-82806344D01*
X158784434Y-82969716D01*
X158784706Y-83116160D01*
X158785050Y-83246617D01*
X158785474Y-83362029D01*
X158785987Y-83463338D01*
X158786597Y-83551484D01*
X158787312Y-83627410D01*
X158788140Y-83692057D01*
X158789089Y-83746367D01*
X158790167Y-83791280D01*
X158791383Y-83827740D01*
X158792745Y-83856687D01*
X158794261Y-83879063D01*
X158795938Y-83895809D01*
X158797786Y-83907868D01*
X158799813Y-83916180D01*
X158802025Y-83921687D01*
X158803108Y-83923537D01*
X158807271Y-83930549D01*
X158810805Y-83936996D01*
X158814635Y-83942900D01*
X158819682Y-83948286D01*
X158826871Y-83953178D01*
X158837123Y-83957598D01*
X158851364Y-83961572D01*
X158870514Y-83965121D01*
X158895499Y-83968270D01*
X158927240Y-83971042D01*
X158966662Y-83973461D01*
X159014686Y-83975551D01*
X159072237Y-83977335D01*
X159140237Y-83978837D01*
X159219610Y-83980080D01*
X159311279Y-83981089D01*
X159416166Y-83981885D01*
X159535196Y-83982494D01*
X159669290Y-83982939D01*
X159819373Y-83983243D01*
X159986367Y-83983430D01*
X160171196Y-83983524D01*
X160374783Y-83983548D01*
X160598050Y-83983525D01*
X160841922Y-83983480D01*
X161107321Y-83983437D01*
X161145704Y-83983432D01*
X161412682Y-83983389D01*
X161658002Y-83983318D01*
X161882583Y-83983213D01*
X162087345Y-83983066D01*
X162273206Y-83982869D01*
X162441088Y-83982616D01*
X162591908Y-83982300D01*
X162726587Y-83981913D01*
X162846044Y-83981447D01*
X162951199Y-83980897D01*
X163042971Y-83980253D01*
X163122279Y-83979511D01*
X163190043Y-83978661D01*
X163247182Y-83977697D01*
X163294617Y-83976611D01*
X163333266Y-83975397D01*
X163364049Y-83974047D01*
X163387885Y-83972555D01*
X163405694Y-83970911D01*
X163418395Y-83969111D01*
X163426908Y-83967145D01*
X163431266Y-83965477D01*
X163439728Y-83961906D01*
X163447497Y-83959270D01*
X163454602Y-83956634D01*
X163461073Y-83953062D01*
X163466939Y-83947621D01*
X163472229Y-83939375D01*
X163476974Y-83927390D01*
X163481202Y-83910731D01*
X163484943Y-83888463D01*
X163488227Y-83859652D01*
X163491083Y-83823363D01*
X163493540Y-83778661D01*
X163495629Y-83724611D01*
X163497378Y-83660279D01*
X163498817Y-83584730D01*
X163499976Y-83497030D01*
X163500883Y-83396243D01*
X163501569Y-83281434D01*
X163502063Y-83151670D01*
X163502395Y-83006015D01*
X163502593Y-82843535D01*
X163502687Y-82663295D01*
X163502708Y-82464360D01*
X163502685Y-82245796D01*
X163502646Y-82006668D01*
X163502622Y-81746040D01*
X163502622Y-81703889D01*
X163502636Y-81440992D01*
X163502661Y-81199732D01*
X163502671Y-80979165D01*
X163502642Y-80778352D01*
X163502548Y-80596349D01*
X163502362Y-80432216D01*
X163502059Y-80285011D01*
X163501614Y-80153792D01*
X163501034Y-80043867D01*
X163198197Y-80043867D01*
X163158407Y-80101711D01*
X163147236Y-80117479D01*
X163137166Y-80131441D01*
X163128138Y-80144784D01*
X163120097Y-80158693D01*
X163112986Y-80174356D01*
X163106747Y-80192958D01*
X163101325Y-80215686D01*
X163096662Y-80243727D01*
X163092701Y-80278267D01*
X163089385Y-80320492D01*
X163086659Y-80371589D01*
X163084464Y-80432744D01*
X163082745Y-80505144D01*
X163081444Y-80589975D01*
X163080505Y-80688422D01*
X163079870Y-80801674D01*
X163079484Y-80930916D01*
X163079288Y-81077334D01*
X163079227Y-81242116D01*
X163079243Y-81426447D01*
X163079280Y-81631513D01*
X163079289Y-81754133D01*
X163079265Y-81971082D01*
X163079231Y-82166642D01*
X163079243Y-82341999D01*
X163079358Y-82498341D01*
X163079630Y-82636857D01*
X163080118Y-82758734D01*
X163080876Y-82865160D01*
X163081962Y-82957322D01*
X163083431Y-83036409D01*
X163085340Y-83103608D01*
X163087744Y-83160107D01*
X163090701Y-83207093D01*
X163094266Y-83245755D01*
X163098495Y-83277280D01*
X163103446Y-83302855D01*
X163109173Y-83323670D01*
X163115733Y-83340911D01*
X163123183Y-83355765D01*
X163131579Y-83369422D01*
X163140976Y-83383069D01*
X163151432Y-83397893D01*
X163157523Y-83406783D01*
X163196296Y-83464400D01*
X162664732Y-83464400D01*
X162541483Y-83464365D01*
X162438987Y-83464215D01*
X162355420Y-83463878D01*
X162288956Y-83463286D01*
X162237771Y-83462367D01*
X162200041Y-83461051D01*
X162173940Y-83459269D01*
X162157644Y-83456951D01*
X162149328Y-83454026D01*
X162147168Y-83450424D01*
X162149339Y-83446075D01*
X162150535Y-83444645D01*
X162175685Y-83407573D01*
X162201583Y-83354772D01*
X162225192Y-83292770D01*
X162233461Y-83266357D01*
X162238078Y-83248416D01*
X162241979Y-83227355D01*
X162245248Y-83201089D01*
X162247966Y-83167532D01*
X162250215Y-83124599D01*
X162252077Y-83070204D01*
X162253636Y-83002262D01*
X162254972Y-82918688D01*
X162256169Y-82817395D01*
X162257308Y-82696300D01*
X162257685Y-82651600D01*
X162258702Y-82526449D01*
X162259460Y-82422082D01*
X162259903Y-82336707D01*
X162259970Y-82268533D01*
X162259605Y-82215765D01*
X162258748Y-82176614D01*
X162257341Y-82149285D01*
X162255325Y-82131986D01*
X162252643Y-82122926D01*
X162249236Y-82120312D01*
X162245044Y-82122351D01*
X162240571Y-82126667D01*
X162230216Y-82139602D01*
X162208158Y-82168676D01*
X162175957Y-82211759D01*
X162135174Y-82266718D01*
X162087370Y-82331423D01*
X162034105Y-82403742D01*
X161976940Y-82481544D01*
X161917437Y-82562698D01*
X161857155Y-82645072D01*
X161797655Y-82726536D01*
X161740498Y-82804957D01*
X161687245Y-82878204D01*
X161639457Y-82944147D01*
X161598693Y-83000654D01*
X161566516Y-83045593D01*
X161544485Y-83076834D01*
X161539917Y-83083466D01*
X161516996Y-83120369D01*
X161490188Y-83168359D01*
X161464789Y-83217897D01*
X161461568Y-83224577D01*
X161439890Y-83272772D01*
X161427304Y-83310334D01*
X161421574Y-83346160D01*
X161420456Y-83388200D01*
X161421090Y-83464400D01*
X160266651Y-83464400D01*
X160357815Y-83370669D01*
X160404612Y-83320775D01*
X160454899Y-83264295D01*
X160500944Y-83210026D01*
X160521369Y-83184673D01*
X160551807Y-83145128D01*
X160591862Y-83091916D01*
X160640361Y-83026667D01*
X160696135Y-82951011D01*
X160758011Y-82866577D01*
X160824819Y-82774994D01*
X160895387Y-82677892D01*
X160968545Y-82576901D01*
X161043121Y-82473650D01*
X161117944Y-82369768D01*
X161191843Y-82266885D01*
X161263646Y-82166631D01*
X161332184Y-82070636D01*
X161396284Y-81980527D01*
X161454775Y-81897936D01*
X161506486Y-81824492D01*
X161550247Y-81761824D01*
X161584885Y-81711561D01*
X161609230Y-81675334D01*
X161622111Y-81654771D01*
X161623869Y-81650668D01*
X161615910Y-81639342D01*
X161595115Y-81612162D01*
X161562847Y-81570829D01*
X161520470Y-81517044D01*
X161469347Y-81452506D01*
X161410841Y-81378918D01*
X161346314Y-81297978D01*
X161277131Y-81211388D01*
X161204653Y-81120848D01*
X161130246Y-81028060D01*
X161070517Y-80953702D01*
X160059511Y-80953702D01*
X160053602Y-80966659D01*
X160039272Y-80988908D01*
X160038225Y-80990391D01*
X160019438Y-81020544D01*
X159999791Y-81057375D01*
X159995892Y-81065511D01*
X159992356Y-81073940D01*
X159989230Y-81084059D01*
X159986486Y-81097260D01*
X159984092Y-81114938D01*
X159982019Y-81138484D01*
X159980235Y-81169293D01*
X159978712Y-81208757D01*
X159977419Y-81258269D01*
X159976326Y-81319223D01*
X159975403Y-81393011D01*
X159974619Y-81481028D01*
X159973945Y-81584665D01*
X159973350Y-81705316D01*
X159972805Y-81844374D01*
X159972279Y-82003232D01*
X159971745Y-82182089D01*
X159971206Y-82367207D01*
X159970772Y-82531145D01*
X159970509Y-82675303D01*
X159970484Y-82801079D01*
X159970765Y-82909871D01*
X159971419Y-83003077D01*
X159972514Y-83082097D01*
X159974118Y-83148328D01*
X159976297Y-83203170D01*
X159979119Y-83248021D01*
X159982651Y-83284278D01*
X159986961Y-83313341D01*
X159992117Y-83336609D01*
X159998185Y-83355479D01*
X160005233Y-83371351D01*
X160013329Y-83385622D01*
X160022540Y-83399691D01*
X160031040Y-83412158D01*
X160048176Y-83438452D01*
X160058322Y-83456037D01*
X160059511Y-83459257D01*
X160048604Y-83460334D01*
X160017411Y-83461335D01*
X159968223Y-83462235D01*
X159903333Y-83463010D01*
X159825030Y-83463637D01*
X159735607Y-83464091D01*
X159637356Y-83464349D01*
X159568445Y-83464400D01*
X159463452Y-83464180D01*
X159366610Y-83463548D01*
X159280107Y-83462549D01*
X159206132Y-83461227D01*
X159146874Y-83459626D01*
X159104520Y-83457791D01*
X159081260Y-83455765D01*
X159077378Y-83454493D01*
X159085076Y-83439591D01*
X159093074Y-83431560D01*
X159106246Y-83414434D01*
X159123485Y-83384183D01*
X159135407Y-83359622D01*
X159162045Y-83300711D01*
X159165120Y-82123845D01*
X159168195Y-80946978D01*
X159613853Y-80946978D01*
X159711670Y-80947142D01*
X159802064Y-80947611D01*
X159882630Y-80948347D01*
X159950962Y-80949316D01*
X160004656Y-80950480D01*
X160041305Y-80951803D01*
X160058504Y-80953249D01*
X160059511Y-80953702D01*
X161070517Y-80953702D01*
X161055270Y-80934722D01*
X160981090Y-80842537D01*
X160909069Y-80753204D01*
X160840569Y-80668424D01*
X160776955Y-80589898D01*
X160719588Y-80519326D01*
X160669833Y-80458409D01*
X160629052Y-80408847D01*
X160611888Y-80388178D01*
X160525596Y-80287516D01*
X160448997Y-80204259D01*
X160380183Y-80136438D01*
X160317248Y-80082089D01*
X160307867Y-80074722D01*
X160268356Y-80044117D01*
X161400116Y-80043867D01*
X161394827Y-80091844D01*
X161398130Y-80149188D01*
X161419661Y-80217463D01*
X161459635Y-80297212D01*
X161504943Y-80369495D01*
X161521161Y-80392140D01*
X161549214Y-80429696D01*
X161587430Y-80480021D01*
X161634137Y-80540973D01*
X161687661Y-80610411D01*
X161746331Y-80686194D01*
X161808475Y-80766180D01*
X161872421Y-80848228D01*
X161936495Y-80930196D01*
X161999027Y-81009943D01*
X162058343Y-81085327D01*
X162112771Y-81154207D01*
X162160639Y-81214442D01*
X162200275Y-81263889D01*
X162230006Y-81300408D01*
X162248161Y-81321858D01*
X162251220Y-81325156D01*
X162254079Y-81317149D01*
X162256293Y-81286855D01*
X162257857Y-81234556D01*
X162258767Y-81160531D01*
X162259020Y-81065063D01*
X162258613Y-80948434D01*
X162257704Y-80828445D01*
X162256382Y-80696333D01*
X162254857Y-80584594D01*
X162252881Y-80491025D01*
X162250206Y-80413419D01*
X162246582Y-80349574D01*
X162241761Y-80297283D01*
X162235494Y-80254344D01*
X162227532Y-80218551D01*
X162217627Y-80187700D01*
X162205531Y-80159586D01*
X162190993Y-80132005D01*
X162176311Y-80106966D01*
X162138314Y-80043867D01*
X163198197Y-80043867D01*
X163501034Y-80043867D01*
X163501001Y-80037617D01*
X163500195Y-79935544D01*
X163499170Y-79846633D01*
X163497900Y-79769941D01*
X163496360Y-79704527D01*
X163494524Y-79649449D01*
X163492367Y-79603765D01*
X163489863Y-79566534D01*
X163486987Y-79536813D01*
X163483713Y-79513662D01*
X163480015Y-79496139D01*
X163475869Y-79483301D01*
X163471247Y-79474208D01*
X163466126Y-79467918D01*
X163460478Y-79463488D01*
X163454279Y-79459978D01*
X163447504Y-79456445D01*
X163441508Y-79452876D01*
X163436275Y-79450300D01*
X163428099Y-79447972D01*
X163415886Y-79445878D01*
X163398541Y-79444007D01*
X163374969Y-79442347D01*
X163344077Y-79440884D01*
X163304768Y-79439608D01*
X163255950Y-79438504D01*
X163196527Y-79437561D01*
X163125404Y-79436767D01*
X163041488Y-79436109D01*
X162943683Y-79435575D01*
X162830894Y-79435153D01*
X162702029Y-79434829D01*
X162555991Y-79434592D01*
X162391686Y-79434430D01*
X162208020Y-79434330D01*
X162003897Y-79434280D01*
X161792753Y-79434267D01*
X160172400Y-79434267D01*
X160172400Y-79531054D01*
X160172400Y-79531054D01*
G37*
X160172400Y-79531054D02*
X160161535Y-79644993D01*
X160129918Y-79752616D01*
X160079015Y-79851615D01*
X160010293Y-79939684D01*
X159925219Y-80014516D01*
X159828232Y-80072384D01*
X159721964Y-80112005D01*
X159614950Y-80130573D01*
X159509300Y-80129434D01*
X159407125Y-80109930D01*
X159310534Y-80073406D01*
X159221638Y-80021205D01*
X159142546Y-79954673D01*
X159075369Y-79875152D01*
X159022217Y-79783987D01*
X158985199Y-79682523D01*
X158966427Y-79572102D01*
X158964489Y-79522206D01*
X158964489Y-79434267D01*
X158912560Y-79434267D01*
X158876253Y-79437111D01*
X158849355Y-79448911D01*
X158822249Y-79472649D01*
X158783867Y-79511031D01*
X158783867Y-81702602D01*
X158783876Y-81964739D01*
X158783908Y-82205241D01*
X158783972Y-82425048D01*
X158784076Y-82625101D01*
X158784227Y-82806344D01*
X158784434Y-82969716D01*
X158784706Y-83116160D01*
X158785050Y-83246617D01*
X158785474Y-83362029D01*
X158785987Y-83463338D01*
X158786597Y-83551484D01*
X158787312Y-83627410D01*
X158788140Y-83692057D01*
X158789089Y-83746367D01*
X158790167Y-83791280D01*
X158791383Y-83827740D01*
X158792745Y-83856687D01*
X158794261Y-83879063D01*
X158795938Y-83895809D01*
X158797786Y-83907868D01*
X158799813Y-83916180D01*
X158802025Y-83921687D01*
X158803108Y-83923537D01*
X158807271Y-83930549D01*
X158810805Y-83936996D01*
X158814635Y-83942900D01*
X158819682Y-83948286D01*
X158826871Y-83953178D01*
X158837123Y-83957598D01*
X158851364Y-83961572D01*
X158870514Y-83965121D01*
X158895499Y-83968270D01*
X158927240Y-83971042D01*
X158966662Y-83973461D01*
X159014686Y-83975551D01*
X159072237Y-83977335D01*
X159140237Y-83978837D01*
X159219610Y-83980080D01*
X159311279Y-83981089D01*
X159416166Y-83981885D01*
X159535196Y-83982494D01*
X159669290Y-83982939D01*
X159819373Y-83983243D01*
X159986367Y-83983430D01*
X160171196Y-83983524D01*
X160374783Y-83983548D01*
X160598050Y-83983525D01*
X160841922Y-83983480D01*
X161107321Y-83983437D01*
X161145704Y-83983432D01*
X161412682Y-83983389D01*
X161658002Y-83983318D01*
X161882583Y-83983213D01*
X162087345Y-83983066D01*
X162273206Y-83982869D01*
X162441088Y-83982616D01*
X162591908Y-83982300D01*
X162726587Y-83981913D01*
X162846044Y-83981447D01*
X162951199Y-83980897D01*
X163042971Y-83980253D01*
X163122279Y-83979511D01*
X163190043Y-83978661D01*
X163247182Y-83977697D01*
X163294617Y-83976611D01*
X163333266Y-83975397D01*
X163364049Y-83974047D01*
X163387885Y-83972555D01*
X163405694Y-83970911D01*
X163418395Y-83969111D01*
X163426908Y-83967145D01*
X163431266Y-83965477D01*
X163439728Y-83961906D01*
X163447497Y-83959270D01*
X163454602Y-83956634D01*
X163461073Y-83953062D01*
X163466939Y-83947621D01*
X163472229Y-83939375D01*
X163476974Y-83927390D01*
X163481202Y-83910731D01*
X163484943Y-83888463D01*
X163488227Y-83859652D01*
X163491083Y-83823363D01*
X163493540Y-83778661D01*
X163495629Y-83724611D01*
X163497378Y-83660279D01*
X163498817Y-83584730D01*
X163499976Y-83497030D01*
X163500883Y-83396243D01*
X163501569Y-83281434D01*
X163502063Y-83151670D01*
X163502395Y-83006015D01*
X163502593Y-82843535D01*
X163502687Y-82663295D01*
X163502708Y-82464360D01*
X163502685Y-82245796D01*
X163502646Y-82006668D01*
X163502622Y-81746040D01*
X163502622Y-81703889D01*
X163502636Y-81440992D01*
X163502661Y-81199732D01*
X163502671Y-80979165D01*
X163502642Y-80778352D01*
X163502548Y-80596349D01*
X163502362Y-80432216D01*
X163502059Y-80285011D01*
X163501614Y-80153792D01*
X163501034Y-80043867D01*
X163198197Y-80043867D01*
X163158407Y-80101711D01*
X163147236Y-80117479D01*
X163137166Y-80131441D01*
X163128138Y-80144784D01*
X163120097Y-80158693D01*
X163112986Y-80174356D01*
X163106747Y-80192958D01*
X163101325Y-80215686D01*
X163096662Y-80243727D01*
X163092701Y-80278267D01*
X163089385Y-80320492D01*
X163086659Y-80371589D01*
X163084464Y-80432744D01*
X163082745Y-80505144D01*
X163081444Y-80589975D01*
X163080505Y-80688422D01*
X163079870Y-80801674D01*
X163079484Y-80930916D01*
X163079288Y-81077334D01*
X163079227Y-81242116D01*
X163079243Y-81426447D01*
X163079280Y-81631513D01*
X163079289Y-81754133D01*
X163079265Y-81971082D01*
X163079231Y-82166642D01*
X163079243Y-82341999D01*
X163079358Y-82498341D01*
X163079630Y-82636857D01*
X163080118Y-82758734D01*
X163080876Y-82865160D01*
X163081962Y-82957322D01*
X163083431Y-83036409D01*
X163085340Y-83103608D01*
X163087744Y-83160107D01*
X163090701Y-83207093D01*
X163094266Y-83245755D01*
X163098495Y-83277280D01*
X163103446Y-83302855D01*
X163109173Y-83323670D01*
X163115733Y-83340911D01*
X163123183Y-83355765D01*
X163131579Y-83369422D01*
X163140976Y-83383069D01*
X163151432Y-83397893D01*
X163157523Y-83406783D01*
X163196296Y-83464400D01*
X162664732Y-83464400D01*
X162541483Y-83464365D01*
X162438987Y-83464215D01*
X162355420Y-83463878D01*
X162288956Y-83463286D01*
X162237771Y-83462367D01*
X162200041Y-83461051D01*
X162173940Y-83459269D01*
X162157644Y-83456951D01*
X162149328Y-83454026D01*
X162147168Y-83450424D01*
X162149339Y-83446075D01*
X162150535Y-83444645D01*
X162175685Y-83407573D01*
X162201583Y-83354772D01*
X162225192Y-83292770D01*
X162233461Y-83266357D01*
X162238078Y-83248416D01*
X162241979Y-83227355D01*
X162245248Y-83201089D01*
X162247966Y-83167532D01*
X162250215Y-83124599D01*
X162252077Y-83070204D01*
X162253636Y-83002262D01*
X162254972Y-82918688D01*
X162256169Y-82817395D01*
X162257308Y-82696300D01*
X162257685Y-82651600D01*
X162258702Y-82526449D01*
X162259460Y-82422082D01*
X162259903Y-82336707D01*
X162259970Y-82268533D01*
X162259605Y-82215765D01*
X162258748Y-82176614D01*
X162257341Y-82149285D01*
X162255325Y-82131986D01*
X162252643Y-82122926D01*
X162249236Y-82120312D01*
X162245044Y-82122351D01*
X162240571Y-82126667D01*
X162230216Y-82139602D01*
X162208158Y-82168676D01*
X162175957Y-82211759D01*
X162135174Y-82266718D01*
X162087370Y-82331423D01*
X162034105Y-82403742D01*
X161976940Y-82481544D01*
X161917437Y-82562698D01*
X161857155Y-82645072D01*
X161797655Y-82726536D01*
X161740498Y-82804957D01*
X161687245Y-82878204D01*
X161639457Y-82944147D01*
X161598693Y-83000654D01*
X161566516Y-83045593D01*
X161544485Y-83076834D01*
X161539917Y-83083466D01*
X161516996Y-83120369D01*
X161490188Y-83168359D01*
X161464789Y-83217897D01*
X161461568Y-83224577D01*
X161439890Y-83272772D01*
X161427304Y-83310334D01*
X161421574Y-83346160D01*
X161420456Y-83388200D01*
X161421090Y-83464400D01*
X160266651Y-83464400D01*
X160357815Y-83370669D01*
X160404612Y-83320775D01*
X160454899Y-83264295D01*
X160500944Y-83210026D01*
X160521369Y-83184673D01*
X160551807Y-83145128D01*
X160591862Y-83091916D01*
X160640361Y-83026667D01*
X160696135Y-82951011D01*
X160758011Y-82866577D01*
X160824819Y-82774994D01*
X160895387Y-82677892D01*
X160968545Y-82576901D01*
X161043121Y-82473650D01*
X161117944Y-82369768D01*
X161191843Y-82266885D01*
X161263646Y-82166631D01*
X161332184Y-82070636D01*
X161396284Y-81980527D01*
X161454775Y-81897936D01*
X161506486Y-81824492D01*
X161550247Y-81761824D01*
X161584885Y-81711561D01*
X161609230Y-81675334D01*
X161622111Y-81654771D01*
X161623869Y-81650668D01*
X161615910Y-81639342D01*
X161595115Y-81612162D01*
X161562847Y-81570829D01*
X161520470Y-81517044D01*
X161469347Y-81452506D01*
X161410841Y-81378918D01*
X161346314Y-81297978D01*
X161277131Y-81211388D01*
X161204653Y-81120848D01*
X161130246Y-81028060D01*
X161070517Y-80953702D01*
X160059511Y-80953702D01*
X160053602Y-80966659D01*
X160039272Y-80988908D01*
X160038225Y-80990391D01*
X160019438Y-81020544D01*
X159999791Y-81057375D01*
X159995892Y-81065511D01*
X159992356Y-81073940D01*
X159989230Y-81084059D01*
X159986486Y-81097260D01*
X159984092Y-81114938D01*
X159982019Y-81138484D01*
X159980235Y-81169293D01*
X159978712Y-81208757D01*
X159977419Y-81258269D01*
X159976326Y-81319223D01*
X159975403Y-81393011D01*
X159974619Y-81481028D01*
X159973945Y-81584665D01*
X159973350Y-81705316D01*
X159972805Y-81844374D01*
X159972279Y-82003232D01*
X159971745Y-82182089D01*
X159971206Y-82367207D01*
X159970772Y-82531145D01*
X159970509Y-82675303D01*
X159970484Y-82801079D01*
X159970765Y-82909871D01*
X159971419Y-83003077D01*
X159972514Y-83082097D01*
X159974118Y-83148328D01*
X159976297Y-83203170D01*
X159979119Y-83248021D01*
X159982651Y-83284278D01*
X159986961Y-83313341D01*
X159992117Y-83336609D01*
X159998185Y-83355479D01*
X160005233Y-83371351D01*
X160013329Y-83385622D01*
X160022540Y-83399691D01*
X160031040Y-83412158D01*
X160048176Y-83438452D01*
X160058322Y-83456037D01*
X160059511Y-83459257D01*
X160048604Y-83460334D01*
X160017411Y-83461335D01*
X159968223Y-83462235D01*
X159903333Y-83463010D01*
X159825030Y-83463637D01*
X159735607Y-83464091D01*
X159637356Y-83464349D01*
X159568445Y-83464400D01*
X159463452Y-83464180D01*
X159366610Y-83463548D01*
X159280107Y-83462549D01*
X159206132Y-83461227D01*
X159146874Y-83459626D01*
X159104520Y-83457791D01*
X159081260Y-83455765D01*
X159077378Y-83454493D01*
X159085076Y-83439591D01*
X159093074Y-83431560D01*
X159106246Y-83414434D01*
X159123485Y-83384183D01*
X159135407Y-83359622D01*
X159162045Y-83300711D01*
X159165120Y-82123845D01*
X159168195Y-80946978D01*
X159613853Y-80946978D01*
X159711670Y-80947142D01*
X159802064Y-80947611D01*
X159882630Y-80948347D01*
X159950962Y-80949316D01*
X160004656Y-80950480D01*
X160041305Y-80951803D01*
X160058504Y-80953249D01*
X160059511Y-80953702D01*
X161070517Y-80953702D01*
X161055270Y-80934722D01*
X160981090Y-80842537D01*
X160909069Y-80753204D01*
X160840569Y-80668424D01*
X160776955Y-80589898D01*
X160719588Y-80519326D01*
X160669833Y-80458409D01*
X160629052Y-80408847D01*
X160611888Y-80388178D01*
X160525596Y-80287516D01*
X160448997Y-80204259D01*
X160380183Y-80136438D01*
X160317248Y-80082089D01*
X160307867Y-80074722D01*
X160268356Y-80044117D01*
X161400116Y-80043867D01*
X161394827Y-80091844D01*
X161398130Y-80149188D01*
X161419661Y-80217463D01*
X161459635Y-80297212D01*
X161504943Y-80369495D01*
X161521161Y-80392140D01*
X161549214Y-80429696D01*
X161587430Y-80480021D01*
X161634137Y-80540973D01*
X161687661Y-80610411D01*
X161746331Y-80686194D01*
X161808475Y-80766180D01*
X161872421Y-80848228D01*
X161936495Y-80930196D01*
X161999027Y-81009943D01*
X162058343Y-81085327D01*
X162112771Y-81154207D01*
X162160639Y-81214442D01*
X162200275Y-81263889D01*
X162230006Y-81300408D01*
X162248161Y-81321858D01*
X162251220Y-81325156D01*
X162254079Y-81317149D01*
X162256293Y-81286855D01*
X162257857Y-81234556D01*
X162258767Y-81160531D01*
X162259020Y-81065063D01*
X162258613Y-80948434D01*
X162257704Y-80828445D01*
X162256382Y-80696333D01*
X162254857Y-80584594D01*
X162252881Y-80491025D01*
X162250206Y-80413419D01*
X162246582Y-80349574D01*
X162241761Y-80297283D01*
X162235494Y-80254344D01*
X162227532Y-80218551D01*
X162217627Y-80187700D01*
X162205531Y-80159586D01*
X162190993Y-80132005D01*
X162176311Y-80106966D01*
X162138314Y-80043867D01*
X163198197Y-80043867D01*
X163501034Y-80043867D01*
X163501001Y-80037617D01*
X163500195Y-79935544D01*
X163499170Y-79846633D01*
X163497900Y-79769941D01*
X163496360Y-79704527D01*
X163494524Y-79649449D01*
X163492367Y-79603765D01*
X163489863Y-79566534D01*
X163486987Y-79536813D01*
X163483713Y-79513662D01*
X163480015Y-79496139D01*
X163475869Y-79483301D01*
X163471247Y-79474208D01*
X163466126Y-79467918D01*
X163460478Y-79463488D01*
X163454279Y-79459978D01*
X163447504Y-79456445D01*
X163441508Y-79452876D01*
X163436275Y-79450300D01*
X163428099Y-79447972D01*
X163415886Y-79445878D01*
X163398541Y-79444007D01*
X163374969Y-79442347D01*
X163344077Y-79440884D01*
X163304768Y-79439608D01*
X163255950Y-79438504D01*
X163196527Y-79437561D01*
X163125404Y-79436767D01*
X163041488Y-79436109D01*
X162943683Y-79435575D01*
X162830894Y-79435153D01*
X162702029Y-79434829D01*
X162555991Y-79434592D01*
X162391686Y-79434430D01*
X162208020Y-79434330D01*
X162003897Y-79434280D01*
X161792753Y-79434267D01*
X160172400Y-79434267D01*
X160172400Y-79531054D01*
G36*
X150997177Y-84316533D02*
X150965798Y-84338776D01*
X150938089Y-84366485D01*
X150938089Y-84675920D01*
X150938162Y-84767799D01*
X150938505Y-84839840D01*
X150939308Y-84894780D01*
X150940759Y-84935360D01*
X150943048Y-84964317D01*
X150946364Y-84984391D01*
X150950895Y-84998321D01*
X150956831Y-85008845D01*
X150961486Y-85015100D01*
X150992217Y-85039673D01*
X151027504Y-85042341D01*
X151059755Y-85027271D01*
X151070412Y-85018374D01*
X151077536Y-85006557D01*
X151081833Y-84987526D01*
X151084009Y-84956992D01*
X151084772Y-84910662D01*
X151084845Y-84874871D01*
X151084845Y-84740045D01*
X151581556Y-84740045D01*
X151581556Y-84862700D01*
X151582069Y-84918787D01*
X151584124Y-84957333D01*
X151588492Y-84983361D01*
X151595944Y-85001897D01*
X151604953Y-85015100D01*
X151635856Y-85039604D01*
X151670804Y-85042506D01*
X151704262Y-85025089D01*
X151713396Y-85015959D01*
X151719848Y-85003855D01*
X151724103Y-84985001D01*
X151726648Y-84955620D01*
X151727971Y-84911937D01*
X151728557Y-84850175D01*
X151728625Y-84836000D01*
X151729109Y-84719631D01*
X151729359Y-84623727D01*
X151729277Y-84546177D01*
X151728769Y-84484869D01*
X151727738Y-84437690D01*
X151726087Y-84402530D01*
X151723721Y-84377276D01*
X151720543Y-84359817D01*
X151716456Y-84348041D01*
X151711366Y-84339835D01*
X151705734Y-84333645D01*
X151673872Y-84313844D01*
X151640643Y-84316533D01*
X151609265Y-84338776D01*
X151596567Y-84353126D01*
X151588474Y-84368978D01*
X151583958Y-84391554D01*
X151581994Y-84426078D01*
X151581556Y-84477776D01*
X151581556Y-84593289D01*
X151084845Y-84593289D01*
X151084845Y-84474756D01*
X151084338Y-84420148D01*
X151082302Y-84383275D01*
X151077965Y-84359307D01*
X151070553Y-84343415D01*
X151062267Y-84333645D01*
X151030406Y-84313844D01*
X150997177Y-84316533D01*
X150997177Y-84316533D01*
G37*
X150997177Y-84316533D02*
X150965798Y-84338776D01*
X150938089Y-84366485D01*
X150938089Y-84675920D01*
X150938162Y-84767799D01*
X150938505Y-84839840D01*
X150939308Y-84894780D01*
X150940759Y-84935360D01*
X150943048Y-84964317D01*
X150946364Y-84984391D01*
X150950895Y-84998321D01*
X150956831Y-85008845D01*
X150961486Y-85015100D01*
X150992217Y-85039673D01*
X151027504Y-85042341D01*
X151059755Y-85027271D01*
X151070412Y-85018374D01*
X151077536Y-85006557D01*
X151081833Y-84987526D01*
X151084009Y-84956992D01*
X151084772Y-84910662D01*
X151084845Y-84874871D01*
X151084845Y-84740045D01*
X151581556Y-84740045D01*
X151581556Y-84862700D01*
X151582069Y-84918787D01*
X151584124Y-84957333D01*
X151588492Y-84983361D01*
X151595944Y-85001897D01*
X151604953Y-85015100D01*
X151635856Y-85039604D01*
X151670804Y-85042506D01*
X151704262Y-85025089D01*
X151713396Y-85015959D01*
X151719848Y-85003855D01*
X151724103Y-84985001D01*
X151726648Y-84955620D01*
X151727971Y-84911937D01*
X151728557Y-84850175D01*
X151728625Y-84836000D01*
X151729109Y-84719631D01*
X151729359Y-84623727D01*
X151729277Y-84546177D01*
X151728769Y-84484869D01*
X151727738Y-84437690D01*
X151726087Y-84402530D01*
X151723721Y-84377276D01*
X151720543Y-84359817D01*
X151716456Y-84348041D01*
X151711366Y-84339835D01*
X151705734Y-84333645D01*
X151673872Y-84313844D01*
X151640643Y-84316533D01*
X151609265Y-84338776D01*
X151596567Y-84353126D01*
X151588474Y-84368978D01*
X151583958Y-84391554D01*
X151581994Y-84426078D01*
X151581556Y-84477776D01*
X151581556Y-84593289D01*
X151084845Y-84593289D01*
X151084845Y-84474756D01*
X151084338Y-84420148D01*
X151082302Y-84383275D01*
X151077965Y-84359307D01*
X151070553Y-84343415D01*
X151062267Y-84333645D01*
X151030406Y-84313844D01*
X150997177Y-84316533D01*
G36*
X152262935Y-84311163D02*
X152184228Y-84311542D01*
X152123137Y-84312333D01*
X152077183Y-84313670D01*
X152043886Y-84315683D01*
X152020764Y-84318506D01*
X152005338Y-84322269D01*
X151995129Y-84327105D01*
X151990187Y-84330822D01*
X151964543Y-84363358D01*
X151961441Y-84397138D01*
X151977289Y-84427826D01*
X151987652Y-84440089D01*
X151998804Y-84448450D01*
X152014965Y-84453657D01*
X152040358Y-84456457D01*
X152079202Y-84457596D01*
X152135720Y-84457821D01*
X152146820Y-84457822D01*
X152292756Y-84457822D01*
X152292756Y-84728756D01*
X152292852Y-84814154D01*
X152293289Y-84879864D01*
X152294288Y-84928774D01*
X152296072Y-84963773D01*
X152298863Y-84987749D01*
X152302883Y-85003593D01*
X152308355Y-85014191D01*
X152315334Y-85022267D01*
X152348266Y-85042112D01*
X152382646Y-85040548D01*
X152413824Y-85017906D01*
X152416114Y-85015100D01*
X152423571Y-85004492D01*
X152429253Y-84992081D01*
X152433399Y-84974850D01*
X152436250Y-84949784D01*
X152438046Y-84913867D01*
X152439028Y-84864083D01*
X152439436Y-84797417D01*
X152439511Y-84721589D01*
X152439511Y-84457822D01*
X152578873Y-84457822D01*
X152638678Y-84457418D01*
X152680082Y-84455840D01*
X152707252Y-84452547D01*
X152724354Y-84446992D01*
X152735557Y-84438631D01*
X152736917Y-84437178D01*
X152753275Y-84403939D01*
X152751828Y-84366362D01*
X152733022Y-84333645D01*
X152725750Y-84327298D01*
X152716373Y-84322266D01*
X152702391Y-84318396D01*
X152681304Y-84315537D01*
X152650611Y-84313535D01*
X152607811Y-84312239D01*
X152550405Y-84311498D01*
X152475890Y-84311158D01*
X152381767Y-84311068D01*
X152361740Y-84311067D01*
X152262935Y-84311163D01*
X152262935Y-84311163D01*
G37*
X152262935Y-84311163D02*
X152184228Y-84311542D01*
X152123137Y-84312333D01*
X152077183Y-84313670D01*
X152043886Y-84315683D01*
X152020764Y-84318506D01*
X152005338Y-84322269D01*
X151995129Y-84327105D01*
X151990187Y-84330822D01*
X151964543Y-84363358D01*
X151961441Y-84397138D01*
X151977289Y-84427826D01*
X151987652Y-84440089D01*
X151998804Y-84448450D01*
X152014965Y-84453657D01*
X152040358Y-84456457D01*
X152079202Y-84457596D01*
X152135720Y-84457821D01*
X152146820Y-84457822D01*
X152292756Y-84457822D01*
X152292756Y-84728756D01*
X152292852Y-84814154D01*
X152293289Y-84879864D01*
X152294288Y-84928774D01*
X152296072Y-84963773D01*
X152298863Y-84987749D01*
X152302883Y-85003593D01*
X152308355Y-85014191D01*
X152315334Y-85022267D01*
X152348266Y-85042112D01*
X152382646Y-85040548D01*
X152413824Y-85017906D01*
X152416114Y-85015100D01*
X152423571Y-85004492D01*
X152429253Y-84992081D01*
X152433399Y-84974850D01*
X152436250Y-84949784D01*
X152438046Y-84913867D01*
X152439028Y-84864083D01*
X152439436Y-84797417D01*
X152439511Y-84721589D01*
X152439511Y-84457822D01*
X152578873Y-84457822D01*
X152638678Y-84457418D01*
X152680082Y-84455840D01*
X152707252Y-84452547D01*
X152724354Y-84446992D01*
X152735557Y-84438631D01*
X152736917Y-84437178D01*
X152753275Y-84403939D01*
X152751828Y-84366362D01*
X152733022Y-84333645D01*
X152725750Y-84327298D01*
X152716373Y-84322266D01*
X152702391Y-84318396D01*
X152681304Y-84315537D01*
X152650611Y-84313535D01*
X152607811Y-84312239D01*
X152550405Y-84311498D01*
X152475890Y-84311158D01*
X152381767Y-84311068D01*
X152361740Y-84311067D01*
X152262935Y-84311163D01*
G36*
X153037386Y-84317877D02*
X153013673Y-84332647D01*
X152987022Y-84354227D01*
X152987022Y-84675773D01*
X152987107Y-84769830D01*
X152987471Y-84843932D01*
X152988276Y-84900704D01*
X152989687Y-84942768D01*
X152991867Y-84972748D01*
X152994979Y-84993267D01*
X152999186Y-85006949D01*
X153004652Y-85016416D01*
X153008528Y-85021082D01*
X153039966Y-85041575D01*
X153075767Y-85040739D01*
X153107127Y-85023264D01*
X153133778Y-85001684D01*
X153133778Y-84354227D01*
X153107127Y-84332647D01*
X153081406Y-84316949D01*
X153060400Y-84311067D01*
X153037386Y-84317877D01*
X153037386Y-84317877D01*
G37*
X153037386Y-84317877D02*
X153013673Y-84332647D01*
X152987022Y-84354227D01*
X152987022Y-84675773D01*
X152987107Y-84769830D01*
X152987471Y-84843932D01*
X152988276Y-84900704D01*
X152989687Y-84942768D01*
X152991867Y-84972748D01*
X152994979Y-84993267D01*
X152999186Y-85006949D01*
X153004652Y-85016416D01*
X153008528Y-85021082D01*
X153039966Y-85041575D01*
X153075767Y-85040739D01*
X153107127Y-85023264D01*
X153133778Y-85001684D01*
X153133778Y-84354227D01*
X153107127Y-84332647D01*
X153081406Y-84316949D01*
X153060400Y-84311067D01*
X153037386Y-84317877D01*
G36*
X153481335Y-84313034D02*
X153461745Y-84320035D01*
X153460990Y-84320377D01*
X153434387Y-84340678D01*
X153419730Y-84361561D01*
X153416862Y-84371352D01*
X153417004Y-84384361D01*
X153421039Y-84402895D01*
X153429854Y-84429257D01*
X153444331Y-84465752D01*
X153465355Y-84514687D01*
X153493812Y-84578365D01*
X153530585Y-84659093D01*
X153550825Y-84703216D01*
X153587375Y-84781985D01*
X153621685Y-84854423D01*
X153652448Y-84917880D01*
X153678352Y-84969708D01*
X153698090Y-85007259D01*
X153710350Y-85027884D01*
X153712776Y-85030733D01*
X153743817Y-85043302D01*
X153778879Y-85041619D01*
X153807000Y-85026332D01*
X153808146Y-85025089D01*
X153819332Y-85008154D01*
X153838096Y-84975170D01*
X153862125Y-84930380D01*
X153889103Y-84878032D01*
X153898799Y-84858742D01*
X153971986Y-84712150D01*
X154051760Y-84871393D01*
X154080233Y-84926415D01*
X154106650Y-84974132D01*
X154128852Y-85010893D01*
X154144681Y-85033044D01*
X154150046Y-85037741D01*
X154191743Y-85044102D01*
X154226151Y-85030733D01*
X154236272Y-85016446D01*
X154253786Y-84984692D01*
X154277265Y-84938597D01*
X154305280Y-84881285D01*
X154336401Y-84815880D01*
X154369201Y-84745507D01*
X154402250Y-84673291D01*
X154434119Y-84602355D01*
X154463381Y-84535825D01*
X154488605Y-84476826D01*
X154508364Y-84428481D01*
X154521228Y-84393915D01*
X154525769Y-84376253D01*
X154525723Y-84375613D01*
X154514674Y-84353388D01*
X154492590Y-84330753D01*
X154491290Y-84329768D01*
X154464147Y-84314425D01*
X154439042Y-84314574D01*
X154429632Y-84317466D01*
X154418166Y-84323718D01*
X154405990Y-84336014D01*
X154391643Y-84356908D01*
X154373664Y-84388949D01*
X154350593Y-84434688D01*
X154320970Y-84496677D01*
X154294255Y-84553898D01*
X154263520Y-84620226D01*
X154235979Y-84679874D01*
X154213062Y-84729725D01*
X154196202Y-84766664D01*
X154186827Y-84787573D01*
X154185460Y-84790845D01*
X154179311Y-84785497D01*
X154165178Y-84763109D01*
X154144943Y-84726946D01*
X154120485Y-84680277D01*
X154110752Y-84661022D01*
X154077783Y-84596004D01*
X154052357Y-84548654D01*
X154032388Y-84516219D01*
X154015790Y-84495946D01*
X154000476Y-84485082D01*
X153984360Y-84480875D01*
X153973857Y-84480400D01*
X153955330Y-84482042D01*
X153939096Y-84488831D01*
X153922965Y-84503566D01*
X153904749Y-84529044D01*
X153882261Y-84568061D01*
X153853311Y-84623414D01*
X153837338Y-84654903D01*
X153811430Y-84705087D01*
X153788833Y-84746704D01*
X153771542Y-84776242D01*
X153761550Y-84790189D01*
X153760191Y-84790770D01*
X153753739Y-84779793D01*
X153739292Y-84751290D01*
X153718297Y-84708244D01*
X153692203Y-84653638D01*
X153662454Y-84590454D01*
X153647820Y-84559071D01*
X153609750Y-84478078D01*
X153579095Y-84415756D01*
X153554263Y-84370071D01*
X153533663Y-84338989D01*
X153515702Y-84320478D01*
X153498790Y-84312504D01*
X153481335Y-84313034D01*
X153481335Y-84313034D01*
G37*
X153481335Y-84313034D02*
X153461745Y-84320035D01*
X153460990Y-84320377D01*
X153434387Y-84340678D01*
X153419730Y-84361561D01*
X153416862Y-84371352D01*
X153417004Y-84384361D01*
X153421039Y-84402895D01*
X153429854Y-84429257D01*
X153444331Y-84465752D01*
X153465355Y-84514687D01*
X153493812Y-84578365D01*
X153530585Y-84659093D01*
X153550825Y-84703216D01*
X153587375Y-84781985D01*
X153621685Y-84854423D01*
X153652448Y-84917880D01*
X153678352Y-84969708D01*
X153698090Y-85007259D01*
X153710350Y-85027884D01*
X153712776Y-85030733D01*
X153743817Y-85043302D01*
X153778879Y-85041619D01*
X153807000Y-85026332D01*
X153808146Y-85025089D01*
X153819332Y-85008154D01*
X153838096Y-84975170D01*
X153862125Y-84930380D01*
X153889103Y-84878032D01*
X153898799Y-84858742D01*
X153971986Y-84712150D01*
X154051760Y-84871393D01*
X154080233Y-84926415D01*
X154106650Y-84974132D01*
X154128852Y-85010893D01*
X154144681Y-85033044D01*
X154150046Y-85037741D01*
X154191743Y-85044102D01*
X154226151Y-85030733D01*
X154236272Y-85016446D01*
X154253786Y-84984692D01*
X154277265Y-84938597D01*
X154305280Y-84881285D01*
X154336401Y-84815880D01*
X154369201Y-84745507D01*
X154402250Y-84673291D01*
X154434119Y-84602355D01*
X154463381Y-84535825D01*
X154488605Y-84476826D01*
X154508364Y-84428481D01*
X154521228Y-84393915D01*
X154525769Y-84376253D01*
X154525723Y-84375613D01*
X154514674Y-84353388D01*
X154492590Y-84330753D01*
X154491290Y-84329768D01*
X154464147Y-84314425D01*
X154439042Y-84314574D01*
X154429632Y-84317466D01*
X154418166Y-84323718D01*
X154405990Y-84336014D01*
X154391643Y-84356908D01*
X154373664Y-84388949D01*
X154350593Y-84434688D01*
X154320970Y-84496677D01*
X154294255Y-84553898D01*
X154263520Y-84620226D01*
X154235979Y-84679874D01*
X154213062Y-84729725D01*
X154196202Y-84766664D01*
X154186827Y-84787573D01*
X154185460Y-84790845D01*
X154179311Y-84785497D01*
X154165178Y-84763109D01*
X154144943Y-84726946D01*
X154120485Y-84680277D01*
X154110752Y-84661022D01*
X154077783Y-84596004D01*
X154052357Y-84548654D01*
X154032388Y-84516219D01*
X154015790Y-84495946D01*
X154000476Y-84485082D01*
X153984360Y-84480875D01*
X153973857Y-84480400D01*
X153955330Y-84482042D01*
X153939096Y-84488831D01*
X153922965Y-84503566D01*
X153904749Y-84529044D01*
X153882261Y-84568061D01*
X153853311Y-84623414D01*
X153837338Y-84654903D01*
X153811430Y-84705087D01*
X153788833Y-84746704D01*
X153771542Y-84776242D01*
X153761550Y-84790189D01*
X153760191Y-84790770D01*
X153753739Y-84779793D01*
X153739292Y-84751290D01*
X153718297Y-84708244D01*
X153692203Y-84653638D01*
X153662454Y-84590454D01*
X153647820Y-84559071D01*
X153609750Y-84478078D01*
X153579095Y-84415756D01*
X153554263Y-84370071D01*
X153533663Y-84338989D01*
X153515702Y-84320478D01*
X153498790Y-84312504D01*
X153481335Y-84313034D01*
G36*
X156207691Y-84311275D02*
X156078712Y-84315636D01*
X155969009Y-84328861D01*
X155876774Y-84351741D01*
X155800198Y-84385070D01*
X155737473Y-84429638D01*
X155686788Y-84486236D01*
X155646337Y-84555658D01*
X155645541Y-84557351D01*
X155621399Y-84619483D01*
X155612797Y-84674509D01*
X155619769Y-84729887D01*
X155642346Y-84793073D01*
X155646628Y-84802689D01*
X155675828Y-84858966D01*
X155708644Y-84902451D01*
X155750998Y-84939417D01*
X155808810Y-84976135D01*
X155812169Y-84978052D01*
X155862496Y-85002227D01*
X155919379Y-85020282D01*
X155986473Y-85032839D01*
X156067435Y-85040522D01*
X156165918Y-85043953D01*
X156200714Y-85044251D01*
X156366406Y-85044845D01*
X156389803Y-85015100D01*
X156396743Y-85005319D01*
X156402158Y-84993897D01*
X156406235Y-84978095D01*
X156409163Y-84955175D01*
X156411133Y-84922396D01*
X156411775Y-84898089D01*
X156255156Y-84898089D01*
X156161274Y-84898089D01*
X156106336Y-84896483D01*
X156049940Y-84892255D01*
X156003655Y-84886292D01*
X156000861Y-84885790D01*
X155918652Y-84863736D01*
X155854886Y-84830600D01*
X155807548Y-84784847D01*
X155774618Y-84724939D01*
X155768892Y-84709061D01*
X155763279Y-84684333D01*
X155765709Y-84659902D01*
X155777533Y-84627400D01*
X155784660Y-84611434D01*
X155808000Y-84569006D01*
X155836120Y-84539240D01*
X155867060Y-84518511D01*
X155929034Y-84491537D01*
X156008349Y-84471998D01*
X156100747Y-84460746D01*
X156167667Y-84458270D01*
X156255156Y-84457822D01*
X156255156Y-84898089D01*
X156411775Y-84898089D01*
X156412332Y-84877021D01*
X156412950Y-84816311D01*
X156413175Y-84737526D01*
X156413200Y-84675920D01*
X156413200Y-84366485D01*
X156385491Y-84338776D01*
X156373194Y-84327544D01*
X156359897Y-84319853D01*
X156341328Y-84315040D01*
X156313214Y-84312446D01*
X156271283Y-84311410D01*
X156211263Y-84311270D01*
X156207691Y-84311275D01*
X156207691Y-84311275D01*
G37*
X156207691Y-84311275D02*
X156078712Y-84315636D01*
X155969009Y-84328861D01*
X155876774Y-84351741D01*
X155800198Y-84385070D01*
X155737473Y-84429638D01*
X155686788Y-84486236D01*
X155646337Y-84555658D01*
X155645541Y-84557351D01*
X155621399Y-84619483D01*
X155612797Y-84674509D01*
X155619769Y-84729887D01*
X155642346Y-84793073D01*
X155646628Y-84802689D01*
X155675828Y-84858966D01*
X155708644Y-84902451D01*
X155750998Y-84939417D01*
X155808810Y-84976135D01*
X155812169Y-84978052D01*
X155862496Y-85002227D01*
X155919379Y-85020282D01*
X155986473Y-85032839D01*
X156067435Y-85040522D01*
X156165918Y-85043953D01*
X156200714Y-85044251D01*
X156366406Y-85044845D01*
X156389803Y-85015100D01*
X156396743Y-85005319D01*
X156402158Y-84993897D01*
X156406235Y-84978095D01*
X156409163Y-84955175D01*
X156411133Y-84922396D01*
X156411775Y-84898089D01*
X156255156Y-84898089D01*
X156161274Y-84898089D01*
X156106336Y-84896483D01*
X156049940Y-84892255D01*
X156003655Y-84886292D01*
X156000861Y-84885790D01*
X155918652Y-84863736D01*
X155854886Y-84830600D01*
X155807548Y-84784847D01*
X155774618Y-84724939D01*
X155768892Y-84709061D01*
X155763279Y-84684333D01*
X155765709Y-84659902D01*
X155777533Y-84627400D01*
X155784660Y-84611434D01*
X155808000Y-84569006D01*
X155836120Y-84539240D01*
X155867060Y-84518511D01*
X155929034Y-84491537D01*
X156008349Y-84471998D01*
X156100747Y-84460746D01*
X156167667Y-84458270D01*
X156255156Y-84457822D01*
X156255156Y-84898089D01*
X156411775Y-84898089D01*
X156412332Y-84877021D01*
X156412950Y-84816311D01*
X156413175Y-84737526D01*
X156413200Y-84675920D01*
X156413200Y-84366485D01*
X156385491Y-84338776D01*
X156373194Y-84327544D01*
X156359897Y-84319853D01*
X156341328Y-84315040D01*
X156313214Y-84312446D01*
X156271283Y-84311410D01*
X156211263Y-84311270D01*
X156207691Y-84311275D01*
G36*
X156995657Y-84311260D02*
X156919299Y-84312174D01*
X156860783Y-84314311D01*
X156817745Y-84318175D01*
X156787817Y-84324267D01*
X156768632Y-84333090D01*
X156757824Y-84345146D01*
X156753027Y-84360939D01*
X156751873Y-84380970D01*
X156751867Y-84383335D01*
X156752869Y-84405992D01*
X156757604Y-84423503D01*
X156768667Y-84436574D01*
X156788652Y-84445913D01*
X156820154Y-84452227D01*
X156865768Y-84456222D01*
X156928087Y-84458606D01*
X157009707Y-84460086D01*
X157034723Y-84460414D01*
X157276800Y-84463467D01*
X157280186Y-84528378D01*
X157283571Y-84593289D01*
X157115424Y-84593289D01*
X157049734Y-84593531D01*
X157002828Y-84594556D01*
X156970917Y-84596811D01*
X156950209Y-84600742D01*
X156936916Y-84606798D01*
X156927245Y-84615424D01*
X156927183Y-84615493D01*
X156909644Y-84649112D01*
X156910278Y-84685448D01*
X156928686Y-84716423D01*
X156932329Y-84719607D01*
X156945259Y-84727812D01*
X156962976Y-84733521D01*
X156989430Y-84737162D01*
X157028568Y-84739167D01*
X157084338Y-84739964D01*
X157120006Y-84740045D01*
X157282445Y-84740045D01*
X157282445Y-84898089D01*
X157035839Y-84898089D01*
X156954420Y-84898231D01*
X156892590Y-84898814D01*
X156847363Y-84900068D01*
X156815752Y-84902227D01*
X156794769Y-84905523D01*
X156781427Y-84910189D01*
X156772739Y-84916457D01*
X156770550Y-84918733D01*
X156754386Y-84950280D01*
X156753203Y-84986168D01*
X156766464Y-85017285D01*
X156776957Y-85027271D01*
X156787871Y-85032769D01*
X156804783Y-85037022D01*
X156830367Y-85040180D01*
X156867299Y-85042392D01*
X156918254Y-85043806D01*
X156985906Y-85044572D01*
X157072931Y-85044838D01*
X157092606Y-85044845D01*
X157181089Y-85044787D01*
X157249773Y-85044467D01*
X157301436Y-85043667D01*
X157338855Y-85042167D01*
X157364810Y-85039749D01*
X157382078Y-85036194D01*
X157393438Y-85031282D01*
X157401668Y-85024795D01*
X157406183Y-85020138D01*
X157412979Y-85011889D01*
X157418288Y-85001669D01*
X157422294Y-84986800D01*
X157425179Y-84964602D01*
X157427126Y-84932393D01*
X157428319Y-84887496D01*
X157428939Y-84827228D01*
X157429171Y-84748911D01*
X157429200Y-84682994D01*
X157429129Y-84590628D01*
X157428792Y-84518117D01*
X157428002Y-84462737D01*
X157426574Y-84421765D01*
X157424321Y-84392478D01*
X157421057Y-84372153D01*
X157416596Y-84358066D01*
X157410752Y-84347495D01*
X157405803Y-84340811D01*
X157382406Y-84311067D01*
X157092226Y-84311067D01*
X156995657Y-84311260D01*
X156995657Y-84311260D01*
G37*
X156995657Y-84311260D02*
X156919299Y-84312174D01*
X156860783Y-84314311D01*
X156817745Y-84318175D01*
X156787817Y-84324267D01*
X156768632Y-84333090D01*
X156757824Y-84345146D01*
X156753027Y-84360939D01*
X156751873Y-84380970D01*
X156751867Y-84383335D01*
X156752869Y-84405992D01*
X156757604Y-84423503D01*
X156768667Y-84436574D01*
X156788652Y-84445913D01*
X156820154Y-84452227D01*
X156865768Y-84456222D01*
X156928087Y-84458606D01*
X157009707Y-84460086D01*
X157034723Y-84460414D01*
X157276800Y-84463467D01*
X157280186Y-84528378D01*
X157283571Y-84593289D01*
X157115424Y-84593289D01*
X157049734Y-84593531D01*
X157002828Y-84594556D01*
X156970917Y-84596811D01*
X156950209Y-84600742D01*
X156936916Y-84606798D01*
X156927245Y-84615424D01*
X156927183Y-84615493D01*
X156909644Y-84649112D01*
X156910278Y-84685448D01*
X156928686Y-84716423D01*
X156932329Y-84719607D01*
X156945259Y-84727812D01*
X156962976Y-84733521D01*
X156989430Y-84737162D01*
X157028568Y-84739167D01*
X157084338Y-84739964D01*
X157120006Y-84740045D01*
X157282445Y-84740045D01*
X157282445Y-84898089D01*
X157035839Y-84898089D01*
X156954420Y-84898231D01*
X156892590Y-84898814D01*
X156847363Y-84900068D01*
X156815752Y-84902227D01*
X156794769Y-84905523D01*
X156781427Y-84910189D01*
X156772739Y-84916457D01*
X156770550Y-84918733D01*
X156754386Y-84950280D01*
X156753203Y-84986168D01*
X156766464Y-85017285D01*
X156776957Y-85027271D01*
X156787871Y-85032769D01*
X156804783Y-85037022D01*
X156830367Y-85040180D01*
X156867299Y-85042392D01*
X156918254Y-85043806D01*
X156985906Y-85044572D01*
X157072931Y-85044838D01*
X157092606Y-85044845D01*
X157181089Y-85044787D01*
X157249773Y-85044467D01*
X157301436Y-85043667D01*
X157338855Y-85042167D01*
X157364810Y-85039749D01*
X157382078Y-85036194D01*
X157393438Y-85031282D01*
X157401668Y-85024795D01*
X157406183Y-85020138D01*
X157412979Y-85011889D01*
X157418288Y-85001669D01*
X157422294Y-84986800D01*
X157425179Y-84964602D01*
X157427126Y-84932393D01*
X157428319Y-84887496D01*
X157428939Y-84827228D01*
X157429171Y-84748911D01*
X157429200Y-84682994D01*
X157429129Y-84590628D01*
X157428792Y-84518117D01*
X157428002Y-84462737D01*
X157426574Y-84421765D01*
X157424321Y-84392478D01*
X157421057Y-84372153D01*
X157416596Y-84358066D01*
X157410752Y-84347495D01*
X157405803Y-84340811D01*
X157382406Y-84311067D01*
X157092226Y-84311067D01*
X156995657Y-84311260D01*
G36*
X158526114Y-84315448D02*
X158502548Y-84329273D01*
X158471735Y-84351881D01*
X158432078Y-84384338D01*
X158381980Y-84427708D01*
X158319843Y-84483058D01*
X158244072Y-84551451D01*
X158157334Y-84630084D01*
X157976711Y-84793878D01*
X157971067Y-84574029D01*
X157969029Y-84498351D01*
X157967063Y-84441994D01*
X157964734Y-84401706D01*
X157961606Y-84374235D01*
X157957245Y-84356329D01*
X157951216Y-84344737D01*
X157943084Y-84336208D01*
X157938772Y-84332623D01*
X157904241Y-84313670D01*
X157871383Y-84316441D01*
X157845318Y-84332633D01*
X157818667Y-84354199D01*
X157815352Y-84669151D01*
X157814435Y-84761779D01*
X157813968Y-84834544D01*
X157814113Y-84890161D01*
X157815032Y-84931342D01*
X157816887Y-84960803D01*
X157819839Y-84981255D01*
X157824050Y-84995413D01*
X157829682Y-85005991D01*
X157835927Y-85014474D01*
X157849439Y-85030207D01*
X157862883Y-85040636D01*
X157878124Y-85044639D01*
X157897026Y-85041094D01*
X157921455Y-85028879D01*
X157953273Y-85006871D01*
X157994348Y-84973949D01*
X158046542Y-84928991D01*
X158111722Y-84870875D01*
X158185556Y-84804099D01*
X158450845Y-84563458D01*
X158456489Y-84782589D01*
X158458531Y-84858128D01*
X158460502Y-84914354D01*
X158462839Y-84954524D01*
X158465981Y-84981896D01*
X158470364Y-84999728D01*
X158476424Y-85011279D01*
X158484600Y-85019807D01*
X158488784Y-85023282D01*
X158525765Y-85042372D01*
X158560708Y-85039493D01*
X158591136Y-85015100D01*
X158598097Y-85005286D01*
X158603523Y-84993826D01*
X158607603Y-84977968D01*
X158610529Y-84954963D01*
X158612492Y-84922062D01*
X158613683Y-84876516D01*
X158614292Y-84815573D01*
X158614511Y-84736486D01*
X158614534Y-84677956D01*
X158614460Y-84586407D01*
X158614113Y-84514687D01*
X158613301Y-84460045D01*
X158611833Y-84419732D01*
X158609519Y-84390998D01*
X158606167Y-84371093D01*
X158601588Y-84357268D01*
X158595589Y-84346772D01*
X158591136Y-84340811D01*
X158579850Y-84326691D01*
X158569301Y-84316029D01*
X158557893Y-84309892D01*
X158544030Y-84309343D01*
X158526114Y-84315448D01*
X158526114Y-84315448D01*
G37*
X158526114Y-84315448D02*
X158502548Y-84329273D01*
X158471735Y-84351881D01*
X158432078Y-84384338D01*
X158381980Y-84427708D01*
X158319843Y-84483058D01*
X158244072Y-84551451D01*
X158157334Y-84630084D01*
X157976711Y-84793878D01*
X157971067Y-84574029D01*
X157969029Y-84498351D01*
X157967063Y-84441994D01*
X157964734Y-84401706D01*
X157961606Y-84374235D01*
X157957245Y-84356329D01*
X157951216Y-84344737D01*
X157943084Y-84336208D01*
X157938772Y-84332623D01*
X157904241Y-84313670D01*
X157871383Y-84316441D01*
X157845318Y-84332633D01*
X157818667Y-84354199D01*
X157815352Y-84669151D01*
X157814435Y-84761779D01*
X157813968Y-84834544D01*
X157814113Y-84890161D01*
X157815032Y-84931342D01*
X157816887Y-84960803D01*
X157819839Y-84981255D01*
X157824050Y-84995413D01*
X157829682Y-85005991D01*
X157835927Y-85014474D01*
X157849439Y-85030207D01*
X157862883Y-85040636D01*
X157878124Y-85044639D01*
X157897026Y-85041094D01*
X157921455Y-85028879D01*
X157953273Y-85006871D01*
X157994348Y-84973949D01*
X158046542Y-84928991D01*
X158111722Y-84870875D01*
X158185556Y-84804099D01*
X158450845Y-84563458D01*
X158456489Y-84782589D01*
X158458531Y-84858128D01*
X158460502Y-84914354D01*
X158462839Y-84954524D01*
X158465981Y-84981896D01*
X158470364Y-84999728D01*
X158476424Y-85011279D01*
X158484600Y-85019807D01*
X158488784Y-85023282D01*
X158525765Y-85042372D01*
X158560708Y-85039493D01*
X158591136Y-85015100D01*
X158598097Y-85005286D01*
X158603523Y-84993826D01*
X158607603Y-84977968D01*
X158610529Y-84954963D01*
X158612492Y-84922062D01*
X158613683Y-84876516D01*
X158614292Y-84815573D01*
X158614511Y-84736486D01*
X158614534Y-84677956D01*
X158614460Y-84586407D01*
X158614113Y-84514687D01*
X158613301Y-84460045D01*
X158611833Y-84419732D01*
X158609519Y-84390998D01*
X158606167Y-84371093D01*
X158601588Y-84357268D01*
X158595589Y-84346772D01*
X158591136Y-84340811D01*
X158579850Y-84326691D01*
X158569301Y-84316029D01*
X158557893Y-84309892D01*
X158544030Y-84309343D01*
X158526114Y-84315448D01*
G36*
X159176081Y-84316599D02*
X159107565Y-84328095D01*
X159054943Y-84345967D01*
X159020708Y-84369499D01*
X159011379Y-84382924D01*
X159001893Y-84414148D01*
X159008277Y-84442395D01*
X159028430Y-84469182D01*
X159059745Y-84481713D01*
X159105183Y-84480696D01*
X159140326Y-84473906D01*
X159218419Y-84460971D01*
X159298226Y-84459742D01*
X159387555Y-84470241D01*
X159412229Y-84474690D01*
X159495291Y-84498108D01*
X159560273Y-84532945D01*
X159606461Y-84578604D01*
X159633145Y-84634494D01*
X159638663Y-84663388D01*
X159635051Y-84722012D01*
X159611729Y-84773879D01*
X159570824Y-84817978D01*
X159514459Y-84853299D01*
X159444760Y-84878829D01*
X159363852Y-84893559D01*
X159273860Y-84896478D01*
X159176910Y-84886575D01*
X159171436Y-84885641D01*
X159132875Y-84878459D01*
X159111494Y-84871521D01*
X159102227Y-84861227D01*
X159100006Y-84843976D01*
X159099956Y-84834841D01*
X159099956Y-84796489D01*
X159168431Y-84796489D01*
X159228900Y-84792347D01*
X159270165Y-84779147D01*
X159294175Y-84755730D01*
X159302877Y-84720936D01*
X159302983Y-84716394D01*
X159297892Y-84686654D01*
X159280433Y-84665419D01*
X159247939Y-84651366D01*
X159197743Y-84643173D01*
X159149123Y-84640161D01*
X159078456Y-84638433D01*
X159027198Y-84641070D01*
X158992239Y-84650800D01*
X158970470Y-84670353D01*
X158958780Y-84702456D01*
X158954060Y-84749838D01*
X158953200Y-84812071D01*
X158954609Y-84881535D01*
X158958848Y-84928786D01*
X158965936Y-84954012D01*
X158967311Y-84955988D01*
X159006228Y-84987508D01*
X159063286Y-85012470D01*
X159134869Y-85030340D01*
X159217358Y-85040586D01*
X159307139Y-85042673D01*
X159400592Y-85036068D01*
X159455556Y-85027956D01*
X159541766Y-85003554D01*
X159621892Y-84963662D01*
X159688977Y-84911887D01*
X159699173Y-84901539D01*
X159732302Y-84858035D01*
X159762194Y-84804118D01*
X159785357Y-84747592D01*
X159798298Y-84696259D01*
X159799858Y-84676544D01*
X159793218Y-84635419D01*
X159775568Y-84584252D01*
X159750297Y-84530394D01*
X159720789Y-84481195D01*
X159694719Y-84448334D01*
X159633765Y-84399452D01*
X159554969Y-84360545D01*
X159461157Y-84332494D01*
X159355150Y-84316179D01*
X159258000Y-84312192D01*
X159176081Y-84316599D01*
X159176081Y-84316599D01*
G37*
X159176081Y-84316599D02*
X159107565Y-84328095D01*
X159054943Y-84345967D01*
X159020708Y-84369499D01*
X159011379Y-84382924D01*
X159001893Y-84414148D01*
X159008277Y-84442395D01*
X159028430Y-84469182D01*
X159059745Y-84481713D01*
X159105183Y-84480696D01*
X159140326Y-84473906D01*
X159218419Y-84460971D01*
X159298226Y-84459742D01*
X159387555Y-84470241D01*
X159412229Y-84474690D01*
X159495291Y-84498108D01*
X159560273Y-84532945D01*
X159606461Y-84578604D01*
X159633145Y-84634494D01*
X159638663Y-84663388D01*
X159635051Y-84722012D01*
X159611729Y-84773879D01*
X159570824Y-84817978D01*
X159514459Y-84853299D01*
X159444760Y-84878829D01*
X159363852Y-84893559D01*
X159273860Y-84896478D01*
X159176910Y-84886575D01*
X159171436Y-84885641D01*
X159132875Y-84878459D01*
X159111494Y-84871521D01*
X159102227Y-84861227D01*
X159100006Y-84843976D01*
X159099956Y-84834841D01*
X159099956Y-84796489D01*
X159168431Y-84796489D01*
X159228900Y-84792347D01*
X159270165Y-84779147D01*
X159294175Y-84755730D01*
X159302877Y-84720936D01*
X159302983Y-84716394D01*
X159297892Y-84686654D01*
X159280433Y-84665419D01*
X159247939Y-84651366D01*
X159197743Y-84643173D01*
X159149123Y-84640161D01*
X159078456Y-84638433D01*
X159027198Y-84641070D01*
X158992239Y-84650800D01*
X158970470Y-84670353D01*
X158958780Y-84702456D01*
X158954060Y-84749838D01*
X158953200Y-84812071D01*
X158954609Y-84881535D01*
X158958848Y-84928786D01*
X158965936Y-84954012D01*
X158967311Y-84955988D01*
X159006228Y-84987508D01*
X159063286Y-85012470D01*
X159134869Y-85030340D01*
X159217358Y-85040586D01*
X159307139Y-85042673D01*
X159400592Y-85036068D01*
X159455556Y-85027956D01*
X159541766Y-85003554D01*
X159621892Y-84963662D01*
X159688977Y-84911887D01*
X159699173Y-84901539D01*
X159732302Y-84858035D01*
X159762194Y-84804118D01*
X159785357Y-84747592D01*
X159798298Y-84696259D01*
X159799858Y-84676544D01*
X159793218Y-84635419D01*
X159775568Y-84584252D01*
X159750297Y-84530394D01*
X159720789Y-84481195D01*
X159694719Y-84448334D01*
X159633765Y-84399452D01*
X159554969Y-84360545D01*
X159461157Y-84332494D01*
X159355150Y-84316179D01*
X159258000Y-84312192D01*
X159176081Y-84316599D01*
G36*
X160149822Y-84333645D02*
X160143242Y-84341218D01*
X160138079Y-84350987D01*
X160134164Y-84365571D01*
X160131324Y-84387585D01*
X160129387Y-84419648D01*
X160128183Y-84464375D01*
X160127539Y-84524385D01*
X160127284Y-84602294D01*
X160127245Y-84677956D01*
X160127314Y-84771802D01*
X160127638Y-84845689D01*
X160128386Y-84902232D01*
X160129732Y-84944049D01*
X160131846Y-84973757D01*
X160134900Y-84993973D01*
X160139066Y-85007314D01*
X160144516Y-85016398D01*
X160149822Y-85022267D01*
X160182826Y-85041947D01*
X160217991Y-85040181D01*
X160249455Y-85018717D01*
X160256684Y-85010337D01*
X160262334Y-85000614D01*
X160266599Y-84986861D01*
X160269673Y-84966389D01*
X160271752Y-84936512D01*
X160273030Y-84894541D01*
X160273701Y-84837789D01*
X160273959Y-84763567D01*
X160274000Y-84679537D01*
X160274000Y-84366485D01*
X160246291Y-84338776D01*
X160212137Y-84315463D01*
X160179006Y-84314623D01*
X160149822Y-84333645D01*
X160149822Y-84333645D01*
G37*
X160149822Y-84333645D02*
X160143242Y-84341218D01*
X160138079Y-84350987D01*
X160134164Y-84365571D01*
X160131324Y-84387585D01*
X160129387Y-84419648D01*
X160128183Y-84464375D01*
X160127539Y-84524385D01*
X160127284Y-84602294D01*
X160127245Y-84677956D01*
X160127314Y-84771802D01*
X160127638Y-84845689D01*
X160128386Y-84902232D01*
X160129732Y-84944049D01*
X160131846Y-84973757D01*
X160134900Y-84993973D01*
X160139066Y-85007314D01*
X160144516Y-85016398D01*
X160149822Y-85022267D01*
X160182826Y-85041947D01*
X160217991Y-85040181D01*
X160249455Y-85018717D01*
X160256684Y-85010337D01*
X160262334Y-85000614D01*
X160266599Y-84986861D01*
X160269673Y-84966389D01*
X160271752Y-84936512D01*
X160273030Y-84894541D01*
X160273701Y-84837789D01*
X160273959Y-84763567D01*
X160274000Y-84679537D01*
X160274000Y-84366485D01*
X160246291Y-84338776D01*
X160212137Y-84315463D01*
X160179006Y-84314623D01*
X160149822Y-84333645D01*
G36*
X160917703Y-84312351D02*
X160842888Y-84317581D01*
X160773306Y-84325750D01*
X160713002Y-84336550D01*
X160666020Y-84349673D01*
X160636406Y-84364813D01*
X160631860Y-84369269D01*
X160616054Y-84403850D01*
X160620847Y-84439351D01*
X160645364Y-84469725D01*
X160646534Y-84470596D01*
X160660954Y-84479954D01*
X160676008Y-84484876D01*
X160697005Y-84485473D01*
X160729257Y-84481861D01*
X160778073Y-84474154D01*
X160782000Y-84473505D01*
X160854739Y-84464569D01*
X160933217Y-84460161D01*
X161011927Y-84460119D01*
X161085361Y-84464279D01*
X161148011Y-84472479D01*
X161194370Y-84484557D01*
X161197416Y-84485771D01*
X161231048Y-84504615D01*
X161242864Y-84523685D01*
X161233614Y-84542439D01*
X161204047Y-84560337D01*
X161154911Y-84576837D01*
X161086957Y-84591396D01*
X161041645Y-84598406D01*
X160947456Y-84611889D01*
X160872544Y-84624214D01*
X160813717Y-84636449D01*
X160767785Y-84649661D01*
X160731555Y-84664917D01*
X160701838Y-84683285D01*
X160675442Y-84705831D01*
X160654230Y-84727971D01*
X160629065Y-84758819D01*
X160616681Y-84785345D01*
X160612808Y-84818026D01*
X160612667Y-84829995D01*
X160615576Y-84869712D01*
X160627202Y-84899259D01*
X160647323Y-84925486D01*
X160688216Y-84965576D01*
X160733817Y-84996149D01*
X160787513Y-85018203D01*
X160852692Y-85032735D01*
X160932744Y-85040741D01*
X161031057Y-85043218D01*
X161047289Y-85043177D01*
X161112849Y-85041818D01*
X161177866Y-85038730D01*
X161235252Y-85034356D01*
X161277922Y-85029140D01*
X161281372Y-85028541D01*
X161323796Y-85018491D01*
X161359780Y-85005796D01*
X161380150Y-84994190D01*
X161399107Y-84963572D01*
X161400427Y-84927918D01*
X161384085Y-84896144D01*
X161380429Y-84892551D01*
X161365315Y-84881876D01*
X161346415Y-84877276D01*
X161317162Y-84878059D01*
X161281651Y-84882127D01*
X161241970Y-84885762D01*
X161186345Y-84888828D01*
X161121406Y-84891053D01*
X161053785Y-84892164D01*
X161036000Y-84892237D01*
X160968128Y-84891964D01*
X160918454Y-84890646D01*
X160882610Y-84887827D01*
X160856224Y-84883050D01*
X160834926Y-84875857D01*
X160822126Y-84869867D01*
X160794000Y-84853233D01*
X160776068Y-84838168D01*
X160773447Y-84833897D01*
X160778976Y-84816263D01*
X160805260Y-84799192D01*
X160850478Y-84783458D01*
X160912808Y-84769838D01*
X160931171Y-84766804D01*
X161027090Y-84751738D01*
X161103641Y-84739146D01*
X161163780Y-84728111D01*
X161210460Y-84717720D01*
X161246637Y-84707056D01*
X161275265Y-84695205D01*
X161299298Y-84681251D01*
X161321692Y-84664281D01*
X161345402Y-84643378D01*
X161353380Y-84636049D01*
X161381353Y-84608699D01*
X161396160Y-84587029D01*
X161401952Y-84562232D01*
X161402889Y-84530983D01*
X161392575Y-84469705D01*
X161361752Y-84417640D01*
X161310595Y-84374958D01*
X161239283Y-84341825D01*
X161188400Y-84326964D01*
X161133100Y-84317366D01*
X161066853Y-84311936D01*
X160993706Y-84310367D01*
X160917703Y-84312351D01*
X160917703Y-84312351D01*
G37*
X160917703Y-84312351D02*
X160842888Y-84317581D01*
X160773306Y-84325750D01*
X160713002Y-84336550D01*
X160666020Y-84349673D01*
X160636406Y-84364813D01*
X160631860Y-84369269D01*
X160616054Y-84403850D01*
X160620847Y-84439351D01*
X160645364Y-84469725D01*
X160646534Y-84470596D01*
X160660954Y-84479954D01*
X160676008Y-84484876D01*
X160697005Y-84485473D01*
X160729257Y-84481861D01*
X160778073Y-84474154D01*
X160782000Y-84473505D01*
X160854739Y-84464569D01*
X160933217Y-84460161D01*
X161011927Y-84460119D01*
X161085361Y-84464279D01*
X161148011Y-84472479D01*
X161194370Y-84484557D01*
X161197416Y-84485771D01*
X161231048Y-84504615D01*
X161242864Y-84523685D01*
X161233614Y-84542439D01*
X161204047Y-84560337D01*
X161154911Y-84576837D01*
X161086957Y-84591396D01*
X161041645Y-84598406D01*
X160947456Y-84611889D01*
X160872544Y-84624214D01*
X160813717Y-84636449D01*
X160767785Y-84649661D01*
X160731555Y-84664917D01*
X160701838Y-84683285D01*
X160675442Y-84705831D01*
X160654230Y-84727971D01*
X160629065Y-84758819D01*
X160616681Y-84785345D01*
X160612808Y-84818026D01*
X160612667Y-84829995D01*
X160615576Y-84869712D01*
X160627202Y-84899259D01*
X160647323Y-84925486D01*
X160688216Y-84965576D01*
X160733817Y-84996149D01*
X160787513Y-85018203D01*
X160852692Y-85032735D01*
X160932744Y-85040741D01*
X161031057Y-85043218D01*
X161047289Y-85043177D01*
X161112849Y-85041818D01*
X161177866Y-85038730D01*
X161235252Y-85034356D01*
X161277922Y-85029140D01*
X161281372Y-85028541D01*
X161323796Y-85018491D01*
X161359780Y-85005796D01*
X161380150Y-84994190D01*
X161399107Y-84963572D01*
X161400427Y-84927918D01*
X161384085Y-84896144D01*
X161380429Y-84892551D01*
X161365315Y-84881876D01*
X161346415Y-84877276D01*
X161317162Y-84878059D01*
X161281651Y-84882127D01*
X161241970Y-84885762D01*
X161186345Y-84888828D01*
X161121406Y-84891053D01*
X161053785Y-84892164D01*
X161036000Y-84892237D01*
X160968128Y-84891964D01*
X160918454Y-84890646D01*
X160882610Y-84887827D01*
X160856224Y-84883050D01*
X160834926Y-84875857D01*
X160822126Y-84869867D01*
X160794000Y-84853233D01*
X160776068Y-84838168D01*
X160773447Y-84833897D01*
X160778976Y-84816263D01*
X160805260Y-84799192D01*
X160850478Y-84783458D01*
X160912808Y-84769838D01*
X160931171Y-84766804D01*
X161027090Y-84751738D01*
X161103641Y-84739146D01*
X161163780Y-84728111D01*
X161210460Y-84717720D01*
X161246637Y-84707056D01*
X161275265Y-84695205D01*
X161299298Y-84681251D01*
X161321692Y-84664281D01*
X161345402Y-84643378D01*
X161353380Y-84636049D01*
X161381353Y-84608699D01*
X161396160Y-84587029D01*
X161401952Y-84562232D01*
X161402889Y-84530983D01*
X161392575Y-84469705D01*
X161361752Y-84417640D01*
X161310595Y-84374958D01*
X161239283Y-84341825D01*
X161188400Y-84326964D01*
X161133100Y-84317366D01*
X161066853Y-84311936D01*
X160993706Y-84310367D01*
X160917703Y-84312351D01*
G36*
X161938794Y-84311146D02*
X161869386Y-84311518D01*
X161816997Y-84312385D01*
X161778847Y-84313946D01*
X161752159Y-84316403D01*
X161734153Y-84319957D01*
X161722049Y-84324810D01*
X161713069Y-84331161D01*
X161709818Y-84334084D01*
X161690043Y-84365142D01*
X161686482Y-84400828D01*
X161699491Y-84432510D01*
X161705506Y-84438913D01*
X161715235Y-84445121D01*
X161730901Y-84449910D01*
X161755408Y-84453514D01*
X161791661Y-84456164D01*
X161842565Y-84458095D01*
X161911026Y-84459539D01*
X161973617Y-84460418D01*
X162221334Y-84463467D01*
X162224719Y-84528378D01*
X162228105Y-84593289D01*
X162059958Y-84593289D01*
X161986959Y-84593919D01*
X161933517Y-84596553D01*
X161896628Y-84602309D01*
X161873288Y-84612304D01*
X161860494Y-84627656D01*
X161855242Y-84649482D01*
X161854445Y-84669738D01*
X161856923Y-84694592D01*
X161866277Y-84712906D01*
X161885383Y-84725637D01*
X161917118Y-84733741D01*
X161964359Y-84738176D01*
X162029983Y-84739899D01*
X162065801Y-84740045D01*
X162226978Y-84740045D01*
X162226978Y-84898089D01*
X161978622Y-84898089D01*
X161897213Y-84898202D01*
X161835342Y-84898712D01*
X161789968Y-84899870D01*
X161758054Y-84901930D01*
X161736559Y-84905146D01*
X161722443Y-84909772D01*
X161712668Y-84916059D01*
X161707689Y-84920667D01*
X161690610Y-84947560D01*
X161685111Y-84971467D01*
X161692963Y-85000667D01*
X161707689Y-85022267D01*
X161715546Y-85029066D01*
X161725688Y-85034346D01*
X161740844Y-85038298D01*
X161763741Y-85041113D01*
X161797109Y-85042982D01*
X161843675Y-85044098D01*
X161906167Y-85044651D01*
X161987314Y-85044833D01*
X162029422Y-85044845D01*
X162119598Y-85044765D01*
X162189924Y-85044398D01*
X162243129Y-85043552D01*
X162281940Y-85042036D01*
X162309087Y-85039659D01*
X162327298Y-85036229D01*
X162339300Y-85031554D01*
X162347822Y-85025444D01*
X162351156Y-85022267D01*
X162357755Y-85014670D01*
X162362927Y-85004870D01*
X162366846Y-84990239D01*
X162369684Y-84968152D01*
X162371615Y-84935982D01*
X162372812Y-84891103D01*
X162373448Y-84830889D01*
X162373697Y-84752713D01*
X162373734Y-84679923D01*
X162373700Y-84586707D01*
X162373465Y-84513431D01*
X162372830Y-84457458D01*
X162371594Y-84416151D01*
X162369556Y-84386872D01*
X162366517Y-84366984D01*
X162362277Y-84353850D01*
X162356635Y-84344832D01*
X162349391Y-84337293D01*
X162347606Y-84335612D01*
X162338945Y-84328172D01*
X162328882Y-84322409D01*
X162314625Y-84318112D01*
X162293383Y-84315064D01*
X162262364Y-84313051D01*
X162218777Y-84311860D01*
X162159831Y-84311275D01*
X162082734Y-84311083D01*
X162028001Y-84311067D01*
X161938794Y-84311146D01*
X161938794Y-84311146D01*
G37*
X161938794Y-84311146D02*
X161869386Y-84311518D01*
X161816997Y-84312385D01*
X161778847Y-84313946D01*
X161752159Y-84316403D01*
X161734153Y-84319957D01*
X161722049Y-84324810D01*
X161713069Y-84331161D01*
X161709818Y-84334084D01*
X161690043Y-84365142D01*
X161686482Y-84400828D01*
X161699491Y-84432510D01*
X161705506Y-84438913D01*
X161715235Y-84445121D01*
X161730901Y-84449910D01*
X161755408Y-84453514D01*
X161791661Y-84456164D01*
X161842565Y-84458095D01*
X161911026Y-84459539D01*
X161973617Y-84460418D01*
X162221334Y-84463467D01*
X162224719Y-84528378D01*
X162228105Y-84593289D01*
X162059958Y-84593289D01*
X161986959Y-84593919D01*
X161933517Y-84596553D01*
X161896628Y-84602309D01*
X161873288Y-84612304D01*
X161860494Y-84627656D01*
X161855242Y-84649482D01*
X161854445Y-84669738D01*
X161856923Y-84694592D01*
X161866277Y-84712906D01*
X161885383Y-84725637D01*
X161917118Y-84733741D01*
X161964359Y-84738176D01*
X162029983Y-84739899D01*
X162065801Y-84740045D01*
X162226978Y-84740045D01*
X162226978Y-84898089D01*
X161978622Y-84898089D01*
X161897213Y-84898202D01*
X161835342Y-84898712D01*
X161789968Y-84899870D01*
X161758054Y-84901930D01*
X161736559Y-84905146D01*
X161722443Y-84909772D01*
X161712668Y-84916059D01*
X161707689Y-84920667D01*
X161690610Y-84947560D01*
X161685111Y-84971467D01*
X161692963Y-85000667D01*
X161707689Y-85022267D01*
X161715546Y-85029066D01*
X161725688Y-85034346D01*
X161740844Y-85038298D01*
X161763741Y-85041113D01*
X161797109Y-85042982D01*
X161843675Y-85044098D01*
X161906167Y-85044651D01*
X161987314Y-85044833D01*
X162029422Y-85044845D01*
X162119598Y-85044765D01*
X162189924Y-85044398D01*
X162243129Y-85043552D01*
X162281940Y-85042036D01*
X162309087Y-85039659D01*
X162327298Y-85036229D01*
X162339300Y-85031554D01*
X162347822Y-85025444D01*
X162351156Y-85022267D01*
X162357755Y-85014670D01*
X162362927Y-85004870D01*
X162366846Y-84990239D01*
X162369684Y-84968152D01*
X162371615Y-84935982D01*
X162372812Y-84891103D01*
X162373448Y-84830889D01*
X162373697Y-84752713D01*
X162373734Y-84679923D01*
X162373700Y-84586707D01*
X162373465Y-84513431D01*
X162372830Y-84457458D01*
X162371594Y-84416151D01*
X162369556Y-84386872D01*
X162366517Y-84366984D01*
X162362277Y-84353850D01*
X162356635Y-84344832D01*
X162349391Y-84337293D01*
X162347606Y-84335612D01*
X162338945Y-84328172D01*
X162328882Y-84322409D01*
X162314625Y-84318112D01*
X162293383Y-84315064D01*
X162262364Y-84313051D01*
X162218777Y-84311860D01*
X162159831Y-84311275D01*
X162082734Y-84311083D01*
X162028001Y-84311067D01*
X161938794Y-84311146D01*
G36*
X163347371Y-84311066D02*
X163307889Y-84311467D01*
X163192200Y-84314259D01*
X163095311Y-84322550D01*
X163013919Y-84337232D01*
X162944723Y-84359193D01*
X162884420Y-84389322D01*
X162829708Y-84428510D01*
X162810167Y-84445532D01*
X162777750Y-84485363D01*
X162748520Y-84539413D01*
X162725991Y-84599323D01*
X162713679Y-84656739D01*
X162712400Y-84677956D01*
X162720417Y-84736769D01*
X162741899Y-84801013D01*
X162772999Y-84861821D01*
X162809866Y-84910330D01*
X162815854Y-84916182D01*
X162866579Y-84957321D01*
X162922125Y-84989435D01*
X162985696Y-85013365D01*
X163060494Y-85029953D01*
X163149722Y-85040041D01*
X163256582Y-85044469D01*
X163305528Y-85044845D01*
X163367762Y-85044545D01*
X163411528Y-85043292D01*
X163440931Y-85040554D01*
X163460079Y-85035801D01*
X163473077Y-85028501D01*
X163480045Y-85022267D01*
X163486626Y-85014694D01*
X163491788Y-85004924D01*
X163495703Y-84990340D01*
X163498543Y-84968326D01*
X163500480Y-84936264D01*
X163501684Y-84891536D01*
X163502328Y-84831526D01*
X163502583Y-84753617D01*
X163502622Y-84677956D01*
X163502870Y-84577041D01*
X163502817Y-84496427D01*
X163501857Y-84457822D01*
X163355867Y-84457822D01*
X163355867Y-84898089D01*
X163262734Y-84898004D01*
X163206693Y-84896396D01*
X163147999Y-84892256D01*
X163099028Y-84886464D01*
X163097538Y-84886226D01*
X163018392Y-84867090D01*
X162957002Y-84837287D01*
X162910305Y-84794878D01*
X162880635Y-84748961D01*
X162862353Y-84698026D01*
X162863771Y-84650200D01*
X162884988Y-84598933D01*
X162926489Y-84545899D01*
X162983998Y-84506600D01*
X163058750Y-84480331D01*
X163108708Y-84471035D01*
X163165416Y-84464507D01*
X163225519Y-84459782D01*
X163276639Y-84457817D01*
X163279667Y-84457808D01*
X163355867Y-84457822D01*
X163501857Y-84457822D01*
X163501260Y-84433851D01*
X163496998Y-84387055D01*
X163488830Y-84353778D01*
X163475556Y-84331759D01*
X163455974Y-84318739D01*
X163428883Y-84312457D01*
X163393082Y-84310653D01*
X163347371Y-84311066D01*
X163347371Y-84311066D01*
G37*
X163347371Y-84311066D02*
X163307889Y-84311467D01*
X163192200Y-84314259D01*
X163095311Y-84322550D01*
X163013919Y-84337232D01*
X162944723Y-84359193D01*
X162884420Y-84389322D01*
X162829708Y-84428510D01*
X162810167Y-84445532D01*
X162777750Y-84485363D01*
X162748520Y-84539413D01*
X162725991Y-84599323D01*
X162713679Y-84656739D01*
X162712400Y-84677956D01*
X162720417Y-84736769D01*
X162741899Y-84801013D01*
X162772999Y-84861821D01*
X162809866Y-84910330D01*
X162815854Y-84916182D01*
X162866579Y-84957321D01*
X162922125Y-84989435D01*
X162985696Y-85013365D01*
X163060494Y-85029953D01*
X163149722Y-85040041D01*
X163256582Y-85044469D01*
X163305528Y-85044845D01*
X163367762Y-85044545D01*
X163411528Y-85043292D01*
X163440931Y-85040554D01*
X163460079Y-85035801D01*
X163473077Y-85028501D01*
X163480045Y-85022267D01*
X163486626Y-85014694D01*
X163491788Y-85004924D01*
X163495703Y-84990340D01*
X163498543Y-84968326D01*
X163500480Y-84936264D01*
X163501684Y-84891536D01*
X163502328Y-84831526D01*
X163502583Y-84753617D01*
X163502622Y-84677956D01*
X163502870Y-84577041D01*
X163502817Y-84496427D01*
X163501857Y-84457822D01*
X163355867Y-84457822D01*
X163355867Y-84898089D01*
X163262734Y-84898004D01*
X163206693Y-84896396D01*
X163147999Y-84892256D01*
X163099028Y-84886464D01*
X163097538Y-84886226D01*
X163018392Y-84867090D01*
X162957002Y-84837287D01*
X162910305Y-84794878D01*
X162880635Y-84748961D01*
X162862353Y-84698026D01*
X162863771Y-84650200D01*
X162884988Y-84598933D01*
X162926489Y-84545899D01*
X162983998Y-84506600D01*
X163058750Y-84480331D01*
X163108708Y-84471035D01*
X163165416Y-84464507D01*
X163225519Y-84459782D01*
X163276639Y-84457817D01*
X163279667Y-84457808D01*
X163355867Y-84457822D01*
X163501857Y-84457822D01*
X163501260Y-84433851D01*
X163496998Y-84387055D01*
X163488830Y-84353778D01*
X163475556Y-84331759D01*
X163455974Y-84318739D01*
X163428883Y-84312457D01*
X163393082Y-84310653D01*
X163347371Y-84311066D01*
G36*
X135786090Y-95286348D02*
X135707546Y-95286778D01*
X135650702Y-95287942D01*
X135611895Y-95290207D01*
X135587462Y-95293940D01*
X135573738Y-95299506D01*
X135567060Y-95307273D01*
X135563764Y-95317605D01*
X135563444Y-95318943D01*
X135558438Y-95343079D01*
X135549171Y-95390701D01*
X135536608Y-95456741D01*
X135521713Y-95536128D01*
X135505449Y-95623796D01*
X135504881Y-95626875D01*
X135488590Y-95712789D01*
X135473348Y-95788696D01*
X135460139Y-95850045D01*
X135449946Y-95892282D01*
X135443752Y-95910855D01*
X135443457Y-95911184D01*
X135425212Y-95920253D01*
X135387595Y-95935367D01*
X135338729Y-95953262D01*
X135338457Y-95953358D01*
X135276907Y-95976493D01*
X135204343Y-96005965D01*
X135135943Y-96035597D01*
X135132706Y-96037062D01*
X135021298Y-96087626D01*
X134774601Y-95919160D01*
X134698923Y-95867803D01*
X134630369Y-95821889D01*
X134572912Y-95784030D01*
X134530524Y-95756837D01*
X134507175Y-95742921D01*
X134504958Y-95741889D01*
X134487990Y-95746484D01*
X134456299Y-95768655D01*
X134408648Y-95809447D01*
X134343802Y-95869905D01*
X134277603Y-95934227D01*
X134213786Y-95997612D01*
X134156671Y-96055451D01*
X134109695Y-96104175D01*
X134076297Y-96140210D01*
X134059915Y-96159984D01*
X134059306Y-96161002D01*
X134057495Y-96174572D01*
X134064317Y-96196733D01*
X134081460Y-96230478D01*
X134110607Y-96278800D01*
X134153445Y-96344692D01*
X134210552Y-96429517D01*
X134261234Y-96504177D01*
X134306539Y-96571140D01*
X134343850Y-96626516D01*
X134370548Y-96666420D01*
X134384015Y-96686962D01*
X134384863Y-96688356D01*
X134383219Y-96708038D01*
X134370755Y-96746293D01*
X134349952Y-96795889D01*
X134342538Y-96811728D01*
X134310186Y-96882290D01*
X134275672Y-96962353D01*
X134247635Y-97031629D01*
X134227432Y-97083045D01*
X134211385Y-97122119D01*
X134202112Y-97142541D01*
X134200959Y-97144114D01*
X134183904Y-97146721D01*
X134143702Y-97153863D01*
X134085698Y-97164523D01*
X134015237Y-97177685D01*
X133937665Y-97192333D01*
X133858328Y-97207449D01*
X133782569Y-97222018D01*
X133715736Y-97235022D01*
X133663172Y-97245445D01*
X133630224Y-97252270D01*
X133622143Y-97254199D01*
X133613795Y-97258962D01*
X133607494Y-97269718D01*
X133602955Y-97290098D01*
X133599896Y-97323734D01*
X133598033Y-97374255D01*
X133597082Y-97445292D01*
X133596760Y-97540476D01*
X133596743Y-97579492D01*
X133596743Y-97896799D01*
X133672943Y-97911839D01*
X133715337Y-97919995D01*
X133778600Y-97931899D01*
X133855038Y-97946116D01*
X133936957Y-97961210D01*
X133959600Y-97965355D01*
X134035194Y-97980053D01*
X134101047Y-97994505D01*
X134151634Y-98007375D01*
X134181426Y-98017322D01*
X134186388Y-98020287D01*
X134198574Y-98041283D01*
X134216047Y-98081967D01*
X134235423Y-98134322D01*
X134239266Y-98145600D01*
X134264661Y-98215523D01*
X134296183Y-98294418D01*
X134327031Y-98365266D01*
X134327183Y-98365595D01*
X134378553Y-98476733D01*
X134209601Y-98725253D01*
X134040648Y-98973772D01*
X134257571Y-99191058D01*
X134323181Y-99255726D01*
X134383021Y-99312733D01*
X134433733Y-99359033D01*
X134471954Y-99391584D01*
X134494325Y-99407343D01*
X134497534Y-99408343D01*
X134516374Y-99400469D01*
X134554820Y-99378578D01*
X134608670Y-99345267D01*
X134673724Y-99303131D01*
X134744060Y-99255943D01*
X134815445Y-99207810D01*
X134879092Y-99165928D01*
X134930959Y-99132871D01*
X134967005Y-99111218D01*
X134983133Y-99103543D01*
X135002811Y-99110037D01*
X135040125Y-99127150D01*
X135087379Y-99151326D01*
X135092388Y-99154013D01*
X135156023Y-99185927D01*
X135199659Y-99201579D01*
X135226798Y-99201745D01*
X135240943Y-99187204D01*
X135241025Y-99187000D01*
X135248095Y-99169779D01*
X135264958Y-99128899D01*
X135290305Y-99067525D01*
X135322829Y-98988819D01*
X135361222Y-98895947D01*
X135404178Y-98792072D01*
X135445778Y-98691502D01*
X135491496Y-98580516D01*
X135533474Y-98477703D01*
X135570452Y-98386215D01*
X135601173Y-98309201D01*
X135624378Y-98249815D01*
X135638810Y-98211209D01*
X135643257Y-98196800D01*
X135632104Y-98180272D01*
X135602931Y-98153930D01*
X135564029Y-98124887D01*
X135453243Y-98033039D01*
X135366649Y-97927759D01*
X135305284Y-97811266D01*
X135270185Y-97685776D01*
X135262392Y-97553507D01*
X135268057Y-97492457D01*
X135298922Y-97365795D01*
X135352080Y-97253941D01*
X135424233Y-97158001D01*
X135512083Y-97079076D01*
X135612335Y-97018270D01*
X135721690Y-96976687D01*
X135836853Y-96955428D01*
X135954525Y-96955599D01*
X136071410Y-96978301D01*
X136184211Y-97024638D01*
X136289631Y-97095713D01*
X136333632Y-97135911D01*
X136418021Y-97239129D01*
X136476778Y-97351925D01*
X136510296Y-97471010D01*
X136518965Y-97593095D01*
X136503177Y-97714893D01*
X136463322Y-97833116D01*
X136399793Y-97944475D01*
X136312979Y-98045684D01*
X136215971Y-98124887D01*
X136175563Y-98155162D01*
X136147018Y-98181219D01*
X136136743Y-98196825D01*
X136142123Y-98213843D01*
X136157425Y-98254500D01*
X136181388Y-98315642D01*
X136212756Y-98394119D01*
X136250268Y-98486780D01*
X136292667Y-98590472D01*
X136334337Y-98691526D01*
X136380310Y-98802607D01*
X136422893Y-98905541D01*
X136460779Y-98997165D01*
X136492660Y-99074316D01*
X136517229Y-99133831D01*
X136533180Y-99172544D01*
X136539090Y-99187000D01*
X136553052Y-99201685D01*
X136580060Y-99201642D01*
X136623587Y-99186099D01*
X136687110Y-99154284D01*
X136687612Y-99154013D01*
X136735440Y-99129323D01*
X136774103Y-99111338D01*
X136795905Y-99103614D01*
X136796867Y-99103543D01*
X136813279Y-99111378D01*
X136849513Y-99133165D01*
X136901526Y-99166328D01*
X136965275Y-99208291D01*
X137035940Y-99255943D01*
X137107884Y-99304191D01*
X137172726Y-99346151D01*
X137226265Y-99379227D01*
X137264303Y-99400821D01*
X137282467Y-99408343D01*
X137299192Y-99398457D01*
X137332820Y-99370826D01*
X137379990Y-99328495D01*
X137437342Y-99274505D01*
X137501516Y-99211899D01*
X137522503Y-99190983D01*
X137739501Y-98973623D01*
X137574332Y-98731220D01*
X137524136Y-98656781D01*
X137480081Y-98589972D01*
X137444638Y-98534665D01*
X137420281Y-98494729D01*
X137409478Y-98474036D01*
X137409162Y-98472563D01*
X137414857Y-98453058D01*
X137430174Y-98413822D01*
X137452463Y-98361430D01*
X137468107Y-98326355D01*
X137497359Y-98259201D01*
X137524906Y-98191358D01*
X137546263Y-98134034D01*
X137552065Y-98116572D01*
X137568548Y-98069938D01*
X137584660Y-98033905D01*
X137593510Y-98020287D01*
X137613040Y-98011952D01*
X137655666Y-98000137D01*
X137715855Y-97986181D01*
X137788078Y-97971422D01*
X137820400Y-97965355D01*
X137902478Y-97950273D01*
X137981205Y-97935669D01*
X138048891Y-97922980D01*
X138097840Y-97913642D01*
X138107057Y-97911839D01*
X138183257Y-97896799D01*
X138183257Y-97579492D01*
X138183086Y-97475154D01*
X138182384Y-97396213D01*
X138180866Y-97339038D01*
X138178251Y-97299999D01*
X138174254Y-97275465D01*
X138168591Y-97261805D01*
X138160980Y-97255389D01*
X138157857Y-97254199D01*
X138139022Y-97249980D01*
X138097412Y-97241562D01*
X138038370Y-97229961D01*
X137967243Y-97216195D01*
X137889375Y-97201280D01*
X137810113Y-97186232D01*
X137734802Y-97172069D01*
X137668787Y-97159806D01*
X137617413Y-97150461D01*
X137586025Y-97145050D01*
X137579041Y-97144114D01*
X137572715Y-97131596D01*
X137558710Y-97098246D01*
X137539645Y-97050377D01*
X137532366Y-97031629D01*
X137503004Y-96959195D01*
X137468429Y-96879170D01*
X137437463Y-96811728D01*
X137414677Y-96760159D01*
X137399518Y-96717785D01*
X137394458Y-96691834D01*
X137395264Y-96688356D01*
X137405959Y-96671936D01*
X137430380Y-96635417D01*
X137465905Y-96582687D01*
X137509913Y-96517635D01*
X137559783Y-96444151D01*
X137569644Y-96429645D01*
X137627508Y-96343704D01*
X137670044Y-96278261D01*
X137698946Y-96230304D01*
X137715910Y-96196820D01*
X137722633Y-96174795D01*
X137720810Y-96161217D01*
X137720764Y-96161131D01*
X137706414Y-96143297D01*
X137674677Y-96108817D01*
X137628990Y-96061268D01*
X137572796Y-96004222D01*
X137509532Y-95941255D01*
X137502398Y-95934227D01*
X137422670Y-95857020D01*
X137361143Y-95800330D01*
X137316579Y-95763110D01*
X137287743Y-95744315D01*
X137275042Y-95741889D01*
X137256506Y-95752471D01*
X137218039Y-95776916D01*
X137163614Y-95812612D01*
X137097202Y-95856947D01*
X137022775Y-95907311D01*
X137005399Y-95919160D01*
X136758703Y-96087626D01*
X136647294Y-96037062D01*
X136579543Y-96007595D01*
X136506817Y-95977959D01*
X136444297Y-95954330D01*
X136441543Y-95953358D01*
X136392640Y-95935457D01*
X136354943Y-95920320D01*
X136336575Y-95911210D01*
X136336544Y-95911184D01*
X136330715Y-95894717D01*
X136320808Y-95854219D01*
X136307805Y-95794242D01*
X136292691Y-95719340D01*
X136276448Y-95634064D01*
X136275119Y-95626875D01*
X136258825Y-95539014D01*
X136243867Y-95459260D01*
X136231209Y-95392681D01*
X136221814Y-95344347D01*
X136216646Y-95319325D01*
X136216556Y-95318943D01*
X136213411Y-95308299D01*
X136207296Y-95300262D01*
X136194547Y-95294467D01*
X136171500Y-95290547D01*
X136134491Y-95288135D01*
X136079856Y-95286865D01*
X136003933Y-95286371D01*
X135903056Y-95286286D01*
X135890000Y-95286286D01*
X135786090Y-95286348D01*
X135786090Y-95286348D01*
G37*
X135786090Y-95286348D02*
X135707546Y-95286778D01*
X135650702Y-95287942D01*
X135611895Y-95290207D01*
X135587462Y-95293940D01*
X135573738Y-95299506D01*
X135567060Y-95307273D01*
X135563764Y-95317605D01*
X135563444Y-95318943D01*
X135558438Y-95343079D01*
X135549171Y-95390701D01*
X135536608Y-95456741D01*
X135521713Y-95536128D01*
X135505449Y-95623796D01*
X135504881Y-95626875D01*
X135488590Y-95712789D01*
X135473348Y-95788696D01*
X135460139Y-95850045D01*
X135449946Y-95892282D01*
X135443752Y-95910855D01*
X135443457Y-95911184D01*
X135425212Y-95920253D01*
X135387595Y-95935367D01*
X135338729Y-95953262D01*
X135338457Y-95953358D01*
X135276907Y-95976493D01*
X135204343Y-96005965D01*
X135135943Y-96035597D01*
X135132706Y-96037062D01*
X135021298Y-96087626D01*
X134774601Y-95919160D01*
X134698923Y-95867803D01*
X134630369Y-95821889D01*
X134572912Y-95784030D01*
X134530524Y-95756837D01*
X134507175Y-95742921D01*
X134504958Y-95741889D01*
X134487990Y-95746484D01*
X134456299Y-95768655D01*
X134408648Y-95809447D01*
X134343802Y-95869905D01*
X134277603Y-95934227D01*
X134213786Y-95997612D01*
X134156671Y-96055451D01*
X134109695Y-96104175D01*
X134076297Y-96140210D01*
X134059915Y-96159984D01*
X134059306Y-96161002D01*
X134057495Y-96174572D01*
X134064317Y-96196733D01*
X134081460Y-96230478D01*
X134110607Y-96278800D01*
X134153445Y-96344692D01*
X134210552Y-96429517D01*
X134261234Y-96504177D01*
X134306539Y-96571140D01*
X134343850Y-96626516D01*
X134370548Y-96666420D01*
X134384015Y-96686962D01*
X134384863Y-96688356D01*
X134383219Y-96708038D01*
X134370755Y-96746293D01*
X134349952Y-96795889D01*
X134342538Y-96811728D01*
X134310186Y-96882290D01*
X134275672Y-96962353D01*
X134247635Y-97031629D01*
X134227432Y-97083045D01*
X134211385Y-97122119D01*
X134202112Y-97142541D01*
X134200959Y-97144114D01*
X134183904Y-97146721D01*
X134143702Y-97153863D01*
X134085698Y-97164523D01*
X134015237Y-97177685D01*
X133937665Y-97192333D01*
X133858328Y-97207449D01*
X133782569Y-97222018D01*
X133715736Y-97235022D01*
X133663172Y-97245445D01*
X133630224Y-97252270D01*
X133622143Y-97254199D01*
X133613795Y-97258962D01*
X133607494Y-97269718D01*
X133602955Y-97290098D01*
X133599896Y-97323734D01*
X133598033Y-97374255D01*
X133597082Y-97445292D01*
X133596760Y-97540476D01*
X133596743Y-97579492D01*
X133596743Y-97896799D01*
X133672943Y-97911839D01*
X133715337Y-97919995D01*
X133778600Y-97931899D01*
X133855038Y-97946116D01*
X133936957Y-97961210D01*
X133959600Y-97965355D01*
X134035194Y-97980053D01*
X134101047Y-97994505D01*
X134151634Y-98007375D01*
X134181426Y-98017322D01*
X134186388Y-98020287D01*
X134198574Y-98041283D01*
X134216047Y-98081967D01*
X134235423Y-98134322D01*
X134239266Y-98145600D01*
X134264661Y-98215523D01*
X134296183Y-98294418D01*
X134327031Y-98365266D01*
X134327183Y-98365595D01*
X134378553Y-98476733D01*
X134209601Y-98725253D01*
X134040648Y-98973772D01*
X134257571Y-99191058D01*
X134323181Y-99255726D01*
X134383021Y-99312733D01*
X134433733Y-99359033D01*
X134471954Y-99391584D01*
X134494325Y-99407343D01*
X134497534Y-99408343D01*
X134516374Y-99400469D01*
X134554820Y-99378578D01*
X134608670Y-99345267D01*
X134673724Y-99303131D01*
X134744060Y-99255943D01*
X134815445Y-99207810D01*
X134879092Y-99165928D01*
X134930959Y-99132871D01*
X134967005Y-99111218D01*
X134983133Y-99103543D01*
X135002811Y-99110037D01*
X135040125Y-99127150D01*
X135087379Y-99151326D01*
X135092388Y-99154013D01*
X135156023Y-99185927D01*
X135199659Y-99201579D01*
X135226798Y-99201745D01*
X135240943Y-99187204D01*
X135241025Y-99187000D01*
X135248095Y-99169779D01*
X135264958Y-99128899D01*
X135290305Y-99067525D01*
X135322829Y-98988819D01*
X135361222Y-98895947D01*
X135404178Y-98792072D01*
X135445778Y-98691502D01*
X135491496Y-98580516D01*
X135533474Y-98477703D01*
X135570452Y-98386215D01*
X135601173Y-98309201D01*
X135624378Y-98249815D01*
X135638810Y-98211209D01*
X135643257Y-98196800D01*
X135632104Y-98180272D01*
X135602931Y-98153930D01*
X135564029Y-98124887D01*
X135453243Y-98033039D01*
X135366649Y-97927759D01*
X135305284Y-97811266D01*
X135270185Y-97685776D01*
X135262392Y-97553507D01*
X135268057Y-97492457D01*
X135298922Y-97365795D01*
X135352080Y-97253941D01*
X135424233Y-97158001D01*
X135512083Y-97079076D01*
X135612335Y-97018270D01*
X135721690Y-96976687D01*
X135836853Y-96955428D01*
X135954525Y-96955599D01*
X136071410Y-96978301D01*
X136184211Y-97024638D01*
X136289631Y-97095713D01*
X136333632Y-97135911D01*
X136418021Y-97239129D01*
X136476778Y-97351925D01*
X136510296Y-97471010D01*
X136518965Y-97593095D01*
X136503177Y-97714893D01*
X136463322Y-97833116D01*
X136399793Y-97944475D01*
X136312979Y-98045684D01*
X136215971Y-98124887D01*
X136175563Y-98155162D01*
X136147018Y-98181219D01*
X136136743Y-98196825D01*
X136142123Y-98213843D01*
X136157425Y-98254500D01*
X136181388Y-98315642D01*
X136212756Y-98394119D01*
X136250268Y-98486780D01*
X136292667Y-98590472D01*
X136334337Y-98691526D01*
X136380310Y-98802607D01*
X136422893Y-98905541D01*
X136460779Y-98997165D01*
X136492660Y-99074316D01*
X136517229Y-99133831D01*
X136533180Y-99172544D01*
X136539090Y-99187000D01*
X136553052Y-99201685D01*
X136580060Y-99201642D01*
X136623587Y-99186099D01*
X136687110Y-99154284D01*
X136687612Y-99154013D01*
X136735440Y-99129323D01*
X136774103Y-99111338D01*
X136795905Y-99103614D01*
X136796867Y-99103543D01*
X136813279Y-99111378D01*
X136849513Y-99133165D01*
X136901526Y-99166328D01*
X136965275Y-99208291D01*
X137035940Y-99255943D01*
X137107884Y-99304191D01*
X137172726Y-99346151D01*
X137226265Y-99379227D01*
X137264303Y-99400821D01*
X137282467Y-99408343D01*
X137299192Y-99398457D01*
X137332820Y-99370826D01*
X137379990Y-99328495D01*
X137437342Y-99274505D01*
X137501516Y-99211899D01*
X137522503Y-99190983D01*
X137739501Y-98973623D01*
X137574332Y-98731220D01*
X137524136Y-98656781D01*
X137480081Y-98589972D01*
X137444638Y-98534665D01*
X137420281Y-98494729D01*
X137409478Y-98474036D01*
X137409162Y-98472563D01*
X137414857Y-98453058D01*
X137430174Y-98413822D01*
X137452463Y-98361430D01*
X137468107Y-98326355D01*
X137497359Y-98259201D01*
X137524906Y-98191358D01*
X137546263Y-98134034D01*
X137552065Y-98116572D01*
X137568548Y-98069938D01*
X137584660Y-98033905D01*
X137593510Y-98020287D01*
X137613040Y-98011952D01*
X137655666Y-98000137D01*
X137715855Y-97986181D01*
X137788078Y-97971422D01*
X137820400Y-97965355D01*
X137902478Y-97950273D01*
X137981205Y-97935669D01*
X138048891Y-97922980D01*
X138097840Y-97913642D01*
X138107057Y-97911839D01*
X138183257Y-97896799D01*
X138183257Y-97579492D01*
X138183086Y-97475154D01*
X138182384Y-97396213D01*
X138180866Y-97339038D01*
X138178251Y-97299999D01*
X138174254Y-97275465D01*
X138168591Y-97261805D01*
X138160980Y-97255389D01*
X138157857Y-97254199D01*
X138139022Y-97249980D01*
X138097412Y-97241562D01*
X138038370Y-97229961D01*
X137967243Y-97216195D01*
X137889375Y-97201280D01*
X137810113Y-97186232D01*
X137734802Y-97172069D01*
X137668787Y-97159806D01*
X137617413Y-97150461D01*
X137586025Y-97145050D01*
X137579041Y-97144114D01*
X137572715Y-97131596D01*
X137558710Y-97098246D01*
X137539645Y-97050377D01*
X137532366Y-97031629D01*
X137503004Y-96959195D01*
X137468429Y-96879170D01*
X137437463Y-96811728D01*
X137414677Y-96760159D01*
X137399518Y-96717785D01*
X137394458Y-96691834D01*
X137395264Y-96688356D01*
X137405959Y-96671936D01*
X137430380Y-96635417D01*
X137465905Y-96582687D01*
X137509913Y-96517635D01*
X137559783Y-96444151D01*
X137569644Y-96429645D01*
X137627508Y-96343704D01*
X137670044Y-96278261D01*
X137698946Y-96230304D01*
X137715910Y-96196820D01*
X137722633Y-96174795D01*
X137720810Y-96161217D01*
X137720764Y-96161131D01*
X137706414Y-96143297D01*
X137674677Y-96108817D01*
X137628990Y-96061268D01*
X137572796Y-96004222D01*
X137509532Y-95941255D01*
X137502398Y-95934227D01*
X137422670Y-95857020D01*
X137361143Y-95800330D01*
X137316579Y-95763110D01*
X137287743Y-95744315D01*
X137275042Y-95741889D01*
X137256506Y-95752471D01*
X137218039Y-95776916D01*
X137163614Y-95812612D01*
X137097202Y-95856947D01*
X137022775Y-95907311D01*
X137005399Y-95919160D01*
X136758703Y-96087626D01*
X136647294Y-96037062D01*
X136579543Y-96007595D01*
X136506817Y-95977959D01*
X136444297Y-95954330D01*
X136441543Y-95953358D01*
X136392640Y-95935457D01*
X136354943Y-95920320D01*
X136336575Y-95911210D01*
X136336544Y-95911184D01*
X136330715Y-95894717D01*
X136320808Y-95854219D01*
X136307805Y-95794242D01*
X136292691Y-95719340D01*
X136276448Y-95634064D01*
X136275119Y-95626875D01*
X136258825Y-95539014D01*
X136243867Y-95459260D01*
X136231209Y-95392681D01*
X136221814Y-95344347D01*
X136216646Y-95319325D01*
X136216556Y-95318943D01*
X136213411Y-95308299D01*
X136207296Y-95300262D01*
X136194547Y-95294467D01*
X136171500Y-95290547D01*
X136134491Y-95288135D01*
X136079856Y-95286865D01*
X136003933Y-95286371D01*
X135903056Y-95286286D01*
X135890000Y-95286286D01*
X135786090Y-95286348D01*
G36*
X132736405Y-100010966D02*
X132678979Y-100048497D01*
X132651281Y-100082096D01*
X132629338Y-100143064D01*
X132627595Y-100191308D01*
X132631543Y-100255816D01*
X132780314Y-100320934D01*
X132852651Y-100354202D01*
X132899916Y-100380964D01*
X132924493Y-100404144D01*
X132928763Y-100426667D01*
X132915111Y-100451455D01*
X132900057Y-100467886D01*
X132856254Y-100494235D01*
X132808611Y-100496081D01*
X132764855Y-100475546D01*
X132732711Y-100434752D01*
X132726962Y-100420347D01*
X132699424Y-100375356D01*
X132667742Y-100356182D01*
X132624286Y-100339779D01*
X132624286Y-100401966D01*
X132628128Y-100444283D01*
X132643177Y-100479969D01*
X132674720Y-100520943D01*
X132679408Y-100526267D01*
X132714494Y-100562720D01*
X132744653Y-100582283D01*
X132782385Y-100591283D01*
X132813665Y-100594230D01*
X132869615Y-100594965D01*
X132909445Y-100585660D01*
X132934292Y-100571846D01*
X132973344Y-100541467D01*
X133000375Y-100508613D01*
X133017483Y-100467294D01*
X133026762Y-100411521D01*
X133030307Y-100335305D01*
X133030590Y-100296622D01*
X133029628Y-100250247D01*
X132941993Y-100250247D01*
X132940977Y-100275126D01*
X132938444Y-100279200D01*
X132921726Y-100273665D01*
X132885751Y-100259017D01*
X132837669Y-100238190D01*
X132827614Y-100233714D01*
X132766848Y-100202814D01*
X132733368Y-100175657D01*
X132726010Y-100150220D01*
X132743609Y-100124481D01*
X132758144Y-100113109D01*
X132810590Y-100090364D01*
X132859678Y-100094122D01*
X132900773Y-100121884D01*
X132929242Y-100171152D01*
X132938369Y-100210257D01*
X132941993Y-100250247D01*
X133029628Y-100250247D01*
X133028715Y-100206249D01*
X133021804Y-100139384D01*
X133008116Y-100090695D01*
X132985904Y-100054849D01*
X132953426Y-100026513D01*
X132939267Y-100017355D01*
X132874947Y-99993507D01*
X132804527Y-99992006D01*
X132736405Y-100010966D01*
X132736405Y-100010966D01*
G37*
X132736405Y-100010966D02*
X132678979Y-100048497D01*
X132651281Y-100082096D01*
X132629338Y-100143064D01*
X132627595Y-100191308D01*
X132631543Y-100255816D01*
X132780314Y-100320934D01*
X132852651Y-100354202D01*
X132899916Y-100380964D01*
X132924493Y-100404144D01*
X132928763Y-100426667D01*
X132915111Y-100451455D01*
X132900057Y-100467886D01*
X132856254Y-100494235D01*
X132808611Y-100496081D01*
X132764855Y-100475546D01*
X132732711Y-100434752D01*
X132726962Y-100420347D01*
X132699424Y-100375356D01*
X132667742Y-100356182D01*
X132624286Y-100339779D01*
X132624286Y-100401966D01*
X132628128Y-100444283D01*
X132643177Y-100479969D01*
X132674720Y-100520943D01*
X132679408Y-100526267D01*
X132714494Y-100562720D01*
X132744653Y-100582283D01*
X132782385Y-100591283D01*
X132813665Y-100594230D01*
X132869615Y-100594965D01*
X132909445Y-100585660D01*
X132934292Y-100571846D01*
X132973344Y-100541467D01*
X133000375Y-100508613D01*
X133017483Y-100467294D01*
X133026762Y-100411521D01*
X133030307Y-100335305D01*
X133030590Y-100296622D01*
X133029628Y-100250247D01*
X132941993Y-100250247D01*
X132940977Y-100275126D01*
X132938444Y-100279200D01*
X132921726Y-100273665D01*
X132885751Y-100259017D01*
X132837669Y-100238190D01*
X132827614Y-100233714D01*
X132766848Y-100202814D01*
X132733368Y-100175657D01*
X132726010Y-100150220D01*
X132743609Y-100124481D01*
X132758144Y-100113109D01*
X132810590Y-100090364D01*
X132859678Y-100094122D01*
X132900773Y-100121884D01*
X132929242Y-100171152D01*
X132938369Y-100210257D01*
X132941993Y-100250247D01*
X133029628Y-100250247D01*
X133028715Y-100206249D01*
X133021804Y-100139384D01*
X133008116Y-100090695D01*
X132985904Y-100054849D01*
X132953426Y-100026513D01*
X132939267Y-100017355D01*
X132874947Y-99993507D01*
X132804527Y-99992006D01*
X132736405Y-100010966D01*
G36*
X133237400Y-100002752D02*
X133220052Y-100010334D01*
X133178644Y-100043128D01*
X133143235Y-100090547D01*
X133121336Y-100141151D01*
X133117771Y-100166098D01*
X133129721Y-100200927D01*
X133155933Y-100219357D01*
X133184036Y-100230516D01*
X133196905Y-100232572D01*
X133203171Y-100217649D01*
X133215544Y-100185175D01*
X133220972Y-100170502D01*
X133251410Y-100119744D01*
X133295480Y-100094427D01*
X133351990Y-100095206D01*
X133356175Y-100096203D01*
X133386345Y-100110507D01*
X133408524Y-100138393D01*
X133423673Y-100183287D01*
X133432750Y-100248615D01*
X133436714Y-100337804D01*
X133437086Y-100385261D01*
X133437270Y-100460071D01*
X133438478Y-100511069D01*
X133441691Y-100543471D01*
X133447891Y-100562495D01*
X133458060Y-100573356D01*
X133473181Y-100581272D01*
X133474054Y-100581670D01*
X133503172Y-100593981D01*
X133517597Y-100598514D01*
X133519814Y-100584809D01*
X133521711Y-100546925D01*
X133523153Y-100489715D01*
X133524002Y-100418027D01*
X133524171Y-100365565D01*
X133523308Y-100264047D01*
X133519930Y-100187032D01*
X133512858Y-100130023D01*
X133500912Y-100088526D01*
X133482910Y-100058043D01*
X133457673Y-100034080D01*
X133432753Y-100017355D01*
X133372829Y-99995097D01*
X133303089Y-99990076D01*
X133237400Y-100002752D01*
X133237400Y-100002752D01*
G37*
X133237400Y-100002752D02*
X133220052Y-100010334D01*
X133178644Y-100043128D01*
X133143235Y-100090547D01*
X133121336Y-100141151D01*
X133117771Y-100166098D01*
X133129721Y-100200927D01*
X133155933Y-100219357D01*
X133184036Y-100230516D01*
X133196905Y-100232572D01*
X133203171Y-100217649D01*
X133215544Y-100185175D01*
X133220972Y-100170502D01*
X133251410Y-100119744D01*
X133295480Y-100094427D01*
X133351990Y-100095206D01*
X133356175Y-100096203D01*
X133386345Y-100110507D01*
X133408524Y-100138393D01*
X133423673Y-100183287D01*
X133432750Y-100248615D01*
X133436714Y-100337804D01*
X133437086Y-100385261D01*
X133437270Y-100460071D01*
X133438478Y-100511069D01*
X133441691Y-100543471D01*
X133447891Y-100562495D01*
X133458060Y-100573356D01*
X133473181Y-100581272D01*
X133474054Y-100581670D01*
X133503172Y-100593981D01*
X133517597Y-100598514D01*
X133519814Y-100584809D01*
X133521711Y-100546925D01*
X133523153Y-100489715D01*
X133524002Y-100418027D01*
X133524171Y-100365565D01*
X133523308Y-100264047D01*
X133519930Y-100187032D01*
X133512858Y-100130023D01*
X133500912Y-100088526D01*
X133482910Y-100058043D01*
X133457673Y-100034080D01*
X133432753Y-100017355D01*
X133372829Y-99995097D01*
X133303089Y-99990076D01*
X133237400Y-100002752D01*
G36*
X133745124Y-100000335D02*
X133703333Y-100019344D01*
X133670531Y-100042378D01*
X133646497Y-100068133D01*
X133629903Y-100101358D01*
X133619423Y-100146800D01*
X133613729Y-100209207D01*
X133611493Y-100293327D01*
X133611257Y-100348721D01*
X133611257Y-100564826D01*
X133648226Y-100581670D01*
X133677344Y-100593981D01*
X133691769Y-100598514D01*
X133694528Y-100585025D01*
X133696718Y-100548653D01*
X133698058Y-100495542D01*
X133698343Y-100453372D01*
X133699566Y-100392447D01*
X133702864Y-100344115D01*
X133707679Y-100314518D01*
X133711504Y-100308229D01*
X133737217Y-100314652D01*
X133777582Y-100331125D01*
X133824321Y-100353458D01*
X133869155Y-100377457D01*
X133903807Y-100398930D01*
X133919998Y-100413685D01*
X133920062Y-100413845D01*
X133918670Y-100441152D01*
X133906182Y-100467219D01*
X133884257Y-100488392D01*
X133852257Y-100495474D01*
X133824908Y-100494649D01*
X133786174Y-100494042D01*
X133765842Y-100503116D01*
X133753631Y-100527092D01*
X133752091Y-100531613D01*
X133746797Y-100565806D01*
X133760953Y-100586568D01*
X133797852Y-100596462D01*
X133837711Y-100598292D01*
X133909438Y-100584727D01*
X133946568Y-100565355D01*
X133992424Y-100519845D01*
X134016744Y-100463983D01*
X134018927Y-100404957D01*
X133998371Y-100349953D01*
X133967451Y-100315486D01*
X133936580Y-100296189D01*
X133888058Y-100271759D01*
X133831515Y-100246985D01*
X133822090Y-100243199D01*
X133759981Y-100215791D01*
X133724178Y-100191634D01*
X133712663Y-100167619D01*
X133723420Y-100140635D01*
X133741886Y-100119543D01*
X133785531Y-100093572D01*
X133833554Y-100091624D01*
X133877594Y-100111637D01*
X133909291Y-100151551D01*
X133913451Y-100161848D01*
X133937673Y-100199724D01*
X133973035Y-100227842D01*
X134017657Y-100250917D01*
X134017657Y-100185485D01*
X134015031Y-100145506D01*
X134003770Y-100113997D01*
X133978801Y-100080378D01*
X133954831Y-100054484D01*
X133917559Y-100017817D01*
X133888599Y-99998121D01*
X133857495Y-99990220D01*
X133822287Y-99988914D01*
X133745124Y-100000335D01*
X133745124Y-100000335D01*
G37*
X133745124Y-100000335D02*
X133703333Y-100019344D01*
X133670531Y-100042378D01*
X133646497Y-100068133D01*
X133629903Y-100101358D01*
X133619423Y-100146800D01*
X133613729Y-100209207D01*
X133611493Y-100293327D01*
X133611257Y-100348721D01*
X133611257Y-100564826D01*
X133648226Y-100581670D01*
X133677344Y-100593981D01*
X133691769Y-100598514D01*
X133694528Y-100585025D01*
X133696718Y-100548653D01*
X133698058Y-100495542D01*
X133698343Y-100453372D01*
X133699566Y-100392447D01*
X133702864Y-100344115D01*
X133707679Y-100314518D01*
X133711504Y-100308229D01*
X133737217Y-100314652D01*
X133777582Y-100331125D01*
X133824321Y-100353458D01*
X133869155Y-100377457D01*
X133903807Y-100398930D01*
X133919998Y-100413685D01*
X133920062Y-100413845D01*
X133918670Y-100441152D01*
X133906182Y-100467219D01*
X133884257Y-100488392D01*
X133852257Y-100495474D01*
X133824908Y-100494649D01*
X133786174Y-100494042D01*
X133765842Y-100503116D01*
X133753631Y-100527092D01*
X133752091Y-100531613D01*
X133746797Y-100565806D01*
X133760953Y-100586568D01*
X133797852Y-100596462D01*
X133837711Y-100598292D01*
X133909438Y-100584727D01*
X133946568Y-100565355D01*
X133992424Y-100519845D01*
X134016744Y-100463983D01*
X134018927Y-100404957D01*
X133998371Y-100349953D01*
X133967451Y-100315486D01*
X133936580Y-100296189D01*
X133888058Y-100271759D01*
X133831515Y-100246985D01*
X133822090Y-100243199D01*
X133759981Y-100215791D01*
X133724178Y-100191634D01*
X133712663Y-100167619D01*
X133723420Y-100140635D01*
X133741886Y-100119543D01*
X133785531Y-100093572D01*
X133833554Y-100091624D01*
X133877594Y-100111637D01*
X133909291Y-100151551D01*
X133913451Y-100161848D01*
X133937673Y-100199724D01*
X133973035Y-100227842D01*
X134017657Y-100250917D01*
X134017657Y-100185485D01*
X134015031Y-100145506D01*
X134003770Y-100113997D01*
X133978801Y-100080378D01*
X133954831Y-100054484D01*
X133917559Y-100017817D01*
X133888599Y-99998121D01*
X133857495Y-99990220D01*
X133822287Y-99988914D01*
X133745124Y-100000335D01*
G36*
X134110167Y-100002663D02*
X134107952Y-100040850D01*
X134106216Y-100098886D01*
X134105101Y-100172180D01*
X134104743Y-100249055D01*
X134104743Y-100509196D01*
X134150674Y-100555127D01*
X134182325Y-100583429D01*
X134210110Y-100594893D01*
X134248085Y-100594168D01*
X134263160Y-100592321D01*
X134310274Y-100586948D01*
X134349244Y-100583869D01*
X134358743Y-100583585D01*
X134390767Y-100585445D01*
X134436568Y-100590114D01*
X134454326Y-100592321D01*
X134497943Y-100595735D01*
X134527255Y-100588320D01*
X134556320Y-100565427D01*
X134566812Y-100555127D01*
X134612743Y-100509196D01*
X134612743Y-100022602D01*
X134575774Y-100005758D01*
X134543941Y-99993282D01*
X134525317Y-99988914D01*
X134520542Y-100002718D01*
X134516079Y-100041286D01*
X134512225Y-100100356D01*
X134509278Y-100175663D01*
X134507857Y-100239286D01*
X134503886Y-100489657D01*
X134469241Y-100494556D01*
X134437732Y-100491131D01*
X134422292Y-100480041D01*
X134417977Y-100459308D01*
X134414292Y-100415145D01*
X134411531Y-100353146D01*
X134409988Y-100278909D01*
X134409765Y-100240706D01*
X134409543Y-100020783D01*
X134363834Y-100004849D01*
X134331482Y-99994015D01*
X134313885Y-99988962D01*
X134313377Y-99988914D01*
X134311612Y-100002648D01*
X134309671Y-100040730D01*
X134307718Y-100098482D01*
X134305916Y-100171227D01*
X134304657Y-100239286D01*
X134300686Y-100489657D01*
X134213600Y-100489657D01*
X134209604Y-100261240D01*
X134205608Y-100032822D01*
X134163153Y-100010868D01*
X134131808Y-99995793D01*
X134113256Y-99988951D01*
X134112721Y-99988914D01*
X134110167Y-100002663D01*
X134110167Y-100002663D01*
G37*
X134110167Y-100002663D02*
X134107952Y-100040850D01*
X134106216Y-100098886D01*
X134105101Y-100172180D01*
X134104743Y-100249055D01*
X134104743Y-100509196D01*
X134150674Y-100555127D01*
X134182325Y-100583429D01*
X134210110Y-100594893D01*
X134248085Y-100594168D01*
X134263160Y-100592321D01*
X134310274Y-100586948D01*
X134349244Y-100583869D01*
X134358743Y-100583585D01*
X134390767Y-100585445D01*
X134436568Y-100590114D01*
X134454326Y-100592321D01*
X134497943Y-100595735D01*
X134527255Y-100588320D01*
X134556320Y-100565427D01*
X134566812Y-100555127D01*
X134612743Y-100509196D01*
X134612743Y-100022602D01*
X134575774Y-100005758D01*
X134543941Y-99993282D01*
X134525317Y-99988914D01*
X134520542Y-100002718D01*
X134516079Y-100041286D01*
X134512225Y-100100356D01*
X134509278Y-100175663D01*
X134507857Y-100239286D01*
X134503886Y-100489657D01*
X134469241Y-100494556D01*
X134437732Y-100491131D01*
X134422292Y-100480041D01*
X134417977Y-100459308D01*
X134414292Y-100415145D01*
X134411531Y-100353146D01*
X134409988Y-100278909D01*
X134409765Y-100240706D01*
X134409543Y-100020783D01*
X134363834Y-100004849D01*
X134331482Y-99994015D01*
X134313885Y-99988962D01*
X134313377Y-99988914D01*
X134311612Y-100002648D01*
X134309671Y-100040730D01*
X134307718Y-100098482D01*
X134305916Y-100171227D01*
X134304657Y-100239286D01*
X134300686Y-100489657D01*
X134213600Y-100489657D01*
X134209604Y-100261240D01*
X134205608Y-100032822D01*
X134163153Y-100010868D01*
X134131808Y-99995793D01*
X134113256Y-99988951D01*
X134112721Y-99988914D01*
X134110167Y-100002663D01*
G36*
X134699883Y-100109358D02*
X134700067Y-100217837D01*
X134700781Y-100301287D01*
X134702325Y-100363704D01*
X134704999Y-100409085D01*
X134709106Y-100441429D01*
X134714945Y-100464733D01*
X134722818Y-100482995D01*
X134728779Y-100493418D01*
X134778145Y-100549945D01*
X134840736Y-100585377D01*
X134909987Y-100598090D01*
X134979332Y-100586463D01*
X135020625Y-100565568D01*
X135063975Y-100529422D01*
X135093519Y-100485276D01*
X135111345Y-100427462D01*
X135119537Y-100350313D01*
X135120698Y-100293714D01*
X135120542Y-100289647D01*
X135019143Y-100289647D01*
X135018524Y-100354550D01*
X135015686Y-100397514D01*
X135009160Y-100425622D01*
X134997477Y-100445953D01*
X134983517Y-100461288D01*
X134936635Y-100490890D01*
X134886299Y-100493419D01*
X134838724Y-100468705D01*
X134835021Y-100465356D01*
X134819217Y-100447935D01*
X134809307Y-100427209D01*
X134803942Y-100396362D01*
X134801772Y-100348577D01*
X134801429Y-100295748D01*
X134802173Y-100229381D01*
X134805252Y-100185106D01*
X134811939Y-100156009D01*
X134823504Y-100135173D01*
X134832987Y-100124107D01*
X134877040Y-100096198D01*
X134927776Y-100092843D01*
X134976204Y-100114159D01*
X134985550Y-100122073D01*
X135001460Y-100139647D01*
X135011390Y-100160587D01*
X135016722Y-100191782D01*
X135018837Y-100240122D01*
X135019143Y-100289647D01*
X135120542Y-100289647D01*
X135117190Y-100202568D01*
X135105274Y-100134086D01*
X135082865Y-100082600D01*
X135047876Y-100042443D01*
X135020625Y-100021861D01*
X134971093Y-99999625D01*
X134913684Y-99989304D01*
X134860318Y-99992067D01*
X134830457Y-100003212D01*
X134818739Y-100006383D01*
X134810963Y-99994557D01*
X134805535Y-99962866D01*
X134801429Y-99914593D01*
X134796933Y-99860829D01*
X134790687Y-99828482D01*
X134779324Y-99809985D01*
X134759472Y-99797770D01*
X134747000Y-99792362D01*
X134699829Y-99772601D01*
X134699883Y-100109358D01*
X134699883Y-100109358D01*
G37*
X134699883Y-100109358D02*
X134700067Y-100217837D01*
X134700781Y-100301287D01*
X134702325Y-100363704D01*
X134704999Y-100409085D01*
X134709106Y-100441429D01*
X134714945Y-100464733D01*
X134722818Y-100482995D01*
X134728779Y-100493418D01*
X134778145Y-100549945D01*
X134840736Y-100585377D01*
X134909987Y-100598090D01*
X134979332Y-100586463D01*
X135020625Y-100565568D01*
X135063975Y-100529422D01*
X135093519Y-100485276D01*
X135111345Y-100427462D01*
X135119537Y-100350313D01*
X135120698Y-100293714D01*
X135120542Y-100289647D01*
X135019143Y-100289647D01*
X135018524Y-100354550D01*
X135015686Y-100397514D01*
X135009160Y-100425622D01*
X134997477Y-100445953D01*
X134983517Y-100461288D01*
X134936635Y-100490890D01*
X134886299Y-100493419D01*
X134838724Y-100468705D01*
X134835021Y-100465356D01*
X134819217Y-100447935D01*
X134809307Y-100427209D01*
X134803942Y-100396362D01*
X134801772Y-100348577D01*
X134801429Y-100295748D01*
X134802173Y-100229381D01*
X134805252Y-100185106D01*
X134811939Y-100156009D01*
X134823504Y-100135173D01*
X134832987Y-100124107D01*
X134877040Y-100096198D01*
X134927776Y-100092843D01*
X134976204Y-100114159D01*
X134985550Y-100122073D01*
X135001460Y-100139647D01*
X135011390Y-100160587D01*
X135016722Y-100191782D01*
X135018837Y-100240122D01*
X135019143Y-100289647D01*
X135120542Y-100289647D01*
X135117190Y-100202568D01*
X135105274Y-100134086D01*
X135082865Y-100082600D01*
X135047876Y-100042443D01*
X135020625Y-100021861D01*
X134971093Y-99999625D01*
X134913684Y-99989304D01*
X134860318Y-99992067D01*
X134830457Y-100003212D01*
X134818739Y-100006383D01*
X134810963Y-99994557D01*
X134805535Y-99962866D01*
X134801429Y-99914593D01*
X134796933Y-99860829D01*
X134790687Y-99828482D01*
X134779324Y-99809985D01*
X134759472Y-99797770D01*
X134747000Y-99792362D01*
X134699829Y-99772601D01*
X134699883Y-100109358D01*
G36*
X135360074Y-99993755D02*
X135294142Y-100018084D01*
X135240727Y-100061117D01*
X135219836Y-100091409D01*
X135197061Y-100146994D01*
X135197534Y-100187186D01*
X135221438Y-100214217D01*
X135230283Y-100218813D01*
X135268470Y-100233144D01*
X135287972Y-100229472D01*
X135294578Y-100205407D01*
X135294914Y-100192114D01*
X135307008Y-100143210D01*
X135338529Y-100108999D01*
X135382341Y-100092476D01*
X135431305Y-100096634D01*
X135471106Y-100118227D01*
X135484550Y-100130544D01*
X135494079Y-100145487D01*
X135500515Y-100168075D01*
X135504683Y-100203328D01*
X135507403Y-100256266D01*
X135509498Y-100331907D01*
X135510040Y-100355857D01*
X135512019Y-100437790D01*
X135514269Y-100495455D01*
X135517643Y-100533608D01*
X135522994Y-100557004D01*
X135531176Y-100570398D01*
X135543041Y-100578545D01*
X135550638Y-100582144D01*
X135582898Y-100594452D01*
X135601889Y-100598514D01*
X135608164Y-100584948D01*
X135611994Y-100543934D01*
X135613400Y-100474999D01*
X135612402Y-100377669D01*
X135612092Y-100362657D01*
X135609899Y-100273859D01*
X135607307Y-100209019D01*
X135603618Y-100163067D01*
X135598136Y-100130935D01*
X135590165Y-100107553D01*
X135579007Y-100087852D01*
X135573170Y-100079410D01*
X135539704Y-100042057D01*
X135502273Y-100013003D01*
X135497691Y-100010467D01*
X135430574Y-99990443D01*
X135360074Y-99993755D01*
X135360074Y-99993755D01*
G37*
X135360074Y-99993755D02*
X135294142Y-100018084D01*
X135240727Y-100061117D01*
X135219836Y-100091409D01*
X135197061Y-100146994D01*
X135197534Y-100187186D01*
X135221438Y-100214217D01*
X135230283Y-100218813D01*
X135268470Y-100233144D01*
X135287972Y-100229472D01*
X135294578Y-100205407D01*
X135294914Y-100192114D01*
X135307008Y-100143210D01*
X135338529Y-100108999D01*
X135382341Y-100092476D01*
X135431305Y-100096634D01*
X135471106Y-100118227D01*
X135484550Y-100130544D01*
X135494079Y-100145487D01*
X135500515Y-100168075D01*
X135504683Y-100203328D01*
X135507403Y-100256266D01*
X135509498Y-100331907D01*
X135510040Y-100355857D01*
X135512019Y-100437790D01*
X135514269Y-100495455D01*
X135517643Y-100533608D01*
X135522994Y-100557004D01*
X135531176Y-100570398D01*
X135543041Y-100578545D01*
X135550638Y-100582144D01*
X135582898Y-100594452D01*
X135601889Y-100598514D01*
X135608164Y-100584948D01*
X135611994Y-100543934D01*
X135613400Y-100474999D01*
X135612402Y-100377669D01*
X135612092Y-100362657D01*
X135609899Y-100273859D01*
X135607307Y-100209019D01*
X135603618Y-100163067D01*
X135598136Y-100130935D01*
X135590165Y-100107553D01*
X135579007Y-100087852D01*
X135573170Y-100079410D01*
X135539704Y-100042057D01*
X135502273Y-100013003D01*
X135497691Y-100010467D01*
X135430574Y-99990443D01*
X135360074Y-99993755D01*
G36*
X135850256Y-99994968D02*
X135793384Y-100016087D01*
X135792733Y-100016493D01*
X135757560Y-100042380D01*
X135731593Y-100072633D01*
X135713330Y-100112058D01*
X135701268Y-100165462D01*
X135693904Y-100237651D01*
X135689736Y-100333432D01*
X135689371Y-100347078D01*
X135684124Y-100552842D01*
X135728284Y-100575678D01*
X135760237Y-100591110D01*
X135779530Y-100598423D01*
X135780422Y-100598514D01*
X135783761Y-100585022D01*
X135786413Y-100548626D01*
X135788044Y-100495452D01*
X135788400Y-100452393D01*
X135788408Y-100382641D01*
X135791597Y-100338837D01*
X135802712Y-100317944D01*
X135826499Y-100316925D01*
X135867704Y-100332741D01*
X135929914Y-100361815D01*
X135975659Y-100385963D01*
X135999187Y-100406913D01*
X136006104Y-100429747D01*
X136006114Y-100430877D01*
X135994701Y-100470212D01*
X135960908Y-100491462D01*
X135909191Y-100494539D01*
X135871939Y-100494006D01*
X135852297Y-100504735D01*
X135840048Y-100530505D01*
X135832998Y-100563337D01*
X135843158Y-100581966D01*
X135846983Y-100584632D01*
X135882999Y-100595340D01*
X135933434Y-100596856D01*
X135985374Y-100589759D01*
X136022178Y-100576788D01*
X136073062Y-100533585D01*
X136101986Y-100473446D01*
X136107714Y-100426462D01*
X136103343Y-100384082D01*
X136087525Y-100349488D01*
X136056203Y-100318763D01*
X136005322Y-100287990D01*
X135930824Y-100253252D01*
X135926286Y-100251288D01*
X135859179Y-100220287D01*
X135817768Y-100194862D01*
X135800019Y-100172014D01*
X135803893Y-100148745D01*
X135827357Y-100122056D01*
X135834373Y-100115914D01*
X135881370Y-100092100D01*
X135930067Y-100093103D01*
X135972478Y-100116451D01*
X136000616Y-100159675D01*
X136003231Y-100168160D01*
X136028692Y-100209308D01*
X136060999Y-100229128D01*
X136107714Y-100248770D01*
X136107714Y-100197950D01*
X136093504Y-100124082D01*
X136051325Y-100056327D01*
X136029376Y-100033661D01*
X135979483Y-100004569D01*
X135916033Y-99991400D01*
X135850256Y-99994968D01*
X135850256Y-99994968D01*
G37*
X135850256Y-99994968D02*
X135793384Y-100016087D01*
X135792733Y-100016493D01*
X135757560Y-100042380D01*
X135731593Y-100072633D01*
X135713330Y-100112058D01*
X135701268Y-100165462D01*
X135693904Y-100237651D01*
X135689736Y-100333432D01*
X135689371Y-100347078D01*
X135684124Y-100552842D01*
X135728284Y-100575678D01*
X135760237Y-100591110D01*
X135779530Y-100598423D01*
X135780422Y-100598514D01*
X135783761Y-100585022D01*
X135786413Y-100548626D01*
X135788044Y-100495452D01*
X135788400Y-100452393D01*
X135788408Y-100382641D01*
X135791597Y-100338837D01*
X135802712Y-100317944D01*
X135826499Y-100316925D01*
X135867704Y-100332741D01*
X135929914Y-100361815D01*
X135975659Y-100385963D01*
X135999187Y-100406913D01*
X136006104Y-100429747D01*
X136006114Y-100430877D01*
X135994701Y-100470212D01*
X135960908Y-100491462D01*
X135909191Y-100494539D01*
X135871939Y-100494006D01*
X135852297Y-100504735D01*
X135840048Y-100530505D01*
X135832998Y-100563337D01*
X135843158Y-100581966D01*
X135846983Y-100584632D01*
X135882999Y-100595340D01*
X135933434Y-100596856D01*
X135985374Y-100589759D01*
X136022178Y-100576788D01*
X136073062Y-100533585D01*
X136101986Y-100473446D01*
X136107714Y-100426462D01*
X136103343Y-100384082D01*
X136087525Y-100349488D01*
X136056203Y-100318763D01*
X136005322Y-100287990D01*
X135930824Y-100253252D01*
X135926286Y-100251288D01*
X135859179Y-100220287D01*
X135817768Y-100194862D01*
X135800019Y-100172014D01*
X135803893Y-100148745D01*
X135827357Y-100122056D01*
X135834373Y-100115914D01*
X135881370Y-100092100D01*
X135930067Y-100093103D01*
X135972478Y-100116451D01*
X136000616Y-100159675D01*
X136003231Y-100168160D01*
X136028692Y-100209308D01*
X136060999Y-100229128D01*
X136107714Y-100248770D01*
X136107714Y-100197950D01*
X136093504Y-100124082D01*
X136051325Y-100056327D01*
X136029376Y-100033661D01*
X135979483Y-100004569D01*
X135916033Y-99991400D01*
X135850256Y-99994968D01*
G36*
X136514114Y-99895289D02*
X136509861Y-99954613D01*
X136504975Y-99989572D01*
X136498205Y-100004820D01*
X136488298Y-100005015D01*
X136485086Y-100003195D01*
X136442356Y-99990015D01*
X136386773Y-99990785D01*
X136330263Y-100004333D01*
X136294918Y-100021861D01*
X136258679Y-100049861D01*
X136232187Y-100081549D01*
X136214001Y-100121813D01*
X136202678Y-100175543D01*
X136196778Y-100247626D01*
X136194857Y-100342951D01*
X136194823Y-100361237D01*
X136194800Y-100566646D01*
X136240509Y-100582580D01*
X136272973Y-100593420D01*
X136290785Y-100598468D01*
X136291309Y-100598514D01*
X136293063Y-100584828D01*
X136294556Y-100547076D01*
X136295674Y-100490224D01*
X136296303Y-100419234D01*
X136296400Y-100376073D01*
X136296602Y-100290973D01*
X136297642Y-100229981D01*
X136300169Y-100188177D01*
X136304836Y-100160642D01*
X136312293Y-100142456D01*
X136323189Y-100128698D01*
X136329993Y-100122073D01*
X136376728Y-100095375D01*
X136427728Y-100093375D01*
X136473999Y-100115955D01*
X136482556Y-100124107D01*
X136495107Y-100139436D01*
X136503812Y-100157618D01*
X136509369Y-100183909D01*
X136512474Y-100223562D01*
X136513824Y-100281832D01*
X136514114Y-100362173D01*
X136514114Y-100566646D01*
X136559823Y-100582580D01*
X136592287Y-100593420D01*
X136610099Y-100598468D01*
X136610623Y-100598514D01*
X136611963Y-100584623D01*
X136613172Y-100545439D01*
X136614199Y-100484700D01*
X136614998Y-100406141D01*
X136615519Y-100313498D01*
X136615714Y-100210509D01*
X136615714Y-99813342D01*
X136568543Y-99793444D01*
X136521371Y-99773547D01*
X136514114Y-99895289D01*
X136514114Y-99895289D01*
G37*
X136514114Y-99895289D02*
X136509861Y-99954613D01*
X136504975Y-99989572D01*
X136498205Y-100004820D01*
X136488298Y-100005015D01*
X136485086Y-100003195D01*
X136442356Y-99990015D01*
X136386773Y-99990785D01*
X136330263Y-100004333D01*
X136294918Y-100021861D01*
X136258679Y-100049861D01*
X136232187Y-100081549D01*
X136214001Y-100121813D01*
X136202678Y-100175543D01*
X136196778Y-100247626D01*
X136194857Y-100342951D01*
X136194823Y-100361237D01*
X136194800Y-100566646D01*
X136240509Y-100582580D01*
X136272973Y-100593420D01*
X136290785Y-100598468D01*
X136291309Y-100598514D01*
X136293063Y-100584828D01*
X136294556Y-100547076D01*
X136295674Y-100490224D01*
X136296303Y-100419234D01*
X136296400Y-100376073D01*
X136296602Y-100290973D01*
X136297642Y-100229981D01*
X136300169Y-100188177D01*
X136304836Y-100160642D01*
X136312293Y-100142456D01*
X136323189Y-100128698D01*
X136329993Y-100122073D01*
X136376728Y-100095375D01*
X136427728Y-100093375D01*
X136473999Y-100115955D01*
X136482556Y-100124107D01*
X136495107Y-100139436D01*
X136503812Y-100157618D01*
X136509369Y-100183909D01*
X136512474Y-100223562D01*
X136513824Y-100281832D01*
X136514114Y-100362173D01*
X136514114Y-100566646D01*
X136559823Y-100582580D01*
X136592287Y-100593420D01*
X136610099Y-100598468D01*
X136610623Y-100598514D01*
X136611963Y-100584623D01*
X136613172Y-100545439D01*
X136614199Y-100484700D01*
X136614998Y-100406141D01*
X136615519Y-100313498D01*
X136615714Y-100210509D01*
X136615714Y-99813342D01*
X136568543Y-99793444D01*
X136521371Y-99773547D01*
X136514114Y-99895289D01*
G36*
X137721697Y-99975239D02*
X137664473Y-100013735D01*
X137620251Y-100069335D01*
X137593833Y-100140086D01*
X137588490Y-100192162D01*
X137589097Y-100213893D01*
X137594178Y-100230531D01*
X137608145Y-100245437D01*
X137635411Y-100261973D01*
X137680388Y-100283498D01*
X137747489Y-100313374D01*
X137747829Y-100313524D01*
X137809593Y-100341813D01*
X137860241Y-100366933D01*
X137894596Y-100386179D01*
X137907482Y-100396848D01*
X137907486Y-100396934D01*
X137896128Y-100420166D01*
X137869569Y-100445774D01*
X137839077Y-100464221D01*
X137823630Y-100467886D01*
X137781485Y-100455212D01*
X137745192Y-100423471D01*
X137727483Y-100388572D01*
X137710448Y-100362845D01*
X137677078Y-100333546D01*
X137637851Y-100308235D01*
X137603244Y-100294471D01*
X137596007Y-100293714D01*
X137587861Y-100306160D01*
X137587370Y-100337972D01*
X137593357Y-100380866D01*
X137604643Y-100426558D01*
X137620050Y-100466761D01*
X137620829Y-100468322D01*
X137667196Y-100533062D01*
X137727289Y-100577097D01*
X137795535Y-100598711D01*
X137866362Y-100596185D01*
X137934196Y-100567804D01*
X137937212Y-100565808D01*
X137990573Y-100517448D01*
X138025660Y-100454352D01*
X138045078Y-100371387D01*
X138047684Y-100348078D01*
X138052299Y-100238055D01*
X138046767Y-100186748D01*
X137907486Y-100186748D01*
X137905676Y-100218753D01*
X137895778Y-100228093D01*
X137871102Y-100221105D01*
X137832205Y-100204587D01*
X137788725Y-100183881D01*
X137787644Y-100183333D01*
X137750791Y-100163949D01*
X137736000Y-100151013D01*
X137739647Y-100137451D01*
X137755005Y-100119632D01*
X137794077Y-100093845D01*
X137836154Y-100091950D01*
X137873897Y-100110717D01*
X137899966Y-100146915D01*
X137907486Y-100186748D01*
X138046767Y-100186748D01*
X138042806Y-100150027D01*
X138018450Y-100080212D01*
X137984544Y-100031302D01*
X137923347Y-99981878D01*
X137855937Y-99957359D01*
X137787120Y-99955797D01*
X137721697Y-99975239D01*
X137721697Y-99975239D01*
G37*
X137721697Y-99975239D02*
X137664473Y-100013735D01*
X137620251Y-100069335D01*
X137593833Y-100140086D01*
X137588490Y-100192162D01*
X137589097Y-100213893D01*
X137594178Y-100230531D01*
X137608145Y-100245437D01*
X137635411Y-100261973D01*
X137680388Y-100283498D01*
X137747489Y-100313374D01*
X137747829Y-100313524D01*
X137809593Y-100341813D01*
X137860241Y-100366933D01*
X137894596Y-100386179D01*
X137907482Y-100396848D01*
X137907486Y-100396934D01*
X137896128Y-100420166D01*
X137869569Y-100445774D01*
X137839077Y-100464221D01*
X137823630Y-100467886D01*
X137781485Y-100455212D01*
X137745192Y-100423471D01*
X137727483Y-100388572D01*
X137710448Y-100362845D01*
X137677078Y-100333546D01*
X137637851Y-100308235D01*
X137603244Y-100294471D01*
X137596007Y-100293714D01*
X137587861Y-100306160D01*
X137587370Y-100337972D01*
X137593357Y-100380866D01*
X137604643Y-100426558D01*
X137620050Y-100466761D01*
X137620829Y-100468322D01*
X137667196Y-100533062D01*
X137727289Y-100577097D01*
X137795535Y-100598711D01*
X137866362Y-100596185D01*
X137934196Y-100567804D01*
X137937212Y-100565808D01*
X137990573Y-100517448D01*
X138025660Y-100454352D01*
X138045078Y-100371387D01*
X138047684Y-100348078D01*
X138052299Y-100238055D01*
X138046767Y-100186748D01*
X137907486Y-100186748D01*
X137905676Y-100218753D01*
X137895778Y-100228093D01*
X137871102Y-100221105D01*
X137832205Y-100204587D01*
X137788725Y-100183881D01*
X137787644Y-100183333D01*
X137750791Y-100163949D01*
X137736000Y-100151013D01*
X137739647Y-100137451D01*
X137755005Y-100119632D01*
X137794077Y-100093845D01*
X137836154Y-100091950D01*
X137873897Y-100110717D01*
X137899966Y-100146915D01*
X137907486Y-100186748D01*
X138046767Y-100186748D01*
X138042806Y-100150027D01*
X138018450Y-100080212D01*
X137984544Y-100031302D01*
X137923347Y-99981878D01*
X137855937Y-99957359D01*
X137787120Y-99955797D01*
X137721697Y-99975239D01*
G36*
X138848885Y-99965962D02*
X138780855Y-100001733D01*
X138730649Y-100059301D01*
X138712815Y-100096312D01*
X138698937Y-100151882D01*
X138691833Y-100222096D01*
X138691160Y-100298727D01*
X138696573Y-100373552D01*
X138707730Y-100438342D01*
X138724286Y-100484873D01*
X138729374Y-100492887D01*
X138789645Y-100552707D01*
X138861231Y-100588535D01*
X138938908Y-100599020D01*
X139017452Y-100582810D01*
X139039311Y-100573092D01*
X139081878Y-100543143D01*
X139119237Y-100503433D01*
X139122768Y-100498397D01*
X139137119Y-100474124D01*
X139146606Y-100448178D01*
X139152210Y-100414022D01*
X139154914Y-100365119D01*
X139155701Y-100294935D01*
X139155714Y-100279200D01*
X139155678Y-100274192D01*
X139010571Y-100274192D01*
X139009727Y-100340430D01*
X139006404Y-100384386D01*
X138999417Y-100412779D01*
X138987584Y-100432325D01*
X138981543Y-100438857D01*
X138946814Y-100463680D01*
X138913097Y-100462548D01*
X138879005Y-100441016D01*
X138858671Y-100418029D01*
X138846629Y-100384478D01*
X138839866Y-100331569D01*
X138839402Y-100325399D01*
X138838248Y-100229513D01*
X138850312Y-100158299D01*
X138875430Y-100112194D01*
X138913440Y-100091635D01*
X138927008Y-100090514D01*
X138962636Y-100096152D01*
X138987006Y-100115686D01*
X139001907Y-100153042D01*
X139009125Y-100212150D01*
X139010571Y-100274192D01*
X139155678Y-100274192D01*
X139155174Y-100204413D01*
X139152904Y-100152159D01*
X139147932Y-100115949D01*
X139139287Y-100089299D01*
X139125995Y-100065722D01*
X139123057Y-100061338D01*
X139073687Y-100002249D01*
X139019891Y-99967947D01*
X138954398Y-99954331D01*
X138932158Y-99953665D01*
X138848885Y-99965962D01*
X138848885Y-99965962D01*
G37*
X138848885Y-99965962D02*
X138780855Y-100001733D01*
X138730649Y-100059301D01*
X138712815Y-100096312D01*
X138698937Y-100151882D01*
X138691833Y-100222096D01*
X138691160Y-100298727D01*
X138696573Y-100373552D01*
X138707730Y-100438342D01*
X138724286Y-100484873D01*
X138729374Y-100492887D01*
X138789645Y-100552707D01*
X138861231Y-100588535D01*
X138938908Y-100599020D01*
X139017452Y-100582810D01*
X139039311Y-100573092D01*
X139081878Y-100543143D01*
X139119237Y-100503433D01*
X139122768Y-100498397D01*
X139137119Y-100474124D01*
X139146606Y-100448178D01*
X139152210Y-100414022D01*
X139154914Y-100365119D01*
X139155701Y-100294935D01*
X139155714Y-100279200D01*
X139155678Y-100274192D01*
X139010571Y-100274192D01*
X139009727Y-100340430D01*
X139006404Y-100384386D01*
X138999417Y-100412779D01*
X138987584Y-100432325D01*
X138981543Y-100438857D01*
X138946814Y-100463680D01*
X138913097Y-100462548D01*
X138879005Y-100441016D01*
X138858671Y-100418029D01*
X138846629Y-100384478D01*
X138839866Y-100331569D01*
X138839402Y-100325399D01*
X138838248Y-100229513D01*
X138850312Y-100158299D01*
X138875430Y-100112194D01*
X138913440Y-100091635D01*
X138927008Y-100090514D01*
X138962636Y-100096152D01*
X138987006Y-100115686D01*
X139001907Y-100153042D01*
X139009125Y-100212150D01*
X139010571Y-100274192D01*
X139155678Y-100274192D01*
X139155174Y-100204413D01*
X139152904Y-100152159D01*
X139147932Y-100115949D01*
X139139287Y-100089299D01*
X139125995Y-100065722D01*
X139123057Y-100061338D01*
X139073687Y-100002249D01*
X139019891Y-99967947D01*
X138954398Y-99954331D01*
X138932158Y-99953665D01*
X138848885Y-99965962D01*
G36*
X137173907Y-99971780D02*
X137127328Y-99998723D01*
X137094943Y-100025466D01*
X137071258Y-100053484D01*
X137054941Y-100087748D01*
X137044661Y-100133227D01*
X137039086Y-100194892D01*
X137036884Y-100277711D01*
X137036629Y-100337246D01*
X137036629Y-100556391D01*
X137098314Y-100584044D01*
X137160000Y-100611697D01*
X137167257Y-100371670D01*
X137170256Y-100282028D01*
X137173402Y-100216962D01*
X137177299Y-100172026D01*
X137182553Y-100142770D01*
X137189769Y-100124748D01*
X137199550Y-100113511D01*
X137202688Y-100111079D01*
X137250239Y-100092083D01*
X137298303Y-100099600D01*
X137326914Y-100119543D01*
X137338553Y-100133675D01*
X137346609Y-100152220D01*
X137351729Y-100180334D01*
X137354559Y-100223173D01*
X137355744Y-100285895D01*
X137355943Y-100351261D01*
X137355982Y-100433268D01*
X137357386Y-100491316D01*
X137362086Y-100530465D01*
X137372013Y-100555780D01*
X137389097Y-100572323D01*
X137415268Y-100585156D01*
X137450225Y-100598491D01*
X137488404Y-100613007D01*
X137483859Y-100355389D01*
X137482029Y-100262519D01*
X137479888Y-100193889D01*
X137476819Y-100144711D01*
X137472206Y-100110198D01*
X137465432Y-100085562D01*
X137455881Y-100066016D01*
X137444366Y-100048770D01*
X137388810Y-99993680D01*
X137321020Y-99961822D01*
X137247287Y-99954191D01*
X137173907Y-99971780D01*
X137173907Y-99971780D01*
G37*
X137173907Y-99971780D02*
X137127328Y-99998723D01*
X137094943Y-100025466D01*
X137071258Y-100053484D01*
X137054941Y-100087748D01*
X137044661Y-100133227D01*
X137039086Y-100194892D01*
X137036884Y-100277711D01*
X137036629Y-100337246D01*
X137036629Y-100556391D01*
X137098314Y-100584044D01*
X137160000Y-100611697D01*
X137167257Y-100371670D01*
X137170256Y-100282028D01*
X137173402Y-100216962D01*
X137177299Y-100172026D01*
X137182553Y-100142770D01*
X137189769Y-100124748D01*
X137199550Y-100113511D01*
X137202688Y-100111079D01*
X137250239Y-100092083D01*
X137298303Y-100099600D01*
X137326914Y-100119543D01*
X137338553Y-100133675D01*
X137346609Y-100152220D01*
X137351729Y-100180334D01*
X137354559Y-100223173D01*
X137355744Y-100285895D01*
X137355943Y-100351261D01*
X137355982Y-100433268D01*
X137357386Y-100491316D01*
X137362086Y-100530465D01*
X137372013Y-100555780D01*
X137389097Y-100572323D01*
X137415268Y-100585156D01*
X137450225Y-100598491D01*
X137488404Y-100613007D01*
X137483859Y-100355389D01*
X137482029Y-100262519D01*
X137479888Y-100193889D01*
X137476819Y-100144711D01*
X137472206Y-100110198D01*
X137465432Y-100085562D01*
X137455881Y-100066016D01*
X137444366Y-100048770D01*
X137388810Y-99993680D01*
X137321020Y-99961822D01*
X137247287Y-99954191D01*
X137173907Y-99971780D01*
G36*
X138290256Y-99963918D02*
X138234799Y-99991568D01*
X138185852Y-100042480D01*
X138172371Y-100061338D01*
X138157686Y-100086015D01*
X138148158Y-100112816D01*
X138142707Y-100148587D01*
X138140253Y-100200169D01*
X138139714Y-100268267D01*
X138142148Y-100361588D01*
X138150606Y-100431657D01*
X138166826Y-100483931D01*
X138192546Y-100523869D01*
X138229503Y-100556929D01*
X138232218Y-100558886D01*
X138268640Y-100578908D01*
X138312498Y-100588815D01*
X138368276Y-100591257D01*
X138458952Y-100591257D01*
X138458990Y-100679283D01*
X138459834Y-100728308D01*
X138464976Y-100757065D01*
X138478413Y-100774311D01*
X138504142Y-100788808D01*
X138510321Y-100791769D01*
X138539236Y-100805648D01*
X138561624Y-100814414D01*
X138578271Y-100815171D01*
X138589964Y-100805023D01*
X138597490Y-100781073D01*
X138601634Y-100740426D01*
X138603185Y-100680186D01*
X138602929Y-100597455D01*
X138601651Y-100489339D01*
X138601252Y-100457000D01*
X138599815Y-100345524D01*
X138598528Y-100272603D01*
X138459029Y-100272603D01*
X138458245Y-100334499D01*
X138454760Y-100374997D01*
X138446876Y-100401708D01*
X138432895Y-100422244D01*
X138423403Y-100432260D01*
X138384596Y-100461567D01*
X138350237Y-100463952D01*
X138314784Y-100439750D01*
X138313886Y-100438857D01*
X138299461Y-100420153D01*
X138290687Y-100394732D01*
X138286261Y-100355584D01*
X138284882Y-100295697D01*
X138284857Y-100282430D01*
X138288188Y-100199901D01*
X138299031Y-100142691D01*
X138318660Y-100107766D01*
X138348350Y-100092094D01*
X138365509Y-100090514D01*
X138406234Y-100097926D01*
X138434168Y-100122330D01*
X138450983Y-100166980D01*
X138458350Y-100235130D01*
X138459029Y-100272603D01*
X138598528Y-100272603D01*
X138598292Y-100259245D01*
X138596323Y-100194333D01*
X138593550Y-100146958D01*
X138589612Y-100113290D01*
X138584151Y-100089498D01*
X138576808Y-100071753D01*
X138567223Y-100056224D01*
X138563113Y-100050381D01*
X138508595Y-99995185D01*
X138439664Y-99963890D01*
X138359928Y-99955165D01*
X138290256Y-99963918D01*
X138290256Y-99963918D01*
G37*
X138290256Y-99963918D02*
X138234799Y-99991568D01*
X138185852Y-100042480D01*
X138172371Y-100061338D01*
X138157686Y-100086015D01*
X138148158Y-100112816D01*
X138142707Y-100148587D01*
X138140253Y-100200169D01*
X138139714Y-100268267D01*
X138142148Y-100361588D01*
X138150606Y-100431657D01*
X138166826Y-100483931D01*
X138192546Y-100523869D01*
X138229503Y-100556929D01*
X138232218Y-100558886D01*
X138268640Y-100578908D01*
X138312498Y-100588815D01*
X138368276Y-100591257D01*
X138458952Y-100591257D01*
X138458990Y-100679283D01*
X138459834Y-100728308D01*
X138464976Y-100757065D01*
X138478413Y-100774311D01*
X138504142Y-100788808D01*
X138510321Y-100791769D01*
X138539236Y-100805648D01*
X138561624Y-100814414D01*
X138578271Y-100815171D01*
X138589964Y-100805023D01*
X138597490Y-100781073D01*
X138601634Y-100740426D01*
X138603185Y-100680186D01*
X138602929Y-100597455D01*
X138601651Y-100489339D01*
X138601252Y-100457000D01*
X138599815Y-100345524D01*
X138598528Y-100272603D01*
X138459029Y-100272603D01*
X138458245Y-100334499D01*
X138454760Y-100374997D01*
X138446876Y-100401708D01*
X138432895Y-100422244D01*
X138423403Y-100432260D01*
X138384596Y-100461567D01*
X138350237Y-100463952D01*
X138314784Y-100439750D01*
X138313886Y-100438857D01*
X138299461Y-100420153D01*
X138290687Y-100394732D01*
X138286261Y-100355584D01*
X138284882Y-100295697D01*
X138284857Y-100282430D01*
X138288188Y-100199901D01*
X138299031Y-100142691D01*
X138318660Y-100107766D01*
X138348350Y-100092094D01*
X138365509Y-100090514D01*
X138406234Y-100097926D01*
X138434168Y-100122330D01*
X138450983Y-100166980D01*
X138458350Y-100235130D01*
X138459029Y-100272603D01*
X138598528Y-100272603D01*
X138598292Y-100259245D01*
X138596323Y-100194333D01*
X138593550Y-100146958D01*
X138589612Y-100113290D01*
X138584151Y-100089498D01*
X138576808Y-100071753D01*
X138567223Y-100056224D01*
X138563113Y-100050381D01*
X138508595Y-99995185D01*
X138439664Y-99963890D01*
X138359928Y-99955165D01*
X138290256Y-99963918D01*
G04 #@! TD*
M02*
