M48
;DRILL file {KiCad (5.0.2)-1} date 15/01/2019 12:25:19
;FORMAT={-:-/ absolute / inch / decimal}
FMAT,2
INCH,TZ
T1C0.0160
T2C0.0197
T3C0.0200
T4C0.0315
T5C0.0394
T6C0.1063
%
G90
G05
T1
X5.4Y-3.08
X5.4Y-3.18
X5.4Y-3.28
X5.52Y-3.08
X5.65Y-3.16
X5.65Y-3.23
X5.76Y-3.16
X5.76Y-3.23
X5.86Y-3.1
X5.88Y-3.33
X6.09Y-3.39
X6.09Y-3.46
X6.15Y-3.33
X6.18Y-3.39
X6.18Y-3.46
X6.18Y-4.
X6.22Y-3.1
X6.24Y-3.33
X6.24Y-4.
X6.3Y-4.
X6.34Y-3.22
X6.48Y-3.28
X6.48Y-3.35
X6.48Y-3.42
X6.51Y-3.16
X6.59Y-3.16
X6.67Y-3.16
X6.69Y-3.28
X6.69Y-3.35
X6.69Y-3.42
T2
X6.5603Y-2.9
X6.5836Y-2.8436
X6.5836Y-2.9564
X6.64Y-2.8203
X6.64Y-2.9797
X6.6964Y-2.8436
X6.6964Y-2.9564
X6.7197Y-2.9
X6.5603Y-4.28
X6.5836Y-4.2236
X6.5836Y-4.3364
X6.64Y-4.2003
X6.64Y-4.3597
X6.6964Y-4.2236
X6.6964Y-4.3364
X6.7197Y-4.28
X4.9603Y-2.9
X4.9836Y-2.8436
X4.9836Y-2.9564
X5.04Y-2.8203
X5.04Y-2.9797
X5.0964Y-2.8436
X5.0964Y-2.9564
X5.1197Y-2.9
X4.9603Y-4.28
X4.9836Y-4.2236
X4.9836Y-4.3364
X5.04Y-4.2003
X5.04Y-4.3597
X5.0964Y-4.2236
X5.0964Y-4.3364
X5.1197Y-4.28
T3
X5.41Y-3.865
X5.41Y-3.93
X5.41Y-4.
T4
X5.94Y-2.98
X6.1321Y-2.98
T5
X5.09Y-3.28
X5.09Y-3.38
X5.09Y-3.48
X5.09Y-3.58
X5.09Y-3.68
X5.09Y-3.78
X5.09Y-3.88
X5.09Y-3.98
X6.59Y-3.28
X6.59Y-3.38
X6.59Y-3.48
X6.59Y-3.58
X6.59Y-3.68
X6.59Y-3.78
X6.59Y-3.88
X6.59Y-3.98
X5.765Y-4.08
X5.765Y-4.18
X5.865Y-4.08
X5.865Y-4.18
X5.965Y-4.08
X5.965Y-4.18
T6
X5.04Y-4.28
X6.64Y-2.9
X6.64Y-4.28
X5.04Y-2.9
T0
M30
