G04 #@! TF.GenerationSoftware,KiCad,Pcbnew,(5.0.2)-1*
G04 #@! TF.CreationDate,2019-01-09T15:37:51+01:00*
G04 #@! TF.ProjectId,ATtiny44_DevBoard,41547469-6e79-4343-945f-446576426f61,rev?*
G04 #@! TF.SameCoordinates,Original*
G04 #@! TF.FileFunction,Copper,L1,Top*
G04 #@! TF.FilePolarity,Positive*
%FSLAX46Y46*%
G04 Gerber Fmt 4.6, Leading zero omitted, Abs format (unit mm)*
G04 Created by KiCad (PCBNEW (5.0.2)-1) date 09/01/2019 15:37:51*
%MOMM*%
%LPD*%
G01*
G04 APERTURE LIST*
G04 #@! TA.AperFunction,Conductor*
%ADD10C,0.100000*%
G04 #@! TD*
G04 #@! TA.AperFunction,SMDPad,CuDef*
%ADD11C,1.425000*%
G04 #@! TD*
G04 #@! TA.AperFunction,ComponentPad*
%ADD12O,1.700000X1.700000*%
G04 #@! TD*
G04 #@! TA.AperFunction,ComponentPad*
%ADD13R,1.700000X1.700000*%
G04 #@! TD*
G04 #@! TA.AperFunction,SMDPad,CuDef*
%ADD14R,1.500000X0.600000*%
G04 #@! TD*
G04 #@! TA.AperFunction,SMDPad,CuDef*
%ADD15R,3.325000X2.400000*%
G04 #@! TD*
G04 #@! TA.AperFunction,ComponentPad*
%ADD16C,5.400000*%
G04 #@! TD*
G04 #@! TA.AperFunction,ViaPad*
%ADD17C,0.762000*%
G04 #@! TD*
G04 #@! TA.AperFunction,ViaPad*
%ADD18C,0.889000*%
G04 #@! TD*
G04 #@! TA.AperFunction,Conductor*
%ADD19C,0.508000*%
G04 #@! TD*
G04 #@! TA.AperFunction,Conductor*
%ADD20C,0.254000*%
G04 #@! TD*
G04 APERTURE END LIST*
D10*
G04 #@! TO.N,VCC*
G04 #@! TO.C,C1*
G36*
X144414504Y-84216204D02*
X144438773Y-84219804D01*
X144462571Y-84225765D01*
X144485671Y-84234030D01*
X144507849Y-84244520D01*
X144528893Y-84257133D01*
X144548598Y-84271747D01*
X144566777Y-84288223D01*
X144583253Y-84306402D01*
X144597867Y-84326107D01*
X144610480Y-84347151D01*
X144620970Y-84369329D01*
X144629235Y-84392429D01*
X144635196Y-84416227D01*
X144638796Y-84440496D01*
X144640000Y-84465000D01*
X144640000Y-85715000D01*
X144638796Y-85739504D01*
X144635196Y-85763773D01*
X144629235Y-85787571D01*
X144620970Y-85810671D01*
X144610480Y-85832849D01*
X144597867Y-85853893D01*
X144583253Y-85873598D01*
X144566777Y-85891777D01*
X144548598Y-85908253D01*
X144528893Y-85922867D01*
X144507849Y-85935480D01*
X144485671Y-85945970D01*
X144462571Y-85954235D01*
X144438773Y-85960196D01*
X144414504Y-85963796D01*
X144390000Y-85965000D01*
X143465000Y-85965000D01*
X143440496Y-85963796D01*
X143416227Y-85960196D01*
X143392429Y-85954235D01*
X143369329Y-85945970D01*
X143347151Y-85935480D01*
X143326107Y-85922867D01*
X143306402Y-85908253D01*
X143288223Y-85891777D01*
X143271747Y-85873598D01*
X143257133Y-85853893D01*
X143244520Y-85832849D01*
X143234030Y-85810671D01*
X143225765Y-85787571D01*
X143219804Y-85763773D01*
X143216204Y-85739504D01*
X143215000Y-85715000D01*
X143215000Y-84465000D01*
X143216204Y-84440496D01*
X143219804Y-84416227D01*
X143225765Y-84392429D01*
X143234030Y-84369329D01*
X143244520Y-84347151D01*
X143257133Y-84326107D01*
X143271747Y-84306402D01*
X143288223Y-84288223D01*
X143306402Y-84271747D01*
X143326107Y-84257133D01*
X143347151Y-84244520D01*
X143369329Y-84234030D01*
X143392429Y-84225765D01*
X143416227Y-84219804D01*
X143440496Y-84216204D01*
X143465000Y-84215000D01*
X144390000Y-84215000D01*
X144414504Y-84216204D01*
X144414504Y-84216204D01*
G37*
D11*
G04 #@! TD*
G04 #@! TO.P,C1,1*
G04 #@! TO.N,VCC*
X143927500Y-85090000D03*
D10*
G04 #@! TO.N,GND*
G04 #@! TO.C,C1*
G36*
X147389504Y-84216204D02*
X147413773Y-84219804D01*
X147437571Y-84225765D01*
X147460671Y-84234030D01*
X147482849Y-84244520D01*
X147503893Y-84257133D01*
X147523598Y-84271747D01*
X147541777Y-84288223D01*
X147558253Y-84306402D01*
X147572867Y-84326107D01*
X147585480Y-84347151D01*
X147595970Y-84369329D01*
X147604235Y-84392429D01*
X147610196Y-84416227D01*
X147613796Y-84440496D01*
X147615000Y-84465000D01*
X147615000Y-85715000D01*
X147613796Y-85739504D01*
X147610196Y-85763773D01*
X147604235Y-85787571D01*
X147595970Y-85810671D01*
X147585480Y-85832849D01*
X147572867Y-85853893D01*
X147558253Y-85873598D01*
X147541777Y-85891777D01*
X147523598Y-85908253D01*
X147503893Y-85922867D01*
X147482849Y-85935480D01*
X147460671Y-85945970D01*
X147437571Y-85954235D01*
X147413773Y-85960196D01*
X147389504Y-85963796D01*
X147365000Y-85965000D01*
X146440000Y-85965000D01*
X146415496Y-85963796D01*
X146391227Y-85960196D01*
X146367429Y-85954235D01*
X146344329Y-85945970D01*
X146322151Y-85935480D01*
X146301107Y-85922867D01*
X146281402Y-85908253D01*
X146263223Y-85891777D01*
X146246747Y-85873598D01*
X146232133Y-85853893D01*
X146219520Y-85832849D01*
X146209030Y-85810671D01*
X146200765Y-85787571D01*
X146194804Y-85763773D01*
X146191204Y-85739504D01*
X146190000Y-85715000D01*
X146190000Y-84465000D01*
X146191204Y-84440496D01*
X146194804Y-84416227D01*
X146200765Y-84392429D01*
X146209030Y-84369329D01*
X146219520Y-84347151D01*
X146232133Y-84326107D01*
X146246747Y-84306402D01*
X146263223Y-84288223D01*
X146281402Y-84271747D01*
X146301107Y-84257133D01*
X146322151Y-84244520D01*
X146344329Y-84234030D01*
X146367429Y-84225765D01*
X146391227Y-84219804D01*
X146415496Y-84216204D01*
X146440000Y-84215000D01*
X147365000Y-84215000D01*
X147389504Y-84216204D01*
X147389504Y-84216204D01*
G37*
D11*
G04 #@! TD*
G04 #@! TO.P,C1,2*
G04 #@! TO.N,GND*
X146902500Y-85090000D03*
D10*
G04 #@! TO.N,GND*
G04 #@! TO.C,C2*
G36*
X149240504Y-81168204D02*
X149264773Y-81171804D01*
X149288571Y-81177765D01*
X149311671Y-81186030D01*
X149333849Y-81196520D01*
X149354893Y-81209133D01*
X149374598Y-81223747D01*
X149392777Y-81240223D01*
X149409253Y-81258402D01*
X149423867Y-81278107D01*
X149436480Y-81299151D01*
X149446970Y-81321329D01*
X149455235Y-81344429D01*
X149461196Y-81368227D01*
X149464796Y-81392496D01*
X149466000Y-81417000D01*
X149466000Y-82667000D01*
X149464796Y-82691504D01*
X149461196Y-82715773D01*
X149455235Y-82739571D01*
X149446970Y-82762671D01*
X149436480Y-82784849D01*
X149423867Y-82805893D01*
X149409253Y-82825598D01*
X149392777Y-82843777D01*
X149374598Y-82860253D01*
X149354893Y-82874867D01*
X149333849Y-82887480D01*
X149311671Y-82897970D01*
X149288571Y-82906235D01*
X149264773Y-82912196D01*
X149240504Y-82915796D01*
X149216000Y-82917000D01*
X148291000Y-82917000D01*
X148266496Y-82915796D01*
X148242227Y-82912196D01*
X148218429Y-82906235D01*
X148195329Y-82897970D01*
X148173151Y-82887480D01*
X148152107Y-82874867D01*
X148132402Y-82860253D01*
X148114223Y-82843777D01*
X148097747Y-82825598D01*
X148083133Y-82805893D01*
X148070520Y-82784849D01*
X148060030Y-82762671D01*
X148051765Y-82739571D01*
X148045804Y-82715773D01*
X148042204Y-82691504D01*
X148041000Y-82667000D01*
X148041000Y-81417000D01*
X148042204Y-81392496D01*
X148045804Y-81368227D01*
X148051765Y-81344429D01*
X148060030Y-81321329D01*
X148070520Y-81299151D01*
X148083133Y-81278107D01*
X148097747Y-81258402D01*
X148114223Y-81240223D01*
X148132402Y-81223747D01*
X148152107Y-81209133D01*
X148173151Y-81196520D01*
X148195329Y-81186030D01*
X148218429Y-81177765D01*
X148242227Y-81171804D01*
X148266496Y-81168204D01*
X148291000Y-81167000D01*
X149216000Y-81167000D01*
X149240504Y-81168204D01*
X149240504Y-81168204D01*
G37*
D11*
G04 #@! TD*
G04 #@! TO.P,C2,2*
G04 #@! TO.N,GND*
X148753500Y-82042000D03*
D10*
G04 #@! TO.N,/XTAL1*
G04 #@! TO.C,C2*
G36*
X152215504Y-81168204D02*
X152239773Y-81171804D01*
X152263571Y-81177765D01*
X152286671Y-81186030D01*
X152308849Y-81196520D01*
X152329893Y-81209133D01*
X152349598Y-81223747D01*
X152367777Y-81240223D01*
X152384253Y-81258402D01*
X152398867Y-81278107D01*
X152411480Y-81299151D01*
X152421970Y-81321329D01*
X152430235Y-81344429D01*
X152436196Y-81368227D01*
X152439796Y-81392496D01*
X152441000Y-81417000D01*
X152441000Y-82667000D01*
X152439796Y-82691504D01*
X152436196Y-82715773D01*
X152430235Y-82739571D01*
X152421970Y-82762671D01*
X152411480Y-82784849D01*
X152398867Y-82805893D01*
X152384253Y-82825598D01*
X152367777Y-82843777D01*
X152349598Y-82860253D01*
X152329893Y-82874867D01*
X152308849Y-82887480D01*
X152286671Y-82897970D01*
X152263571Y-82906235D01*
X152239773Y-82912196D01*
X152215504Y-82915796D01*
X152191000Y-82917000D01*
X151266000Y-82917000D01*
X151241496Y-82915796D01*
X151217227Y-82912196D01*
X151193429Y-82906235D01*
X151170329Y-82897970D01*
X151148151Y-82887480D01*
X151127107Y-82874867D01*
X151107402Y-82860253D01*
X151089223Y-82843777D01*
X151072747Y-82825598D01*
X151058133Y-82805893D01*
X151045520Y-82784849D01*
X151035030Y-82762671D01*
X151026765Y-82739571D01*
X151020804Y-82715773D01*
X151017204Y-82691504D01*
X151016000Y-82667000D01*
X151016000Y-81417000D01*
X151017204Y-81392496D01*
X151020804Y-81368227D01*
X151026765Y-81344429D01*
X151035030Y-81321329D01*
X151045520Y-81299151D01*
X151058133Y-81278107D01*
X151072747Y-81258402D01*
X151089223Y-81240223D01*
X151107402Y-81223747D01*
X151127107Y-81209133D01*
X151148151Y-81196520D01*
X151170329Y-81186030D01*
X151193429Y-81177765D01*
X151217227Y-81171804D01*
X151241496Y-81168204D01*
X151266000Y-81167000D01*
X152191000Y-81167000D01*
X152215504Y-81168204D01*
X152215504Y-81168204D01*
G37*
D11*
G04 #@! TD*
G04 #@! TO.P,C2,1*
G04 #@! TO.N,/XTAL1*
X151728500Y-82042000D03*
D10*
G04 #@! TO.N,/XTAL2*
G04 #@! TO.C,C3*
G36*
X155590504Y-81168204D02*
X155614773Y-81171804D01*
X155638571Y-81177765D01*
X155661671Y-81186030D01*
X155683849Y-81196520D01*
X155704893Y-81209133D01*
X155724598Y-81223747D01*
X155742777Y-81240223D01*
X155759253Y-81258402D01*
X155773867Y-81278107D01*
X155786480Y-81299151D01*
X155796970Y-81321329D01*
X155805235Y-81344429D01*
X155811196Y-81368227D01*
X155814796Y-81392496D01*
X155816000Y-81417000D01*
X155816000Y-82667000D01*
X155814796Y-82691504D01*
X155811196Y-82715773D01*
X155805235Y-82739571D01*
X155796970Y-82762671D01*
X155786480Y-82784849D01*
X155773867Y-82805893D01*
X155759253Y-82825598D01*
X155742777Y-82843777D01*
X155724598Y-82860253D01*
X155704893Y-82874867D01*
X155683849Y-82887480D01*
X155661671Y-82897970D01*
X155638571Y-82906235D01*
X155614773Y-82912196D01*
X155590504Y-82915796D01*
X155566000Y-82917000D01*
X154641000Y-82917000D01*
X154616496Y-82915796D01*
X154592227Y-82912196D01*
X154568429Y-82906235D01*
X154545329Y-82897970D01*
X154523151Y-82887480D01*
X154502107Y-82874867D01*
X154482402Y-82860253D01*
X154464223Y-82843777D01*
X154447747Y-82825598D01*
X154433133Y-82805893D01*
X154420520Y-82784849D01*
X154410030Y-82762671D01*
X154401765Y-82739571D01*
X154395804Y-82715773D01*
X154392204Y-82691504D01*
X154391000Y-82667000D01*
X154391000Y-81417000D01*
X154392204Y-81392496D01*
X154395804Y-81368227D01*
X154401765Y-81344429D01*
X154410030Y-81321329D01*
X154420520Y-81299151D01*
X154433133Y-81278107D01*
X154447747Y-81258402D01*
X154464223Y-81240223D01*
X154482402Y-81223747D01*
X154502107Y-81209133D01*
X154523151Y-81196520D01*
X154545329Y-81186030D01*
X154568429Y-81177765D01*
X154592227Y-81171804D01*
X154616496Y-81168204D01*
X154641000Y-81167000D01*
X155566000Y-81167000D01*
X155590504Y-81168204D01*
X155590504Y-81168204D01*
G37*
D11*
G04 #@! TD*
G04 #@! TO.P,C3,1*
G04 #@! TO.N,/XTAL2*
X155103500Y-82042000D03*
D10*
G04 #@! TO.N,GND*
G04 #@! TO.C,C3*
G36*
X158565504Y-81168204D02*
X158589773Y-81171804D01*
X158613571Y-81177765D01*
X158636671Y-81186030D01*
X158658849Y-81196520D01*
X158679893Y-81209133D01*
X158699598Y-81223747D01*
X158717777Y-81240223D01*
X158734253Y-81258402D01*
X158748867Y-81278107D01*
X158761480Y-81299151D01*
X158771970Y-81321329D01*
X158780235Y-81344429D01*
X158786196Y-81368227D01*
X158789796Y-81392496D01*
X158791000Y-81417000D01*
X158791000Y-82667000D01*
X158789796Y-82691504D01*
X158786196Y-82715773D01*
X158780235Y-82739571D01*
X158771970Y-82762671D01*
X158761480Y-82784849D01*
X158748867Y-82805893D01*
X158734253Y-82825598D01*
X158717777Y-82843777D01*
X158699598Y-82860253D01*
X158679893Y-82874867D01*
X158658849Y-82887480D01*
X158636671Y-82897970D01*
X158613571Y-82906235D01*
X158589773Y-82912196D01*
X158565504Y-82915796D01*
X158541000Y-82917000D01*
X157616000Y-82917000D01*
X157591496Y-82915796D01*
X157567227Y-82912196D01*
X157543429Y-82906235D01*
X157520329Y-82897970D01*
X157498151Y-82887480D01*
X157477107Y-82874867D01*
X157457402Y-82860253D01*
X157439223Y-82843777D01*
X157422747Y-82825598D01*
X157408133Y-82805893D01*
X157395520Y-82784849D01*
X157385030Y-82762671D01*
X157376765Y-82739571D01*
X157370804Y-82715773D01*
X157367204Y-82691504D01*
X157366000Y-82667000D01*
X157366000Y-81417000D01*
X157367204Y-81392496D01*
X157370804Y-81368227D01*
X157376765Y-81344429D01*
X157385030Y-81321329D01*
X157395520Y-81299151D01*
X157408133Y-81278107D01*
X157422747Y-81258402D01*
X157439223Y-81240223D01*
X157457402Y-81223747D01*
X157477107Y-81209133D01*
X157498151Y-81196520D01*
X157520329Y-81186030D01*
X157543429Y-81177765D01*
X157567227Y-81171804D01*
X157591496Y-81168204D01*
X157616000Y-81167000D01*
X158541000Y-81167000D01*
X158565504Y-81168204D01*
X158565504Y-81168204D01*
G37*
D11*
G04 #@! TD*
G04 #@! TO.P,C3,2*
G04 #@! TO.N,GND*
X158078500Y-82042000D03*
D10*
G04 #@! TO.N,GND*
G04 #@! TO.C,C4*
G36*
X140984504Y-81621204D02*
X141008773Y-81624804D01*
X141032571Y-81630765D01*
X141055671Y-81639030D01*
X141077849Y-81649520D01*
X141098893Y-81662133D01*
X141118598Y-81676747D01*
X141136777Y-81693223D01*
X141153253Y-81711402D01*
X141167867Y-81731107D01*
X141180480Y-81752151D01*
X141190970Y-81774329D01*
X141199235Y-81797429D01*
X141205196Y-81821227D01*
X141208796Y-81845496D01*
X141210000Y-81870000D01*
X141210000Y-82795000D01*
X141208796Y-82819504D01*
X141205196Y-82843773D01*
X141199235Y-82867571D01*
X141190970Y-82890671D01*
X141180480Y-82912849D01*
X141167867Y-82933893D01*
X141153253Y-82953598D01*
X141136777Y-82971777D01*
X141118598Y-82988253D01*
X141098893Y-83002867D01*
X141077849Y-83015480D01*
X141055671Y-83025970D01*
X141032571Y-83034235D01*
X141008773Y-83040196D01*
X140984504Y-83043796D01*
X140960000Y-83045000D01*
X139710000Y-83045000D01*
X139685496Y-83043796D01*
X139661227Y-83040196D01*
X139637429Y-83034235D01*
X139614329Y-83025970D01*
X139592151Y-83015480D01*
X139571107Y-83002867D01*
X139551402Y-82988253D01*
X139533223Y-82971777D01*
X139516747Y-82953598D01*
X139502133Y-82933893D01*
X139489520Y-82912849D01*
X139479030Y-82890671D01*
X139470765Y-82867571D01*
X139464804Y-82843773D01*
X139461204Y-82819504D01*
X139460000Y-82795000D01*
X139460000Y-81870000D01*
X139461204Y-81845496D01*
X139464804Y-81821227D01*
X139470765Y-81797429D01*
X139479030Y-81774329D01*
X139489520Y-81752151D01*
X139502133Y-81731107D01*
X139516747Y-81711402D01*
X139533223Y-81693223D01*
X139551402Y-81676747D01*
X139571107Y-81662133D01*
X139592151Y-81649520D01*
X139614329Y-81639030D01*
X139637429Y-81630765D01*
X139661227Y-81624804D01*
X139685496Y-81621204D01*
X139710000Y-81620000D01*
X140960000Y-81620000D01*
X140984504Y-81621204D01*
X140984504Y-81621204D01*
G37*
D11*
G04 #@! TD*
G04 #@! TO.P,C4,2*
G04 #@! TO.N,GND*
X140335000Y-82332500D03*
D10*
G04 #@! TO.N,VCC*
G04 #@! TO.C,C4*
G36*
X140984504Y-84596204D02*
X141008773Y-84599804D01*
X141032571Y-84605765D01*
X141055671Y-84614030D01*
X141077849Y-84624520D01*
X141098893Y-84637133D01*
X141118598Y-84651747D01*
X141136777Y-84668223D01*
X141153253Y-84686402D01*
X141167867Y-84706107D01*
X141180480Y-84727151D01*
X141190970Y-84749329D01*
X141199235Y-84772429D01*
X141205196Y-84796227D01*
X141208796Y-84820496D01*
X141210000Y-84845000D01*
X141210000Y-85770000D01*
X141208796Y-85794504D01*
X141205196Y-85818773D01*
X141199235Y-85842571D01*
X141190970Y-85865671D01*
X141180480Y-85887849D01*
X141167867Y-85908893D01*
X141153253Y-85928598D01*
X141136777Y-85946777D01*
X141118598Y-85963253D01*
X141098893Y-85977867D01*
X141077849Y-85990480D01*
X141055671Y-86000970D01*
X141032571Y-86009235D01*
X141008773Y-86015196D01*
X140984504Y-86018796D01*
X140960000Y-86020000D01*
X139710000Y-86020000D01*
X139685496Y-86018796D01*
X139661227Y-86015196D01*
X139637429Y-86009235D01*
X139614329Y-86000970D01*
X139592151Y-85990480D01*
X139571107Y-85977867D01*
X139551402Y-85963253D01*
X139533223Y-85946777D01*
X139516747Y-85928598D01*
X139502133Y-85908893D01*
X139489520Y-85887849D01*
X139479030Y-85865671D01*
X139470765Y-85842571D01*
X139464804Y-85818773D01*
X139461204Y-85794504D01*
X139460000Y-85770000D01*
X139460000Y-84845000D01*
X139461204Y-84820496D01*
X139464804Y-84796227D01*
X139470765Y-84772429D01*
X139479030Y-84749329D01*
X139489520Y-84727151D01*
X139502133Y-84706107D01*
X139516747Y-84686402D01*
X139533223Y-84668223D01*
X139551402Y-84651747D01*
X139571107Y-84637133D01*
X139592151Y-84624520D01*
X139614329Y-84614030D01*
X139637429Y-84605765D01*
X139661227Y-84599804D01*
X139685496Y-84596204D01*
X139710000Y-84595000D01*
X140960000Y-84595000D01*
X140984504Y-84596204D01*
X140984504Y-84596204D01*
G37*
D11*
G04 #@! TD*
G04 #@! TO.P,C4,1*
G04 #@! TO.N,VCC*
X140335000Y-85307500D03*
D10*
G04 #@! TO.N,GND*
G04 #@! TO.C,D1*
G36*
X159145504Y-103465204D02*
X159169773Y-103468804D01*
X159193571Y-103474765D01*
X159216671Y-103483030D01*
X159238849Y-103493520D01*
X159259893Y-103506133D01*
X159279598Y-103520747D01*
X159297777Y-103537223D01*
X159314253Y-103555402D01*
X159328867Y-103575107D01*
X159341480Y-103596151D01*
X159351970Y-103618329D01*
X159360235Y-103641429D01*
X159366196Y-103665227D01*
X159369796Y-103689496D01*
X159371000Y-103714000D01*
X159371000Y-104639000D01*
X159369796Y-104663504D01*
X159366196Y-104687773D01*
X159360235Y-104711571D01*
X159351970Y-104734671D01*
X159341480Y-104756849D01*
X159328867Y-104777893D01*
X159314253Y-104797598D01*
X159297777Y-104815777D01*
X159279598Y-104832253D01*
X159259893Y-104846867D01*
X159238849Y-104859480D01*
X159216671Y-104869970D01*
X159193571Y-104878235D01*
X159169773Y-104884196D01*
X159145504Y-104887796D01*
X159121000Y-104889000D01*
X157871000Y-104889000D01*
X157846496Y-104887796D01*
X157822227Y-104884196D01*
X157798429Y-104878235D01*
X157775329Y-104869970D01*
X157753151Y-104859480D01*
X157732107Y-104846867D01*
X157712402Y-104832253D01*
X157694223Y-104815777D01*
X157677747Y-104797598D01*
X157663133Y-104777893D01*
X157650520Y-104756849D01*
X157640030Y-104734671D01*
X157631765Y-104711571D01*
X157625804Y-104687773D01*
X157622204Y-104663504D01*
X157621000Y-104639000D01*
X157621000Y-103714000D01*
X157622204Y-103689496D01*
X157625804Y-103665227D01*
X157631765Y-103641429D01*
X157640030Y-103618329D01*
X157650520Y-103596151D01*
X157663133Y-103575107D01*
X157677747Y-103555402D01*
X157694223Y-103537223D01*
X157712402Y-103520747D01*
X157732107Y-103506133D01*
X157753151Y-103493520D01*
X157775329Y-103483030D01*
X157798429Y-103474765D01*
X157822227Y-103468804D01*
X157846496Y-103465204D01*
X157871000Y-103464000D01*
X159121000Y-103464000D01*
X159145504Y-103465204D01*
X159145504Y-103465204D01*
G37*
D11*
G04 #@! TD*
G04 #@! TO.P,D1,1*
G04 #@! TO.N,GND*
X158496000Y-104176500D03*
D10*
G04 #@! TO.N,Net-(D1-Pad2)*
G04 #@! TO.C,D1*
G36*
X159145504Y-106440204D02*
X159169773Y-106443804D01*
X159193571Y-106449765D01*
X159216671Y-106458030D01*
X159238849Y-106468520D01*
X159259893Y-106481133D01*
X159279598Y-106495747D01*
X159297777Y-106512223D01*
X159314253Y-106530402D01*
X159328867Y-106550107D01*
X159341480Y-106571151D01*
X159351970Y-106593329D01*
X159360235Y-106616429D01*
X159366196Y-106640227D01*
X159369796Y-106664496D01*
X159371000Y-106689000D01*
X159371000Y-107614000D01*
X159369796Y-107638504D01*
X159366196Y-107662773D01*
X159360235Y-107686571D01*
X159351970Y-107709671D01*
X159341480Y-107731849D01*
X159328867Y-107752893D01*
X159314253Y-107772598D01*
X159297777Y-107790777D01*
X159279598Y-107807253D01*
X159259893Y-107821867D01*
X159238849Y-107834480D01*
X159216671Y-107844970D01*
X159193571Y-107853235D01*
X159169773Y-107859196D01*
X159145504Y-107862796D01*
X159121000Y-107864000D01*
X157871000Y-107864000D01*
X157846496Y-107862796D01*
X157822227Y-107859196D01*
X157798429Y-107853235D01*
X157775329Y-107844970D01*
X157753151Y-107834480D01*
X157732107Y-107821867D01*
X157712402Y-107807253D01*
X157694223Y-107790777D01*
X157677747Y-107772598D01*
X157663133Y-107752893D01*
X157650520Y-107731849D01*
X157640030Y-107709671D01*
X157631765Y-107686571D01*
X157625804Y-107662773D01*
X157622204Y-107638504D01*
X157621000Y-107614000D01*
X157621000Y-106689000D01*
X157622204Y-106664496D01*
X157625804Y-106640227D01*
X157631765Y-106616429D01*
X157640030Y-106593329D01*
X157650520Y-106571151D01*
X157663133Y-106550107D01*
X157677747Y-106530402D01*
X157694223Y-106512223D01*
X157712402Y-106495747D01*
X157732107Y-106481133D01*
X157753151Y-106468520D01*
X157775329Y-106458030D01*
X157798429Y-106449765D01*
X157822227Y-106443804D01*
X157846496Y-106440204D01*
X157871000Y-106439000D01*
X159121000Y-106439000D01*
X159145504Y-106440204D01*
X159145504Y-106440204D01*
G37*
D11*
G04 #@! TD*
G04 #@! TO.P,D1,2*
G04 #@! TO.N,Net-(D1-Pad2)*
X158496000Y-107151500D03*
D12*
G04 #@! TO.P,J1,8*
G04 #@! TO.N,/MOSI*
X129286000Y-101092000D03*
G04 #@! TO.P,J1,7*
G04 #@! TO.N,/PA7*
X129286000Y-98552000D03*
G04 #@! TO.P,J1,6*
G04 #@! TO.N,/PB2*
X129286000Y-96012000D03*
G04 #@! TO.P,J1,5*
G04 #@! TO.N,/~RESET*
X129286000Y-93472000D03*
G04 #@! TO.P,J1,4*
G04 #@! TO.N,/XTAL2*
X129286000Y-90932000D03*
G04 #@! TO.P,J1,3*
G04 #@! TO.N,/XTAL1*
X129286000Y-88392000D03*
G04 #@! TO.P,J1,2*
G04 #@! TO.N,VCC*
X129286000Y-85852000D03*
D13*
G04 #@! TO.P,J1,1*
X129286000Y-83312000D03*
G04 #@! TD*
G04 #@! TO.P,J2,1*
G04 #@! TO.N,/MISO*
X151511000Y-103632000D03*
D12*
G04 #@! TO.P,J2,2*
G04 #@! TO.N,VCC*
X151511000Y-106172000D03*
G04 #@! TO.P,J2,3*
G04 #@! TO.N,/USCK*
X148971000Y-103632000D03*
G04 #@! TO.P,J2,4*
G04 #@! TO.N,/MOSI*
X148971000Y-106172000D03*
G04 #@! TO.P,J2,5*
G04 #@! TO.N,/~RESET*
X146431000Y-103632000D03*
G04 #@! TO.P,J2,6*
G04 #@! TO.N,GND*
X146431000Y-106172000D03*
G04 #@! TD*
D13*
G04 #@! TO.P,J3,1*
G04 #@! TO.N,GND*
X167386000Y-83312000D03*
D12*
G04 #@! TO.P,J3,2*
X167386000Y-85852000D03*
G04 #@! TO.P,J3,3*
G04 #@! TO.N,/PA0*
X167386000Y-88392000D03*
G04 #@! TO.P,J3,4*
G04 #@! TO.N,/PA1*
X167386000Y-90932000D03*
G04 #@! TO.P,J3,5*
G04 #@! TO.N,/PA2*
X167386000Y-93472000D03*
G04 #@! TO.P,J3,6*
G04 #@! TO.N,/PA3*
X167386000Y-96012000D03*
G04 #@! TO.P,J3,7*
G04 #@! TO.N,/USCK*
X167386000Y-98552000D03*
G04 #@! TO.P,J3,8*
G04 #@! TO.N,/MISO*
X167386000Y-101092000D03*
G04 #@! TD*
D10*
G04 #@! TO.N,Net-(D1-Pad2)*
G04 #@! TO.C,R1*
G36*
X163971504Y-106948204D02*
X163995773Y-106951804D01*
X164019571Y-106957765D01*
X164042671Y-106966030D01*
X164064849Y-106976520D01*
X164085893Y-106989133D01*
X164105598Y-107003747D01*
X164123777Y-107020223D01*
X164140253Y-107038402D01*
X164154867Y-107058107D01*
X164167480Y-107079151D01*
X164177970Y-107101329D01*
X164186235Y-107124429D01*
X164192196Y-107148227D01*
X164195796Y-107172496D01*
X164197000Y-107197000D01*
X164197000Y-108122000D01*
X164195796Y-108146504D01*
X164192196Y-108170773D01*
X164186235Y-108194571D01*
X164177970Y-108217671D01*
X164167480Y-108239849D01*
X164154867Y-108260893D01*
X164140253Y-108280598D01*
X164123777Y-108298777D01*
X164105598Y-108315253D01*
X164085893Y-108329867D01*
X164064849Y-108342480D01*
X164042671Y-108352970D01*
X164019571Y-108361235D01*
X163995773Y-108367196D01*
X163971504Y-108370796D01*
X163947000Y-108372000D01*
X162697000Y-108372000D01*
X162672496Y-108370796D01*
X162648227Y-108367196D01*
X162624429Y-108361235D01*
X162601329Y-108352970D01*
X162579151Y-108342480D01*
X162558107Y-108329867D01*
X162538402Y-108315253D01*
X162520223Y-108298777D01*
X162503747Y-108280598D01*
X162489133Y-108260893D01*
X162476520Y-108239849D01*
X162466030Y-108217671D01*
X162457765Y-108194571D01*
X162451804Y-108170773D01*
X162448204Y-108146504D01*
X162447000Y-108122000D01*
X162447000Y-107197000D01*
X162448204Y-107172496D01*
X162451804Y-107148227D01*
X162457765Y-107124429D01*
X162466030Y-107101329D01*
X162476520Y-107079151D01*
X162489133Y-107058107D01*
X162503747Y-107038402D01*
X162520223Y-107020223D01*
X162538402Y-107003747D01*
X162558107Y-106989133D01*
X162579151Y-106976520D01*
X162601329Y-106966030D01*
X162624429Y-106957765D01*
X162648227Y-106951804D01*
X162672496Y-106948204D01*
X162697000Y-106947000D01*
X163947000Y-106947000D01*
X163971504Y-106948204D01*
X163971504Y-106948204D01*
G37*
D11*
G04 #@! TD*
G04 #@! TO.P,R1,2*
G04 #@! TO.N,Net-(D1-Pad2)*
X163322000Y-107659500D03*
D10*
G04 #@! TO.N,/USCK*
G04 #@! TO.C,R1*
G36*
X163971504Y-103973204D02*
X163995773Y-103976804D01*
X164019571Y-103982765D01*
X164042671Y-103991030D01*
X164064849Y-104001520D01*
X164085893Y-104014133D01*
X164105598Y-104028747D01*
X164123777Y-104045223D01*
X164140253Y-104063402D01*
X164154867Y-104083107D01*
X164167480Y-104104151D01*
X164177970Y-104126329D01*
X164186235Y-104149429D01*
X164192196Y-104173227D01*
X164195796Y-104197496D01*
X164197000Y-104222000D01*
X164197000Y-105147000D01*
X164195796Y-105171504D01*
X164192196Y-105195773D01*
X164186235Y-105219571D01*
X164177970Y-105242671D01*
X164167480Y-105264849D01*
X164154867Y-105285893D01*
X164140253Y-105305598D01*
X164123777Y-105323777D01*
X164105598Y-105340253D01*
X164085893Y-105354867D01*
X164064849Y-105367480D01*
X164042671Y-105377970D01*
X164019571Y-105386235D01*
X163995773Y-105392196D01*
X163971504Y-105395796D01*
X163947000Y-105397000D01*
X162697000Y-105397000D01*
X162672496Y-105395796D01*
X162648227Y-105392196D01*
X162624429Y-105386235D01*
X162601329Y-105377970D01*
X162579151Y-105367480D01*
X162558107Y-105354867D01*
X162538402Y-105340253D01*
X162520223Y-105323777D01*
X162503747Y-105305598D01*
X162489133Y-105285893D01*
X162476520Y-105264849D01*
X162466030Y-105242671D01*
X162457765Y-105219571D01*
X162451804Y-105195773D01*
X162448204Y-105171504D01*
X162447000Y-105147000D01*
X162447000Y-104222000D01*
X162448204Y-104197496D01*
X162451804Y-104173227D01*
X162457765Y-104149429D01*
X162466030Y-104126329D01*
X162476520Y-104104151D01*
X162489133Y-104083107D01*
X162503747Y-104063402D01*
X162520223Y-104045223D01*
X162538402Y-104028747D01*
X162558107Y-104014133D01*
X162579151Y-104001520D01*
X162601329Y-103991030D01*
X162624429Y-103982765D01*
X162648227Y-103976804D01*
X162672496Y-103973204D01*
X162697000Y-103972000D01*
X163947000Y-103972000D01*
X163971504Y-103973204D01*
X163971504Y-103973204D01*
G37*
D11*
G04 #@! TD*
G04 #@! TO.P,R1,1*
G04 #@! TO.N,/USCK*
X163322000Y-104684500D03*
D10*
G04 #@! TO.N,VCC*
G04 #@! TO.C,R2*
G36*
X142381504Y-106948204D02*
X142405773Y-106951804D01*
X142429571Y-106957765D01*
X142452671Y-106966030D01*
X142474849Y-106976520D01*
X142495893Y-106989133D01*
X142515598Y-107003747D01*
X142533777Y-107020223D01*
X142550253Y-107038402D01*
X142564867Y-107058107D01*
X142577480Y-107079151D01*
X142587970Y-107101329D01*
X142596235Y-107124429D01*
X142602196Y-107148227D01*
X142605796Y-107172496D01*
X142607000Y-107197000D01*
X142607000Y-108122000D01*
X142605796Y-108146504D01*
X142602196Y-108170773D01*
X142596235Y-108194571D01*
X142587970Y-108217671D01*
X142577480Y-108239849D01*
X142564867Y-108260893D01*
X142550253Y-108280598D01*
X142533777Y-108298777D01*
X142515598Y-108315253D01*
X142495893Y-108329867D01*
X142474849Y-108342480D01*
X142452671Y-108352970D01*
X142429571Y-108361235D01*
X142405773Y-108367196D01*
X142381504Y-108370796D01*
X142357000Y-108372000D01*
X141107000Y-108372000D01*
X141082496Y-108370796D01*
X141058227Y-108367196D01*
X141034429Y-108361235D01*
X141011329Y-108352970D01*
X140989151Y-108342480D01*
X140968107Y-108329867D01*
X140948402Y-108315253D01*
X140930223Y-108298777D01*
X140913747Y-108280598D01*
X140899133Y-108260893D01*
X140886520Y-108239849D01*
X140876030Y-108217671D01*
X140867765Y-108194571D01*
X140861804Y-108170773D01*
X140858204Y-108146504D01*
X140857000Y-108122000D01*
X140857000Y-107197000D01*
X140858204Y-107172496D01*
X140861804Y-107148227D01*
X140867765Y-107124429D01*
X140876030Y-107101329D01*
X140886520Y-107079151D01*
X140899133Y-107058107D01*
X140913747Y-107038402D01*
X140930223Y-107020223D01*
X140948402Y-107003747D01*
X140968107Y-106989133D01*
X140989151Y-106976520D01*
X141011329Y-106966030D01*
X141034429Y-106957765D01*
X141058227Y-106951804D01*
X141082496Y-106948204D01*
X141107000Y-106947000D01*
X142357000Y-106947000D01*
X142381504Y-106948204D01*
X142381504Y-106948204D01*
G37*
D11*
G04 #@! TD*
G04 #@! TO.P,R2,1*
G04 #@! TO.N,VCC*
X141732000Y-107659500D03*
D10*
G04 #@! TO.N,/~RESET*
G04 #@! TO.C,R2*
G36*
X142381504Y-103973204D02*
X142405773Y-103976804D01*
X142429571Y-103982765D01*
X142452671Y-103991030D01*
X142474849Y-104001520D01*
X142495893Y-104014133D01*
X142515598Y-104028747D01*
X142533777Y-104045223D01*
X142550253Y-104063402D01*
X142564867Y-104083107D01*
X142577480Y-104104151D01*
X142587970Y-104126329D01*
X142596235Y-104149429D01*
X142602196Y-104173227D01*
X142605796Y-104197496D01*
X142607000Y-104222000D01*
X142607000Y-105147000D01*
X142605796Y-105171504D01*
X142602196Y-105195773D01*
X142596235Y-105219571D01*
X142587970Y-105242671D01*
X142577480Y-105264849D01*
X142564867Y-105285893D01*
X142550253Y-105305598D01*
X142533777Y-105323777D01*
X142515598Y-105340253D01*
X142495893Y-105354867D01*
X142474849Y-105367480D01*
X142452671Y-105377970D01*
X142429571Y-105386235D01*
X142405773Y-105392196D01*
X142381504Y-105395796D01*
X142357000Y-105397000D01*
X141107000Y-105397000D01*
X141082496Y-105395796D01*
X141058227Y-105392196D01*
X141034429Y-105386235D01*
X141011329Y-105377970D01*
X140989151Y-105367480D01*
X140968107Y-105354867D01*
X140948402Y-105340253D01*
X140930223Y-105323777D01*
X140913747Y-105305598D01*
X140899133Y-105285893D01*
X140886520Y-105264849D01*
X140876030Y-105242671D01*
X140867765Y-105219571D01*
X140861804Y-105195773D01*
X140858204Y-105171504D01*
X140857000Y-105147000D01*
X140857000Y-104222000D01*
X140858204Y-104197496D01*
X140861804Y-104173227D01*
X140867765Y-104149429D01*
X140876030Y-104126329D01*
X140886520Y-104104151D01*
X140899133Y-104083107D01*
X140913747Y-104063402D01*
X140930223Y-104045223D01*
X140948402Y-104028747D01*
X140968107Y-104014133D01*
X140989151Y-104001520D01*
X141011329Y-103991030D01*
X141034429Y-103982765D01*
X141058227Y-103976804D01*
X141082496Y-103973204D01*
X141107000Y-103972000D01*
X142357000Y-103972000D01*
X142381504Y-103973204D01*
X142381504Y-103973204D01*
G37*
D11*
G04 #@! TD*
G04 #@! TO.P,R2,2*
G04 #@! TO.N,/~RESET*
X141732000Y-104684500D03*
D14*
G04 #@! TO.P,U1,1*
G04 #@! TO.N,VCC*
X146271000Y-88392000D03*
G04 #@! TO.P,U1,2*
G04 #@! TO.N,/XTAL1*
X146271000Y-89662000D03*
G04 #@! TO.P,U1,3*
G04 #@! TO.N,/XTAL2*
X146271000Y-90932000D03*
G04 #@! TO.P,U1,4*
G04 #@! TO.N,/~RESET*
X146271000Y-92202000D03*
G04 #@! TO.P,U1,5*
G04 #@! TO.N,/PB2*
X146271000Y-93472000D03*
G04 #@! TO.P,U1,6*
G04 #@! TO.N,/PA7*
X146271000Y-94742000D03*
G04 #@! TO.P,U1,7*
G04 #@! TO.N,/MOSI*
X146271000Y-96012000D03*
G04 #@! TO.P,U1,8*
G04 #@! TO.N,/MISO*
X151671000Y-96012000D03*
G04 #@! TO.P,U1,9*
G04 #@! TO.N,/USCK*
X151671000Y-94742000D03*
G04 #@! TO.P,U1,10*
G04 #@! TO.N,/PA3*
X151671000Y-93472000D03*
G04 #@! TO.P,U1,11*
G04 #@! TO.N,/PA2*
X151671000Y-92202000D03*
G04 #@! TO.P,U1,12*
G04 #@! TO.N,/PA1*
X151671000Y-90932000D03*
G04 #@! TO.P,U1,13*
G04 #@! TO.N,/PA0*
X151671000Y-89662000D03*
G04 #@! TO.P,U1,14*
G04 #@! TO.N,GND*
X151671000Y-88392000D03*
G04 #@! TD*
D10*
G04 #@! TO.N,/~RESET*
G04 #@! TO.C,C5*
G36*
X143706504Y-98948204D02*
X143730773Y-98951804D01*
X143754571Y-98957765D01*
X143777671Y-98966030D01*
X143799849Y-98976520D01*
X143820893Y-98989133D01*
X143840598Y-99003747D01*
X143858777Y-99020223D01*
X143875253Y-99038402D01*
X143889867Y-99058107D01*
X143902480Y-99079151D01*
X143912970Y-99101329D01*
X143921235Y-99124429D01*
X143927196Y-99148227D01*
X143930796Y-99172496D01*
X143932000Y-99197000D01*
X143932000Y-100447000D01*
X143930796Y-100471504D01*
X143927196Y-100495773D01*
X143921235Y-100519571D01*
X143912970Y-100542671D01*
X143902480Y-100564849D01*
X143889867Y-100585893D01*
X143875253Y-100605598D01*
X143858777Y-100623777D01*
X143840598Y-100640253D01*
X143820893Y-100654867D01*
X143799849Y-100667480D01*
X143777671Y-100677970D01*
X143754571Y-100686235D01*
X143730773Y-100692196D01*
X143706504Y-100695796D01*
X143682000Y-100697000D01*
X142757000Y-100697000D01*
X142732496Y-100695796D01*
X142708227Y-100692196D01*
X142684429Y-100686235D01*
X142661329Y-100677970D01*
X142639151Y-100667480D01*
X142618107Y-100654867D01*
X142598402Y-100640253D01*
X142580223Y-100623777D01*
X142563747Y-100605598D01*
X142549133Y-100585893D01*
X142536520Y-100564849D01*
X142526030Y-100542671D01*
X142517765Y-100519571D01*
X142511804Y-100495773D01*
X142508204Y-100471504D01*
X142507000Y-100447000D01*
X142507000Y-99197000D01*
X142508204Y-99172496D01*
X142511804Y-99148227D01*
X142517765Y-99124429D01*
X142526030Y-99101329D01*
X142536520Y-99079151D01*
X142549133Y-99058107D01*
X142563747Y-99038402D01*
X142580223Y-99020223D01*
X142598402Y-99003747D01*
X142618107Y-98989133D01*
X142639151Y-98976520D01*
X142661329Y-98966030D01*
X142684429Y-98957765D01*
X142708227Y-98951804D01*
X142732496Y-98948204D01*
X142757000Y-98947000D01*
X143682000Y-98947000D01*
X143706504Y-98948204D01*
X143706504Y-98948204D01*
G37*
D11*
G04 #@! TD*
G04 #@! TO.P,C5,1*
G04 #@! TO.N,/~RESET*
X143219500Y-99822000D03*
D10*
G04 #@! TO.N,GND*
G04 #@! TO.C,C5*
G36*
X140731504Y-98948204D02*
X140755773Y-98951804D01*
X140779571Y-98957765D01*
X140802671Y-98966030D01*
X140824849Y-98976520D01*
X140845893Y-98989133D01*
X140865598Y-99003747D01*
X140883777Y-99020223D01*
X140900253Y-99038402D01*
X140914867Y-99058107D01*
X140927480Y-99079151D01*
X140937970Y-99101329D01*
X140946235Y-99124429D01*
X140952196Y-99148227D01*
X140955796Y-99172496D01*
X140957000Y-99197000D01*
X140957000Y-100447000D01*
X140955796Y-100471504D01*
X140952196Y-100495773D01*
X140946235Y-100519571D01*
X140937970Y-100542671D01*
X140927480Y-100564849D01*
X140914867Y-100585893D01*
X140900253Y-100605598D01*
X140883777Y-100623777D01*
X140865598Y-100640253D01*
X140845893Y-100654867D01*
X140824849Y-100667480D01*
X140802671Y-100677970D01*
X140779571Y-100686235D01*
X140755773Y-100692196D01*
X140731504Y-100695796D01*
X140707000Y-100697000D01*
X139782000Y-100697000D01*
X139757496Y-100695796D01*
X139733227Y-100692196D01*
X139709429Y-100686235D01*
X139686329Y-100677970D01*
X139664151Y-100667480D01*
X139643107Y-100654867D01*
X139623402Y-100640253D01*
X139605223Y-100623777D01*
X139588747Y-100605598D01*
X139574133Y-100585893D01*
X139561520Y-100564849D01*
X139551030Y-100542671D01*
X139542765Y-100519571D01*
X139536804Y-100495773D01*
X139533204Y-100471504D01*
X139532000Y-100447000D01*
X139532000Y-99197000D01*
X139533204Y-99172496D01*
X139536804Y-99148227D01*
X139542765Y-99124429D01*
X139551030Y-99101329D01*
X139561520Y-99079151D01*
X139574133Y-99058107D01*
X139588747Y-99038402D01*
X139605223Y-99020223D01*
X139623402Y-99003747D01*
X139643107Y-98989133D01*
X139664151Y-98976520D01*
X139686329Y-98966030D01*
X139709429Y-98957765D01*
X139733227Y-98951804D01*
X139757496Y-98948204D01*
X139782000Y-98947000D01*
X140707000Y-98947000D01*
X140731504Y-98948204D01*
X140731504Y-98948204D01*
G37*
D11*
G04 #@! TD*
G04 #@! TO.P,C5,2*
G04 #@! TO.N,GND*
X140244500Y-99822000D03*
D15*
G04 #@! TO.P,Y1,1*
G04 #@! TO.N,/XTAL1*
X150653500Y-75438000D03*
G04 #@! TO.P,Y1,2*
G04 #@! TO.N,/XTAL2*
X156178500Y-75438000D03*
G04 #@! TD*
D16*
G04 #@! TO.P,REF\002A\002A,1*
G04 #@! TO.N,N/C*
X128016000Y-73787000D03*
G04 #@! TD*
G04 #@! TO.P,REF\002A\002A,1*
G04 #@! TO.N,N/C*
X168656000Y-73787000D03*
G04 #@! TD*
G04 #@! TO.P,REF\002A\002A,1*
G04 #@! TO.N,N/C*
X168656000Y-108585000D03*
G04 #@! TD*
G04 #@! TO.P,REF\002A\002A,1*
G04 #@! TO.N,N/C*
X128016000Y-108585000D03*
G04 #@! TD*
D17*
G04 #@! TO.N,GND*
X149352000Y-84582000D03*
X146304000Y-82042000D03*
X143510000Y-82042000D03*
X143510000Y-80264000D03*
X146304000Y-80264000D03*
X154686000Y-87884000D03*
X155956000Y-84582000D03*
X156972000Y-87884000D03*
X158242000Y-84582000D03*
X154686000Y-86106000D03*
X156972000Y-86106000D03*
X164592000Y-83312000D03*
X164592000Y-85090000D03*
X164592000Y-86868000D03*
X169926000Y-86868000D03*
X169926000Y-85090000D03*
X169926000Y-83312000D03*
X167386000Y-80264000D03*
X165354000Y-80264000D03*
X169418000Y-80264000D03*
X137160000Y-83312000D03*
X137160000Y-80772000D03*
X137160000Y-78232000D03*
X140208000Y-78232000D03*
X148844000Y-78740000D03*
X157988000Y-78740000D03*
X161036000Y-81788000D03*
X158496000Y-101600000D03*
X156972000Y-101600000D03*
X160020000Y-101600000D03*
D18*
X137414000Y-99822000D03*
X137414000Y-98171000D03*
X137414000Y-101473000D03*
D17*
G04 #@! TO.N,/~RESET*
X147828000Y-99060000D03*
G04 #@! TD*
D19*
G04 #@! TO.N,VCC*
X129286000Y-83312000D02*
X129286000Y-85852000D01*
X139790500Y-85852000D02*
X140335000Y-85307500D01*
X129286000Y-85852000D02*
X139790500Y-85852000D01*
X143710000Y-85307500D02*
X143927500Y-85090000D01*
X140335000Y-85307500D02*
X143710000Y-85307500D01*
X143927500Y-86048500D02*
X146271000Y-88392000D01*
X143927500Y-85090000D02*
X143927500Y-86048500D01*
X150023500Y-107659500D02*
X151511000Y-106172000D01*
X141732000Y-107659500D02*
X150023500Y-107659500D01*
X140757000Y-107659500D02*
X141732000Y-107659500D01*
X133059500Y-107659500D02*
X140757000Y-107659500D01*
X127000000Y-101600000D02*
X133059500Y-107659500D01*
X127000000Y-86935919D02*
X127000000Y-101600000D01*
X129286000Y-85852000D02*
X128083919Y-85852000D01*
X128083919Y-85852000D02*
X127000000Y-86935919D01*
G04 #@! TO.N,GND*
X137414000Y-102101617D02*
X137414000Y-101473000D01*
X137414000Y-103505000D02*
X137414000Y-102101617D01*
X146431000Y-106172000D02*
X140081000Y-106172000D01*
X140081000Y-106172000D02*
X137414000Y-103505000D01*
D20*
G04 #@! TO.N,/XTAL1*
X146721000Y-89662000D02*
X146271000Y-89662000D01*
X151728500Y-84654500D02*
X146721000Y-89662000D01*
X151728500Y-82042000D02*
X151728500Y-84654500D01*
X130556000Y-89662000D02*
X129286000Y-88392000D01*
X146271000Y-89662000D02*
X130556000Y-89662000D01*
X151728500Y-76513000D02*
X150653500Y-75438000D01*
X151728500Y-82042000D02*
X151728500Y-76513000D01*
G04 #@! TO.N,/XTAL2*
X146721000Y-90932000D02*
X146271000Y-90932000D01*
X154332153Y-83320847D02*
X146721000Y-90932000D01*
X154332153Y-82813347D02*
X154332153Y-83320847D01*
X155103500Y-82042000D02*
X154332153Y-82813347D01*
X146271000Y-90932000D02*
X129286000Y-90932000D01*
X155103500Y-76513000D02*
X156178500Y-75438000D01*
X155103500Y-82042000D02*
X155103500Y-76513000D01*
G04 #@! TO.N,Net-(D1-Pad2)*
X159004000Y-107659500D02*
X158496000Y-107151500D01*
X163322000Y-107659500D02*
X159004000Y-107659500D01*
G04 #@! TO.N,/MOSI*
X134366000Y-96012000D02*
X129286000Y-101092000D01*
X146271000Y-96012000D02*
X134366000Y-96012000D01*
X148121001Y-105322001D02*
X148971000Y-106172000D01*
X147765399Y-104966399D02*
X148121001Y-105322001D01*
X147765399Y-103182109D02*
X147765399Y-104966399D01*
X146271000Y-101687710D02*
X147765399Y-103182109D01*
X146271000Y-96012000D02*
X146271000Y-101687710D01*
G04 #@! TO.N,/PA7*
X133096000Y-94742000D02*
X129286000Y-98552000D01*
X146271000Y-94742000D02*
X133096000Y-94742000D01*
G04 #@! TO.N,/PB2*
X131826000Y-93472000D02*
X129286000Y-96012000D01*
X146271000Y-93472000D02*
X131826000Y-93472000D01*
G04 #@! TO.N,/~RESET*
X130556000Y-92202000D02*
X129286000Y-93472000D01*
X146271000Y-92202000D02*
X130556000Y-92202000D01*
X145378500Y-104684500D02*
X146431000Y-103632000D01*
X141732000Y-104684500D02*
X145378500Y-104684500D01*
X147828000Y-93309000D02*
X147828000Y-99060000D01*
X146271000Y-92202000D02*
X146721000Y-92202000D01*
X146721000Y-92202000D02*
X147828000Y-93309000D01*
X143219500Y-103197000D02*
X143219500Y-99822000D01*
X141732000Y-104684500D02*
X143219500Y-103197000D01*
G04 #@! TO.N,/MISO*
X162306000Y-96012000D02*
X167386000Y-101092000D01*
X151671000Y-96012000D02*
X162306000Y-96012000D01*
X151671000Y-103472000D02*
X151511000Y-103632000D01*
X151671000Y-96012000D02*
X151671000Y-103472000D01*
G04 #@! TO.N,/USCK*
X163576000Y-94742000D02*
X167386000Y-98552000D01*
X151671000Y-94742000D02*
X163576000Y-94742000D01*
X148971000Y-96992000D02*
X148971000Y-103632000D01*
X151221000Y-94742000D02*
X148971000Y-96992000D01*
X151671000Y-94742000D02*
X151221000Y-94742000D01*
X166587500Y-104684500D02*
X163322000Y-104684500D01*
X169164000Y-102108000D02*
X166587500Y-104684500D01*
X167386000Y-98552000D02*
X169164000Y-100330000D01*
X169164000Y-100330000D02*
X169164000Y-102108000D01*
G04 #@! TO.N,/PA0*
X166116000Y-89662000D02*
X167386000Y-88392000D01*
X151671000Y-89662000D02*
X166116000Y-89662000D01*
G04 #@! TO.N,/PA1*
X151671000Y-90932000D02*
X167386000Y-90932000D01*
G04 #@! TO.N,/PA2*
X166116000Y-92202000D02*
X167386000Y-93472000D01*
X151671000Y-92202000D02*
X166116000Y-92202000D01*
G04 #@! TO.N,/PA3*
X164846000Y-93472000D02*
X167386000Y-96012000D01*
X151671000Y-93472000D02*
X164846000Y-93472000D01*
G04 #@! TD*
G04 #@! TO.N,GND*
G36*
X166766874Y-70959723D02*
X165828723Y-71897874D01*
X165321000Y-73123627D01*
X165321000Y-74450373D01*
X165828723Y-75676126D01*
X166766874Y-76614277D01*
X167992627Y-77122000D01*
X169319373Y-77122000D01*
X170545126Y-76614277D01*
X171483277Y-75676126D01*
X171756000Y-75017714D01*
X171756000Y-89281000D01*
X168577983Y-89281000D01*
X168784839Y-88971418D01*
X168900092Y-88392000D01*
X168784839Y-87812582D01*
X168456625Y-87321375D01*
X168137522Y-87108157D01*
X168267358Y-87047183D01*
X168657645Y-86618924D01*
X168827476Y-86208890D01*
X168706155Y-85979000D01*
X167513000Y-85979000D01*
X167513000Y-85999000D01*
X167259000Y-85999000D01*
X167259000Y-85979000D01*
X166065845Y-85979000D01*
X165944524Y-86208890D01*
X166114355Y-86618924D01*
X166504642Y-87047183D01*
X166634478Y-87108157D01*
X166315375Y-87321375D01*
X165987161Y-87812582D01*
X165871908Y-88392000D01*
X165944321Y-88756048D01*
X165800370Y-88900000D01*
X153022163Y-88900000D01*
X153056000Y-88818310D01*
X153056000Y-88677750D01*
X152897250Y-88519000D01*
X151798000Y-88519000D01*
X151798000Y-88539000D01*
X151544000Y-88539000D01*
X151544000Y-88519000D01*
X151524000Y-88519000D01*
X151524000Y-88265000D01*
X151544000Y-88265000D01*
X151544000Y-87615750D01*
X151798000Y-87615750D01*
X151798000Y-88265000D01*
X152897250Y-88265000D01*
X153056000Y-88106250D01*
X153056000Y-87965690D01*
X152959327Y-87732301D01*
X152780698Y-87553673D01*
X152547309Y-87457000D01*
X151956750Y-87457000D01*
X151798000Y-87615750D01*
X151544000Y-87615750D01*
X151385250Y-87457000D01*
X151273631Y-87457000D01*
X154817902Y-83912729D01*
X154881524Y-83870218D01*
X155049941Y-83618164D01*
X155054001Y-83597750D01*
X165901000Y-83597750D01*
X165901000Y-84288310D01*
X165997673Y-84521699D01*
X166176302Y-84700327D01*
X166385878Y-84787136D01*
X166114355Y-85085076D01*
X165944524Y-85495110D01*
X166065845Y-85725000D01*
X167259000Y-85725000D01*
X167259000Y-83439000D01*
X167513000Y-83439000D01*
X167513000Y-85725000D01*
X168706155Y-85725000D01*
X168827476Y-85495110D01*
X168657645Y-85085076D01*
X168386122Y-84787136D01*
X168595698Y-84700327D01*
X168774327Y-84521699D01*
X168871000Y-84288310D01*
X168871000Y-83597750D01*
X168712250Y-83439000D01*
X167513000Y-83439000D01*
X167259000Y-83439000D01*
X166059750Y-83439000D01*
X165901000Y-83597750D01*
X155054001Y-83597750D01*
X155060627Y-83564440D01*
X155566000Y-83564440D01*
X155909435Y-83496126D01*
X156200586Y-83301586D01*
X156395126Y-83010435D01*
X156463440Y-82667000D01*
X156463440Y-82327750D01*
X156731000Y-82327750D01*
X156731000Y-83043310D01*
X156827673Y-83276699D01*
X157006302Y-83455327D01*
X157239691Y-83552000D01*
X157792750Y-83552000D01*
X157951500Y-83393250D01*
X157951500Y-82169000D01*
X158205500Y-82169000D01*
X158205500Y-83393250D01*
X158364250Y-83552000D01*
X158917309Y-83552000D01*
X159150698Y-83455327D01*
X159329327Y-83276699D01*
X159426000Y-83043310D01*
X159426000Y-82335690D01*
X165901000Y-82335690D01*
X165901000Y-83026250D01*
X166059750Y-83185000D01*
X167259000Y-83185000D01*
X167259000Y-81985750D01*
X167513000Y-81985750D01*
X167513000Y-83185000D01*
X168712250Y-83185000D01*
X168871000Y-83026250D01*
X168871000Y-82335690D01*
X168774327Y-82102301D01*
X168595698Y-81923673D01*
X168362309Y-81827000D01*
X167671750Y-81827000D01*
X167513000Y-81985750D01*
X167259000Y-81985750D01*
X167100250Y-81827000D01*
X166409691Y-81827000D01*
X166176302Y-81923673D01*
X165997673Y-82102301D01*
X165901000Y-82335690D01*
X159426000Y-82335690D01*
X159426000Y-82327750D01*
X159267250Y-82169000D01*
X158205500Y-82169000D01*
X157951500Y-82169000D01*
X156889750Y-82169000D01*
X156731000Y-82327750D01*
X156463440Y-82327750D01*
X156463440Y-81417000D01*
X156395126Y-81073565D01*
X156373160Y-81040690D01*
X156731000Y-81040690D01*
X156731000Y-81756250D01*
X156889750Y-81915000D01*
X157951500Y-81915000D01*
X157951500Y-80690750D01*
X158205500Y-80690750D01*
X158205500Y-81915000D01*
X159267250Y-81915000D01*
X159426000Y-81756250D01*
X159426000Y-81040690D01*
X159329327Y-80807301D01*
X159150698Y-80628673D01*
X158917309Y-80532000D01*
X158364250Y-80532000D01*
X158205500Y-80690750D01*
X157951500Y-80690750D01*
X157792750Y-80532000D01*
X157239691Y-80532000D01*
X157006302Y-80628673D01*
X156827673Y-80807301D01*
X156731000Y-81040690D01*
X156373160Y-81040690D01*
X156200586Y-80782414D01*
X155909435Y-80587874D01*
X155865500Y-80579135D01*
X155865500Y-77285440D01*
X157841000Y-77285440D01*
X158088765Y-77236157D01*
X158298809Y-77095809D01*
X158439157Y-76885765D01*
X158488440Y-76638000D01*
X158488440Y-74238000D01*
X158439157Y-73990235D01*
X158298809Y-73780191D01*
X158088765Y-73639843D01*
X157841000Y-73590560D01*
X154516000Y-73590560D01*
X154268235Y-73639843D01*
X154058191Y-73780191D01*
X153917843Y-73990235D01*
X153868560Y-74238000D01*
X153868560Y-76638000D01*
X153917843Y-76885765D01*
X154058191Y-77095809D01*
X154268235Y-77236157D01*
X154341501Y-77250730D01*
X154341500Y-80579135D01*
X154297565Y-80587874D01*
X154006414Y-80782414D01*
X153811874Y-81073565D01*
X153743560Y-81417000D01*
X153743560Y-82322676D01*
X153614365Y-82516031D01*
X153570153Y-82738300D01*
X153570153Y-82738304D01*
X153555226Y-82813347D01*
X153570153Y-82888390D01*
X153570153Y-83005216D01*
X152490500Y-84084869D01*
X152490500Y-83504865D01*
X152534435Y-83496126D01*
X152825586Y-83301586D01*
X153020126Y-83010435D01*
X153088440Y-82667000D01*
X153088440Y-81417000D01*
X153020126Y-81073565D01*
X152825586Y-80782414D01*
X152534435Y-80587874D01*
X152490500Y-80579135D01*
X152490500Y-77250730D01*
X152563765Y-77236157D01*
X152773809Y-77095809D01*
X152914157Y-76885765D01*
X152963440Y-76638000D01*
X152963440Y-74238000D01*
X152914157Y-73990235D01*
X152773809Y-73780191D01*
X152563765Y-73639843D01*
X152316000Y-73590560D01*
X148991000Y-73590560D01*
X148743235Y-73639843D01*
X148533191Y-73780191D01*
X148392843Y-73990235D01*
X148343560Y-74238000D01*
X148343560Y-76638000D01*
X148392843Y-76885765D01*
X148533191Y-77095809D01*
X148743235Y-77236157D01*
X148991000Y-77285440D01*
X150966501Y-77285440D01*
X150966500Y-80579135D01*
X150922565Y-80587874D01*
X150631414Y-80782414D01*
X150436874Y-81073565D01*
X150368560Y-81417000D01*
X150368560Y-82667000D01*
X150436874Y-83010435D01*
X150631414Y-83301586D01*
X150922565Y-83496126D01*
X150966501Y-83504865D01*
X150966501Y-84338868D01*
X147555862Y-87749508D01*
X147478809Y-87634191D01*
X147268765Y-87493843D01*
X147021000Y-87444560D01*
X146580796Y-87444560D01*
X145209330Y-86073095D01*
X145219126Y-86058435D01*
X145287440Y-85715000D01*
X145287440Y-85375750D01*
X145555000Y-85375750D01*
X145555000Y-86091310D01*
X145651673Y-86324699D01*
X145830302Y-86503327D01*
X146063691Y-86600000D01*
X146616750Y-86600000D01*
X146775500Y-86441250D01*
X146775500Y-85217000D01*
X147029500Y-85217000D01*
X147029500Y-86441250D01*
X147188250Y-86600000D01*
X147741309Y-86600000D01*
X147974698Y-86503327D01*
X148153327Y-86324699D01*
X148250000Y-86091310D01*
X148250000Y-85375750D01*
X148091250Y-85217000D01*
X147029500Y-85217000D01*
X146775500Y-85217000D01*
X145713750Y-85217000D01*
X145555000Y-85375750D01*
X145287440Y-85375750D01*
X145287440Y-84465000D01*
X145219126Y-84121565D01*
X145197160Y-84088690D01*
X145555000Y-84088690D01*
X145555000Y-84804250D01*
X145713750Y-84963000D01*
X146775500Y-84963000D01*
X146775500Y-83738750D01*
X147029500Y-83738750D01*
X147029500Y-84963000D01*
X148091250Y-84963000D01*
X148250000Y-84804250D01*
X148250000Y-84088690D01*
X148153327Y-83855301D01*
X147974698Y-83676673D01*
X147741309Y-83580000D01*
X147188250Y-83580000D01*
X147029500Y-83738750D01*
X146775500Y-83738750D01*
X146616750Y-83580000D01*
X146063691Y-83580000D01*
X145830302Y-83676673D01*
X145651673Y-83855301D01*
X145555000Y-84088690D01*
X145197160Y-84088690D01*
X145024586Y-83830414D01*
X144733435Y-83635874D01*
X144390000Y-83567560D01*
X143465000Y-83567560D01*
X143121565Y-83635874D01*
X142830414Y-83830414D01*
X142635874Y-84121565D01*
X142576809Y-84418500D01*
X141733624Y-84418500D01*
X141594586Y-84210414D01*
X141303435Y-84015874D01*
X140960000Y-83947560D01*
X139710000Y-83947560D01*
X139366565Y-84015874D01*
X139075414Y-84210414D01*
X138880874Y-84501565D01*
X138812560Y-84845000D01*
X138812560Y-84963000D01*
X135255000Y-84963000D01*
X135255000Y-82618250D01*
X138825000Y-82618250D01*
X138825000Y-83171309D01*
X138921673Y-83404698D01*
X139100301Y-83583327D01*
X139333690Y-83680000D01*
X140049250Y-83680000D01*
X140208000Y-83521250D01*
X140208000Y-82459500D01*
X140462000Y-82459500D01*
X140462000Y-83521250D01*
X140620750Y-83680000D01*
X141336310Y-83680000D01*
X141569699Y-83583327D01*
X141748327Y-83404698D01*
X141845000Y-83171309D01*
X141845000Y-82618250D01*
X141686250Y-82459500D01*
X140462000Y-82459500D01*
X140208000Y-82459500D01*
X138983750Y-82459500D01*
X138825000Y-82618250D01*
X135255000Y-82618250D01*
X135255000Y-82327750D01*
X147406000Y-82327750D01*
X147406000Y-83043310D01*
X147502673Y-83276699D01*
X147681302Y-83455327D01*
X147914691Y-83552000D01*
X148467750Y-83552000D01*
X148626500Y-83393250D01*
X148626500Y-82169000D01*
X148880500Y-82169000D01*
X148880500Y-83393250D01*
X149039250Y-83552000D01*
X149592309Y-83552000D01*
X149825698Y-83455327D01*
X150004327Y-83276699D01*
X150101000Y-83043310D01*
X150101000Y-82327750D01*
X149942250Y-82169000D01*
X148880500Y-82169000D01*
X148626500Y-82169000D01*
X147564750Y-82169000D01*
X147406000Y-82327750D01*
X135255000Y-82327750D01*
X135255000Y-81493691D01*
X138825000Y-81493691D01*
X138825000Y-82046750D01*
X138983750Y-82205500D01*
X140208000Y-82205500D01*
X140208000Y-81143750D01*
X140462000Y-81143750D01*
X140462000Y-82205500D01*
X141686250Y-82205500D01*
X141845000Y-82046750D01*
X141845000Y-81493691D01*
X141748327Y-81260302D01*
X141569699Y-81081673D01*
X141470758Y-81040690D01*
X147406000Y-81040690D01*
X147406000Y-81756250D01*
X147564750Y-81915000D01*
X148626500Y-81915000D01*
X148626500Y-80690750D01*
X148880500Y-80690750D01*
X148880500Y-81915000D01*
X149942250Y-81915000D01*
X150101000Y-81756250D01*
X150101000Y-81040690D01*
X150004327Y-80807301D01*
X149825698Y-80628673D01*
X149592309Y-80532000D01*
X149039250Y-80532000D01*
X148880500Y-80690750D01*
X148626500Y-80690750D01*
X148467750Y-80532000D01*
X147914691Y-80532000D01*
X147681302Y-80628673D01*
X147502673Y-80807301D01*
X147406000Y-81040690D01*
X141470758Y-81040690D01*
X141336310Y-80985000D01*
X140620750Y-80985000D01*
X140462000Y-81143750D01*
X140208000Y-81143750D01*
X140049250Y-80985000D01*
X139333690Y-80985000D01*
X139100301Y-81081673D01*
X138921673Y-81260302D01*
X138825000Y-81493691D01*
X135255000Y-81493691D01*
X135255000Y-70687000D01*
X167425286Y-70687000D01*
X166766874Y-70959723D01*
X166766874Y-70959723D01*
G37*
X166766874Y-70959723D02*
X165828723Y-71897874D01*
X165321000Y-73123627D01*
X165321000Y-74450373D01*
X165828723Y-75676126D01*
X166766874Y-76614277D01*
X167992627Y-77122000D01*
X169319373Y-77122000D01*
X170545126Y-76614277D01*
X171483277Y-75676126D01*
X171756000Y-75017714D01*
X171756000Y-89281000D01*
X168577983Y-89281000D01*
X168784839Y-88971418D01*
X168900092Y-88392000D01*
X168784839Y-87812582D01*
X168456625Y-87321375D01*
X168137522Y-87108157D01*
X168267358Y-87047183D01*
X168657645Y-86618924D01*
X168827476Y-86208890D01*
X168706155Y-85979000D01*
X167513000Y-85979000D01*
X167513000Y-85999000D01*
X167259000Y-85999000D01*
X167259000Y-85979000D01*
X166065845Y-85979000D01*
X165944524Y-86208890D01*
X166114355Y-86618924D01*
X166504642Y-87047183D01*
X166634478Y-87108157D01*
X166315375Y-87321375D01*
X165987161Y-87812582D01*
X165871908Y-88392000D01*
X165944321Y-88756048D01*
X165800370Y-88900000D01*
X153022163Y-88900000D01*
X153056000Y-88818310D01*
X153056000Y-88677750D01*
X152897250Y-88519000D01*
X151798000Y-88519000D01*
X151798000Y-88539000D01*
X151544000Y-88539000D01*
X151544000Y-88519000D01*
X151524000Y-88519000D01*
X151524000Y-88265000D01*
X151544000Y-88265000D01*
X151544000Y-87615750D01*
X151798000Y-87615750D01*
X151798000Y-88265000D01*
X152897250Y-88265000D01*
X153056000Y-88106250D01*
X153056000Y-87965690D01*
X152959327Y-87732301D01*
X152780698Y-87553673D01*
X152547309Y-87457000D01*
X151956750Y-87457000D01*
X151798000Y-87615750D01*
X151544000Y-87615750D01*
X151385250Y-87457000D01*
X151273631Y-87457000D01*
X154817902Y-83912729D01*
X154881524Y-83870218D01*
X155049941Y-83618164D01*
X155054001Y-83597750D01*
X165901000Y-83597750D01*
X165901000Y-84288310D01*
X165997673Y-84521699D01*
X166176302Y-84700327D01*
X166385878Y-84787136D01*
X166114355Y-85085076D01*
X165944524Y-85495110D01*
X166065845Y-85725000D01*
X167259000Y-85725000D01*
X167259000Y-83439000D01*
X167513000Y-83439000D01*
X167513000Y-85725000D01*
X168706155Y-85725000D01*
X168827476Y-85495110D01*
X168657645Y-85085076D01*
X168386122Y-84787136D01*
X168595698Y-84700327D01*
X168774327Y-84521699D01*
X168871000Y-84288310D01*
X168871000Y-83597750D01*
X168712250Y-83439000D01*
X167513000Y-83439000D01*
X167259000Y-83439000D01*
X166059750Y-83439000D01*
X165901000Y-83597750D01*
X155054001Y-83597750D01*
X155060627Y-83564440D01*
X155566000Y-83564440D01*
X155909435Y-83496126D01*
X156200586Y-83301586D01*
X156395126Y-83010435D01*
X156463440Y-82667000D01*
X156463440Y-82327750D01*
X156731000Y-82327750D01*
X156731000Y-83043310D01*
X156827673Y-83276699D01*
X157006302Y-83455327D01*
X157239691Y-83552000D01*
X157792750Y-83552000D01*
X157951500Y-83393250D01*
X157951500Y-82169000D01*
X158205500Y-82169000D01*
X158205500Y-83393250D01*
X158364250Y-83552000D01*
X158917309Y-83552000D01*
X159150698Y-83455327D01*
X159329327Y-83276699D01*
X159426000Y-83043310D01*
X159426000Y-82335690D01*
X165901000Y-82335690D01*
X165901000Y-83026250D01*
X166059750Y-83185000D01*
X167259000Y-83185000D01*
X167259000Y-81985750D01*
X167513000Y-81985750D01*
X167513000Y-83185000D01*
X168712250Y-83185000D01*
X168871000Y-83026250D01*
X168871000Y-82335690D01*
X168774327Y-82102301D01*
X168595698Y-81923673D01*
X168362309Y-81827000D01*
X167671750Y-81827000D01*
X167513000Y-81985750D01*
X167259000Y-81985750D01*
X167100250Y-81827000D01*
X166409691Y-81827000D01*
X166176302Y-81923673D01*
X165997673Y-82102301D01*
X165901000Y-82335690D01*
X159426000Y-82335690D01*
X159426000Y-82327750D01*
X159267250Y-82169000D01*
X158205500Y-82169000D01*
X157951500Y-82169000D01*
X156889750Y-82169000D01*
X156731000Y-82327750D01*
X156463440Y-82327750D01*
X156463440Y-81417000D01*
X156395126Y-81073565D01*
X156373160Y-81040690D01*
X156731000Y-81040690D01*
X156731000Y-81756250D01*
X156889750Y-81915000D01*
X157951500Y-81915000D01*
X157951500Y-80690750D01*
X158205500Y-80690750D01*
X158205500Y-81915000D01*
X159267250Y-81915000D01*
X159426000Y-81756250D01*
X159426000Y-81040690D01*
X159329327Y-80807301D01*
X159150698Y-80628673D01*
X158917309Y-80532000D01*
X158364250Y-80532000D01*
X158205500Y-80690750D01*
X157951500Y-80690750D01*
X157792750Y-80532000D01*
X157239691Y-80532000D01*
X157006302Y-80628673D01*
X156827673Y-80807301D01*
X156731000Y-81040690D01*
X156373160Y-81040690D01*
X156200586Y-80782414D01*
X155909435Y-80587874D01*
X155865500Y-80579135D01*
X155865500Y-77285440D01*
X157841000Y-77285440D01*
X158088765Y-77236157D01*
X158298809Y-77095809D01*
X158439157Y-76885765D01*
X158488440Y-76638000D01*
X158488440Y-74238000D01*
X158439157Y-73990235D01*
X158298809Y-73780191D01*
X158088765Y-73639843D01*
X157841000Y-73590560D01*
X154516000Y-73590560D01*
X154268235Y-73639843D01*
X154058191Y-73780191D01*
X153917843Y-73990235D01*
X153868560Y-74238000D01*
X153868560Y-76638000D01*
X153917843Y-76885765D01*
X154058191Y-77095809D01*
X154268235Y-77236157D01*
X154341501Y-77250730D01*
X154341500Y-80579135D01*
X154297565Y-80587874D01*
X154006414Y-80782414D01*
X153811874Y-81073565D01*
X153743560Y-81417000D01*
X153743560Y-82322676D01*
X153614365Y-82516031D01*
X153570153Y-82738300D01*
X153570153Y-82738304D01*
X153555226Y-82813347D01*
X153570153Y-82888390D01*
X153570153Y-83005216D01*
X152490500Y-84084869D01*
X152490500Y-83504865D01*
X152534435Y-83496126D01*
X152825586Y-83301586D01*
X153020126Y-83010435D01*
X153088440Y-82667000D01*
X153088440Y-81417000D01*
X153020126Y-81073565D01*
X152825586Y-80782414D01*
X152534435Y-80587874D01*
X152490500Y-80579135D01*
X152490500Y-77250730D01*
X152563765Y-77236157D01*
X152773809Y-77095809D01*
X152914157Y-76885765D01*
X152963440Y-76638000D01*
X152963440Y-74238000D01*
X152914157Y-73990235D01*
X152773809Y-73780191D01*
X152563765Y-73639843D01*
X152316000Y-73590560D01*
X148991000Y-73590560D01*
X148743235Y-73639843D01*
X148533191Y-73780191D01*
X148392843Y-73990235D01*
X148343560Y-74238000D01*
X148343560Y-76638000D01*
X148392843Y-76885765D01*
X148533191Y-77095809D01*
X148743235Y-77236157D01*
X148991000Y-77285440D01*
X150966501Y-77285440D01*
X150966500Y-80579135D01*
X150922565Y-80587874D01*
X150631414Y-80782414D01*
X150436874Y-81073565D01*
X150368560Y-81417000D01*
X150368560Y-82667000D01*
X150436874Y-83010435D01*
X150631414Y-83301586D01*
X150922565Y-83496126D01*
X150966501Y-83504865D01*
X150966501Y-84338868D01*
X147555862Y-87749508D01*
X147478809Y-87634191D01*
X147268765Y-87493843D01*
X147021000Y-87444560D01*
X146580796Y-87444560D01*
X145209330Y-86073095D01*
X145219126Y-86058435D01*
X145287440Y-85715000D01*
X145287440Y-85375750D01*
X145555000Y-85375750D01*
X145555000Y-86091310D01*
X145651673Y-86324699D01*
X145830302Y-86503327D01*
X146063691Y-86600000D01*
X146616750Y-86600000D01*
X146775500Y-86441250D01*
X146775500Y-85217000D01*
X147029500Y-85217000D01*
X147029500Y-86441250D01*
X147188250Y-86600000D01*
X147741309Y-86600000D01*
X147974698Y-86503327D01*
X148153327Y-86324699D01*
X148250000Y-86091310D01*
X148250000Y-85375750D01*
X148091250Y-85217000D01*
X147029500Y-85217000D01*
X146775500Y-85217000D01*
X145713750Y-85217000D01*
X145555000Y-85375750D01*
X145287440Y-85375750D01*
X145287440Y-84465000D01*
X145219126Y-84121565D01*
X145197160Y-84088690D01*
X145555000Y-84088690D01*
X145555000Y-84804250D01*
X145713750Y-84963000D01*
X146775500Y-84963000D01*
X146775500Y-83738750D01*
X147029500Y-83738750D01*
X147029500Y-84963000D01*
X148091250Y-84963000D01*
X148250000Y-84804250D01*
X148250000Y-84088690D01*
X148153327Y-83855301D01*
X147974698Y-83676673D01*
X147741309Y-83580000D01*
X147188250Y-83580000D01*
X147029500Y-83738750D01*
X146775500Y-83738750D01*
X146616750Y-83580000D01*
X146063691Y-83580000D01*
X145830302Y-83676673D01*
X145651673Y-83855301D01*
X145555000Y-84088690D01*
X145197160Y-84088690D01*
X145024586Y-83830414D01*
X144733435Y-83635874D01*
X144390000Y-83567560D01*
X143465000Y-83567560D01*
X143121565Y-83635874D01*
X142830414Y-83830414D01*
X142635874Y-84121565D01*
X142576809Y-84418500D01*
X141733624Y-84418500D01*
X141594586Y-84210414D01*
X141303435Y-84015874D01*
X140960000Y-83947560D01*
X139710000Y-83947560D01*
X139366565Y-84015874D01*
X139075414Y-84210414D01*
X138880874Y-84501565D01*
X138812560Y-84845000D01*
X138812560Y-84963000D01*
X135255000Y-84963000D01*
X135255000Y-82618250D01*
X138825000Y-82618250D01*
X138825000Y-83171309D01*
X138921673Y-83404698D01*
X139100301Y-83583327D01*
X139333690Y-83680000D01*
X140049250Y-83680000D01*
X140208000Y-83521250D01*
X140208000Y-82459500D01*
X140462000Y-82459500D01*
X140462000Y-83521250D01*
X140620750Y-83680000D01*
X141336310Y-83680000D01*
X141569699Y-83583327D01*
X141748327Y-83404698D01*
X141845000Y-83171309D01*
X141845000Y-82618250D01*
X141686250Y-82459500D01*
X140462000Y-82459500D01*
X140208000Y-82459500D01*
X138983750Y-82459500D01*
X138825000Y-82618250D01*
X135255000Y-82618250D01*
X135255000Y-82327750D01*
X147406000Y-82327750D01*
X147406000Y-83043310D01*
X147502673Y-83276699D01*
X147681302Y-83455327D01*
X147914691Y-83552000D01*
X148467750Y-83552000D01*
X148626500Y-83393250D01*
X148626500Y-82169000D01*
X148880500Y-82169000D01*
X148880500Y-83393250D01*
X149039250Y-83552000D01*
X149592309Y-83552000D01*
X149825698Y-83455327D01*
X150004327Y-83276699D01*
X150101000Y-83043310D01*
X150101000Y-82327750D01*
X149942250Y-82169000D01*
X148880500Y-82169000D01*
X148626500Y-82169000D01*
X147564750Y-82169000D01*
X147406000Y-82327750D01*
X135255000Y-82327750D01*
X135255000Y-81493691D01*
X138825000Y-81493691D01*
X138825000Y-82046750D01*
X138983750Y-82205500D01*
X140208000Y-82205500D01*
X140208000Y-81143750D01*
X140462000Y-81143750D01*
X140462000Y-82205500D01*
X141686250Y-82205500D01*
X141845000Y-82046750D01*
X141845000Y-81493691D01*
X141748327Y-81260302D01*
X141569699Y-81081673D01*
X141470758Y-81040690D01*
X147406000Y-81040690D01*
X147406000Y-81756250D01*
X147564750Y-81915000D01*
X148626500Y-81915000D01*
X148626500Y-80690750D01*
X148880500Y-80690750D01*
X148880500Y-81915000D01*
X149942250Y-81915000D01*
X150101000Y-81756250D01*
X150101000Y-81040690D01*
X150004327Y-80807301D01*
X149825698Y-80628673D01*
X149592309Y-80532000D01*
X149039250Y-80532000D01*
X148880500Y-80690750D01*
X148626500Y-80690750D01*
X148467750Y-80532000D01*
X147914691Y-80532000D01*
X147681302Y-80628673D01*
X147502673Y-80807301D01*
X147406000Y-81040690D01*
X141470758Y-81040690D01*
X141336310Y-80985000D01*
X140620750Y-80985000D01*
X140462000Y-81143750D01*
X140208000Y-81143750D01*
X140049250Y-80985000D01*
X139333690Y-80985000D01*
X139100301Y-81081673D01*
X138921673Y-81260302D01*
X138825000Y-81493691D01*
X135255000Y-81493691D01*
X135255000Y-70687000D01*
X167425286Y-70687000D01*
X166766874Y-70959723D01*
G36*
X160909000Y-105537000D02*
X156083000Y-105537000D01*
X156083000Y-104462250D01*
X156986000Y-104462250D01*
X156986000Y-105015309D01*
X157082673Y-105248698D01*
X157261301Y-105427327D01*
X157494690Y-105524000D01*
X158210250Y-105524000D01*
X158369000Y-105365250D01*
X158369000Y-104303500D01*
X158623000Y-104303500D01*
X158623000Y-105365250D01*
X158781750Y-105524000D01*
X159497310Y-105524000D01*
X159730699Y-105427327D01*
X159909327Y-105248698D01*
X160006000Y-105015309D01*
X160006000Y-104462250D01*
X159847250Y-104303500D01*
X158623000Y-104303500D01*
X158369000Y-104303500D01*
X157144750Y-104303500D01*
X156986000Y-104462250D01*
X156083000Y-104462250D01*
X156083000Y-103337691D01*
X156986000Y-103337691D01*
X156986000Y-103890750D01*
X157144750Y-104049500D01*
X158369000Y-104049500D01*
X158369000Y-102987750D01*
X158623000Y-102987750D01*
X158623000Y-104049500D01*
X159847250Y-104049500D01*
X160006000Y-103890750D01*
X160006000Y-103337691D01*
X159909327Y-103104302D01*
X159730699Y-102925673D01*
X159497310Y-102829000D01*
X158781750Y-102829000D01*
X158623000Y-102987750D01*
X158369000Y-102987750D01*
X158210250Y-102829000D01*
X157494690Y-102829000D01*
X157261301Y-102925673D01*
X157082673Y-103104302D01*
X156986000Y-103337691D01*
X156083000Y-103337691D01*
X156083000Y-100203000D01*
X160909000Y-100203000D01*
X160909000Y-105537000D01*
X160909000Y-105537000D01*
G37*
X160909000Y-105537000D02*
X156083000Y-105537000D01*
X156083000Y-104462250D01*
X156986000Y-104462250D01*
X156986000Y-105015309D01*
X157082673Y-105248698D01*
X157261301Y-105427327D01*
X157494690Y-105524000D01*
X158210250Y-105524000D01*
X158369000Y-105365250D01*
X158369000Y-104303500D01*
X158623000Y-104303500D01*
X158623000Y-105365250D01*
X158781750Y-105524000D01*
X159497310Y-105524000D01*
X159730699Y-105427327D01*
X159909327Y-105248698D01*
X160006000Y-105015309D01*
X160006000Y-104462250D01*
X159847250Y-104303500D01*
X158623000Y-104303500D01*
X158369000Y-104303500D01*
X157144750Y-104303500D01*
X156986000Y-104462250D01*
X156083000Y-104462250D01*
X156083000Y-103337691D01*
X156986000Y-103337691D01*
X156986000Y-103890750D01*
X157144750Y-104049500D01*
X158369000Y-104049500D01*
X158369000Y-102987750D01*
X158623000Y-102987750D01*
X158623000Y-104049500D01*
X159847250Y-104049500D01*
X160006000Y-103890750D01*
X160006000Y-103337691D01*
X159909327Y-103104302D01*
X159730699Y-102925673D01*
X159497310Y-102829000D01*
X158781750Y-102829000D01*
X158623000Y-102987750D01*
X158369000Y-102987750D01*
X158210250Y-102829000D01*
X157494690Y-102829000D01*
X157261301Y-102925673D01*
X157082673Y-103104302D01*
X156986000Y-103337691D01*
X156083000Y-103337691D01*
X156083000Y-100203000D01*
X160909000Y-100203000D01*
X160909000Y-105537000D01*
G36*
X141605000Y-102362000D02*
X136271000Y-102362000D01*
X136271000Y-100107750D01*
X138897000Y-100107750D01*
X138897000Y-100823310D01*
X138993673Y-101056699D01*
X139172302Y-101235327D01*
X139405691Y-101332000D01*
X139958750Y-101332000D01*
X140117500Y-101173250D01*
X140117500Y-99949000D01*
X140371500Y-99949000D01*
X140371500Y-101173250D01*
X140530250Y-101332000D01*
X141083309Y-101332000D01*
X141316698Y-101235327D01*
X141495327Y-101056699D01*
X141592000Y-100823310D01*
X141592000Y-100107750D01*
X141433250Y-99949000D01*
X140371500Y-99949000D01*
X140117500Y-99949000D01*
X139055750Y-99949000D01*
X138897000Y-100107750D01*
X136271000Y-100107750D01*
X136271000Y-98820690D01*
X138897000Y-98820690D01*
X138897000Y-99536250D01*
X139055750Y-99695000D01*
X140117500Y-99695000D01*
X140117500Y-98470750D01*
X140371500Y-98470750D01*
X140371500Y-99695000D01*
X141433250Y-99695000D01*
X141592000Y-99536250D01*
X141592000Y-98820690D01*
X141495327Y-98587301D01*
X141316698Y-98408673D01*
X141083309Y-98312000D01*
X140530250Y-98312000D01*
X140371500Y-98470750D01*
X140117500Y-98470750D01*
X139958750Y-98312000D01*
X139405691Y-98312000D01*
X139172302Y-98408673D01*
X138993673Y-98587301D01*
X138897000Y-98820690D01*
X136271000Y-98820690D01*
X136271000Y-97282000D01*
X141605000Y-97282000D01*
X141605000Y-102362000D01*
X141605000Y-102362000D01*
G37*
X141605000Y-102362000D02*
X136271000Y-102362000D01*
X136271000Y-100107750D01*
X138897000Y-100107750D01*
X138897000Y-100823310D01*
X138993673Y-101056699D01*
X139172302Y-101235327D01*
X139405691Y-101332000D01*
X139958750Y-101332000D01*
X140117500Y-101173250D01*
X140117500Y-99949000D01*
X140371500Y-99949000D01*
X140371500Y-101173250D01*
X140530250Y-101332000D01*
X141083309Y-101332000D01*
X141316698Y-101235327D01*
X141495327Y-101056699D01*
X141592000Y-100823310D01*
X141592000Y-100107750D01*
X141433250Y-99949000D01*
X140371500Y-99949000D01*
X140117500Y-99949000D01*
X139055750Y-99949000D01*
X138897000Y-100107750D01*
X136271000Y-100107750D01*
X136271000Y-98820690D01*
X138897000Y-98820690D01*
X138897000Y-99536250D01*
X139055750Y-99695000D01*
X140117500Y-99695000D01*
X140117500Y-98470750D01*
X140371500Y-98470750D01*
X140371500Y-99695000D01*
X141433250Y-99695000D01*
X141592000Y-99536250D01*
X141592000Y-98820690D01*
X141495327Y-98587301D01*
X141316698Y-98408673D01*
X141083309Y-98312000D01*
X140530250Y-98312000D01*
X140371500Y-98470750D01*
X140117500Y-98470750D01*
X139958750Y-98312000D01*
X139405691Y-98312000D01*
X139172302Y-98408673D01*
X138993673Y-98587301D01*
X138897000Y-98820690D01*
X136271000Y-98820690D01*
X136271000Y-97282000D01*
X141605000Y-97282000D01*
X141605000Y-102362000D01*
G04 #@! TD*
M02*
