G04 #@! TF.GenerationSoftware,KiCad,Pcbnew,5.0.2*
G04 #@! TF.CreationDate,2019-01-18T19:38:06+01:00*
G04 #@! TF.ProjectId,ATtiny44_DevBoard,41547469-6e79-4343-945f-446576426f61,rev?*
G04 #@! TF.SameCoordinates,Original*
G04 #@! TF.FileFunction,Soldermask,Top*
G04 #@! TF.FilePolarity,Negative*
%FSLAX46Y46*%
G04 Gerber Fmt 4.6, Leading zero omitted, Abs format (unit mm)*
G04 Created by KiCad (PCBNEW 5.0.2) date Fri 18 Jan 2019 07:38:06 PM CET*
%MOMM*%
%LPD*%
G01*
G04 APERTURE LIST*
%ADD10C,0.100000*%
G04 APERTURE END LIST*
D10*
G36*
X169192693Y-106013859D02*
X169458437Y-106066719D01*
X169959087Y-106274095D01*
X170380160Y-106555448D01*
X170409663Y-106575161D01*
X170792839Y-106958337D01*
X170792841Y-106958340D01*
X171093905Y-107408913D01*
X171301281Y-107909563D01*
X171301281Y-107909564D01*
X171407000Y-108441049D01*
X171407000Y-108982951D01*
X171372657Y-109155605D01*
X171301281Y-109514437D01*
X171093905Y-110015087D01*
X170803636Y-110449504D01*
X170792839Y-110465663D01*
X170409663Y-110848839D01*
X170409660Y-110848841D01*
X169959087Y-111149905D01*
X169458437Y-111357281D01*
X169192693Y-111410141D01*
X168926951Y-111463000D01*
X168385049Y-111463000D01*
X168119307Y-111410141D01*
X167853563Y-111357281D01*
X167352913Y-111149905D01*
X166902340Y-110848841D01*
X166902337Y-110848839D01*
X166519161Y-110465663D01*
X166508364Y-110449504D01*
X166218095Y-110015087D01*
X166010719Y-109514437D01*
X165939343Y-109155605D01*
X165905000Y-108982951D01*
X165905000Y-108441049D01*
X166010719Y-107909564D01*
X166010719Y-107909563D01*
X166218095Y-107408913D01*
X166519159Y-106958340D01*
X166519161Y-106958337D01*
X166902337Y-106575161D01*
X166931840Y-106555448D01*
X167352913Y-106274095D01*
X167853563Y-106066719D01*
X168119307Y-106013859D01*
X168385049Y-105961000D01*
X168926951Y-105961000D01*
X169192693Y-106013859D01*
X169192693Y-106013859D01*
G37*
G36*
X128552693Y-106013859D02*
X128818437Y-106066719D01*
X129319087Y-106274095D01*
X129740160Y-106555448D01*
X129769663Y-106575161D01*
X130152839Y-106958337D01*
X130152841Y-106958340D01*
X130453905Y-107408913D01*
X130661281Y-107909563D01*
X130661281Y-107909564D01*
X130767000Y-108441049D01*
X130767000Y-108982951D01*
X130732657Y-109155605D01*
X130661281Y-109514437D01*
X130453905Y-110015087D01*
X130163636Y-110449504D01*
X130152839Y-110465663D01*
X129769663Y-110848839D01*
X129769660Y-110848841D01*
X129319087Y-111149905D01*
X128818437Y-111357281D01*
X128552693Y-111410141D01*
X128286951Y-111463000D01*
X127745049Y-111463000D01*
X127479307Y-111410141D01*
X127213563Y-111357281D01*
X126712913Y-111149905D01*
X126262340Y-110848841D01*
X126262337Y-110848839D01*
X125879161Y-110465663D01*
X125868364Y-110449504D01*
X125578095Y-110015087D01*
X125370719Y-109514437D01*
X125299343Y-109155605D01*
X125265000Y-108982951D01*
X125265000Y-108441049D01*
X125370719Y-107909564D01*
X125370719Y-107909563D01*
X125578095Y-107408913D01*
X125879159Y-106958340D01*
X125879161Y-106958337D01*
X126262337Y-106575161D01*
X126291840Y-106555448D01*
X126712913Y-106274095D01*
X127213563Y-106066719D01*
X127479307Y-106013859D01*
X127745049Y-105961000D01*
X128286951Y-105961000D01*
X128552693Y-106013859D01*
X128552693Y-106013859D01*
G37*
G36*
X142507562Y-107825681D02*
X142542477Y-107836273D01*
X142574665Y-107853478D01*
X142602873Y-107876627D01*
X142626022Y-107904835D01*
X142643227Y-107937023D01*
X142653819Y-107971938D01*
X142658000Y-108014395D01*
X142658000Y-109155605D01*
X142653819Y-109198062D01*
X142643227Y-109232977D01*
X142626022Y-109265165D01*
X142602873Y-109293373D01*
X142574665Y-109316522D01*
X142542477Y-109333727D01*
X142507562Y-109344319D01*
X142465105Y-109348500D01*
X140998895Y-109348500D01*
X140956438Y-109344319D01*
X140921523Y-109333727D01*
X140889335Y-109316522D01*
X140861127Y-109293373D01*
X140837978Y-109265165D01*
X140820773Y-109232977D01*
X140810181Y-109198062D01*
X140806000Y-109155605D01*
X140806000Y-108014395D01*
X140810181Y-107971938D01*
X140820773Y-107937023D01*
X140837978Y-107904835D01*
X140861127Y-107876627D01*
X140889335Y-107853478D01*
X140921523Y-107836273D01*
X140956438Y-107825681D01*
X140998895Y-107821500D01*
X142465105Y-107821500D01*
X142507562Y-107825681D01*
X142507562Y-107825681D01*
G37*
G36*
X164097562Y-106900181D02*
X164132477Y-106910773D01*
X164164665Y-106927978D01*
X164192873Y-106951127D01*
X164216022Y-106979335D01*
X164233227Y-107011523D01*
X164243819Y-107046438D01*
X164248000Y-107088895D01*
X164248000Y-108230105D01*
X164243819Y-108272562D01*
X164233227Y-108307477D01*
X164216022Y-108339665D01*
X164192873Y-108367873D01*
X164164665Y-108391022D01*
X164132477Y-108408227D01*
X164097562Y-108418819D01*
X164055105Y-108423000D01*
X162588895Y-108423000D01*
X162546438Y-108418819D01*
X162511523Y-108408227D01*
X162479335Y-108391022D01*
X162451127Y-108367873D01*
X162427978Y-108339665D01*
X162410773Y-108307477D01*
X162400181Y-108272562D01*
X162396000Y-108230105D01*
X162396000Y-107088895D01*
X162400181Y-107046438D01*
X162410773Y-107011523D01*
X162427978Y-106979335D01*
X162451127Y-106951127D01*
X162479335Y-106927978D01*
X162511523Y-106910773D01*
X162546438Y-106900181D01*
X162588895Y-106896000D01*
X164055105Y-106896000D01*
X164097562Y-106900181D01*
X164097562Y-106900181D01*
G37*
G36*
X159271562Y-106392181D02*
X159306477Y-106402773D01*
X159338665Y-106419978D01*
X159366873Y-106443127D01*
X159390022Y-106471335D01*
X159407227Y-106503523D01*
X159417819Y-106538438D01*
X159422000Y-106580895D01*
X159422000Y-107722105D01*
X159417819Y-107764562D01*
X159407227Y-107799477D01*
X159390022Y-107831665D01*
X159366873Y-107859873D01*
X159338665Y-107883022D01*
X159306477Y-107900227D01*
X159271562Y-107910819D01*
X159229105Y-107915000D01*
X157762895Y-107915000D01*
X157720438Y-107910819D01*
X157685523Y-107900227D01*
X157653335Y-107883022D01*
X157625127Y-107859873D01*
X157601978Y-107831665D01*
X157584773Y-107799477D01*
X157574181Y-107764562D01*
X157570000Y-107722105D01*
X157570000Y-106580895D01*
X157574181Y-106538438D01*
X157584773Y-106503523D01*
X157601978Y-106471335D01*
X157625127Y-106443127D01*
X157653335Y-106419978D01*
X157685523Y-106402773D01*
X157720438Y-106392181D01*
X157762895Y-106388000D01*
X159229105Y-106388000D01*
X159271562Y-106392181D01*
X159271562Y-106392181D01*
G37*
G36*
X151621443Y-105277519D02*
X151687627Y-105284037D01*
X151800853Y-105318384D01*
X151857467Y-105335557D01*
X151911923Y-105364665D01*
X152013991Y-105419222D01*
X152024209Y-105427608D01*
X152151186Y-105531814D01*
X152234448Y-105633271D01*
X152263778Y-105669009D01*
X152263779Y-105669011D01*
X152347443Y-105825533D01*
X152347443Y-105825534D01*
X152398963Y-105995373D01*
X152416359Y-106172000D01*
X152398963Y-106348627D01*
X152377319Y-106419978D01*
X152347443Y-106518467D01*
X152336768Y-106538438D01*
X152263778Y-106674991D01*
X152234448Y-106710729D01*
X152151186Y-106812186D01*
X152068019Y-106880438D01*
X152013991Y-106924778D01*
X152013989Y-106924779D01*
X151857467Y-107008443D01*
X151800853Y-107025616D01*
X151687627Y-107059963D01*
X151621458Y-107066480D01*
X151555260Y-107073000D01*
X151466740Y-107073000D01*
X151400542Y-107066480D01*
X151334373Y-107059963D01*
X151221147Y-107025616D01*
X151164533Y-107008443D01*
X151008011Y-106924779D01*
X151008009Y-106924778D01*
X150953981Y-106880438D01*
X150870814Y-106812186D01*
X150787552Y-106710729D01*
X150758222Y-106674991D01*
X150685232Y-106538438D01*
X150674557Y-106518467D01*
X150644681Y-106419978D01*
X150623037Y-106348627D01*
X150605641Y-106172000D01*
X150623037Y-105995373D01*
X150674557Y-105825534D01*
X150674557Y-105825533D01*
X150758221Y-105669011D01*
X150758222Y-105669009D01*
X150787552Y-105633271D01*
X150870814Y-105531814D01*
X150997791Y-105427608D01*
X151008009Y-105419222D01*
X151110077Y-105364665D01*
X151164533Y-105335557D01*
X151221147Y-105318384D01*
X151334373Y-105284037D01*
X151400557Y-105277519D01*
X151466740Y-105271000D01*
X151555260Y-105271000D01*
X151621443Y-105277519D01*
X151621443Y-105277519D01*
G37*
G36*
X146541443Y-105277519D02*
X146607627Y-105284037D01*
X146720853Y-105318384D01*
X146777467Y-105335557D01*
X146831923Y-105364665D01*
X146933991Y-105419222D01*
X146944209Y-105427608D01*
X147071186Y-105531814D01*
X147154448Y-105633271D01*
X147183778Y-105669009D01*
X147183779Y-105669011D01*
X147267443Y-105825533D01*
X147267443Y-105825534D01*
X147318963Y-105995373D01*
X147336359Y-106172000D01*
X147318963Y-106348627D01*
X147297319Y-106419978D01*
X147267443Y-106518467D01*
X147256768Y-106538438D01*
X147183778Y-106674991D01*
X147154448Y-106710729D01*
X147071186Y-106812186D01*
X146988019Y-106880438D01*
X146933991Y-106924778D01*
X146933989Y-106924779D01*
X146777467Y-107008443D01*
X146720853Y-107025616D01*
X146607627Y-107059963D01*
X146541458Y-107066480D01*
X146475260Y-107073000D01*
X146386740Y-107073000D01*
X146320542Y-107066480D01*
X146254373Y-107059963D01*
X146141147Y-107025616D01*
X146084533Y-107008443D01*
X145928011Y-106924779D01*
X145928009Y-106924778D01*
X145873981Y-106880438D01*
X145790814Y-106812186D01*
X145707552Y-106710729D01*
X145678222Y-106674991D01*
X145605232Y-106538438D01*
X145594557Y-106518467D01*
X145564681Y-106419978D01*
X145543037Y-106348627D01*
X145525641Y-106172000D01*
X145543037Y-105995373D01*
X145594557Y-105825534D01*
X145594557Y-105825533D01*
X145678221Y-105669011D01*
X145678222Y-105669009D01*
X145707552Y-105633271D01*
X145790814Y-105531814D01*
X145917791Y-105427608D01*
X145928009Y-105419222D01*
X146030077Y-105364665D01*
X146084533Y-105335557D01*
X146141147Y-105318384D01*
X146254373Y-105284037D01*
X146320557Y-105277519D01*
X146386740Y-105271000D01*
X146475260Y-105271000D01*
X146541443Y-105277519D01*
X146541443Y-105277519D01*
G37*
G36*
X149081443Y-105277519D02*
X149147627Y-105284037D01*
X149260853Y-105318384D01*
X149317467Y-105335557D01*
X149371923Y-105364665D01*
X149473991Y-105419222D01*
X149484209Y-105427608D01*
X149611186Y-105531814D01*
X149694448Y-105633271D01*
X149723778Y-105669009D01*
X149723779Y-105669011D01*
X149807443Y-105825533D01*
X149807443Y-105825534D01*
X149858963Y-105995373D01*
X149876359Y-106172000D01*
X149858963Y-106348627D01*
X149837319Y-106419978D01*
X149807443Y-106518467D01*
X149796768Y-106538438D01*
X149723778Y-106674991D01*
X149694448Y-106710729D01*
X149611186Y-106812186D01*
X149528019Y-106880438D01*
X149473991Y-106924778D01*
X149473989Y-106924779D01*
X149317467Y-107008443D01*
X149260853Y-107025616D01*
X149147627Y-107059963D01*
X149081458Y-107066480D01*
X149015260Y-107073000D01*
X148926740Y-107073000D01*
X148860542Y-107066480D01*
X148794373Y-107059963D01*
X148681147Y-107025616D01*
X148624533Y-107008443D01*
X148468011Y-106924779D01*
X148468009Y-106924778D01*
X148413981Y-106880438D01*
X148330814Y-106812186D01*
X148247552Y-106710729D01*
X148218222Y-106674991D01*
X148145232Y-106538438D01*
X148134557Y-106518467D01*
X148104681Y-106419978D01*
X148083037Y-106348627D01*
X148065641Y-106172000D01*
X148083037Y-105995373D01*
X148134557Y-105825534D01*
X148134557Y-105825533D01*
X148218221Y-105669011D01*
X148218222Y-105669009D01*
X148247552Y-105633271D01*
X148330814Y-105531814D01*
X148457791Y-105427608D01*
X148468009Y-105419222D01*
X148570077Y-105364665D01*
X148624533Y-105335557D01*
X148681147Y-105318384D01*
X148794373Y-105284037D01*
X148860557Y-105277519D01*
X148926740Y-105271000D01*
X149015260Y-105271000D01*
X149081443Y-105277519D01*
X149081443Y-105277519D01*
G37*
G36*
X142507562Y-104850681D02*
X142542477Y-104861273D01*
X142574665Y-104878478D01*
X142602873Y-104901627D01*
X142626022Y-104929835D01*
X142643227Y-104962023D01*
X142653819Y-104996938D01*
X142658000Y-105039395D01*
X142658000Y-106180605D01*
X142653819Y-106223062D01*
X142643227Y-106257977D01*
X142626022Y-106290165D01*
X142602873Y-106318373D01*
X142574665Y-106341522D01*
X142542477Y-106358727D01*
X142507562Y-106369319D01*
X142465105Y-106373500D01*
X140998895Y-106373500D01*
X140956438Y-106369319D01*
X140921523Y-106358727D01*
X140889335Y-106341522D01*
X140861127Y-106318373D01*
X140837978Y-106290165D01*
X140820773Y-106257977D01*
X140810181Y-106223062D01*
X140806000Y-106180605D01*
X140806000Y-105039395D01*
X140810181Y-104996938D01*
X140820773Y-104962023D01*
X140837978Y-104929835D01*
X140861127Y-104901627D01*
X140889335Y-104878478D01*
X140921523Y-104861273D01*
X140956438Y-104850681D01*
X140998895Y-104846500D01*
X142465105Y-104846500D01*
X142507562Y-104850681D01*
X142507562Y-104850681D01*
G37*
G36*
X164097562Y-103925181D02*
X164132477Y-103935773D01*
X164164665Y-103952978D01*
X164192873Y-103976127D01*
X164216022Y-104004335D01*
X164233227Y-104036523D01*
X164243819Y-104071438D01*
X164248000Y-104113895D01*
X164248000Y-105255105D01*
X164243819Y-105297562D01*
X164233227Y-105332477D01*
X164216022Y-105364665D01*
X164192873Y-105392873D01*
X164164665Y-105416022D01*
X164132477Y-105433227D01*
X164097562Y-105443819D01*
X164055105Y-105448000D01*
X162588895Y-105448000D01*
X162546438Y-105443819D01*
X162511523Y-105433227D01*
X162479335Y-105416022D01*
X162451127Y-105392873D01*
X162427978Y-105364665D01*
X162410773Y-105332477D01*
X162400181Y-105297562D01*
X162396000Y-105255105D01*
X162396000Y-104113895D01*
X162400181Y-104071438D01*
X162410773Y-104036523D01*
X162427978Y-104004335D01*
X162451127Y-103976127D01*
X162479335Y-103952978D01*
X162511523Y-103935773D01*
X162546438Y-103925181D01*
X162588895Y-103921000D01*
X164055105Y-103921000D01*
X164097562Y-103925181D01*
X164097562Y-103925181D01*
G37*
G36*
X159271562Y-103417181D02*
X159306477Y-103427773D01*
X159338665Y-103444978D01*
X159366873Y-103468127D01*
X159390022Y-103496335D01*
X159407227Y-103528523D01*
X159417819Y-103563438D01*
X159422000Y-103605895D01*
X159422000Y-104747105D01*
X159417819Y-104789562D01*
X159407227Y-104824477D01*
X159390022Y-104856665D01*
X159366873Y-104884873D01*
X159338665Y-104908022D01*
X159306477Y-104925227D01*
X159271562Y-104935819D01*
X159229105Y-104940000D01*
X157762895Y-104940000D01*
X157720438Y-104935819D01*
X157685523Y-104925227D01*
X157653335Y-104908022D01*
X157625127Y-104884873D01*
X157601978Y-104856665D01*
X157584773Y-104824477D01*
X157574181Y-104789562D01*
X157570000Y-104747105D01*
X157570000Y-103605895D01*
X157574181Y-103563438D01*
X157584773Y-103528523D01*
X157601978Y-103496335D01*
X157625127Y-103468127D01*
X157653335Y-103444978D01*
X157685523Y-103427773D01*
X157720438Y-103417181D01*
X157762895Y-103413000D01*
X159229105Y-103413000D01*
X159271562Y-103417181D01*
X159271562Y-103417181D01*
G37*
G36*
X146541443Y-102737519D02*
X146607627Y-102744037D01*
X146720853Y-102778384D01*
X146777467Y-102795557D01*
X146916087Y-102869652D01*
X146933991Y-102879222D01*
X146969729Y-102908552D01*
X147071186Y-102991814D01*
X147154448Y-103093271D01*
X147183778Y-103129009D01*
X147183779Y-103129011D01*
X147267443Y-103285533D01*
X147267443Y-103285534D01*
X147318963Y-103455373D01*
X147336359Y-103632000D01*
X147318963Y-103808627D01*
X147284875Y-103921000D01*
X147267443Y-103978467D01*
X147195054Y-104113895D01*
X147183778Y-104134991D01*
X147154448Y-104170729D01*
X147071186Y-104272186D01*
X146969729Y-104355448D01*
X146933991Y-104384778D01*
X146933989Y-104384779D01*
X146777467Y-104468443D01*
X146720853Y-104485616D01*
X146607627Y-104519963D01*
X146541443Y-104526481D01*
X146475260Y-104533000D01*
X146386740Y-104533000D01*
X146320557Y-104526481D01*
X146254373Y-104519963D01*
X146141147Y-104485616D01*
X146084533Y-104468443D01*
X145928011Y-104384779D01*
X145928009Y-104384778D01*
X145892271Y-104355448D01*
X145790814Y-104272186D01*
X145707552Y-104170729D01*
X145678222Y-104134991D01*
X145666946Y-104113895D01*
X145594557Y-103978467D01*
X145577125Y-103921000D01*
X145543037Y-103808627D01*
X145525641Y-103632000D01*
X145543037Y-103455373D01*
X145594557Y-103285534D01*
X145594557Y-103285533D01*
X145678221Y-103129011D01*
X145678222Y-103129009D01*
X145707552Y-103093271D01*
X145790814Y-102991814D01*
X145892271Y-102908552D01*
X145928009Y-102879222D01*
X145945913Y-102869652D01*
X146084533Y-102795557D01*
X146141147Y-102778384D01*
X146254373Y-102744037D01*
X146320557Y-102737519D01*
X146386740Y-102731000D01*
X146475260Y-102731000D01*
X146541443Y-102737519D01*
X146541443Y-102737519D01*
G37*
G36*
X149081443Y-102737519D02*
X149147627Y-102744037D01*
X149260853Y-102778384D01*
X149317467Y-102795557D01*
X149456087Y-102869652D01*
X149473991Y-102879222D01*
X149509729Y-102908552D01*
X149611186Y-102991814D01*
X149694448Y-103093271D01*
X149723778Y-103129009D01*
X149723779Y-103129011D01*
X149807443Y-103285533D01*
X149807443Y-103285534D01*
X149858963Y-103455373D01*
X149876359Y-103632000D01*
X149858963Y-103808627D01*
X149824875Y-103921000D01*
X149807443Y-103978467D01*
X149735054Y-104113895D01*
X149723778Y-104134991D01*
X149694448Y-104170729D01*
X149611186Y-104272186D01*
X149509729Y-104355448D01*
X149473991Y-104384778D01*
X149473989Y-104384779D01*
X149317467Y-104468443D01*
X149260853Y-104485616D01*
X149147627Y-104519963D01*
X149081443Y-104526481D01*
X149015260Y-104533000D01*
X148926740Y-104533000D01*
X148860557Y-104526481D01*
X148794373Y-104519963D01*
X148681147Y-104485616D01*
X148624533Y-104468443D01*
X148468011Y-104384779D01*
X148468009Y-104384778D01*
X148432271Y-104355448D01*
X148330814Y-104272186D01*
X148247552Y-104170729D01*
X148218222Y-104134991D01*
X148206946Y-104113895D01*
X148134557Y-103978467D01*
X148117125Y-103921000D01*
X148083037Y-103808627D01*
X148065641Y-103632000D01*
X148083037Y-103455373D01*
X148134557Y-103285534D01*
X148134557Y-103285533D01*
X148218221Y-103129011D01*
X148218222Y-103129009D01*
X148247552Y-103093271D01*
X148330814Y-102991814D01*
X148432271Y-102908552D01*
X148468009Y-102879222D01*
X148485913Y-102869652D01*
X148624533Y-102795557D01*
X148681147Y-102778384D01*
X148794373Y-102744037D01*
X148860557Y-102737519D01*
X148926740Y-102731000D01*
X149015260Y-102731000D01*
X149081443Y-102737519D01*
X149081443Y-102737519D01*
G37*
G36*
X152412000Y-104533000D02*
X150610000Y-104533000D01*
X150610000Y-102731000D01*
X152412000Y-102731000D01*
X152412000Y-104533000D01*
X152412000Y-104533000D01*
G37*
G36*
X167496442Y-100197518D02*
X167562627Y-100204037D01*
X167675853Y-100238384D01*
X167732467Y-100255557D01*
X167828512Y-100306895D01*
X167888991Y-100339222D01*
X167924729Y-100368552D01*
X168026186Y-100451814D01*
X168109448Y-100553271D01*
X168138778Y-100589009D01*
X168138779Y-100589011D01*
X168222443Y-100745533D01*
X168222443Y-100745534D01*
X168273963Y-100915373D01*
X168291359Y-101092000D01*
X168273963Y-101268627D01*
X168239616Y-101381853D01*
X168222443Y-101438467D01*
X168148348Y-101577087D01*
X168138778Y-101594991D01*
X168115705Y-101623105D01*
X168026186Y-101732186D01*
X167934213Y-101807665D01*
X167888991Y-101844778D01*
X167888989Y-101844779D01*
X167732467Y-101928443D01*
X167675853Y-101945616D01*
X167562627Y-101979963D01*
X167496442Y-101986482D01*
X167430260Y-101993000D01*
X167341740Y-101993000D01*
X167275558Y-101986482D01*
X167209373Y-101979963D01*
X167096147Y-101945616D01*
X167039533Y-101928443D01*
X166883011Y-101844779D01*
X166883009Y-101844778D01*
X166837787Y-101807665D01*
X166745814Y-101732186D01*
X166656295Y-101623105D01*
X166633222Y-101594991D01*
X166623652Y-101577087D01*
X166549557Y-101438467D01*
X166532384Y-101381853D01*
X166498037Y-101268627D01*
X166480641Y-101092000D01*
X166498037Y-100915373D01*
X166549557Y-100745534D01*
X166549557Y-100745533D01*
X166633221Y-100589011D01*
X166633222Y-100589009D01*
X166662552Y-100553271D01*
X166745814Y-100451814D01*
X166847271Y-100368552D01*
X166883009Y-100339222D01*
X166943488Y-100306895D01*
X167039533Y-100255557D01*
X167096147Y-100238384D01*
X167209373Y-100204037D01*
X167275558Y-100197518D01*
X167341740Y-100191000D01*
X167430260Y-100191000D01*
X167496442Y-100197518D01*
X167496442Y-100197518D01*
G37*
G36*
X129396442Y-100197518D02*
X129462627Y-100204037D01*
X129575853Y-100238384D01*
X129632467Y-100255557D01*
X129728512Y-100306895D01*
X129788991Y-100339222D01*
X129824729Y-100368552D01*
X129926186Y-100451814D01*
X130009448Y-100553271D01*
X130038778Y-100589009D01*
X130038779Y-100589011D01*
X130122443Y-100745533D01*
X130122443Y-100745534D01*
X130173963Y-100915373D01*
X130191359Y-101092000D01*
X130173963Y-101268627D01*
X130139616Y-101381853D01*
X130122443Y-101438467D01*
X130048348Y-101577087D01*
X130038778Y-101594991D01*
X130015705Y-101623105D01*
X129926186Y-101732186D01*
X129834213Y-101807665D01*
X129788991Y-101844778D01*
X129788989Y-101844779D01*
X129632467Y-101928443D01*
X129575853Y-101945616D01*
X129462627Y-101979963D01*
X129396442Y-101986482D01*
X129330260Y-101993000D01*
X129241740Y-101993000D01*
X129175558Y-101986482D01*
X129109373Y-101979963D01*
X128996147Y-101945616D01*
X128939533Y-101928443D01*
X128783011Y-101844779D01*
X128783009Y-101844778D01*
X128737787Y-101807665D01*
X128645814Y-101732186D01*
X128556295Y-101623105D01*
X128533222Y-101594991D01*
X128523652Y-101577087D01*
X128449557Y-101438467D01*
X128432384Y-101381853D01*
X128398037Y-101268627D01*
X128380641Y-101092000D01*
X128398037Y-100915373D01*
X128449557Y-100745534D01*
X128449557Y-100745533D01*
X128533221Y-100589011D01*
X128533222Y-100589009D01*
X128562552Y-100553271D01*
X128645814Y-100451814D01*
X128747271Y-100368552D01*
X128783009Y-100339222D01*
X128843488Y-100306895D01*
X128939533Y-100255557D01*
X128996147Y-100238384D01*
X129109373Y-100204037D01*
X129175558Y-100197518D01*
X129241740Y-100191000D01*
X129330260Y-100191000D01*
X129396442Y-100197518D01*
X129396442Y-100197518D01*
G37*
G36*
X142218062Y-100043181D02*
X142252977Y-100053773D01*
X142285165Y-100070978D01*
X142313373Y-100094127D01*
X142336522Y-100122335D01*
X142353727Y-100154523D01*
X142364319Y-100189438D01*
X142368500Y-100231895D01*
X142368500Y-101698105D01*
X142364319Y-101740562D01*
X142353727Y-101775477D01*
X142336522Y-101807665D01*
X142313373Y-101835873D01*
X142285165Y-101859022D01*
X142252977Y-101876227D01*
X142218062Y-101886819D01*
X142175605Y-101891000D01*
X141034395Y-101891000D01*
X140991938Y-101886819D01*
X140957023Y-101876227D01*
X140924835Y-101859022D01*
X140896627Y-101835873D01*
X140873478Y-101807665D01*
X140856273Y-101775477D01*
X140845681Y-101740562D01*
X140841500Y-101698105D01*
X140841500Y-100231895D01*
X140845681Y-100189438D01*
X140856273Y-100154523D01*
X140873478Y-100122335D01*
X140896627Y-100094127D01*
X140924835Y-100070978D01*
X140957023Y-100053773D01*
X140991938Y-100043181D01*
X141034395Y-100039000D01*
X142175605Y-100039000D01*
X142218062Y-100043181D01*
X142218062Y-100043181D01*
G37*
G36*
X139243062Y-100043181D02*
X139277977Y-100053773D01*
X139310165Y-100070978D01*
X139338373Y-100094127D01*
X139361522Y-100122335D01*
X139378727Y-100154523D01*
X139389319Y-100189438D01*
X139393500Y-100231895D01*
X139393500Y-101698105D01*
X139389319Y-101740562D01*
X139378727Y-101775477D01*
X139361522Y-101807665D01*
X139338373Y-101835873D01*
X139310165Y-101859022D01*
X139277977Y-101876227D01*
X139243062Y-101886819D01*
X139200605Y-101891000D01*
X138059395Y-101891000D01*
X138016938Y-101886819D01*
X137982023Y-101876227D01*
X137949835Y-101859022D01*
X137921627Y-101835873D01*
X137898478Y-101807665D01*
X137881273Y-101775477D01*
X137870681Y-101740562D01*
X137866500Y-101698105D01*
X137866500Y-100231895D01*
X137870681Y-100189438D01*
X137881273Y-100154523D01*
X137898478Y-100122335D01*
X137921627Y-100094127D01*
X137949835Y-100070978D01*
X137982023Y-100053773D01*
X138016938Y-100043181D01*
X138059395Y-100039000D01*
X139200605Y-100039000D01*
X139243062Y-100043181D01*
X139243062Y-100043181D01*
G37*
G36*
X129396443Y-97657519D02*
X129462627Y-97664037D01*
X129575853Y-97698384D01*
X129632467Y-97715557D01*
X129771087Y-97789652D01*
X129788991Y-97799222D01*
X129824729Y-97828552D01*
X129926186Y-97911814D01*
X130009448Y-98013271D01*
X130038778Y-98049009D01*
X130038779Y-98049011D01*
X130122443Y-98205533D01*
X130122443Y-98205534D01*
X130173963Y-98375373D01*
X130191359Y-98552000D01*
X130173963Y-98728627D01*
X130139616Y-98841853D01*
X130122443Y-98898467D01*
X130048348Y-99037087D01*
X130038778Y-99054991D01*
X130009448Y-99090729D01*
X129926186Y-99192186D01*
X129824729Y-99275448D01*
X129788991Y-99304778D01*
X129788989Y-99304779D01*
X129632467Y-99388443D01*
X129575853Y-99405616D01*
X129462627Y-99439963D01*
X129396443Y-99446481D01*
X129330260Y-99453000D01*
X129241740Y-99453000D01*
X129175557Y-99446481D01*
X129109373Y-99439963D01*
X128996147Y-99405616D01*
X128939533Y-99388443D01*
X128783011Y-99304779D01*
X128783009Y-99304778D01*
X128747271Y-99275448D01*
X128645814Y-99192186D01*
X128562552Y-99090729D01*
X128533222Y-99054991D01*
X128523652Y-99037087D01*
X128449557Y-98898467D01*
X128432384Y-98841853D01*
X128398037Y-98728627D01*
X128380641Y-98552000D01*
X128398037Y-98375373D01*
X128449557Y-98205534D01*
X128449557Y-98205533D01*
X128533221Y-98049011D01*
X128533222Y-98049009D01*
X128562552Y-98013271D01*
X128645814Y-97911814D01*
X128747271Y-97828552D01*
X128783009Y-97799222D01*
X128800913Y-97789652D01*
X128939533Y-97715557D01*
X128996147Y-97698384D01*
X129109373Y-97664037D01*
X129175557Y-97657519D01*
X129241740Y-97651000D01*
X129330260Y-97651000D01*
X129396443Y-97657519D01*
X129396443Y-97657519D01*
G37*
G36*
X167496443Y-97657519D02*
X167562627Y-97664037D01*
X167675853Y-97698384D01*
X167732467Y-97715557D01*
X167871087Y-97789652D01*
X167888991Y-97799222D01*
X167924729Y-97828552D01*
X168026186Y-97911814D01*
X168109448Y-98013271D01*
X168138778Y-98049009D01*
X168138779Y-98049011D01*
X168222443Y-98205533D01*
X168222443Y-98205534D01*
X168273963Y-98375373D01*
X168291359Y-98552000D01*
X168273963Y-98728627D01*
X168239616Y-98841853D01*
X168222443Y-98898467D01*
X168148348Y-99037087D01*
X168138778Y-99054991D01*
X168109448Y-99090729D01*
X168026186Y-99192186D01*
X167924729Y-99275448D01*
X167888991Y-99304778D01*
X167888989Y-99304779D01*
X167732467Y-99388443D01*
X167675853Y-99405616D01*
X167562627Y-99439963D01*
X167496443Y-99446481D01*
X167430260Y-99453000D01*
X167341740Y-99453000D01*
X167275557Y-99446481D01*
X167209373Y-99439963D01*
X167096147Y-99405616D01*
X167039533Y-99388443D01*
X166883011Y-99304779D01*
X166883009Y-99304778D01*
X166847271Y-99275448D01*
X166745814Y-99192186D01*
X166662552Y-99090729D01*
X166633222Y-99054991D01*
X166623652Y-99037087D01*
X166549557Y-98898467D01*
X166532384Y-98841853D01*
X166498037Y-98728627D01*
X166480641Y-98552000D01*
X166498037Y-98375373D01*
X166549557Y-98205534D01*
X166549557Y-98205533D01*
X166633221Y-98049011D01*
X166633222Y-98049009D01*
X166662552Y-98013271D01*
X166745814Y-97911814D01*
X166847271Y-97828552D01*
X166883009Y-97799222D01*
X166900913Y-97789652D01*
X167039533Y-97715557D01*
X167096147Y-97698384D01*
X167209373Y-97664037D01*
X167275557Y-97657519D01*
X167341740Y-97651000D01*
X167430260Y-97651000D01*
X167496443Y-97657519D01*
X167496443Y-97657519D01*
G37*
G36*
X129396442Y-95117518D02*
X129462627Y-95124037D01*
X129575853Y-95158384D01*
X129632467Y-95175557D01*
X129771087Y-95249652D01*
X129788991Y-95259222D01*
X129824729Y-95288552D01*
X129926186Y-95371814D01*
X130009448Y-95473271D01*
X130038778Y-95509009D01*
X130038779Y-95509011D01*
X130122443Y-95665533D01*
X130122443Y-95665534D01*
X130173963Y-95835373D01*
X130191359Y-96012000D01*
X130173963Y-96188627D01*
X130139616Y-96301853D01*
X130122443Y-96358467D01*
X130120020Y-96363000D01*
X130038778Y-96514991D01*
X130009448Y-96550729D01*
X129926186Y-96652186D01*
X129824729Y-96735448D01*
X129788991Y-96764778D01*
X129788989Y-96764779D01*
X129632467Y-96848443D01*
X129575853Y-96865616D01*
X129462627Y-96899963D01*
X129396443Y-96906481D01*
X129330260Y-96913000D01*
X129241740Y-96913000D01*
X129175557Y-96906481D01*
X129109373Y-96899963D01*
X128996147Y-96865616D01*
X128939533Y-96848443D01*
X128783011Y-96764779D01*
X128783009Y-96764778D01*
X128747271Y-96735448D01*
X128645814Y-96652186D01*
X128562552Y-96550729D01*
X128533222Y-96514991D01*
X128451980Y-96363000D01*
X128449557Y-96358467D01*
X128432384Y-96301853D01*
X128398037Y-96188627D01*
X128380641Y-96012000D01*
X128398037Y-95835373D01*
X128449557Y-95665534D01*
X128449557Y-95665533D01*
X128533221Y-95509011D01*
X128533222Y-95509009D01*
X128562552Y-95473271D01*
X128645814Y-95371814D01*
X128747271Y-95288552D01*
X128783009Y-95259222D01*
X128800913Y-95249652D01*
X128939533Y-95175557D01*
X128996147Y-95158384D01*
X129109373Y-95124037D01*
X129175558Y-95117518D01*
X129241740Y-95111000D01*
X129330260Y-95111000D01*
X129396442Y-95117518D01*
X129396442Y-95117518D01*
G37*
G36*
X167496442Y-95117518D02*
X167562627Y-95124037D01*
X167675853Y-95158384D01*
X167732467Y-95175557D01*
X167871087Y-95249652D01*
X167888991Y-95259222D01*
X167924729Y-95288552D01*
X168026186Y-95371814D01*
X168109448Y-95473271D01*
X168138778Y-95509009D01*
X168138779Y-95509011D01*
X168222443Y-95665533D01*
X168222443Y-95665534D01*
X168273963Y-95835373D01*
X168291359Y-96012000D01*
X168273963Y-96188627D01*
X168239616Y-96301853D01*
X168222443Y-96358467D01*
X168220020Y-96363000D01*
X168138778Y-96514991D01*
X168109448Y-96550729D01*
X168026186Y-96652186D01*
X167924729Y-96735448D01*
X167888991Y-96764778D01*
X167888989Y-96764779D01*
X167732467Y-96848443D01*
X167675853Y-96865616D01*
X167562627Y-96899963D01*
X167496443Y-96906481D01*
X167430260Y-96913000D01*
X167341740Y-96913000D01*
X167275557Y-96906481D01*
X167209373Y-96899963D01*
X167096147Y-96865616D01*
X167039533Y-96848443D01*
X166883011Y-96764779D01*
X166883009Y-96764778D01*
X166847271Y-96735448D01*
X166745814Y-96652186D01*
X166662552Y-96550729D01*
X166633222Y-96514991D01*
X166551980Y-96363000D01*
X166549557Y-96358467D01*
X166532384Y-96301853D01*
X166498037Y-96188627D01*
X166480641Y-96012000D01*
X166498037Y-95835373D01*
X166549557Y-95665534D01*
X166549557Y-95665533D01*
X166633221Y-95509011D01*
X166633222Y-95509009D01*
X166662552Y-95473271D01*
X166745814Y-95371814D01*
X166847271Y-95288552D01*
X166883009Y-95259222D01*
X166900913Y-95249652D01*
X167039533Y-95175557D01*
X167096147Y-95158384D01*
X167209373Y-95124037D01*
X167275558Y-95117518D01*
X167341740Y-95111000D01*
X167430260Y-95111000D01*
X167496442Y-95117518D01*
X167496442Y-95117518D01*
G37*
G36*
X152472000Y-96363000D02*
X150870000Y-96363000D01*
X150870000Y-95661000D01*
X152472000Y-95661000D01*
X152472000Y-96363000D01*
X152472000Y-96363000D01*
G37*
G36*
X147072000Y-96363000D02*
X145470000Y-96363000D01*
X145470000Y-95661000D01*
X147072000Y-95661000D01*
X147072000Y-96363000D01*
X147072000Y-96363000D01*
G37*
G36*
X147072000Y-95093000D02*
X145470000Y-95093000D01*
X145470000Y-94391000D01*
X147072000Y-94391000D01*
X147072000Y-95093000D01*
X147072000Y-95093000D01*
G37*
G36*
X152472000Y-95093000D02*
X150870000Y-95093000D01*
X150870000Y-94391000D01*
X152472000Y-94391000D01*
X152472000Y-95093000D01*
X152472000Y-95093000D01*
G37*
G36*
X129396443Y-92577519D02*
X129462627Y-92584037D01*
X129575853Y-92618384D01*
X129632467Y-92635557D01*
X129771087Y-92709652D01*
X129788991Y-92719222D01*
X129824729Y-92748552D01*
X129926186Y-92831814D01*
X130009448Y-92933271D01*
X130038778Y-92969009D01*
X130038779Y-92969011D01*
X130122443Y-93125533D01*
X130122443Y-93125534D01*
X130173963Y-93295373D01*
X130191359Y-93472000D01*
X130173963Y-93648627D01*
X130139616Y-93761853D01*
X130122443Y-93818467D01*
X130120020Y-93823000D01*
X130038778Y-93974991D01*
X130009448Y-94010729D01*
X129926186Y-94112186D01*
X129824729Y-94195448D01*
X129788991Y-94224778D01*
X129788989Y-94224779D01*
X129632467Y-94308443D01*
X129575853Y-94325616D01*
X129462627Y-94359963D01*
X129396443Y-94366481D01*
X129330260Y-94373000D01*
X129241740Y-94373000D01*
X129175557Y-94366481D01*
X129109373Y-94359963D01*
X128996147Y-94325616D01*
X128939533Y-94308443D01*
X128783011Y-94224779D01*
X128783009Y-94224778D01*
X128747271Y-94195448D01*
X128645814Y-94112186D01*
X128562552Y-94010729D01*
X128533222Y-93974991D01*
X128451980Y-93823000D01*
X128449557Y-93818467D01*
X128432384Y-93761853D01*
X128398037Y-93648627D01*
X128380641Y-93472000D01*
X128398037Y-93295373D01*
X128449557Y-93125534D01*
X128449557Y-93125533D01*
X128533221Y-92969011D01*
X128533222Y-92969009D01*
X128562552Y-92933271D01*
X128645814Y-92831814D01*
X128747271Y-92748552D01*
X128783009Y-92719222D01*
X128800913Y-92709652D01*
X128939533Y-92635557D01*
X128996147Y-92618384D01*
X129109373Y-92584037D01*
X129175557Y-92577519D01*
X129241740Y-92571000D01*
X129330260Y-92571000D01*
X129396443Y-92577519D01*
X129396443Y-92577519D01*
G37*
G36*
X167496443Y-92577519D02*
X167562627Y-92584037D01*
X167675853Y-92618384D01*
X167732467Y-92635557D01*
X167871087Y-92709652D01*
X167888991Y-92719222D01*
X167924729Y-92748552D01*
X168026186Y-92831814D01*
X168109448Y-92933271D01*
X168138778Y-92969009D01*
X168138779Y-92969011D01*
X168222443Y-93125533D01*
X168222443Y-93125534D01*
X168273963Y-93295373D01*
X168291359Y-93472000D01*
X168273963Y-93648627D01*
X168239616Y-93761853D01*
X168222443Y-93818467D01*
X168220020Y-93823000D01*
X168138778Y-93974991D01*
X168109448Y-94010729D01*
X168026186Y-94112186D01*
X167924729Y-94195448D01*
X167888991Y-94224778D01*
X167888989Y-94224779D01*
X167732467Y-94308443D01*
X167675853Y-94325616D01*
X167562627Y-94359963D01*
X167496443Y-94366481D01*
X167430260Y-94373000D01*
X167341740Y-94373000D01*
X167275557Y-94366481D01*
X167209373Y-94359963D01*
X167096147Y-94325616D01*
X167039533Y-94308443D01*
X166883011Y-94224779D01*
X166883009Y-94224778D01*
X166847271Y-94195448D01*
X166745814Y-94112186D01*
X166662552Y-94010729D01*
X166633222Y-93974991D01*
X166551980Y-93823000D01*
X166549557Y-93818467D01*
X166532384Y-93761853D01*
X166498037Y-93648627D01*
X166480641Y-93472000D01*
X166498037Y-93295373D01*
X166549557Y-93125534D01*
X166549557Y-93125533D01*
X166633221Y-92969011D01*
X166633222Y-92969009D01*
X166662552Y-92933271D01*
X166745814Y-92831814D01*
X166847271Y-92748552D01*
X166883009Y-92719222D01*
X166900913Y-92709652D01*
X167039533Y-92635557D01*
X167096147Y-92618384D01*
X167209373Y-92584037D01*
X167275558Y-92577518D01*
X167341740Y-92571000D01*
X167430260Y-92571000D01*
X167496443Y-92577519D01*
X167496443Y-92577519D01*
G37*
G36*
X147072000Y-93823000D02*
X145470000Y-93823000D01*
X145470000Y-93121000D01*
X147072000Y-93121000D01*
X147072000Y-93823000D01*
X147072000Y-93823000D01*
G37*
G36*
X152472000Y-93823000D02*
X150870000Y-93823000D01*
X150870000Y-93121000D01*
X152472000Y-93121000D01*
X152472000Y-93823000D01*
X152472000Y-93823000D01*
G37*
G36*
X152472000Y-92553000D02*
X150870000Y-92553000D01*
X150870000Y-91851000D01*
X152472000Y-91851000D01*
X152472000Y-92553000D01*
X152472000Y-92553000D01*
G37*
G36*
X147072000Y-92553000D02*
X145470000Y-92553000D01*
X145470000Y-91851000D01*
X147072000Y-91851000D01*
X147072000Y-92553000D01*
X147072000Y-92553000D01*
G37*
G36*
X144272000Y-91821000D02*
X143637000Y-92456000D01*
X142748000Y-92456000D01*
X142748000Y-90170000D01*
X143891000Y-89027000D01*
X144272000Y-89027000D01*
X144272000Y-91821000D01*
X144272000Y-91821000D01*
G37*
G36*
X129396442Y-90037518D02*
X129462627Y-90044037D01*
X129575853Y-90078384D01*
X129632467Y-90095557D01*
X129755450Y-90161294D01*
X129788991Y-90179222D01*
X129824729Y-90208552D01*
X129926186Y-90291814D01*
X130009448Y-90393271D01*
X130038778Y-90429009D01*
X130038779Y-90429011D01*
X130122443Y-90585533D01*
X130122443Y-90585534D01*
X130173963Y-90755373D01*
X130191359Y-90932000D01*
X130173963Y-91108627D01*
X130139616Y-91221853D01*
X130122443Y-91278467D01*
X130120020Y-91283000D01*
X130038778Y-91434991D01*
X130009448Y-91470729D01*
X129926186Y-91572186D01*
X129824729Y-91655448D01*
X129788991Y-91684778D01*
X129788989Y-91684779D01*
X129632467Y-91768443D01*
X129575853Y-91785616D01*
X129462627Y-91819963D01*
X129396442Y-91826482D01*
X129330260Y-91833000D01*
X129241740Y-91833000D01*
X129175558Y-91826482D01*
X129109373Y-91819963D01*
X128996147Y-91785616D01*
X128939533Y-91768443D01*
X128783011Y-91684779D01*
X128783009Y-91684778D01*
X128747271Y-91655448D01*
X128645814Y-91572186D01*
X128562552Y-91470729D01*
X128533222Y-91434991D01*
X128451980Y-91283000D01*
X128449557Y-91278467D01*
X128432384Y-91221853D01*
X128398037Y-91108627D01*
X128380641Y-90932000D01*
X128398037Y-90755373D01*
X128449557Y-90585534D01*
X128449557Y-90585533D01*
X128533221Y-90429011D01*
X128533222Y-90429009D01*
X128562552Y-90393271D01*
X128645814Y-90291814D01*
X128747271Y-90208552D01*
X128783009Y-90179222D01*
X128816550Y-90161294D01*
X128939533Y-90095557D01*
X128996147Y-90078384D01*
X129109373Y-90044037D01*
X129175558Y-90037518D01*
X129241740Y-90031000D01*
X129330260Y-90031000D01*
X129396442Y-90037518D01*
X129396442Y-90037518D01*
G37*
G36*
X167496442Y-90037518D02*
X167562627Y-90044037D01*
X167675853Y-90078384D01*
X167732467Y-90095557D01*
X167855450Y-90161294D01*
X167888991Y-90179222D01*
X167924729Y-90208552D01*
X168026186Y-90291814D01*
X168109448Y-90393271D01*
X168138778Y-90429009D01*
X168138779Y-90429011D01*
X168222443Y-90585533D01*
X168222443Y-90585534D01*
X168273963Y-90755373D01*
X168291359Y-90932000D01*
X168273963Y-91108627D01*
X168239616Y-91221853D01*
X168222443Y-91278467D01*
X168220020Y-91283000D01*
X168138778Y-91434991D01*
X168109448Y-91470729D01*
X168026186Y-91572186D01*
X167924729Y-91655448D01*
X167888991Y-91684778D01*
X167888989Y-91684779D01*
X167732467Y-91768443D01*
X167675853Y-91785616D01*
X167562627Y-91819963D01*
X167496442Y-91826482D01*
X167430260Y-91833000D01*
X167341740Y-91833000D01*
X167275558Y-91826482D01*
X167209373Y-91819963D01*
X167096147Y-91785616D01*
X167039533Y-91768443D01*
X166883011Y-91684779D01*
X166883009Y-91684778D01*
X166847271Y-91655448D01*
X166745814Y-91572186D01*
X166662552Y-91470729D01*
X166633222Y-91434991D01*
X166551980Y-91283000D01*
X166549557Y-91278467D01*
X166532384Y-91221853D01*
X166498037Y-91108627D01*
X166480641Y-90932000D01*
X166498037Y-90755373D01*
X166549557Y-90585534D01*
X166549557Y-90585533D01*
X166633221Y-90429011D01*
X166633222Y-90429009D01*
X166662552Y-90393271D01*
X166745814Y-90291814D01*
X166847271Y-90208552D01*
X166883009Y-90179222D01*
X166916550Y-90161294D01*
X167039533Y-90095557D01*
X167096147Y-90078384D01*
X167209373Y-90044037D01*
X167275558Y-90037518D01*
X167341740Y-90031000D01*
X167430260Y-90031000D01*
X167496442Y-90037518D01*
X167496442Y-90037518D01*
G37*
G36*
X152472000Y-91283000D02*
X150870000Y-91283000D01*
X150870000Y-90581000D01*
X152472000Y-90581000D01*
X152472000Y-91283000D01*
X152472000Y-91283000D01*
G37*
G36*
X147072000Y-91283000D02*
X145470000Y-91283000D01*
X145470000Y-90581000D01*
X147072000Y-90581000D01*
X147072000Y-91283000D01*
X147072000Y-91283000D01*
G37*
G36*
X152472000Y-90013000D02*
X150870000Y-90013000D01*
X150870000Y-89311000D01*
X152472000Y-89311000D01*
X152472000Y-90013000D01*
X152472000Y-90013000D01*
G37*
G36*
X147072000Y-90013000D02*
X145470000Y-90013000D01*
X145470000Y-89311000D01*
X147072000Y-89311000D01*
X147072000Y-90013000D01*
X147072000Y-90013000D01*
G37*
G36*
X167496443Y-87497519D02*
X167562627Y-87504037D01*
X167675853Y-87538384D01*
X167732467Y-87555557D01*
X167871087Y-87629652D01*
X167888991Y-87639222D01*
X167905907Y-87653105D01*
X168026186Y-87751814D01*
X168070225Y-87805477D01*
X168138778Y-87889009D01*
X168138779Y-87889011D01*
X168222443Y-88045533D01*
X168222443Y-88045534D01*
X168273963Y-88215373D01*
X168291359Y-88392000D01*
X168273963Y-88568627D01*
X168239616Y-88681853D01*
X168222443Y-88738467D01*
X168220020Y-88743000D01*
X168138778Y-88894991D01*
X168109448Y-88930729D01*
X168026186Y-89032186D01*
X167924729Y-89115448D01*
X167888991Y-89144778D01*
X167888989Y-89144779D01*
X167732467Y-89228443D01*
X167675853Y-89245616D01*
X167562627Y-89279963D01*
X167496443Y-89286481D01*
X167430260Y-89293000D01*
X167341740Y-89293000D01*
X167275557Y-89286481D01*
X167209373Y-89279963D01*
X167096147Y-89245616D01*
X167039533Y-89228443D01*
X166883011Y-89144779D01*
X166883009Y-89144778D01*
X166847271Y-89115448D01*
X166745814Y-89032186D01*
X166662552Y-88930729D01*
X166633222Y-88894991D01*
X166551980Y-88743000D01*
X166549557Y-88738467D01*
X166532384Y-88681853D01*
X166498037Y-88568627D01*
X166480641Y-88392000D01*
X166498037Y-88215373D01*
X166549557Y-88045534D01*
X166549557Y-88045533D01*
X166633221Y-87889011D01*
X166633222Y-87889009D01*
X166701775Y-87805477D01*
X166745814Y-87751814D01*
X166866093Y-87653105D01*
X166883009Y-87639222D01*
X166900913Y-87629652D01*
X167039533Y-87555557D01*
X167096147Y-87538384D01*
X167209373Y-87504037D01*
X167275557Y-87497519D01*
X167341740Y-87491000D01*
X167430260Y-87491000D01*
X167496443Y-87497519D01*
X167496443Y-87497519D01*
G37*
G36*
X129396443Y-87497519D02*
X129462627Y-87504037D01*
X129575853Y-87538384D01*
X129632467Y-87555557D01*
X129771087Y-87629652D01*
X129788991Y-87639222D01*
X129805907Y-87653105D01*
X129926186Y-87751814D01*
X129970225Y-87805477D01*
X130038778Y-87889009D01*
X130038779Y-87889011D01*
X130122443Y-88045533D01*
X130122443Y-88045534D01*
X130173963Y-88215373D01*
X130191359Y-88392000D01*
X130173963Y-88568627D01*
X130139616Y-88681853D01*
X130122443Y-88738467D01*
X130120020Y-88743000D01*
X130038778Y-88894991D01*
X130009448Y-88930729D01*
X129926186Y-89032186D01*
X129824729Y-89115448D01*
X129788991Y-89144778D01*
X129788989Y-89144779D01*
X129632467Y-89228443D01*
X129575853Y-89245616D01*
X129462627Y-89279963D01*
X129396443Y-89286481D01*
X129330260Y-89293000D01*
X129241740Y-89293000D01*
X129175557Y-89286481D01*
X129109373Y-89279963D01*
X128996147Y-89245616D01*
X128939533Y-89228443D01*
X128783011Y-89144779D01*
X128783009Y-89144778D01*
X128747271Y-89115448D01*
X128645814Y-89032186D01*
X128562552Y-88930729D01*
X128533222Y-88894991D01*
X128451980Y-88743000D01*
X128449557Y-88738467D01*
X128432384Y-88681853D01*
X128398037Y-88568627D01*
X128380641Y-88392000D01*
X128398037Y-88215373D01*
X128449557Y-88045534D01*
X128449557Y-88045533D01*
X128533221Y-87889011D01*
X128533222Y-87889009D01*
X128601775Y-87805477D01*
X128645814Y-87751814D01*
X128766093Y-87653105D01*
X128783009Y-87639222D01*
X128800913Y-87629652D01*
X128939533Y-87555557D01*
X128996147Y-87538384D01*
X129109373Y-87504037D01*
X129175557Y-87497519D01*
X129241740Y-87491000D01*
X129330260Y-87491000D01*
X129396443Y-87497519D01*
X129396443Y-87497519D01*
G37*
G36*
X152472000Y-88743000D02*
X150870000Y-88743000D01*
X150870000Y-88041000D01*
X152472000Y-88041000D01*
X152472000Y-88743000D01*
X152472000Y-88743000D01*
G37*
G36*
X147072000Y-88743000D02*
X145470000Y-88743000D01*
X145470000Y-88041000D01*
X147072000Y-88041000D01*
X147072000Y-88743000D01*
X147072000Y-88743000D01*
G37*
G36*
X140730562Y-86073181D02*
X140765477Y-86083773D01*
X140797665Y-86100978D01*
X140825873Y-86124127D01*
X140849022Y-86152335D01*
X140866227Y-86184523D01*
X140876819Y-86219438D01*
X140881000Y-86261895D01*
X140881000Y-87728105D01*
X140876819Y-87770562D01*
X140866227Y-87805477D01*
X140849022Y-87837665D01*
X140825873Y-87865873D01*
X140797665Y-87889022D01*
X140765477Y-87906227D01*
X140730562Y-87916819D01*
X140688105Y-87921000D01*
X139546895Y-87921000D01*
X139504438Y-87916819D01*
X139469523Y-87906227D01*
X139437335Y-87889022D01*
X139409127Y-87865873D01*
X139385978Y-87837665D01*
X139368773Y-87805477D01*
X139358181Y-87770562D01*
X139354000Y-87728105D01*
X139354000Y-86261895D01*
X139358181Y-86219438D01*
X139368773Y-86184523D01*
X139385978Y-86152335D01*
X139409127Y-86124127D01*
X139437335Y-86100978D01*
X139469523Y-86083773D01*
X139504438Y-86073181D01*
X139546895Y-86069000D01*
X140688105Y-86069000D01*
X140730562Y-86073181D01*
X140730562Y-86073181D01*
G37*
G36*
X143705562Y-86073181D02*
X143740477Y-86083773D01*
X143772665Y-86100978D01*
X143800873Y-86124127D01*
X143824022Y-86152335D01*
X143841227Y-86184523D01*
X143851819Y-86219438D01*
X143856000Y-86261895D01*
X143856000Y-87728105D01*
X143851819Y-87770562D01*
X143841227Y-87805477D01*
X143824022Y-87837665D01*
X143800873Y-87865873D01*
X143772665Y-87889022D01*
X143740477Y-87906227D01*
X143705562Y-87916819D01*
X143663105Y-87921000D01*
X142521895Y-87921000D01*
X142479438Y-87916819D01*
X142444523Y-87906227D01*
X142412335Y-87889022D01*
X142384127Y-87865873D01*
X142360978Y-87837665D01*
X142343773Y-87805477D01*
X142333181Y-87770562D01*
X142329000Y-87728105D01*
X142329000Y-86261895D01*
X142333181Y-86219438D01*
X142343773Y-86184523D01*
X142360978Y-86152335D01*
X142384127Y-86124127D01*
X142412335Y-86100978D01*
X142444523Y-86083773D01*
X142479438Y-86073181D01*
X142521895Y-86069000D01*
X143663105Y-86069000D01*
X143705562Y-86073181D01*
X143705562Y-86073181D01*
G37*
G36*
X137300562Y-85818181D02*
X137335477Y-85828773D01*
X137367665Y-85845978D01*
X137395873Y-85869127D01*
X137419022Y-85897335D01*
X137436227Y-85929523D01*
X137446819Y-85964438D01*
X137451000Y-86006895D01*
X137451000Y-87148105D01*
X137446819Y-87190562D01*
X137436227Y-87225477D01*
X137419022Y-87257665D01*
X137395873Y-87285873D01*
X137367665Y-87309022D01*
X137335477Y-87326227D01*
X137300562Y-87336819D01*
X137258105Y-87341000D01*
X135791895Y-87341000D01*
X135749438Y-87336819D01*
X135714523Y-87326227D01*
X135682335Y-87309022D01*
X135654127Y-87285873D01*
X135630978Y-87257665D01*
X135613773Y-87225477D01*
X135603181Y-87190562D01*
X135599000Y-87148105D01*
X135599000Y-86006895D01*
X135603181Y-85964438D01*
X135613773Y-85929523D01*
X135630978Y-85897335D01*
X135654127Y-85869127D01*
X135682335Y-85845978D01*
X135714523Y-85828773D01*
X135749438Y-85818181D01*
X135791895Y-85814000D01*
X137258105Y-85814000D01*
X137300562Y-85818181D01*
X137300562Y-85818181D01*
G37*
G36*
X167496442Y-84957518D02*
X167562627Y-84964037D01*
X167675853Y-84998384D01*
X167732467Y-85015557D01*
X167871087Y-85089652D01*
X167888991Y-85099222D01*
X167924729Y-85128552D01*
X168026186Y-85211814D01*
X168109448Y-85313271D01*
X168138778Y-85349009D01*
X168138779Y-85349011D01*
X168222443Y-85505533D01*
X168222443Y-85505534D01*
X168273963Y-85675373D01*
X168291359Y-85852000D01*
X168273963Y-86028627D01*
X168244993Y-86124127D01*
X168222443Y-86198467D01*
X168148451Y-86336895D01*
X168138778Y-86354991D01*
X168109448Y-86390729D01*
X168026186Y-86492186D01*
X167924729Y-86575448D01*
X167888991Y-86604778D01*
X167888989Y-86604779D01*
X167732467Y-86688443D01*
X167675853Y-86705616D01*
X167562627Y-86739963D01*
X167496443Y-86746481D01*
X167430260Y-86753000D01*
X167341740Y-86753000D01*
X167275557Y-86746481D01*
X167209373Y-86739963D01*
X167096147Y-86705616D01*
X167039533Y-86688443D01*
X166883011Y-86604779D01*
X166883009Y-86604778D01*
X166847271Y-86575448D01*
X166745814Y-86492186D01*
X166662552Y-86390729D01*
X166633222Y-86354991D01*
X166623549Y-86336895D01*
X166549557Y-86198467D01*
X166527007Y-86124127D01*
X166498037Y-86028627D01*
X166480641Y-85852000D01*
X166498037Y-85675373D01*
X166549557Y-85505534D01*
X166549557Y-85505533D01*
X166633221Y-85349011D01*
X166633222Y-85349009D01*
X166662552Y-85313271D01*
X166745814Y-85211814D01*
X166847271Y-85128552D01*
X166883009Y-85099222D01*
X166900913Y-85089652D01*
X167039533Y-85015557D01*
X167096147Y-84998384D01*
X167209373Y-84964037D01*
X167275558Y-84957518D01*
X167341740Y-84951000D01*
X167430260Y-84951000D01*
X167496442Y-84957518D01*
X167496442Y-84957518D01*
G37*
G36*
X129396442Y-84957518D02*
X129462627Y-84964037D01*
X129575853Y-84998384D01*
X129632467Y-85015557D01*
X129771087Y-85089652D01*
X129788991Y-85099222D01*
X129824729Y-85128552D01*
X129926186Y-85211814D01*
X130009448Y-85313271D01*
X130038778Y-85349009D01*
X130038779Y-85349011D01*
X130122443Y-85505533D01*
X130122443Y-85505534D01*
X130173963Y-85675373D01*
X130191359Y-85852000D01*
X130173963Y-86028627D01*
X130144993Y-86124127D01*
X130122443Y-86198467D01*
X130048451Y-86336895D01*
X130038778Y-86354991D01*
X130009448Y-86390729D01*
X129926186Y-86492186D01*
X129824729Y-86575448D01*
X129788991Y-86604778D01*
X129788989Y-86604779D01*
X129632467Y-86688443D01*
X129575853Y-86705616D01*
X129462627Y-86739963D01*
X129396443Y-86746481D01*
X129330260Y-86753000D01*
X129241740Y-86753000D01*
X129175557Y-86746481D01*
X129109373Y-86739963D01*
X128996147Y-86705616D01*
X128939533Y-86688443D01*
X128783011Y-86604779D01*
X128783009Y-86604778D01*
X128747271Y-86575448D01*
X128645814Y-86492186D01*
X128562552Y-86390729D01*
X128533222Y-86354991D01*
X128523549Y-86336895D01*
X128449557Y-86198467D01*
X128427007Y-86124127D01*
X128398037Y-86028627D01*
X128380641Y-85852000D01*
X128398037Y-85675373D01*
X128449557Y-85505534D01*
X128449557Y-85505533D01*
X128533221Y-85349011D01*
X128533222Y-85349009D01*
X128562552Y-85313271D01*
X128645814Y-85211814D01*
X128747271Y-85128552D01*
X128783009Y-85099222D01*
X128800913Y-85089652D01*
X128939533Y-85015557D01*
X128996147Y-84998384D01*
X129109373Y-84964037D01*
X129175558Y-84957518D01*
X129241740Y-84951000D01*
X129330260Y-84951000D01*
X129396442Y-84957518D01*
X129396442Y-84957518D01*
G37*
G36*
X137300562Y-82843181D02*
X137335477Y-82853773D01*
X137367665Y-82870978D01*
X137395873Y-82894127D01*
X137419022Y-82922335D01*
X137436227Y-82954523D01*
X137446819Y-82989438D01*
X137451000Y-83031895D01*
X137451000Y-84173105D01*
X137446819Y-84215562D01*
X137436227Y-84250477D01*
X137419022Y-84282665D01*
X137395873Y-84310873D01*
X137367665Y-84334022D01*
X137335477Y-84351227D01*
X137300562Y-84361819D01*
X137258105Y-84366000D01*
X135791895Y-84366000D01*
X135749438Y-84361819D01*
X135714523Y-84351227D01*
X135682335Y-84334022D01*
X135654127Y-84310873D01*
X135630978Y-84282665D01*
X135613773Y-84250477D01*
X135603181Y-84215562D01*
X135599000Y-84173105D01*
X135599000Y-83031895D01*
X135603181Y-82989438D01*
X135613773Y-82954523D01*
X135630978Y-82922335D01*
X135654127Y-82894127D01*
X135682335Y-82870978D01*
X135714523Y-82853773D01*
X135749438Y-82843181D01*
X135791895Y-82839000D01*
X137258105Y-82839000D01*
X137300562Y-82843181D01*
X137300562Y-82843181D01*
G37*
G36*
X144845362Y-82390181D02*
X144880277Y-82400773D01*
X144912465Y-82417978D01*
X144940673Y-82441127D01*
X144963822Y-82469335D01*
X144981027Y-82501523D01*
X144991619Y-82536438D01*
X144995800Y-82578895D01*
X144995800Y-84045105D01*
X144991619Y-84087562D01*
X144981027Y-84122477D01*
X144963822Y-84154665D01*
X144940673Y-84182873D01*
X144912465Y-84206022D01*
X144880277Y-84223227D01*
X144845362Y-84233819D01*
X144802905Y-84238000D01*
X143661695Y-84238000D01*
X143619238Y-84233819D01*
X143584323Y-84223227D01*
X143552135Y-84206022D01*
X143523927Y-84182873D01*
X143500778Y-84154665D01*
X143483573Y-84122477D01*
X143472981Y-84087562D01*
X143468800Y-84045105D01*
X143468800Y-82578895D01*
X143472981Y-82536438D01*
X143483573Y-82501523D01*
X143500778Y-82469335D01*
X143523927Y-82441127D01*
X143552135Y-82417978D01*
X143584323Y-82400773D01*
X143619238Y-82390181D01*
X143661695Y-82386000D01*
X144802905Y-82386000D01*
X144845362Y-82390181D01*
X144845362Y-82390181D01*
G37*
G36*
X154170362Y-82390181D02*
X154205277Y-82400773D01*
X154237465Y-82417978D01*
X154265673Y-82441127D01*
X154288822Y-82469335D01*
X154306027Y-82501523D01*
X154316619Y-82536438D01*
X154320800Y-82578895D01*
X154320800Y-84045105D01*
X154316619Y-84087562D01*
X154306027Y-84122477D01*
X154288822Y-84154665D01*
X154265673Y-84182873D01*
X154237465Y-84206022D01*
X154205277Y-84223227D01*
X154170362Y-84233819D01*
X154127905Y-84238000D01*
X152986695Y-84238000D01*
X152944238Y-84233819D01*
X152909323Y-84223227D01*
X152877135Y-84206022D01*
X152848927Y-84182873D01*
X152825778Y-84154665D01*
X152808573Y-84122477D01*
X152797981Y-84087562D01*
X152793800Y-84045105D01*
X152793800Y-82578895D01*
X152797981Y-82536438D01*
X152808573Y-82501523D01*
X152825778Y-82469335D01*
X152848927Y-82441127D01*
X152877135Y-82417978D01*
X152909323Y-82400773D01*
X152944238Y-82390181D01*
X152986695Y-82386000D01*
X154127905Y-82386000D01*
X154170362Y-82390181D01*
X154170362Y-82390181D01*
G37*
G36*
X151195362Y-82390181D02*
X151230277Y-82400773D01*
X151262465Y-82417978D01*
X151290673Y-82441127D01*
X151313822Y-82469335D01*
X151331027Y-82501523D01*
X151341619Y-82536438D01*
X151345800Y-82578895D01*
X151345800Y-84045105D01*
X151341619Y-84087562D01*
X151331027Y-84122477D01*
X151313822Y-84154665D01*
X151290673Y-84182873D01*
X151262465Y-84206022D01*
X151230277Y-84223227D01*
X151195362Y-84233819D01*
X151152905Y-84238000D01*
X150011695Y-84238000D01*
X149969238Y-84233819D01*
X149934323Y-84223227D01*
X149902135Y-84206022D01*
X149873927Y-84182873D01*
X149850778Y-84154665D01*
X149833573Y-84122477D01*
X149822981Y-84087562D01*
X149818800Y-84045105D01*
X149818800Y-82578895D01*
X149822981Y-82536438D01*
X149833573Y-82501523D01*
X149850778Y-82469335D01*
X149873927Y-82441127D01*
X149902135Y-82417978D01*
X149934323Y-82400773D01*
X149969238Y-82390181D01*
X150011695Y-82386000D01*
X151152905Y-82386000D01*
X151195362Y-82390181D01*
X151195362Y-82390181D01*
G37*
G36*
X147820362Y-82390181D02*
X147855277Y-82400773D01*
X147887465Y-82417978D01*
X147915673Y-82441127D01*
X147938822Y-82469335D01*
X147956027Y-82501523D01*
X147966619Y-82536438D01*
X147970800Y-82578895D01*
X147970800Y-84045105D01*
X147966619Y-84087562D01*
X147956027Y-84122477D01*
X147938822Y-84154665D01*
X147915673Y-84182873D01*
X147887465Y-84206022D01*
X147855277Y-84223227D01*
X147820362Y-84233819D01*
X147777905Y-84238000D01*
X146636695Y-84238000D01*
X146594238Y-84233819D01*
X146559323Y-84223227D01*
X146527135Y-84206022D01*
X146498927Y-84182873D01*
X146475778Y-84154665D01*
X146458573Y-84122477D01*
X146447981Y-84087562D01*
X146443800Y-84045105D01*
X146443800Y-82578895D01*
X146447981Y-82536438D01*
X146458573Y-82501523D01*
X146475778Y-82469335D01*
X146498927Y-82441127D01*
X146527135Y-82417978D01*
X146559323Y-82400773D01*
X146594238Y-82390181D01*
X146636695Y-82386000D01*
X147777905Y-82386000D01*
X147820362Y-82390181D01*
X147820362Y-82390181D01*
G37*
G36*
X130187000Y-84213000D02*
X128385000Y-84213000D01*
X128385000Y-82411000D01*
X130187000Y-82411000D01*
X130187000Y-84213000D01*
X130187000Y-84213000D01*
G37*
G36*
X168287000Y-84213000D02*
X166485000Y-84213000D01*
X166485000Y-82411000D01*
X168287000Y-82411000D01*
X168287000Y-84213000D01*
X168287000Y-84213000D01*
G37*
G36*
X151595443Y-76699781D02*
X151741215Y-76760162D01*
X151872411Y-76847824D01*
X151983976Y-76959389D01*
X152071638Y-77090585D01*
X152132019Y-77236357D01*
X152162800Y-77391107D01*
X152162800Y-77548893D01*
X152132019Y-77703643D01*
X152071638Y-77849415D01*
X151983976Y-77980611D01*
X151872411Y-78092176D01*
X151741215Y-78179838D01*
X151595443Y-78240219D01*
X151440693Y-78271000D01*
X151282907Y-78271000D01*
X151128157Y-78240219D01*
X150982385Y-78179838D01*
X150851189Y-78092176D01*
X150739624Y-77980611D01*
X150651962Y-77849415D01*
X150591581Y-77703643D01*
X150560800Y-77548893D01*
X150560800Y-77391107D01*
X150591581Y-77236357D01*
X150651962Y-77090585D01*
X150739624Y-76959389D01*
X150851189Y-76847824D01*
X150982385Y-76760162D01*
X151128157Y-76699781D01*
X151282907Y-76669000D01*
X151440693Y-76669000D01*
X151595443Y-76699781D01*
X151595443Y-76699781D01*
G37*
G36*
X146715443Y-76699781D02*
X146861215Y-76760162D01*
X146992411Y-76847824D01*
X147103976Y-76959389D01*
X147191638Y-77090585D01*
X147252019Y-77236357D01*
X147282800Y-77391107D01*
X147282800Y-77548893D01*
X147252019Y-77703643D01*
X147191638Y-77849415D01*
X147103976Y-77980611D01*
X146992411Y-78092176D01*
X146861215Y-78179838D01*
X146715443Y-78240219D01*
X146560693Y-78271000D01*
X146402907Y-78271000D01*
X146248157Y-78240219D01*
X146102385Y-78179838D01*
X145971189Y-78092176D01*
X145859624Y-77980611D01*
X145771962Y-77849415D01*
X145711581Y-77703643D01*
X145680800Y-77548893D01*
X145680800Y-77391107D01*
X145711581Y-77236357D01*
X145771962Y-77090585D01*
X145859624Y-76959389D01*
X145971189Y-76847824D01*
X146102385Y-76760162D01*
X146248157Y-76699781D01*
X146402907Y-76669000D01*
X146560693Y-76669000D01*
X146715443Y-76699781D01*
X146715443Y-76699781D01*
G37*
G36*
X128552693Y-70961859D02*
X128818437Y-71014719D01*
X129319087Y-71222095D01*
X129506774Y-71347504D01*
X129769663Y-71523161D01*
X130152839Y-71906337D01*
X130152841Y-71906340D01*
X130453905Y-72356913D01*
X130587363Y-72679109D01*
X130661281Y-72857564D01*
X130767000Y-73389049D01*
X130767000Y-73930951D01*
X130731186Y-74111000D01*
X130661281Y-74462437D01*
X130453905Y-74963087D01*
X130163636Y-75397504D01*
X130152839Y-75413663D01*
X129769663Y-75796839D01*
X129769660Y-75796841D01*
X129319087Y-76097905D01*
X128818437Y-76305281D01*
X128552693Y-76358141D01*
X128286951Y-76411000D01*
X127745049Y-76411000D01*
X127479307Y-76358141D01*
X127213563Y-76305281D01*
X126712913Y-76097905D01*
X126262340Y-75796841D01*
X126262337Y-75796839D01*
X125879161Y-75413663D01*
X125868364Y-75397504D01*
X125578095Y-74963087D01*
X125370719Y-74462437D01*
X125300814Y-74111000D01*
X125265000Y-73930951D01*
X125265000Y-73389049D01*
X125370719Y-72857564D01*
X125444637Y-72679109D01*
X125578095Y-72356913D01*
X125879159Y-71906340D01*
X125879161Y-71906337D01*
X126262337Y-71523161D01*
X126525226Y-71347504D01*
X126712913Y-71222095D01*
X127213563Y-71014719D01*
X127479307Y-70961859D01*
X127745049Y-70909000D01*
X128286951Y-70909000D01*
X128552693Y-70961859D01*
X128552693Y-70961859D01*
G37*
G36*
X169192693Y-70961859D02*
X169458437Y-71014719D01*
X169959087Y-71222095D01*
X170146774Y-71347504D01*
X170409663Y-71523161D01*
X170792839Y-71906337D01*
X170792841Y-71906340D01*
X171093905Y-72356913D01*
X171227363Y-72679109D01*
X171301281Y-72857564D01*
X171407000Y-73389049D01*
X171407000Y-73930951D01*
X171371186Y-74111000D01*
X171301281Y-74462437D01*
X171093905Y-74963087D01*
X170803636Y-75397504D01*
X170792839Y-75413663D01*
X170409663Y-75796839D01*
X170409660Y-75796841D01*
X169959087Y-76097905D01*
X169458437Y-76305281D01*
X169192693Y-76358141D01*
X168926951Y-76411000D01*
X168385049Y-76411000D01*
X168119307Y-76358141D01*
X167853563Y-76305281D01*
X167352913Y-76097905D01*
X166902340Y-75796841D01*
X166902337Y-75796839D01*
X166519161Y-75413663D01*
X166508364Y-75397504D01*
X166218095Y-74963087D01*
X166010719Y-74462437D01*
X165940814Y-74111000D01*
X165905000Y-73930951D01*
X165905000Y-73389049D01*
X166010719Y-72857564D01*
X166084637Y-72679109D01*
X166218095Y-72356913D01*
X166519159Y-71906340D01*
X166519161Y-71906337D01*
X166902337Y-71523161D01*
X167165226Y-71347504D01*
X167352913Y-71222095D01*
X167853563Y-71014719D01*
X168119307Y-70961859D01*
X168385049Y-70909000D01*
X168926951Y-70909000D01*
X169192693Y-70961859D01*
X169192693Y-70961859D01*
G37*
M02*
