G04 #@! TF.GenerationSoftware,KiCad,Pcbnew,(5.0.2)-1*
G04 #@! TF.CreationDate,2019-01-10T10:17:45+01:00*
G04 #@! TF.ProjectId,ATtiny44_DevBoard,41547469-6e79-4343-945f-446576426f61,rev?*
G04 #@! TF.SameCoordinates,Original*
G04 #@! TF.FileFunction,Copper,L2,Bot*
G04 #@! TF.FilePolarity,Positive*
%FSLAX46Y46*%
G04 Gerber Fmt 4.6, Leading zero omitted, Abs format (unit mm)*
G04 Created by KiCad (PCBNEW (5.0.2)-1) date 10/01/2019 10:17:45*
%MOMM*%
%LPD*%
G01*
G04 APERTURE LIST*
G04 #@! TA.AperFunction,ComponentPad*
%ADD10O,1.700000X1.700000*%
G04 #@! TD*
G04 #@! TA.AperFunction,ComponentPad*
%ADD11R,1.700000X1.700000*%
G04 #@! TD*
G04 #@! TA.AperFunction,ComponentPad*
%ADD12C,5.400000*%
G04 #@! TD*
G04 #@! TA.AperFunction,ComponentPad*
%ADD13C,1.500000*%
G04 #@! TD*
G04 #@! TA.AperFunction,ViaPad*
%ADD14C,0.762000*%
G04 #@! TD*
G04 #@! TA.AperFunction,ViaPad*
%ADD15C,0.889000*%
G04 #@! TD*
G04 #@! TA.AperFunction,Conductor*
%ADD16C,0.254000*%
G04 #@! TD*
G04 APERTURE END LIST*
D10*
G04 #@! TO.P,J1,8*
G04 #@! TO.N,/MOSI*
X129286000Y-101092000D03*
G04 #@! TO.P,J1,7*
G04 #@! TO.N,/PA7*
X129286000Y-98552000D03*
G04 #@! TO.P,J1,6*
G04 #@! TO.N,/PB2*
X129286000Y-96012000D03*
G04 #@! TO.P,J1,5*
G04 #@! TO.N,/~RESET*
X129286000Y-93472000D03*
G04 #@! TO.P,J1,4*
G04 #@! TO.N,/XTAL2*
X129286000Y-90932000D03*
G04 #@! TO.P,J1,3*
G04 #@! TO.N,/XTAL1*
X129286000Y-88392000D03*
G04 #@! TO.P,J1,2*
G04 #@! TO.N,VCC*
X129286000Y-85852000D03*
D11*
G04 #@! TO.P,J1,1*
X129286000Y-83312000D03*
G04 #@! TD*
G04 #@! TO.P,J2,1*
G04 #@! TO.N,/MISO*
X151511000Y-103632000D03*
D10*
G04 #@! TO.P,J2,2*
G04 #@! TO.N,VCC*
X151511000Y-106172000D03*
G04 #@! TO.P,J2,3*
G04 #@! TO.N,/USCK*
X148971000Y-103632000D03*
G04 #@! TO.P,J2,4*
G04 #@! TO.N,/MOSI*
X148971000Y-106172000D03*
G04 #@! TO.P,J2,5*
G04 #@! TO.N,/~RESET*
X146431000Y-103632000D03*
G04 #@! TO.P,J2,6*
G04 #@! TO.N,GND*
X146431000Y-106172000D03*
G04 #@! TD*
D11*
G04 #@! TO.P,J3,1*
G04 #@! TO.N,GND*
X167386000Y-83312000D03*
D10*
G04 #@! TO.P,J3,2*
X167386000Y-85852000D03*
G04 #@! TO.P,J3,3*
G04 #@! TO.N,/PA0*
X167386000Y-88392000D03*
G04 #@! TO.P,J3,4*
G04 #@! TO.N,/PA1*
X167386000Y-90932000D03*
G04 #@! TO.P,J3,5*
G04 #@! TO.N,/PA2*
X167386000Y-93472000D03*
G04 #@! TO.P,J3,6*
G04 #@! TO.N,/PA3*
X167386000Y-96012000D03*
G04 #@! TO.P,J3,7*
G04 #@! TO.N,/USCK*
X167386000Y-98552000D03*
G04 #@! TO.P,J3,8*
G04 #@! TO.N,/MISO*
X167386000Y-101092000D03*
G04 #@! TD*
D12*
G04 #@! TO.P,REF\002A\002A,1*
G04 #@! TO.N,N/C*
X128016000Y-73787000D03*
G04 #@! TD*
G04 #@! TO.P,REF\002A\002A,1*
G04 #@! TO.N,N/C*
X168656000Y-73787000D03*
G04 #@! TD*
G04 #@! TO.P,REF\002A\002A,1*
G04 #@! TO.N,N/C*
X168656000Y-108585000D03*
G04 #@! TD*
G04 #@! TO.P,REF\002A\002A,1*
G04 #@! TO.N,N/C*
X128016000Y-108585000D03*
G04 #@! TD*
D13*
G04 #@! TO.P,Y1,1*
G04 #@! TO.N,/XTAL1*
X150876000Y-75692000D03*
G04 #@! TO.P,Y1,2*
G04 #@! TO.N,/XTAL2*
X155756000Y-75692000D03*
G04 #@! TD*
D14*
G04 #@! TO.N,GND*
X149352000Y-84582000D03*
X146304000Y-82042000D03*
X143510000Y-82042000D03*
X143510000Y-80264000D03*
X146304000Y-80264000D03*
X154686000Y-87884000D03*
X155956000Y-84582000D03*
X156972000Y-87884000D03*
X158242000Y-84582000D03*
X154686000Y-86106000D03*
X156972000Y-86106000D03*
X164592000Y-83312000D03*
X164592000Y-85090000D03*
X164592000Y-86868000D03*
X169926000Y-86868000D03*
X169926000Y-85090000D03*
X169926000Y-83312000D03*
X167386000Y-80264000D03*
X165354000Y-80264000D03*
X169418000Y-80264000D03*
X137160000Y-83312000D03*
X137160000Y-80772000D03*
X137160000Y-78232000D03*
X140208000Y-78232000D03*
X148844000Y-78740000D03*
X157988000Y-78740000D03*
X161036000Y-81788000D03*
X158496000Y-101600000D03*
X156972000Y-101600000D03*
X160020000Y-101600000D03*
D15*
X137414000Y-99822000D03*
X137414000Y-98171000D03*
X137414000Y-101473000D03*
D14*
G04 #@! TO.N,/~RESET*
X147828000Y-99060000D03*
G04 #@! TD*
D16*
G04 #@! TO.N,/~RESET*
X147828000Y-102235000D02*
X146431000Y-103632000D01*
X147828000Y-99060000D02*
X147828000Y-102235000D01*
G04 #@! TD*
G04 #@! TO.N,GND*
G36*
X166766874Y-70959723D02*
X165828723Y-71897874D01*
X165321000Y-73123627D01*
X165321000Y-74450373D01*
X165828723Y-75676126D01*
X166766874Y-76614277D01*
X167992627Y-77122000D01*
X169319373Y-77122000D01*
X170545126Y-76614277D01*
X171483277Y-75676126D01*
X171756000Y-75017714D01*
X171756001Y-107354289D01*
X171483277Y-106695874D01*
X170545126Y-105757723D01*
X169319373Y-105250000D01*
X167992627Y-105250000D01*
X166766874Y-105757723D01*
X165828723Y-106695874D01*
X165321000Y-107921627D01*
X165321000Y-109248373D01*
X165828723Y-110474126D01*
X166766874Y-111412277D01*
X167731892Y-111812000D01*
X128940108Y-111812000D01*
X129905126Y-111412277D01*
X130843277Y-110474126D01*
X131351000Y-109248373D01*
X131351000Y-107921627D01*
X130843277Y-106695874D01*
X130676295Y-106528892D01*
X144989514Y-106528892D01*
X145235817Y-107053358D01*
X145664076Y-107443645D01*
X146074110Y-107613476D01*
X146304000Y-107492155D01*
X146304000Y-106299000D01*
X145110181Y-106299000D01*
X144989514Y-106528892D01*
X130676295Y-106528892D01*
X129905126Y-105757723D01*
X128679373Y-105250000D01*
X127352627Y-105250000D01*
X126126874Y-105757723D01*
X125188723Y-106695874D01*
X124916000Y-107354286D01*
X124916000Y-103632000D01*
X144916908Y-103632000D01*
X145032161Y-104211418D01*
X145360375Y-104702625D01*
X145660786Y-104903353D01*
X145235817Y-105290642D01*
X144989514Y-105815108D01*
X145110181Y-106045000D01*
X146304000Y-106045000D01*
X146304000Y-106025000D01*
X146558000Y-106025000D01*
X146558000Y-106045000D01*
X146578000Y-106045000D01*
X146578000Y-106299000D01*
X146558000Y-106299000D01*
X146558000Y-107492155D01*
X146787890Y-107613476D01*
X147197924Y-107443645D01*
X147626183Y-107053358D01*
X147687157Y-106923522D01*
X147900375Y-107242625D01*
X148391582Y-107570839D01*
X148824744Y-107657000D01*
X149117256Y-107657000D01*
X149550418Y-107570839D01*
X150041625Y-107242625D01*
X150241000Y-106944239D01*
X150440375Y-107242625D01*
X150931582Y-107570839D01*
X151364744Y-107657000D01*
X151657256Y-107657000D01*
X152090418Y-107570839D01*
X152581625Y-107242625D01*
X152909839Y-106751418D01*
X153025092Y-106172000D01*
X152909839Y-105592582D01*
X152581625Y-105101375D01*
X152563381Y-105089184D01*
X152608765Y-105080157D01*
X152818809Y-104939809D01*
X152959157Y-104729765D01*
X153008440Y-104482000D01*
X153008440Y-102782000D01*
X152959157Y-102534235D01*
X152818809Y-102324191D01*
X152608765Y-102183843D01*
X152361000Y-102134560D01*
X150661000Y-102134560D01*
X150413235Y-102183843D01*
X150203191Y-102324191D01*
X150062843Y-102534235D01*
X150053816Y-102579619D01*
X150041625Y-102561375D01*
X149550418Y-102233161D01*
X149117256Y-102147000D01*
X148824744Y-102147000D01*
X148596455Y-102192409D01*
X148590000Y-102159958D01*
X148590000Y-99734842D01*
X148689324Y-99635518D01*
X148844000Y-99262095D01*
X148844000Y-98857905D01*
X148689324Y-98484482D01*
X148403518Y-98198676D01*
X148030095Y-98044000D01*
X147625905Y-98044000D01*
X147252482Y-98198676D01*
X146966676Y-98484482D01*
X146812000Y-98857905D01*
X146812000Y-99262095D01*
X146966676Y-99635518D01*
X147066000Y-99734842D01*
X147066001Y-101919368D01*
X146795048Y-102190321D01*
X146577256Y-102147000D01*
X146284744Y-102147000D01*
X145851582Y-102233161D01*
X145360375Y-102561375D01*
X145032161Y-103052582D01*
X144916908Y-103632000D01*
X124916000Y-103632000D01*
X124916000Y-85852000D01*
X127771908Y-85852000D01*
X127887161Y-86431418D01*
X128215375Y-86922625D01*
X128513761Y-87122000D01*
X128215375Y-87321375D01*
X127887161Y-87812582D01*
X127771908Y-88392000D01*
X127887161Y-88971418D01*
X128215375Y-89462625D01*
X128513761Y-89662000D01*
X128215375Y-89861375D01*
X127887161Y-90352582D01*
X127771908Y-90932000D01*
X127887161Y-91511418D01*
X128215375Y-92002625D01*
X128513761Y-92202000D01*
X128215375Y-92401375D01*
X127887161Y-92892582D01*
X127771908Y-93472000D01*
X127887161Y-94051418D01*
X128215375Y-94542625D01*
X128513761Y-94742000D01*
X128215375Y-94941375D01*
X127887161Y-95432582D01*
X127771908Y-96012000D01*
X127887161Y-96591418D01*
X128215375Y-97082625D01*
X128513761Y-97282000D01*
X128215375Y-97481375D01*
X127887161Y-97972582D01*
X127771908Y-98552000D01*
X127887161Y-99131418D01*
X128215375Y-99622625D01*
X128513761Y-99822000D01*
X128215375Y-100021375D01*
X127887161Y-100512582D01*
X127771908Y-101092000D01*
X127887161Y-101671418D01*
X128215375Y-102162625D01*
X128706582Y-102490839D01*
X129139744Y-102577000D01*
X129432256Y-102577000D01*
X129865418Y-102490839D01*
X130356625Y-102162625D01*
X130684839Y-101671418D01*
X130800092Y-101092000D01*
X130684839Y-100512582D01*
X130356625Y-100021375D01*
X130058239Y-99822000D01*
X130356625Y-99622625D01*
X130684839Y-99131418D01*
X130800092Y-98552000D01*
X130684839Y-97972582D01*
X130356625Y-97481375D01*
X130058239Y-97282000D01*
X130356625Y-97082625D01*
X130684839Y-96591418D01*
X130800092Y-96012000D01*
X130684839Y-95432582D01*
X130356625Y-94941375D01*
X130058239Y-94742000D01*
X130356625Y-94542625D01*
X130684839Y-94051418D01*
X130800092Y-93472000D01*
X130684839Y-92892582D01*
X130356625Y-92401375D01*
X130058239Y-92202000D01*
X130356625Y-92002625D01*
X130684839Y-91511418D01*
X130800092Y-90932000D01*
X130684839Y-90352582D01*
X130356625Y-89861375D01*
X130058239Y-89662000D01*
X130356625Y-89462625D01*
X130684839Y-88971418D01*
X130800092Y-88392000D01*
X165871908Y-88392000D01*
X165987161Y-88971418D01*
X166315375Y-89462625D01*
X166613761Y-89662000D01*
X166315375Y-89861375D01*
X165987161Y-90352582D01*
X165871908Y-90932000D01*
X165987161Y-91511418D01*
X166315375Y-92002625D01*
X166613761Y-92202000D01*
X166315375Y-92401375D01*
X165987161Y-92892582D01*
X165871908Y-93472000D01*
X165987161Y-94051418D01*
X166315375Y-94542625D01*
X166613761Y-94742000D01*
X166315375Y-94941375D01*
X165987161Y-95432582D01*
X165871908Y-96012000D01*
X165987161Y-96591418D01*
X166315375Y-97082625D01*
X166613761Y-97282000D01*
X166315375Y-97481375D01*
X165987161Y-97972582D01*
X165871908Y-98552000D01*
X165987161Y-99131418D01*
X166315375Y-99622625D01*
X166613761Y-99822000D01*
X166315375Y-100021375D01*
X165987161Y-100512582D01*
X165871908Y-101092000D01*
X165987161Y-101671418D01*
X166315375Y-102162625D01*
X166806582Y-102490839D01*
X167239744Y-102577000D01*
X167532256Y-102577000D01*
X167965418Y-102490839D01*
X168456625Y-102162625D01*
X168784839Y-101671418D01*
X168900092Y-101092000D01*
X168784839Y-100512582D01*
X168456625Y-100021375D01*
X168158239Y-99822000D01*
X168456625Y-99622625D01*
X168784839Y-99131418D01*
X168900092Y-98552000D01*
X168784839Y-97972582D01*
X168456625Y-97481375D01*
X168158239Y-97282000D01*
X168456625Y-97082625D01*
X168784839Y-96591418D01*
X168900092Y-96012000D01*
X168784839Y-95432582D01*
X168456625Y-94941375D01*
X168158239Y-94742000D01*
X168456625Y-94542625D01*
X168784839Y-94051418D01*
X168900092Y-93472000D01*
X168784839Y-92892582D01*
X168456625Y-92401375D01*
X168158239Y-92202000D01*
X168456625Y-92002625D01*
X168784839Y-91511418D01*
X168900092Y-90932000D01*
X168784839Y-90352582D01*
X168456625Y-89861375D01*
X168158239Y-89662000D01*
X168456625Y-89462625D01*
X168784839Y-88971418D01*
X168900092Y-88392000D01*
X168784839Y-87812582D01*
X168456625Y-87321375D01*
X168137522Y-87108157D01*
X168267358Y-87047183D01*
X168657645Y-86618924D01*
X168827476Y-86208890D01*
X168706155Y-85979000D01*
X167513000Y-85979000D01*
X167513000Y-85999000D01*
X167259000Y-85999000D01*
X167259000Y-85979000D01*
X166065845Y-85979000D01*
X165944524Y-86208890D01*
X166114355Y-86618924D01*
X166504642Y-87047183D01*
X166634478Y-87108157D01*
X166315375Y-87321375D01*
X165987161Y-87812582D01*
X165871908Y-88392000D01*
X130800092Y-88392000D01*
X130684839Y-87812582D01*
X130356625Y-87321375D01*
X130058239Y-87122000D01*
X130356625Y-86922625D01*
X130684839Y-86431418D01*
X130800092Y-85852000D01*
X130684839Y-85272582D01*
X130356625Y-84781375D01*
X130338381Y-84769184D01*
X130383765Y-84760157D01*
X130593809Y-84619809D01*
X130734157Y-84409765D01*
X130783440Y-84162000D01*
X130783440Y-83597750D01*
X165901000Y-83597750D01*
X165901000Y-84288310D01*
X165997673Y-84521699D01*
X166176302Y-84700327D01*
X166385878Y-84787136D01*
X166114355Y-85085076D01*
X165944524Y-85495110D01*
X166065845Y-85725000D01*
X167259000Y-85725000D01*
X167259000Y-83439000D01*
X167513000Y-83439000D01*
X167513000Y-85725000D01*
X168706155Y-85725000D01*
X168827476Y-85495110D01*
X168657645Y-85085076D01*
X168386122Y-84787136D01*
X168595698Y-84700327D01*
X168774327Y-84521699D01*
X168871000Y-84288310D01*
X168871000Y-83597750D01*
X168712250Y-83439000D01*
X167513000Y-83439000D01*
X167259000Y-83439000D01*
X166059750Y-83439000D01*
X165901000Y-83597750D01*
X130783440Y-83597750D01*
X130783440Y-82462000D01*
X130758316Y-82335690D01*
X165901000Y-82335690D01*
X165901000Y-83026250D01*
X166059750Y-83185000D01*
X167259000Y-83185000D01*
X167259000Y-81985750D01*
X167513000Y-81985750D01*
X167513000Y-83185000D01*
X168712250Y-83185000D01*
X168871000Y-83026250D01*
X168871000Y-82335690D01*
X168774327Y-82102301D01*
X168595698Y-81923673D01*
X168362309Y-81827000D01*
X167671750Y-81827000D01*
X167513000Y-81985750D01*
X167259000Y-81985750D01*
X167100250Y-81827000D01*
X166409691Y-81827000D01*
X166176302Y-81923673D01*
X165997673Y-82102301D01*
X165901000Y-82335690D01*
X130758316Y-82335690D01*
X130734157Y-82214235D01*
X130593809Y-82004191D01*
X130383765Y-81863843D01*
X130136000Y-81814560D01*
X128436000Y-81814560D01*
X128188235Y-81863843D01*
X127978191Y-82004191D01*
X127837843Y-82214235D01*
X127788560Y-82462000D01*
X127788560Y-84162000D01*
X127837843Y-84409765D01*
X127978191Y-84619809D01*
X128188235Y-84760157D01*
X128233619Y-84769184D01*
X128215375Y-84781375D01*
X127887161Y-85272582D01*
X127771908Y-85852000D01*
X124916000Y-85852000D01*
X124916000Y-75017714D01*
X125188723Y-75676126D01*
X126126874Y-76614277D01*
X127352627Y-77122000D01*
X128679373Y-77122000D01*
X129905126Y-76614277D01*
X130843277Y-75676126D01*
X130950815Y-75416506D01*
X149491000Y-75416506D01*
X149491000Y-75967494D01*
X149701853Y-76476540D01*
X150091460Y-76866147D01*
X150600506Y-77077000D01*
X151151494Y-77077000D01*
X151660540Y-76866147D01*
X152050147Y-76476540D01*
X152261000Y-75967494D01*
X152261000Y-75416506D01*
X154371000Y-75416506D01*
X154371000Y-75967494D01*
X154581853Y-76476540D01*
X154971460Y-76866147D01*
X155480506Y-77077000D01*
X156031494Y-77077000D01*
X156540540Y-76866147D01*
X156930147Y-76476540D01*
X157141000Y-75967494D01*
X157141000Y-75416506D01*
X156930147Y-74907460D01*
X156540540Y-74517853D01*
X156031494Y-74307000D01*
X155480506Y-74307000D01*
X154971460Y-74517853D01*
X154581853Y-74907460D01*
X154371000Y-75416506D01*
X152261000Y-75416506D01*
X152050147Y-74907460D01*
X151660540Y-74517853D01*
X151151494Y-74307000D01*
X150600506Y-74307000D01*
X150091460Y-74517853D01*
X149701853Y-74907460D01*
X149491000Y-75416506D01*
X130950815Y-75416506D01*
X131351000Y-74450373D01*
X131351000Y-73123627D01*
X130843277Y-71897874D01*
X129905126Y-70959723D01*
X129246714Y-70687000D01*
X167425286Y-70687000D01*
X166766874Y-70959723D01*
X166766874Y-70959723D01*
G37*
X166766874Y-70959723D02*
X165828723Y-71897874D01*
X165321000Y-73123627D01*
X165321000Y-74450373D01*
X165828723Y-75676126D01*
X166766874Y-76614277D01*
X167992627Y-77122000D01*
X169319373Y-77122000D01*
X170545126Y-76614277D01*
X171483277Y-75676126D01*
X171756000Y-75017714D01*
X171756001Y-107354289D01*
X171483277Y-106695874D01*
X170545126Y-105757723D01*
X169319373Y-105250000D01*
X167992627Y-105250000D01*
X166766874Y-105757723D01*
X165828723Y-106695874D01*
X165321000Y-107921627D01*
X165321000Y-109248373D01*
X165828723Y-110474126D01*
X166766874Y-111412277D01*
X167731892Y-111812000D01*
X128940108Y-111812000D01*
X129905126Y-111412277D01*
X130843277Y-110474126D01*
X131351000Y-109248373D01*
X131351000Y-107921627D01*
X130843277Y-106695874D01*
X130676295Y-106528892D01*
X144989514Y-106528892D01*
X145235817Y-107053358D01*
X145664076Y-107443645D01*
X146074110Y-107613476D01*
X146304000Y-107492155D01*
X146304000Y-106299000D01*
X145110181Y-106299000D01*
X144989514Y-106528892D01*
X130676295Y-106528892D01*
X129905126Y-105757723D01*
X128679373Y-105250000D01*
X127352627Y-105250000D01*
X126126874Y-105757723D01*
X125188723Y-106695874D01*
X124916000Y-107354286D01*
X124916000Y-103632000D01*
X144916908Y-103632000D01*
X145032161Y-104211418D01*
X145360375Y-104702625D01*
X145660786Y-104903353D01*
X145235817Y-105290642D01*
X144989514Y-105815108D01*
X145110181Y-106045000D01*
X146304000Y-106045000D01*
X146304000Y-106025000D01*
X146558000Y-106025000D01*
X146558000Y-106045000D01*
X146578000Y-106045000D01*
X146578000Y-106299000D01*
X146558000Y-106299000D01*
X146558000Y-107492155D01*
X146787890Y-107613476D01*
X147197924Y-107443645D01*
X147626183Y-107053358D01*
X147687157Y-106923522D01*
X147900375Y-107242625D01*
X148391582Y-107570839D01*
X148824744Y-107657000D01*
X149117256Y-107657000D01*
X149550418Y-107570839D01*
X150041625Y-107242625D01*
X150241000Y-106944239D01*
X150440375Y-107242625D01*
X150931582Y-107570839D01*
X151364744Y-107657000D01*
X151657256Y-107657000D01*
X152090418Y-107570839D01*
X152581625Y-107242625D01*
X152909839Y-106751418D01*
X153025092Y-106172000D01*
X152909839Y-105592582D01*
X152581625Y-105101375D01*
X152563381Y-105089184D01*
X152608765Y-105080157D01*
X152818809Y-104939809D01*
X152959157Y-104729765D01*
X153008440Y-104482000D01*
X153008440Y-102782000D01*
X152959157Y-102534235D01*
X152818809Y-102324191D01*
X152608765Y-102183843D01*
X152361000Y-102134560D01*
X150661000Y-102134560D01*
X150413235Y-102183843D01*
X150203191Y-102324191D01*
X150062843Y-102534235D01*
X150053816Y-102579619D01*
X150041625Y-102561375D01*
X149550418Y-102233161D01*
X149117256Y-102147000D01*
X148824744Y-102147000D01*
X148596455Y-102192409D01*
X148590000Y-102159958D01*
X148590000Y-99734842D01*
X148689324Y-99635518D01*
X148844000Y-99262095D01*
X148844000Y-98857905D01*
X148689324Y-98484482D01*
X148403518Y-98198676D01*
X148030095Y-98044000D01*
X147625905Y-98044000D01*
X147252482Y-98198676D01*
X146966676Y-98484482D01*
X146812000Y-98857905D01*
X146812000Y-99262095D01*
X146966676Y-99635518D01*
X147066000Y-99734842D01*
X147066001Y-101919368D01*
X146795048Y-102190321D01*
X146577256Y-102147000D01*
X146284744Y-102147000D01*
X145851582Y-102233161D01*
X145360375Y-102561375D01*
X145032161Y-103052582D01*
X144916908Y-103632000D01*
X124916000Y-103632000D01*
X124916000Y-85852000D01*
X127771908Y-85852000D01*
X127887161Y-86431418D01*
X128215375Y-86922625D01*
X128513761Y-87122000D01*
X128215375Y-87321375D01*
X127887161Y-87812582D01*
X127771908Y-88392000D01*
X127887161Y-88971418D01*
X128215375Y-89462625D01*
X128513761Y-89662000D01*
X128215375Y-89861375D01*
X127887161Y-90352582D01*
X127771908Y-90932000D01*
X127887161Y-91511418D01*
X128215375Y-92002625D01*
X128513761Y-92202000D01*
X128215375Y-92401375D01*
X127887161Y-92892582D01*
X127771908Y-93472000D01*
X127887161Y-94051418D01*
X128215375Y-94542625D01*
X128513761Y-94742000D01*
X128215375Y-94941375D01*
X127887161Y-95432582D01*
X127771908Y-96012000D01*
X127887161Y-96591418D01*
X128215375Y-97082625D01*
X128513761Y-97282000D01*
X128215375Y-97481375D01*
X127887161Y-97972582D01*
X127771908Y-98552000D01*
X127887161Y-99131418D01*
X128215375Y-99622625D01*
X128513761Y-99822000D01*
X128215375Y-100021375D01*
X127887161Y-100512582D01*
X127771908Y-101092000D01*
X127887161Y-101671418D01*
X128215375Y-102162625D01*
X128706582Y-102490839D01*
X129139744Y-102577000D01*
X129432256Y-102577000D01*
X129865418Y-102490839D01*
X130356625Y-102162625D01*
X130684839Y-101671418D01*
X130800092Y-101092000D01*
X130684839Y-100512582D01*
X130356625Y-100021375D01*
X130058239Y-99822000D01*
X130356625Y-99622625D01*
X130684839Y-99131418D01*
X130800092Y-98552000D01*
X130684839Y-97972582D01*
X130356625Y-97481375D01*
X130058239Y-97282000D01*
X130356625Y-97082625D01*
X130684839Y-96591418D01*
X130800092Y-96012000D01*
X130684839Y-95432582D01*
X130356625Y-94941375D01*
X130058239Y-94742000D01*
X130356625Y-94542625D01*
X130684839Y-94051418D01*
X130800092Y-93472000D01*
X130684839Y-92892582D01*
X130356625Y-92401375D01*
X130058239Y-92202000D01*
X130356625Y-92002625D01*
X130684839Y-91511418D01*
X130800092Y-90932000D01*
X130684839Y-90352582D01*
X130356625Y-89861375D01*
X130058239Y-89662000D01*
X130356625Y-89462625D01*
X130684839Y-88971418D01*
X130800092Y-88392000D01*
X165871908Y-88392000D01*
X165987161Y-88971418D01*
X166315375Y-89462625D01*
X166613761Y-89662000D01*
X166315375Y-89861375D01*
X165987161Y-90352582D01*
X165871908Y-90932000D01*
X165987161Y-91511418D01*
X166315375Y-92002625D01*
X166613761Y-92202000D01*
X166315375Y-92401375D01*
X165987161Y-92892582D01*
X165871908Y-93472000D01*
X165987161Y-94051418D01*
X166315375Y-94542625D01*
X166613761Y-94742000D01*
X166315375Y-94941375D01*
X165987161Y-95432582D01*
X165871908Y-96012000D01*
X165987161Y-96591418D01*
X166315375Y-97082625D01*
X166613761Y-97282000D01*
X166315375Y-97481375D01*
X165987161Y-97972582D01*
X165871908Y-98552000D01*
X165987161Y-99131418D01*
X166315375Y-99622625D01*
X166613761Y-99822000D01*
X166315375Y-100021375D01*
X165987161Y-100512582D01*
X165871908Y-101092000D01*
X165987161Y-101671418D01*
X166315375Y-102162625D01*
X166806582Y-102490839D01*
X167239744Y-102577000D01*
X167532256Y-102577000D01*
X167965418Y-102490839D01*
X168456625Y-102162625D01*
X168784839Y-101671418D01*
X168900092Y-101092000D01*
X168784839Y-100512582D01*
X168456625Y-100021375D01*
X168158239Y-99822000D01*
X168456625Y-99622625D01*
X168784839Y-99131418D01*
X168900092Y-98552000D01*
X168784839Y-97972582D01*
X168456625Y-97481375D01*
X168158239Y-97282000D01*
X168456625Y-97082625D01*
X168784839Y-96591418D01*
X168900092Y-96012000D01*
X168784839Y-95432582D01*
X168456625Y-94941375D01*
X168158239Y-94742000D01*
X168456625Y-94542625D01*
X168784839Y-94051418D01*
X168900092Y-93472000D01*
X168784839Y-92892582D01*
X168456625Y-92401375D01*
X168158239Y-92202000D01*
X168456625Y-92002625D01*
X168784839Y-91511418D01*
X168900092Y-90932000D01*
X168784839Y-90352582D01*
X168456625Y-89861375D01*
X168158239Y-89662000D01*
X168456625Y-89462625D01*
X168784839Y-88971418D01*
X168900092Y-88392000D01*
X168784839Y-87812582D01*
X168456625Y-87321375D01*
X168137522Y-87108157D01*
X168267358Y-87047183D01*
X168657645Y-86618924D01*
X168827476Y-86208890D01*
X168706155Y-85979000D01*
X167513000Y-85979000D01*
X167513000Y-85999000D01*
X167259000Y-85999000D01*
X167259000Y-85979000D01*
X166065845Y-85979000D01*
X165944524Y-86208890D01*
X166114355Y-86618924D01*
X166504642Y-87047183D01*
X166634478Y-87108157D01*
X166315375Y-87321375D01*
X165987161Y-87812582D01*
X165871908Y-88392000D01*
X130800092Y-88392000D01*
X130684839Y-87812582D01*
X130356625Y-87321375D01*
X130058239Y-87122000D01*
X130356625Y-86922625D01*
X130684839Y-86431418D01*
X130800092Y-85852000D01*
X130684839Y-85272582D01*
X130356625Y-84781375D01*
X130338381Y-84769184D01*
X130383765Y-84760157D01*
X130593809Y-84619809D01*
X130734157Y-84409765D01*
X130783440Y-84162000D01*
X130783440Y-83597750D01*
X165901000Y-83597750D01*
X165901000Y-84288310D01*
X165997673Y-84521699D01*
X166176302Y-84700327D01*
X166385878Y-84787136D01*
X166114355Y-85085076D01*
X165944524Y-85495110D01*
X166065845Y-85725000D01*
X167259000Y-85725000D01*
X167259000Y-83439000D01*
X167513000Y-83439000D01*
X167513000Y-85725000D01*
X168706155Y-85725000D01*
X168827476Y-85495110D01*
X168657645Y-85085076D01*
X168386122Y-84787136D01*
X168595698Y-84700327D01*
X168774327Y-84521699D01*
X168871000Y-84288310D01*
X168871000Y-83597750D01*
X168712250Y-83439000D01*
X167513000Y-83439000D01*
X167259000Y-83439000D01*
X166059750Y-83439000D01*
X165901000Y-83597750D01*
X130783440Y-83597750D01*
X130783440Y-82462000D01*
X130758316Y-82335690D01*
X165901000Y-82335690D01*
X165901000Y-83026250D01*
X166059750Y-83185000D01*
X167259000Y-83185000D01*
X167259000Y-81985750D01*
X167513000Y-81985750D01*
X167513000Y-83185000D01*
X168712250Y-83185000D01*
X168871000Y-83026250D01*
X168871000Y-82335690D01*
X168774327Y-82102301D01*
X168595698Y-81923673D01*
X168362309Y-81827000D01*
X167671750Y-81827000D01*
X167513000Y-81985750D01*
X167259000Y-81985750D01*
X167100250Y-81827000D01*
X166409691Y-81827000D01*
X166176302Y-81923673D01*
X165997673Y-82102301D01*
X165901000Y-82335690D01*
X130758316Y-82335690D01*
X130734157Y-82214235D01*
X130593809Y-82004191D01*
X130383765Y-81863843D01*
X130136000Y-81814560D01*
X128436000Y-81814560D01*
X128188235Y-81863843D01*
X127978191Y-82004191D01*
X127837843Y-82214235D01*
X127788560Y-82462000D01*
X127788560Y-84162000D01*
X127837843Y-84409765D01*
X127978191Y-84619809D01*
X128188235Y-84760157D01*
X128233619Y-84769184D01*
X128215375Y-84781375D01*
X127887161Y-85272582D01*
X127771908Y-85852000D01*
X124916000Y-85852000D01*
X124916000Y-75017714D01*
X125188723Y-75676126D01*
X126126874Y-76614277D01*
X127352627Y-77122000D01*
X128679373Y-77122000D01*
X129905126Y-76614277D01*
X130843277Y-75676126D01*
X130950815Y-75416506D01*
X149491000Y-75416506D01*
X149491000Y-75967494D01*
X149701853Y-76476540D01*
X150091460Y-76866147D01*
X150600506Y-77077000D01*
X151151494Y-77077000D01*
X151660540Y-76866147D01*
X152050147Y-76476540D01*
X152261000Y-75967494D01*
X152261000Y-75416506D01*
X154371000Y-75416506D01*
X154371000Y-75967494D01*
X154581853Y-76476540D01*
X154971460Y-76866147D01*
X155480506Y-77077000D01*
X156031494Y-77077000D01*
X156540540Y-76866147D01*
X156930147Y-76476540D01*
X157141000Y-75967494D01*
X157141000Y-75416506D01*
X156930147Y-74907460D01*
X156540540Y-74517853D01*
X156031494Y-74307000D01*
X155480506Y-74307000D01*
X154971460Y-74517853D01*
X154581853Y-74907460D01*
X154371000Y-75416506D01*
X152261000Y-75416506D01*
X152050147Y-74907460D01*
X151660540Y-74517853D01*
X151151494Y-74307000D01*
X150600506Y-74307000D01*
X150091460Y-74517853D01*
X149701853Y-74907460D01*
X149491000Y-75416506D01*
X130950815Y-75416506D01*
X131351000Y-74450373D01*
X131351000Y-73123627D01*
X130843277Y-71897874D01*
X129905126Y-70959723D01*
X129246714Y-70687000D01*
X167425286Y-70687000D01*
X166766874Y-70959723D01*
G04 #@! TD*
M02*
